<?xml version="1.0" standalone="no"?>
<!DOCTYPE svg PUBLIC "-//W3C//DTD SVG 1.1//EN" "http://www.w3.org/Graphics/SVG/1.1/DTD/svg11.dtd" >
<svg xmlns="http://www.w3.org/2000/svg" xmlns:xlink="http://www.w3.org/1999/xlink" version="1.1">
<metadata>
Created by FontForge 20190801 at Fri Feb 19 13:46:25 2016
 By root
Copyright (c) 2014, Linus Romer, with Reserved Font Name Miama Nueva.

This Font Software is licensed under the SIL Open Font License, Version 1.1.
</metadata>
<defs>
<font id="MiamaNueva" horiz-adv-x="300" >
  <font-face 
    font-family="Miama Nueva"
    font-weight="400"
    font-style="italic"
    font-stretch="normal"
    units-per-em="1000"
    panose-1="2 0 6 3 0 0 0 0 0 0"
    ascent="800"
    descent="-200"
    x-height="448"
    cap-height="939"
    bbox="-814 -1230 1872 1468"
    underline-thickness="48"
    underline-position="-128"
    slope="-28"
    stemh="40"
    stemv="74"
    unicode-range="U+0020-10147"
  />
<missing-glyph horiz-adv-x="500" 
d="M50 0v533h400v-533h-400zM100 50h300v433h-300v-433z" />
    <glyph glyph-name="ff" unicode="ff" horiz-adv-x="800" 
d="M12 -225c133 56 275 101 397 144c43 90 89 185 137 284c-40 -48 -79 -84 -106 -105c-108 -82 -267 -135 -346 -164c-24 -48 -53 -103 -82 -159zM-328 -792c39 -42 99 -65 164 -65c133 0 284 191 349 318c0 0 134 269 214 436c-119 -42 -267 -89 -402 -151
c-89 -167 -180 -332 -180 -332c-36 -68 -86 -142 -145 -206zM-100 -302c-157 -87 -277 -201 -277 -362c0 -38 10 -71 27 -99c42 56 78 117 104 168c0 0 73 146 146 293zM-733 -700c0 -111 58 -215 166 -215c60 0 119 40 171 96c-32 36 -52 82 -52 136c0 190 162 318 366 416
c30 60 58 118 80 164c-305 -114 -731 -237 -731 -597zM840 98c-108 -82 -256 -141 -349 -176c-100 -201 -243 -452 -243 -452c-87 -163 -274 -365 -468 -365c-58 0 -113 20 -155 56c-73 -66 -156 -112 -242 -112c-94 0 -183 95 -183 222c0 378 488 535 811 652
c50 103 101 211 157 325c79 160 161 318 227 434c131 230 247 334 357 334c80 0 104 -70 104 -93c0 -15 -6 -19 -22 -38c-20 -25 -30 -44 -37 -44c-2 0 -3 2 -3 3c0 4 6 5 6 23c0 50 -39 109 -101 109c-87 0 -160 -112 -254 -300c-90 -179 -156 -328 -224 -476
c-37 -81 -75 -163 -114 -242c77 26 225 74 325 150c60 46 96 90 136 140c82 168 198 416 264 532c132 230 237 324 347 324c70 0 91 -74 91 -97c0 -48 -12 -75 -40 -118c-4 -7 -20 -20 -37 -27c-9 -4 -16 -6 -20 -6c-2 0 -3 1 -3 2s0 2 1 3c28 43 37 67 37 114
c0 50 -40 89 -82 89c-87 0 -150 -102 -244 -290c-91 -182 -176 -385 -261 -574c-37 -81 -79 -176 -118 -255c87 29 229 87 329 163c60 46 96 90 136 140c4 6 6 6 8 6s4 -2 4 -4s0 -2 -2 -6c-50 -68 -104 -120 -138 -146z" />
    <glyph glyph-name="fi" unicode="fi" horiz-adv-x="764" 
d="M-737 -640c0 -115 85 -209 193 -209c132 0 233 127 298 254c0 0 164 325 244 492c-305 -114 -735 -215 -735 -537zM440 98c-108 -82 -267 -135 -346 -164c-100 -201 -277 -520 -277 -520c-87 -163 -233 -299 -413 -299c-105 0 -218 83 -218 210c0 360 502 481 825 598
c50 103 99 211 156 325c166 330 350 779 595 779c91 0 140 -69 140 -147s-42 -78 -77 -107c-11 -9 -16 -18 -16 -28c0 -25 26 -40 26 -63c0 -30 -23 -52 -52 -52c-22 0 -42 20 -42 45c0 28 32 59 52 79c40 40 47 59 47 116c0 75 -53 120 -129 120
c-174 0 -342 -459 -494 -789c-37 -81 -71 -164 -110 -243c77 26 225 74 325 150c30 23 54 46 76 69c46 89 120 185 120 223c0 26 -8 32 -20 32c-20 0 -50 -18 -74 -34c-6 -4 -8 -6 -10 -6s-4 2 -4 4s0 4 6 8c8 6 76 56 120 56c40 0 59 -21 59 -49c0 -84 -152 -246 -152 -330
c0 -40 33 -55 75 -55s112 40 168 82c60 46 96 90 136 140c4 6 6 6 8 6s4 -2 4 -4s0 -2 -2 -6c-50 -68 -104 -120 -138 -146c-52 -42 -150 -106 -234 -106c-56 0 -97 25 -97 77c0 22 8 48 20 76c-20 -20 -39 -36 -53 -47z" />
    <glyph glyph-name="fl" unicode="fl" horiz-adv-x="802" 
d="M568 248c70 123 129 230 200 358c62 109 191 331 191 437c0 42 -28 82 -63 82c-18 0 -45 -6 -79 -28c39 -17 50 -62 50 -84c0 -25 -4 -30 -32 -42c-22 -9 -26 -16 -33 -16c-2 0 -3 2 -3 3c0 4 6 5 6 23c0 54 -37 83 -79 83c-87 0 -150 -102 -244 -290
c-91 -182 -176 -385 -261 -574c-37 -81 -75 -163 -114 -242c77 26 225 74 325 150c60 46 96 90 136 140zM-733 -700c0 -111 58 -215 166 -215c132 0 256 193 321 320c0 0 164 325 244 492c-305 -114 -731 -237 -731 -597zM654 278c-54 -106 -80 -152 -80 -210
c0 -32 22 -61 58 -61c153 0 263 147 338 241c4 6 6 6 8 6s4 -2 4 -4s0 -2 -2 -6c-97 -131 -218 -267 -392 -267c-58 0 -95 27 -95 79c0 41 16 80 46 138c-37 -44 -74 -77 -99 -96c-108 -82 -267 -135 -346 -164c-100 -201 -277 -520 -277 -520c-87 -163 -254 -365 -434 -365
c-94 0 -183 95 -183 222c0 378 488 535 811 652c50 103 101 211 157 325c82 168 198 416 264 532c132 230 237 324 347 324c9 0 17 -1 24 -3c54 37 98 50 135 50c78 0 96 -66 96 -110c0 -85 -98 -257 -215 -462c-64 -111 -99 -175 -165 -301z" />
    <glyph glyph-name="ffi" unicode="ffi" horiz-adv-x="1164" 
d="M543 200c-39 -46 -77 -82 -103 -102c-108 -82 -267 -135 -346 -164c-23 -47 -51 -100 -79 -154c134 56 277 100 396 143c43 88 85 181 132 277zM-100 -302c-138 -79 -237 -183 -237 -338c0 -30 6 -57 16 -83c30 44 55 89 75 128c0 0 73 146 146 293zM-3 -253
c-89 -168 -180 -333 -180 -333c-31 -57 -71 -120 -118 -176c35 -53 92 -87 157 -87c132 0 233 127 298 254c0 0 164 325 244 492c-125 -47 -272 -91 -401 -150zM168 248c81 168 165 328 231 444c130 230 231 394 390 394c97 0 122 -81 122 -124c0 -12 -19 -21 -31 -33
c-16 -16 -28 -30 -34 -30c-3 0 -5 2 -5 6s5 14 5 26c0 37 -16 118 -106 118c-125 0 -197 -175 -291 -363c-55 -110 -96 -196 -138 -288c-28 -60 -57 -124 -90 -198c-37 -81 -75 -163 -114 -242c77 26 225 74 325 150c59 45 94 88 133 137c1 1 1 2 2 3
c166 330 350 779 595 779c91 0 140 -69 140 -147s-42 -78 -77 -107c-11 -9 -16 -18 -16 -28c0 -25 26 -40 26 -63c0 -30 -23 -52 -52 -52c-22 0 -42 20 -42 45c0 28 32 59 52 79c40 40 47 59 47 116c0 75 -53 120 -129 120c-174 0 -342 -459 -494 -789
c-37 -81 -71 -164 -110 -243c77 26 225 74 325 150c30 23 54 46 76 69c46 89 120 185 120 223c0 26 -8 32 -20 32c-20 0 -50 -18 -74 -34c-6 -4 -8 -6 -10 -6s-4 2 -4 4s0 4 6 8c8 6 76 56 120 56c40 0 59 -21 59 -49c0 -84 -152 -246 -152 -330c0 -40 33 -55 75 -55
s112 40 168 82c60 46 96 90 136 140c4 6 6 6 8 6s4 -2 4 -4s0 -2 -2 -6c-50 -68 -104 -120 -138 -146c-52 -42 -150 -106 -234 -106c-56 0 -97 25 -97 77c0 22 8 48 20 76c-20 -20 -39 -36 -53 -47c-108 -82 -267 -135 -346 -164c-100 -201 -277 -520 -277 -520
c-87 -163 -233 -299 -413 -299c-57 0 -116 24 -158 66c-78 -77 -168 -132 -263 -132c-94 0 -183 95 -183 222c0 378 488 535 811 652c50 103 101 211 157 325zM-733 -700c0 -111 58 -215 166 -215c69 0 135 52 192 120c-24 33 -39 74 -39 120c0 195 148 320 334 412
c29 58 56 115 78 160c-305 -114 -731 -237 -731 -597z" />
    <glyph glyph-name="ffl" unicode="ffl" horiz-adv-x="1202" 
d="M968 248c70 123 129 230 200 358c62 109 191 331 191 437c0 42 -28 82 -63 82c-18 0 -45 -6 -79 -28c39 -17 50 -62 50 -84c0 -25 -4 -30 -32 -42c-22 -9 -26 -16 -33 -16c-2 0 -3 2 -3 3c0 4 6 5 6 23c0 54 -37 83 -79 83c-87 0 -150 -102 -244 -290
c-91 -182 -177 -385 -261 -574c-37 -81 -79 -176 -118 -255c87 29 229 87 329 163c60 46 96 90 136 140zM546 203c-40 -48 -79 -84 -106 -105c-108 -82 -267 -135 -346 -164c-24 -48 -53 -103 -82 -159c133 56 275 101 397 144c43 90 89 185 137 284zM-100 -302
c-157 -87 -277 -201 -277 -362c0 -38 10 -71 27 -99c42 56 78 117 104 168c0 0 73 146 146 293zM-3 -254c-89 -167 -180 -332 -180 -332c-36 -68 -86 -142 -145 -206c39 -42 99 -65 164 -65c133 0 284 191 349 318c0 0 134 269 214 436c-119 -42 -267 -89 -402 -151z
M1054 278c-54 -106 -80 -152 -80 -210c0 -32 22 -61 58 -61c153 0 263 147 338 241c4 6 6 6 8 6s4 -2 4 -4s0 -2 -2 -6c-97 -131 -218 -267 -392 -267c-58 0 -95 27 -95 79c0 41 16 80 46 138c-37 -44 -74 -77 -99 -96c-108 -82 -256 -141 -349 -176
c-100 -201 -243 -452 -243 -452c-87 -163 -274 -365 -468 -365c-58 0 -113 20 -155 56c-73 -66 -156 -112 -242 -112c-94 0 -183 95 -183 222c0 378 488 535 811 652c50 103 101 211 157 325c79 160 161 318 227 434c131 230 247 334 357 334c80 0 104 -70 104 -93
c0 -15 -6 -19 -22 -38c-20 -25 -30 -44 -37 -44c-2 0 -3 2 -3 3c0 4 6 5 6 23c0 50 -39 109 -101 109c-87 0 -160 -112 -254 -300c-90 -179 -156 -328 -224 -476c-37 -81 -75 -163 -114 -242c77 26 225 74 325 150c60 46 96 90 136 140c81 168 198 416 264 532
c132 230 237 324 347 324c9 0 17 -1 24 -3c54 37 98 50 135 50c78 0 96 -66 96 -110c0 -85 -98 -257 -215 -462c-64 -111 -99 -175 -165 -301zM-733 -700c0 -111 58 -215 166 -215c60 0 119 40 171 96c-32 36 -52 82 -52 136c0 190 162 318 366 416c30 60 58 118 80 164
c-305 -114 -731 -237 -731 -597z" />
    <glyph glyph-name=".notdef" horiz-adv-x="500" 
d="M50 0v533h400v-533h-400zM100 50h300v433h-300v-433z" />
    <glyph glyph-name="endash" unicode="&#x2013;" horiz-adv-x="780" 
d="M526 350c107 0 236 2 250 2c2 0 5 0 5 -2s-2 -4 -10 -22c-8 -19 -14 -30 -20 -30c-26 0 -178 6 -303 6c-98 0 -239 -2 -276 -2c-2 0 -4 0 -4 2s4 5 15 24c8 14 15 26 22 26c65 0 202 -4 321 -4z" />
    <glyph glyph-name="uni032F" unicode="&#x32f;" 
d="M172 -9c64 0 80 -40 80 -74c0 -14 -4 -28 -10 -44c-4 -10 -34 -26 -46 -26c-2 0 -2 2 -2 2c0 2 10 22 10 44c0 46 -36 70 -78 70c-30 0 -92 -12 -144 -88c-4 -4 -16 -14 -30 -20c-10 -4 -16 -6 -18 -6h-2c0 12 122 142 240 142z" />
    <glyph glyph-name="u10144" unicode="&#x10144;" horiz-adv-x="1200" 
d="M867 364v63c0 107 -2 234 -2 262c0 2 -3 3 -4 3c-3 0 -9 -6 -17 -12c-150 -120 -290 -247 -390 -340l1 -1c194 0 338 0 383 3c26 2 29 14 29 22zM376 296c-4 0 -9 1 -9 7s17 22 37 38c85 69 208 175 437 370c27 23 33 25 59 35c12 5 26 11 32 11c5 0 10 -3 10 -9
c0 0 -4 -49 -4 -115c0 -84 5 -276 5 -306c0 -18 -13 -17 -74 -18c-159 -2 -232 -5 -432 -5c-35 0 -55 -8 -61 -8zM989 829c-102 0 -317 5 -388 9c-105 -177 -287 -536 -384 -731c-31 -63 -62 -82 -100 -97c-41 -16 -46 -23 -59 -23c-5 0 -7 3 -7 5c0 6 11 11 34 44
c46 66 81 122 130 212c69 127 300 541 300 588c0 21 -21 21 -21 33c0 8 8 9 19 9c95 0 259 -8 418 -8c267 0 434 15 455 15c9 0 14 -2 14 -7c0 -9 -24 -6 -50 -48c-22 -36 -90 -156 -163 -291c-48 -88 -88 -166 -108 -208c-6 -12 -21 -18 -33 -24s-20 -14 -24 -14
c-3 0 -5 1 -5 7c0 13 44 70 130 232c84 158 124 236 124 261c0 20 -4 39 -42 39c-18 0 -82 -3 -240 -3z" />
    <glyph glyph-name="u10145" unicode="&#x10145;" horiz-adv-x="1200" 
d="M890 322c21 0 41 15 52 23c3 2 8 5 11 5s6 -1 6 -5s-7 -8 -10 -10c-37 -25 -89 -63 -125 -63c-22 0 -29 22 -29 42c0 37 54 139 86 195c-13 5 -34 7 -88 7c-88 0 -153 -4 -164 -10c-43 -70 -92 -161 -113 -200c-4 -8 -29 -7 -47 -12c-17 -5 -23 -9 -29 -9c-2 0 -4 1 -4 4
c0 4 8 17 39 65c0 0 47 78 87 142c-4 17 -11 22 -11 28c0 5 3 7 5 7c6 0 12 -1 27 -1c13 22 25 42 32 56c17 33 38 70 38 101c0 21 -6 39 -21 39c-3 0 -11 -1 -19 -4s-12 -8 -15 -8c-2 0 -4 3 -4 5s5 7 16 13c15 8 30 12 57 12c29 0 49 -20 49 -56c0 -23 -16 -60 -47 -115
c-6 -10 -16 -25 -26 -43c26 0 61 -1 106 -1c93 0 118 1 146 3c42 73 76 127 115 190c6 9 21 9 40 12c25 4 36 10 40 10c2 0 8 -2 8 -6c0 -8 -9 -8 -38 -48c-49 -68 -67 -92 -108 -164c-36 -63 -79 -151 -79 -187c0 -7 7 -17 17 -17zM989 829c-102 0 -317 5 -388 9
c-105 -177 -287 -536 -384 -731c-31 -63 -62 -82 -100 -97c-41 -16 -46 -23 -59 -23c-5 0 -7 3 -7 5c0 6 11 11 34 44c46 66 81 122 130 212c69 127 300 541 300 588c0 21 -21 21 -21 33c0 8 8 9 19 9c95 0 259 -8 418 -8c267 0 434 15 455 15c9 0 14 -2 14 -7
c0 -9 -24 -6 -50 -48c-22 -36 -90 -156 -163 -291c-48 -88 -88 -166 -108 -208c-6 -12 -21 -18 -33 -24s-20 -14 -24 -14c-3 0 -5 1 -5 7c0 13 44 70 130 232c84 158 124 236 124 261c0 20 -4 39 -42 39c-18 0 -82 -3 -240 -3z" />
    <glyph glyph-name="u10146" unicode="&#x10146;" horiz-adv-x="1200" 
d="M1090 713c-55 -27 -121 -66 -295 -185c4 -68 8 -117 26 -182c11 -39 37 -68 68 -68c13 0 27 5 38 11c7 4 11 10 13 10c4 0 5 -2 5 -5c0 -9 -33 -38 -79 -38c-43 0 -78 12 -106 65c-15 28 -24 91 -29 170c-98 -69 -217 -158 -256 -188c-15 -11 -23 -11 -46 -16
c-15 -3 -18 -6 -25 -6c-4 0 -6 1 -6 4c0 7 17 15 50 35c82 50 165 114 281 193c-4 49 -8 97 -11 125c-6 50 -27 69 -49 69c-16 0 -29 -4 -50 -18c-8 -6 -15 -10 -18 -10s-5 2 -5 5s4 8 13 15c44 34 77 45 105 45c39 0 66 -26 71 -80c3 -30 7 -69 10 -111
c83 57 167 112 234 156c23 15 41 22 58 25c16 3 35 3 44 3c5 0 10 -1 10 -4c0 -4 -4 -5 -6 -5c-6 0 -18 -2 -45 -15zM989 829c-102 0 -317 5 -388 9c-105 -177 -287 -536 -384 -731c-31 -63 -62 -82 -100 -97c-41 -16 -46 -23 -59 -23c-5 0 -7 3 -7 5c0 6 11 11 34 44
c46 66 81 122 130 212c69 127 300 541 300 588c0 21 -21 21 -21 33c0 8 8 9 19 9c95 0 259 -8 418 -8c267 0 434 15 455 15c9 0 14 -2 14 -7c0 -9 -24 -6 -50 -48c-22 -36 -90 -156 -163 -291c-48 -88 -88 -166 -108 -208c-6 -12 -21 -18 -33 -24s-20 -14 -24 -14
c-3 0 -5 1 -5 7c0 13 44 70 130 232c84 158 124 236 124 261c0 20 -4 39 -42 39c-18 0 -82 -3 -240 -3z" />
    <glyph glyph-name="u10147" unicode="&#x10147;" horiz-adv-x="1200" 
d="M591 732c15 8 35 12 45 12c39 0 54 -27 54 -53c0 -15 -3 -29 -8 -43c33 34 83 85 126 85c30 0 62 -14 62 -72c71 65 108 90 158 90c28 0 60 -13 60 -58c0 -80 -163 -183 -163 -364c0 -114 62 -151 115 -151c51 0 77 30 94 51c11 14 11 16 14 16c1 0 3 -1 3 -3
c0 -13 -53 -92 -139 -92c-78 0 -145 52 -145 147c0 179 160 281 160 374c0 27 -16 37 -34 37c-34 0 -75 -20 -129 -76c-4 -10 -10 -20 -17 -30s-37 -28 -46 -28c-4 0 -7 3 -7 7c0 10 10 21 17 30c4 8 8 24 8 35c0 17 -8 43 -44 43c-35 0 -63 -34 -92 -80
c-63 -103 -121 -209 -155 -272c-16 -28 -39 -30 -55 -35c-21 -7 -28 -8 -34 -8c-2 0 -4 2 -4 3c0 3 7 5 20 23c31 43 78 115 108 169c51 94 77 145 77 189c0 28 -6 48 -27 48c-3 0 -11 -1 -19 -4s-12 -8 -15 -8c-2 0 -4 3 -4 5s5 7 16 13zM989 829c-102 0 -317 5 -388 9
c-105 -177 -287 -536 -384 -731c-31 -63 -62 -82 -100 -97c-41 -16 -46 -23 -59 -23c-5 0 -7 3 -7 5c0 6 11 11 34 44c46 66 81 122 130 212c69 127 300 541 300 588c0 21 -21 21 -21 33c0 8 8 9 19 9c95 0 259 -8 418 -8c267 0 434 15 455 15c9 0 14 -2 14 -7
c0 -9 -24 -6 -50 -48c-22 -36 -90 -156 -163 -291c-48 -88 -88 -166 -108 -208c-6 -12 -21 -18 -33 -24s-20 -14 -24 -14c-3 0 -5 1 -5 7c0 13 44 70 130 232c84 158 124 236 124 261c0 20 -4 39 -42 39c-18 0 -82 -3 -240 -3z" />
    <glyph glyph-name="uni03DB" unicode="&#x3db;" horiz-adv-x="560" 
d="M381 406c-111 0 -213 -124 -213 -224c0 -91 142 -96 142 -182c0 -68 -140 -142 -208 -142c-46 0 -71 31 -71 37c0 9 7 9 24 21s30 30 34 30c3 0 4 -4 4 -8c0 -19 35 -40 69 -40c14 0 84 6 84 64c0 82 -150 96 -150 192c0 160 222 297 331 297c68 0 86 -13 139 -13
c22 0 40 3 62 15c9 5 14 10 17 10c1 0 2 -2 2 -2c0 -11 -57 -73 -130 -73c-46 0 -78 18 -136 18z" />
    <glyph glyph-name="uniE009" unicode="&#xe009;" horiz-adv-x="500" 
d="M331 406c-61 0 -119 -23 -119 -98c0 -91 142 -85 142 -179c0 -68 -141 -142 -209 -142c-46 0 -71 31 -71 37c0 9 7 9 24 21s30 30 34 30c3 0 4 -4 4 -8c0 -19 35 -40 69 -40c14 0 84 6 84 64c0 85 -148 79 -148 175c0 84 142 185 233 185c68 0 79 -13 132 -13
c22 0 40 3 62 15c9 5 14 10 17 10c1 0 2 -2 2 -2c0 -11 -57 -73 -130 -73c-46 0 -68 18 -126 18z" />
    <glyph glyph-name="uni1FBE" unicode="&#x1fbe;" horiz-adv-x="290" 
d="M210 -340c-28 -16 -68 -31 -97 -31c-28 0 -51 15 -51 45c0 58 92 158 92 190c0 10 -6 15 -13 15c-12 0 -26 -6 -42 -15c-4 -2 -7 -4 -8 -4c-2 0 -4 1 -4 4c0 1 3 5 7 7c6 4 49 31 79 31c23 0 37 -21 37 -39c0 -49 -85 -130 -85 -179c0 -25 13 -33 29 -33s36 8 51 16
c4 2 7 4 8 4c2 0 4 -1 4 -4c0 -1 -3 -5 -7 -7z" />
    <glyph glyph-name="uni1FBC" unicode="&#x1fbc;" horiz-adv-x="980" 
d="M408 -342c-28 -16 -68 -31 -97 -31c-28 0 -51 15 -51 45c0 58 92 158 92 190c0 10 -6 15 -13 15c-12 0 -26 -6 -42 -15c-4 -2 -7 -4 -8 -4c-2 0 -4 1 -4 4c0 1 3 5 7 7c6 4 49 31 79 31c23 0 37 -21 37 -39c0 -49 -85 -130 -85 -179c0 -25 13 -33 29 -33s36 8 51 16
c4 2 7 4 8 4c2 0 4 -1 4 -4c0 -1 -3 -5 -7 -7zM1020 98c-30 -24 -140 -106 -234 -106c-82 0 -96 56 -96 162c0 48 6 100 12 142c-72 -8 -96 -10 -120 -10c-74 0 -148 22 -190 22c-8 0 -14 0 -20 -2c-112 -128 -212 -236 -270 -284c-24 -18 -48 -24 -86 -28
c-16 -2 -34 -7 -54 -7c-6 0 -12 1 -12 7c0 8 8 8 16 10c18 6 46 24 64 40c168 146 368 334 716 740c72 84 76 78 130 100c12 4 34 18 44 18c5 0 8 -5 8 -10c0 -18 -18 -51 -22 -62c-37 -96 -90 -318 -114 -498c72 21 134 76 144 76c4 0 6 -2 6 -6c0 -9 -79 -63 -152 -88
c-6 -52 -10 -98 -10 -136c0 -116 23 -149 61 -149c42 0 115 37 171 79c60 46 96 90 136 140c4 6 6 6 8 6s4 -2 4 -4s0 -2 -2 -6c-50 -68 -104 -120 -138 -146zM404 342h34c78 0 158 -24 228 -24c10 0 24 0 40 2c26 206 100 478 100 482s-1 6 -3 6c-4 0 -20 -16 -33 -32z" />
    <glyph glyph-name="uni1FCC" unicode="&#x1fcc;" horiz-adv-x="1025" 
d="M469 -342c-28 -16 -68 -31 -97 -31c-28 0 -51 15 -51 45c0 58 92 158 92 190c0 10 -6 15 -13 15c-12 0 -26 -6 -42 -15c-4 -2 -7 -4 -8 -4c-2 0 -4 1 -4 4c0 1 3 5 7 7c6 4 49 31 79 31c23 0 37 -21 37 -39c0 -49 -85 -130 -85 -179c0 -25 13 -33 29 -33s36 8 51 16
c4 2 7 4 8 4c2 0 4 -1 4 -4c0 -1 -3 -5 -7 -7zM386 409c-1 -2 -3 -5 -4 -7c-79 -153 -155 -298 -202 -392c-8 -16 -49 -14 -79 -20c-28 -6 -29 -20 -39 -20c-4 0 -4 4 -4 6c0 8 15 32 71 130c0 0 91 158 163 285c-5 34 -14 48 -14 59c0 6 5 10 6 10c9 0 22 0 46 -1
c23 43 44 82 57 110c33 69 74 162 74 224c0 28 -11 53 -50 53c-15 0 -77 -4 -137 -64c-12 -12 -18 -20 -22 -20s-6 2 -6 6s8 14 22 28c66 68 148 90 186 90c48 0 95 -33 95 -95c0 -44 -31 -132 -91 -247c-11 -21 -28 -52 -47 -87c43 -1 98 -1 172 -1c152 1 193 3 239 7
c77 146 139 253 209 379c10 18 33 16 65 22c41 8 64 22 71 22c4 0 6 -2 6 -6c0 -6 -17 -8 -62 -76c-89 -135 -139 -211 -211 -355c-66 -131 -139 -277 -139 -346c0 -50 30 -79 76 -79c50 0 147 28 220 84c60 46 96 90 136 140c4 6 6 6 8 6s4 -2 4 -4s0 -2 -2 -6
c-50 -68 -104 -120 -138 -146c-150 -112 -240 -122 -300 -122c-71 0 -105 47 -105 108c0 80 70 202 137 332c-21 10 -55 13 -143 13c-144 0 -249 -9 -268 -20z" />
    <glyph glyph-name="uni1FFC" unicode="&#x1ffc;" horiz-adv-x="1084" 
d="M529 -342c-28 -16 -68 -31 -97 -31c-28 0 -51 15 -51 45c0 58 92 158 92 190c0 10 -6 15 -13 15c-12 0 -26 -6 -42 -15c-4 -2 -7 -4 -8 -4c-2 0 -4 1 -4 4c0 1 3 5 7 7c6 4 49 31 79 31c23 0 37 -21 37 -39c0 -49 -85 -130 -85 -179c0 -25 13 -33 29 -33s36 8 51 16
c4 2 7 4 8 4c2 0 4 -1 4 -4c0 -1 -3 -5 -7 -7zM264 29c-37 47 -94 148 -94 268c0 248 264 589 643 589c133 0 294 -90 294 -283c0 -116 -34 -237 -199 -411c-49 -52 -105 -92 -163 -142c96 -13 109 -25 196 -25c40 0 57 1 69 8c10 6 10 13 16 13c2 0 3 -2 3 -4
c0 -10 -16 -25 -37 -52c-19 -25 -40 -30 -79 -30c-102 0 -160 35 -230 35c-25 -28 -44 -29 -56 -29c-3 0 -8 5 -8 12c2 24 28 29 62 53c68 55 143 108 199 181c75 97 127 218 127 358c0 175 -119 266 -243 266c-355 0 -500 -303 -500 -512c0 -139 56 -229 107 -297
c8 -10 17 -23 17 -26c0 -9 -6 -10 -18 -10c-16 0 -40 3 -55 3c-128 0 -148 -18 -230 -18c-35 0 -50 9 -56 27c-8 24 -16 45 -16 48s1 5 4 5c4 0 4 -10 15 -18s31 -16 53 -16c46 0 81 8 106 8c19 0 73 -1 73 -1z" />
    <glyph glyph-name="uniE00A" unicode="&#xe00a;" horiz-adv-x="980" 
d="M1020 98c-30 -24 -140 -106 -234 -106c-82 0 -96 56 -96 162c0 48 6 100 12 142c-72 -8 -96 -10 -120 -10c-74 0 -148 22 -190 22c-8 0 -14 0 -20 -2c-112 -128 -212 -236 -270 -284c-24 -18 -48 -24 -86 -28c-16 -2 -34 -7 -54 -7c-6 0 -12 1 -12 7c0 8 8 8 16 10
c18 6 46 24 64 40c168 146 368 334 716 740c72 84 76 78 130 100c12 4 34 18 44 18c5 0 8 -5 8 -10c0 -18 -18 -51 -22 -62c-37 -96 -90 -318 -114 -498c72 21 134 76 144 76c4 0 6 -2 6 -6c0 -9 -79 -63 -152 -88c-6 -52 -10 -98 -10 -136c0 -116 23 -149 61 -149
c42 0 115 37 171 79c60 46 96 90 136 140c4 6 6 6 8 6s4 -2 4 -4s0 -2 -2 -6c-50 -68 -104 -120 -138 -146zM404 342h34c78 0 158 -24 228 -24c10 0 24 0 40 2c26 206 100 478 100 482s-1 6 -3 6c-4 0 -20 -16 -33 -32z" />
    <glyph glyph-name="uniE00B" unicode="&#xe00b;" horiz-adv-x="665" 
d="M449 432c-66 -92 -205 -388 -228 -422c-15 -22 -48 -10 -102 -28c-23 -8 -22 -14 -31 -14c-5 0 -12 2 -12 6c0 6 30 34 51 66c139 210 202 332 238 413c28 63 44 141 44 211c0 91 -73 180 -163 180c-29 0 -96 -16 -142 -62c-12 -12 -18 -20 -22 -20s-6 2 -6 6s8 14 22 28
c66 68 141 90 190 90c135 0 204 -98 204 -201c0 -60 -11 -116 -25 -164h1c168 165 259 244 460 336c48 22 102 32 133 32c37 0 73 -21 73 -35c0 -2 -1 -4 -3 -4s-3 4 -13 4c-32 0 -72 -9 -118 -20c-219 -52 -388 -175 -551 -402zM635 1112c24 0 42 -18 42 -38
c0 -33 -31 -60 -60 -60c-22 0 -33 19 -33 44c0 24 22 54 51 54zM830 1107c24 0 34 -17 34 -37c0 -33 -25 -57 -54 -57c-22 0 -33 17 -33 42c0 24 26 52 53 52z" />
    <glyph glyph-name="uniE00C" unicode="&#xe00c;" horiz-adv-x="658" 
d="M380 139c27 93 70 182 70 226c0 46 -24 65 -57 65c-135 0 -253 -225 -253 -322c0 -44 14 -73 64 -73c44 0 93 28 176 104zM698 98c-112 -88 -191 -113 -254 -113c-34 0 -77 9 -77 74c0 11 6 38 9 52c-82 -80 -152 -115 -226 -115c-59 0 -93 43 -93 104
c0 138 214 351 364 351c71 0 103 -33 103 -73c0 -42 -37 -106 -57 -154c60 71 92 106 129 149c19 22 32 32 50 38c23 8 34 10 38 10c2 0 2 -2 2 -2c0 -5 -4 -3 -17 -13s-38 -35 -45 -42c-53 -55 -115 -122 -170 -182c-9 -34 -16 -61 -16 -92c0 -42 11 -64 68 -64
c49 0 128 40 184 82c60 46 96 90 136 140c4 6 6 6 8 6s4 -2 4 -4s0 -2 -2 -6c-50 -68 -104 -120 -138 -146z" />
    <glyph glyph-name="uniE00D" unicode="&#xe00d;" horiz-adv-x="532" 
d="M147 460c33 0 58 -17 58 -64c0 -74 -115 -169 -115 -279c0 -73 50 -103 102 -103c166 0 222 178 222 330c0 47 -16 41 -16 71c0 13 21 21 34 28c16 9 28 23 36 23c6 0 8 -5 8 -9c0 -16 -2 -19 -2 -39c0 -22 22 -56 64 -56c38 0 86 18 120 42c6 4 8 6 10 6s4 -2 4 -4
s0 -4 -6 -8c-26 -18 -97 -58 -142 -58c-29 0 -42 6 -42 6c0 -200 -151 -366 -338 -366c-110 0 -130 92 -130 132s10 78 44 136c33 55 76 111 76 146c0 24 -7 38 -25 38c-15 0 -41 -18 -65 -34c-6 -4 -8 -6 -10 -6s-4 2 -4 4s0 4 6 8c8 6 74 56 111 56zM294 692
c24 0 42 -18 42 -38c0 -33 -31 -60 -60 -60c-22 0 -33 19 -33 44c0 24 22 54 51 54zM489 687c24 0 34 -17 34 -37c0 -33 -25 -57 -54 -57c-22 0 -33 17 -33 42c0 24 26 52 53 52z" />
    <glyph glyph-name="uni02CF" unicode="&#x2cf;" horiz-adv-x="246" 
d="M17 -213l186 189c17 17 23 24 28 24c6 0 15 -21 15 -27s-4 -15 -10 -19l-211 -180c-3 -3 -14 -13 -20 -13c-3 0 -5 2 -5 5c0 5 8 12 17 21z" />
    <glyph glyph-name="uni02CE" unicode="&#x2ce;" horiz-adv-x="79" 
d="M79 -237c0 -3 -5 -5 -8 -5s-8 5 -11 14l-50 154c-6 16 -10 31 -10 42c0 9 12 32 24 32c7 0 10 -4 12 -15l39 -199c2 -10 4 -20 4 -23z" />
    <glyph glyph-name="uni03DF" unicode="&#x3df;" horiz-adv-x="620" 
d="M500 691c0 -94 -127 -188 -309 -386c155 32 287 44 400 76c7 2 13 5 15 5s3 -1 3 -3c0 -4 1 -18 -7 -26c-137 -162 -224 -277 -303 -389c-10 -15 -20 -26 -56 -31c-35 -5 -64 -25 -70 -25c-2 0 -4 2 -4 4s13 17 19 24c140 155 230 251 340 368
c-130 -20 -258 -37 -399 -71c-12 -3 -33 -12 -37 -12c-3 0 -4 1 -4 3c0 5 5 16 17 28c164 173 333 342 333 406c0 30 -15 47 -31 47c-12 0 -20 -1 -33 -8c-16 -9 -23 -23 -30 -23c-4 0 -5 4 -5 6c0 6 22 21 28 25c34 21 59 32 81 32c30 0 52 -19 52 -50z" />
    <glyph glyph-name="uni03D9" unicode="&#x3d9;" horiz-adv-x="560" 
d="M414 451c76 0 124 -52 124 -132c0 -172 -169 -316 -315 -333c-33 -76 -70 -155 -117 -249c-31 -61 -35 -70 -92 -86c-45 -13 -85 -30 -90 -30s-10 2 -10 6c0 10 17 4 51 32c21 17 90 95 213 326c-66 7 -112 58 -112 128c0 172 197 338 348 338zM385 429
c-109 0 -234 -170 -234 -305c0 -65 31 -114 74 -114c110 0 232 173 232 308c0 64 -27 111 -72 111z" />
    <glyph glyph-name="uni032E" unicode="&#x32e;" 
d="M67 -147c-64 0 -80 40 -80 74c0 14 4 28 10 44c4 10 34 26 46 26c2 0 2 -2 2 -2c0 -2 -10 -22 -10 -44c0 -46 36 -70 78 -70c30 0 92 12 144 88c4 4 16 14 30 20c10 4 16 6 18 6h2c0 -12 -122 -142 -240 -142z" />
    <glyph glyph-name="uni03D8" unicode="&#x3d8;" horiz-adv-x="700" 
d="M599 856c-148 0 -322 -194 -322 -392c0 -108 74 -176 132 -176c155 0 325 182 325 374c0 107 -44 194 -135 194zM638 886c123 0 188 -98 188 -206c0 -228 -223 -399 -416 -427c-44 -100 -69 -168 -88 -213c-10 -24 -16 -36 -64 -44c-36 -6 -51 -20 -57 -20
c-3 0 -6 2 -6 6c0 6 15 22 38 66c68 130 84 162 106 207c-87 12 -156 83 -156 192c0 233 250 439 455 439z" />
    <glyph glyph-name="uniE00E" unicode="&#xe00e;" horiz-adv-x="1075" 
d="M524 59c38 56 72 111 114 189c93 170 240 439 305 588c-46 5 -181 10 -236 10c-154 0 -277 -89 -359 -204c-72 -99 -145 -225 -145 -380c0 -138 74 -243 226 -243c49 0 75 11 95 40zM547 0c-71 -9 -108 -22 -174 -22c-184 0 -271 111 -271 256c0 176 129 358 203 439
c104 122 285 213 423 213c172 0 356 -23 534 -23c94 0 149 26 155 58c1 6 5 18 10 18c6 0 8 -6 8 -9c0 -42 -105 -115 -221 -115c-60 0 -131 5 -181 11c-50 -87 -163 -296 -214 -392c-77 -145 -135 -258 -192 -373c-29 -58 -39 -56 -80 -61z" />
    <glyph glyph-name="uni03E0" unicode="&#x3e0;" horiz-adv-x="950" 
d="M931 430c0 -108 -33 -231 -71 -325c-25 -63 -40 -85 -95 -120c-11 -7 -21 -19 -26 -19c-2 0 -3 1 -3 3s16 29 21 40c14 28 28 61 41 96c34 90 63 201 63 301c0 50 -6 96 -18 137c-109 -96 -225 -254 -313 -456c-28 -63 -29 -61 -93 -86c-25 -11 -28 -21 -35 -21
c-6 0 -8 4 -8 7s6 13 23 46c109 210 254 441 395 540c3 2 10 6 18 8c-38 103 -110 179 -195 224c-116 -170 -283 -458 -410 -704c-25 -49 -34 -68 -54 -83c-10 -7 -29 -10 -57 -18c-36 -11 -41 -19 -48 -19c-6 0 -9 2 -9 5s13 9 36 47c171 283 308 516 484 795c0 1 1 0 2 1
c-45 16 -91 24 -137 24c-63 0 -135 -28 -178 -71c-12 -12 -18 -20 -22 -20s-6 2 -6 6s8 14 22 28c55 55 137 89 237 89c270 0 436 -189 436 -455z" />
    <glyph glyph-name="Euro" unicode="&#x20ac;" horiz-adv-x="946" 
d="M344 551c78 104 184 196 292 259c90 52 180 76 270 76c110 0 144 -66 144 -78c0 -18 -40 -34 -50 -64c-2 -6 -4 -10 -8 -10s-6 6 -6 10c-10 48 -74 98 -144 98c-98 0 -158 -34 -192 -54c-86 -57 -173 -140 -235 -238h77c114 0 326 2 358 2c4 0 6 -4 6 -6
c0 -22 -30 -30 -50 -30c-70 0 -253 7 -406 8c-19 -33 -37 -71 -52 -111c180 0 390 2 434 2c4 0 8 -2 8 -6c0 -6 -8 -5 -16 -13s-18 -14 -28 -14c-30 0 -208 8 -308 8l-98 -1c-17 -53 -28 -110 -28 -169c0 -122 86 -212 202 -212c172 0 266 114 348 222c4 6 6 8 10 8
s6 -14 6 -30c0 -22 -6 -58 -10 -64c-78 -100 -208 -168 -388 -168c-150 0 -268 88 -268 236c0 62 15 121 38 176h-45c-46 0 -85 -3 -105 -3c-6 0 -10 2 -10 6c0 8 29 26 41 26c22 0 46 -3 84 -3l46 -1c19 40 40 77 63 110l-51 -1c-36 -1 -73 -4 -103 -4c-6 0 -8 2 -8 4
c0 4 6 4 12 10c14 14 10 24 34 24c14 0 42 -2 82 -4z" />
    <glyph glyph-name="perthousand" unicode="&#x2030;" horiz-adv-x="1286" 
d="M877 725c6 7 12 12 16 12s25 -11 25 -14c0 -2 -14 -14 -22 -21c-236 -216 -432 -398 -580 -532c-11 -10 -13 -14 -17 -14c-5 0 -24 11 -24 14c0 1 3 5 13 13c218 189 407 357 589 542zM573 875c66 0 101 -45 101 -107c0 -135 -127 -241 -231 -241c-65 0 -100 42 -100 110
c0 136 136 238 230 238zM396 654c0 -57 31 -92 84 -92c91 0 135 110 135 186c0 57 -24 98 -82 98c-88 0 -137 -114 -137 -192zM755 326c66 0 101 -45 101 -107c0 -135 -127 -241 -231 -241c-65 0 -100 42 -100 110c0 136 136 238 230 238zM578 106c0 -57 31 -93 84 -93
c91 0 135 110 135 186c0 57 -25 98 -83 98c-88 0 -136 -113 -136 -191zM1155 326c66 0 101 -45 101 -107c0 -135 -127 -241 -231 -241c-65 0 -100 42 -100 110c0 136 136 238 230 238zM978 106c0 -57 31 -93 84 -93c91 0 135 110 135 186c0 57 -25 98 -83 98
c-88 0 -136 -113 -136 -191z" />
    <glyph glyph-name="uni0259" unicode="&#x259;" horiz-adv-x="565" 
d="M411 183c-175 -42 -198 -103 -198 -144c0 -13 8 -28 26 -28c60 0 126 82 172 172zM386 412c-82 0 -158 -103 -208 -168c-4 -6 -6 -6 -8 -6s-4 2 -4 4s0 2 2 6c60 79 141 203 266 203c55 0 99 -38 99 -119c0 -184 -237 -348 -340 -348c-26 0 -52 17 -52 50
c0 27 62 133 279 170c14 28 34 63 34 125c0 64 -26 83 -68 83z" />
    <glyph glyph-name="uni03E1" unicode="&#x3e1;" horiz-adv-x="908" 
d="M181 1118c-44 0 -133 -16 -185 -58c-10 -8 -16 -13 -19 -13s-5 2 -5 5s7 9 19 19c66 52 139 70 222 70c158 0 338 -90 476 -283c111 -157 162 -376 162 -597c0 -178 -40 -348 -112 -464c-17 -27 -19 -32 -55 -47c-11 -5 -17 -8 -21 -8c-2 0 -3 1 -3 2s16 23 29 45
c66 115 102 280 102 453c0 71 -6 144 -18 215c-66 -36 -135 -85 -196 -128c-85 -60 -138 -102 -214 -172c-32 -30 -49 -62 -55 -62c-3 0 -5 1 -5 5c0 3 3 7 11 36c8 31 5 64 22 83c12 14 27 21 69 47c118 72 225 143 358 240c-24 109 -63 213 -119 299
c-60 -32 -120 -71 -175 -110c-85 -60 -138 -99 -214 -169c-32 -30 -46 -60 -52 -60c-3 0 -5 1 -5 5c0 3 1 8 9 37c8 31 7 63 21 82c11 15 27 19 69 45c107 66 206 122 323 204c-134 191 -295 279 -439 279z" />
    <glyph glyph-name="quoteleft" unicode="&#x2018;" horiz-adv-x="340" 
d="M362 592c0 -72 48 -88 48 -92c0 -2 -16 -10 -32 -20s-26 -18 -34 -18s-44 42 -44 92c0 84 48 184 150 272c42 36 84 60 98 60c2 0 4 0 4 -2c0 -6 -26 -6 -88 -68c-58 -58 -102 -136 -102 -224z" />
    <glyph glyph-name="quoteright" unicode="&#x2019;" horiz-adv-x="374" 
d="M409 756c0 60 -39 82 -39 92c0 7 10 13 26 23s26 12 34 12s44 -39 44 -89c0 -84 -48 -184 -150 -272c-42 -36 -84 -60 -98 -60c-2 0 -4 0 -4 2c0 6 26 6 88 68c58 58 99 136 99 224z" />
    <glyph glyph-name="breve" unicode="&#x2d8;" 
d="M240 580c-64 0 -80 40 -80 74c0 14 4 28 10 44c4 10 34 26 46 26c2 0 2 -2 2 -2c0 -2 -10 -22 -10 -44c0 -46 36 -70 78 -70c30 0 92 12 144 88c4 4 16 14 30 20c10 4 16 6 18 6h2c0 -12 -122 -142 -240 -142z" />
    <glyph glyph-name="macron" unicode="&#xaf;" horiz-adv-x="330" 
d="M234 672c34 0 66 -2 102 -2c84 0 172 2 222 2c12 0 16 -6 16 -12c0 -16 -26 -18 -38 -18c-30 0 -54 2 -102 2c-40 0 -118 -2 -194 -2c-10 0 -14 10 -14 18c0 6 4 12 8 12z" />
    <glyph glyph-name="uni1FC1" unicode="&#x1fc1;" 
d="M389 870c64 0 75 -79 129 -79c12 0 42 6 76 55c2 3 8 14 18 17s12 3 14 3s2 -1 2 -1c0 -3 -60 -93 -150 -93c-58 0 -71 76 -123 76c-49 0 -75 -36 -106 -69c-2 -2 -7 -5 -12 -7c-7 -3 -9 -4 -11 -4c-1 0 -2 1 -2 2c0 5 14 19 42 43c34 29 76 57 123 57zM256 692
c24 0 42 -18 42 -38c0 -33 -31 -60 -60 -60c-22 0 -33 19 -33 44c0 24 22 54 51 54zM451 687c24 0 34 -17 34 -37c0 -33 -25 -57 -54 -57c-22 0 -33 17 -33 42c0 24 26 52 53 52z" />
    <glyph glyph-name="exclam" unicode="!" horiz-adv-x="434" 
d="M291 213c-3 -13 -26 -24 -39 -24c-8 0 -14 7 -14 17c0 6 5 24 15 49c63 155 143 309 240 458c22 33 41 61 61 83c10 10 27 18 49 18c17 0 81 -16 81 -27c0 -3 -2 -4 -4 -4s-5 3 -13 3c-36 0 -90 -49 -139 -111c-137 -174 -204 -318 -237 -462zM157 36c0 38 41 75 82 75
c22 0 37 -20 37 -44c0 -42 -54 -73 -82 -73c-24 0 -37 18 -37 42z" />
    <glyph glyph-name="dieresis" unicode="&#xa8;" 
d="M256 692c24 0 42 -18 42 -38c0 -33 -31 -60 -60 -60c-22 0 -33 19 -33 44c0 24 22 54 51 54zM451 687c24 0 34 -17 34 -37c0 -33 -25 -57 -54 -57c-22 0 -33 17 -33 42c0 24 26 52 53 52z" />
    <glyph glyph-name="dieresistonos" unicode="&#x385;" 
d="M256 692c24 0 42 -18 42 -38c0 -33 -31 -60 -60 -60c-22 0 -33 19 -33 44c0 24 22 54 51 54zM451 687c24 0 34 -17 34 -37c0 -33 -25 -57 -54 -57c-22 0 -33 17 -33 42c0 24 26 52 53 52zM353 785l186 189c17 17 23 24 28 24c6 0 15 -21 15 -27s-4 -15 -10 -19l-211 -180
c-3 -3 -14 -13 -20 -13c-3 0 -5 2 -5 5c0 5 8 12 17 21z" />
    <glyph glyph-name="uni1FED" unicode="&#x1fed;" 
d="M385 757c0 -3 -5 -5 -8 -5s-8 5 -11 14l-50 154c-6 16 -10 31 -10 42c0 9 12 32 24 32c7 0 10 -4 12 -15l39 -199c2 -10 4 -20 4 -23zM256 692c24 0 42 -18 42 -38c0 -33 -31 -60 -60 -60c-22 0 -33 19 -33 44c0 24 22 54 51 54zM451 687c24 0 34 -17 34 -37
c0 -33 -25 -57 -54 -57c-22 0 -33 17 -33 42c0 24 26 52 53 52z" />
    <glyph glyph-name="percent" unicode="%" horiz-adv-x="886" 
d="M877 725c6 7 12 12 16 12s25 -11 25 -14c0 -2 -14 -14 -22 -21c-236 -216 -432 -398 -580 -532c-11 -10 -13 -14 -17 -14c-5 0 -24 11 -24 14c0 1 3 5 13 13c218 189 407 357 589 542zM573 875c66 0 101 -45 101 -107c0 -135 -127 -241 -231 -241c-65 0 -100 42 -100 110
c0 136 136 238 230 238zM396 654c0 -57 31 -92 84 -92c91 0 135 110 135 186c0 57 -24 98 -82 98c-88 0 -137 -114 -137 -192zM755 326c66 0 101 -45 101 -107c0 -135 -127 -241 -231 -241c-65 0 -100 42 -100 110c0 136 136 238 230 238zM578 106c0 -57 31 -93 84 -93
c91 0 135 110 135 186c0 57 -25 98 -83 98c-88 0 -136 -113 -136 -191z" />
    <glyph glyph-name="periodcentered" unicode="&#xb7;" horiz-adv-x="438" 
d="M334 327c-24 0 -46 19 -46 39c0 31 27 60 57 60c22 0 42 -15 42 -40c0 -24 -24 -59 -53 -59z" />
    <glyph glyph-name="tonos" unicode="&#x384;" 
d="M290 573l186 189c17 17 23 24 28 24c6 0 15 -21 15 -27s-4 -15 -10 -19l-211 -180c-3 -3 -14 -13 -20 -13c-3 0 -5 2 -5 5c0 5 8 12 17 21z" />
    <glyph glyph-name="parenleft" unicode="(" horiz-adv-x="482" 
d="M306 -122c-81 68 -108 200 -108 272c0 312 202 688 655 854c13 5 35 10 39 10s6 -2 6 -6c0 -6 -19 -11 -39 -20c-489 -226 -585 -634 -585 -862c0 -132 29 -207 49 -237c12 -18 23 -23 23 -27c0 -3 -2 -4 -4 -4c-11 0 -28 13 -36 20z" />
    <glyph glyph-name="parenright" unicode=")" horiz-adv-x="482" 
d="M520 994c81 -68 108 -200 108 -272c0 -312 -202 -688 -655 -854c-13 -5 -35 -10 -39 -10s-6 2 -6 6c0 6 19 11 39 20c489 226 585 634 585 862c0 132 -29 207 -49 237c-12 18 -23 23 -23 27c0 3 2 4 4 4c11 0 28 -13 36 -20z" />
    <glyph glyph-name="asterisk" unicode="*" horiz-adv-x="430" 
d="M364 540c-8 6 -26 16 -34 22c0 -24 2 -48 8 -48s20 16 26 26zM472 706c58 96 76 160 96 160c8 0 22 -28 22 -38c0 -2 0 -4 -2 -6c-44 -58 -68 -98 -96 -142c82 6 196 18 200 18c5 0 8 -7 8 -8c0 -6 -15 -18 -23 -32c-11 -18 -24 -28 -39 -28c-20 0 -64 8 -132 11
c34 -58 66 -113 92 -151c2 -4 2 -6 2 -8c0 -22 -40 -36 -40 -36c-30 0 -98 32 -168 74c-14 -22 -28 -64 -40 -64c-10 0 -38 8 -38 72c0 10 2 32 2 42c-52 34 -100 76 -100 90s18 34 54 34c16 0 32 -4 52 -6c6 96 0 188 46 188c18 0 38 -56 104 -170zM426 680
c-42 70 -70 124 -80 124c-8 0 -10 -72 -12 -118zM450 624c-20 -32 -32 -52 -52 -92c54 -38 110 -62 120 -62c4 0 6 4 6 8c0 34 -50 100 -74 146zM436 644l-106 2v-66c14 -12 28 -20 42 -30c22 30 44 62 64 94zM318 586l2 60s-36 2 -46 2c-6 0 -8 -2 -8 -6
c0 -16 36 -44 52 -56z" />
    <glyph glyph-name="plus" unicode="+" horiz-adv-x="800" 
d="M508 347c77 1 242 3 254 3c2 0 4 0 4 -2c0 -3 -1 -4 -9 -22c-2 -5 -5 -9 -6 -13c-2 -8 -3 -13 -7 -13h-1c-18 0 -148 4 -257 6c-75 -144 -101 -197 -119 -232c-3 -6 -16 -8 -34 -12c-24 -5 -39 -10 -43 -10c-1 0 -3 1 -3 2c0 2 5 6 8 11c11 15 70 119 135 242
c0 0 -10 1 -15 1c-81 -1 -210 -4 -223 -4c-2 0 -4 0 -4 2c0 1 1 3 3 6c3 4 7 10 13 20c10 17 10 22 16 22c32 0 134 -4 232 -6c53 102 92 186 113 230c4 8 19 7 51 12c14 2 23 6 27 6c2 0 3 -1 3 -3c0 -4 -8 -14 -22 -36c-28 -42 -56 -95 -116 -210z" />
    <glyph glyph-name="comma" unicode="," horiz-adv-x="320" 
d="M160 84c34 0 40 -56 40 -88c-2 -128 -208 -264 -222 -264c-4 0 -6 2 -6 4c0 6 4 6 38 32c56 42 116 106 116 176c0 54 -22 90 -22 106s48 34 56 34z" />
    <glyph glyph-name="hyphen" unicode="-" horiz-adv-x="576" 
d="M480 350c20 0 78 2 92 2c2 0 5 0 5 -2s-2 -4 -10 -22c-8 -19 -14 -30 -20 -30c-26 0 -133 8 -229 8c-58 0 -130 -4 -146 -4c-2 0 -4 0 -4 2s4 5 15 24c8 14 15 26 22 26c48 0 161 -4 275 -4z" />
    <glyph glyph-name="period" unicode="." horiz-adv-x="320" 
d="M112 28c0 42 35 89 81 89c22 0 37 -15 37 -39c0 -42 -46 -86 -78 -86c-24 0 -40 12 -40 36z" />
    <glyph glyph-name="slash" unicode="/" horiz-adv-x="522" 
d="M640 859c-215 -387 -334 -607 -527 -975c-4 -8 -15 -13 -30 -20c-20 -9 -30 -14 -36 -14c-2 0 -3 1 -3 3s5 6 9 13c210 364 355 629 546 995c29 55 63 121 71 136c2 4 6 5 11 6c7 1 34 4 37 4c2 0 4 0 4 -2s-3 -5 -5 -9c-9 -17 -33 -57 -77 -137z" />
    <glyph glyph-name="zero" unicode="0" horiz-adv-x="760" 
d="M704 886c81 0 132 -86 132 -190c0 -345 -337 -718 -536 -718c-82 0 -134 84 -134 189c0 345 339 719 538 719zM753 671c0 103 -31 170 -91 170c-55 0 -115 -34 -171 -88c-127 -125 -239 -359 -239 -544c0 -106 38 -175 97 -175c58 0 119 33 177 93
c123 128 227 359 227 544z" />
    <glyph glyph-name="one" unicode="1" horiz-adv-x="630" 
d="M628 674c0 0 0 1 -1 1c-3 0 -98 -82 -140 -118c-106 -91 -254 -193 -329 -236c-7 -4 -37 -8 -40 -8c-4 0 -6 2 -6 5c0 6 6 7 18 14c138 82 231 144 348 239c104 85 142 121 176 155c24 26 40 102 82 126c30 16 60 34 78 34c12 0 14 -8 14 -18c0 -22 -32 -70 -88 -118
c-128 -228 -254 -480 -347 -673c-40 -83 -32 -65 -95 -80c-44 -10 -43 -18 -52 -18c-7 0 -7 4 -7 8c0 10 51 85 97 167c70 126 292 510 292 520z" />
    <glyph glyph-name="two" unicode="2" horiz-adv-x="700" 
d="M771 703c0 -150 -277 -330 -425 -433c-90 -63 -138 -93 -203 -148c82 -4 143 -13 206 -24c58 -10 125 -22 209 -22c51 0 81 26 91 41c5 7 7 17 14 17c4 0 6 -3 6 -6c0 -5 -42 -71 -59 -110c-9 -21 -45 -28 -94 -28c-60 0 -161 31 -211 41c-55 11 -132 23 -203 23
c-35 0 -59 -10 -71 -21c-17 -16 -23 -39 -48 -39c-8 0 -13 9 -13 14c0 11 14 26 30 39c121 98 186 140 324 236c156 108 347 230 347 389c0 93 -52 143 -137 143c-64 0 -100 -30 -121 -47c-18 -15 -33 -31 -40 -47c-5 -11 -7 -19 -14 -19c-5 0 -9 4 -9 9c0 11 37 54 53 69
c60 56 118 104 204 104c78 0 164 -52 164 -181z" />
    <glyph glyph-name="three" unicode="3" horiz-adv-x="710" 
d="M540 518c75 -23 139 -85 139 -197c0 -164 -192 -343 -430 -343c-91 0 -155 31 -188 62c-17 16 -29 35 -29 51c0 8 4 16 8 20c36 28 72 71 74 71c4 0 6 -4 6 -8c0 -2 -14 -11 -14 -41c0 -20 61 -122 183 -122c165 0 298 123 298 290c0 97 -64 182 -160 182
c-30 0 -38 -9 -54 -9c-2 0 -7 2 -7 6c0 10 46 35 80 41c5 1 224 33 224 214c0 47 -14 111 -123 111c-73 0 -109 -59 -136 -59h-1c-3 0 -3 4 -3 7v1c0 10 105 91 192 91c115 0 165 -61 165 -141c0 -85 -106 -181 -224 -227z" />
    <glyph glyph-name="four" unicode="4" horiz-adv-x="760" 
d="M152 281c-49 -33 -69 -33 -71 -33c-8 0 -11 5 -11 11c0 9 58 45 88 56c156 158 304 349 421 530c6 10 20 18 35 25c13 6 30 16 36 16c1 0 2 -1 2 -2c0 -2 -8 -8 -10 -11c-122 -186 -276 -384 -440 -546c25 5 49 8 62 8c109 0 166 -18 229 -34c33 58 66 119 113 211
c20 39 29 53 76 76c35 17 62 39 75 39c6 0 6 -2 6 -4c0 -8 -18 -12 -34 -38c-58 -97 -116 -199 -171 -299c34 -6 72 -10 122 -10c80 0 121 6 162 24c13 6 18 14 21 14c1 0 2 -1 2 -2c0 -2 -7 -8 -17 -21c-11 -14 -18 -17 -27 -21c-54 -21 -122 -34 -207 -34
c-31 0 -58 1 -82 3c-35 -64 -67 -126 -97 -185c-18 -36 -24 -54 -42 -54c-64 0 -79 -22 -91 -22c-4 0 -6 2 -6 6s16 23 90 139c31 49 56 89 78 127c-82 17 -136 45 -266 45c-7 0 -19 -2 -32 -4c-3 0 -14 -10 -14 -10z" />
    <glyph glyph-name="five" unicode="5" horiz-adv-x="700" 
d="M249 -22c-94 0 -185 61 -185 135c0 19 12 29 38 55c14 14 31 35 50 58c4 5 7 7 9 7c3 0 3 -4 3 -4c0 -4 -5 -8 -10 -16c-15 -21 -17 -49 -17 -70c0 -67 82 -120 187 -120c222 0 301 202 301 299c0 126 -70 185 -190 185c-23 0 -60 -7 -93 -29c-16 -11 -24 -27 -36 -27
c-9 0 -9 6 -9 8c0 10 127 116 219 384c6 16 6 27 14 27c0 0 109 -16 222 -16c49 0 117 2 159 19c25 10 32 28 37 28c2 0 5 0 5 -5c0 -3 -15 -21 -35 -41c-14 -14 -29 -31 -57 -40c-76 -25 -164 -26 -236 -26c-32 0 -74 4 -92 6c-41 -91 -81 -164 -137 -253
c27 13 71 28 97 28c141 0 221 -83 221 -213c0 -166 -209 -379 -465 -379z" />
    <glyph glyph-name="six" unicode="6" horiz-adv-x="730" 
d="M219 252c-9 -41 -14 -83 -14 -127c0 -68 47 -118 109 -118c172 0 316 152 316 276c0 66 -16 121 -120 121c-46 0 -175 -41 -291 -152zM225 276c61 54 209 193 328 193c96 0 157 -52 157 -136c0 -150 -206 -358 -452 -358c-107 0 -153 65 -153 146c0 222 242 452 372 559
s273 170 413 220c4 2 13 4 15 4s3 -1 3 -3c0 -4 -12 -8 -28 -40c-10 -20 -27 -24 -40 -26c-86 -13 -247 -88 -341 -169c-110 -94 -228 -219 -274 -390z" />
    <glyph glyph-name="seven" unicode="7" horiz-adv-x="660" 
d="M126 26c114 161 189 248 276 350c-57 -2 -99 -5 -123 -8c-25 -3 -34 -6 -40 -6c-2 0 -3 1 -3 2c0 2 8 12 12 19c7 11 11 21 23 21h155c71 84 222 247 372 389l-1 1c-42 -10 -161 -31 -275 -31c-70 0 -142 2 -194 16c-20 5 -37 13 -37 24c0 7 10 18 19 32
c16 24 29 54 35 54l1 -1c0 -1 -2 -5 -2 -8c0 -41 173 -52 213 -52c57 0 289 14 323 38c17 12 27 22 33 22s8 -3 8 -8c0 -8 -20 -23 -99 -102c-108 -108 -239 -236 -345 -374h153c4 0 9 -1 9 -5s-17 -7 -41 -10c-38 -5 -96 -9 -141 -11c-73 -97 -143 -198 -209 -301
c-10 -15 -28 -48 -40 -73c-6 -12 -45 -8 -65 -13c-30 -8 -27 -14 -37 -14c-2 0 -4 2 -4 4c0 6 12 27 24 45z" />
    <glyph glyph-name="eight" unicode="8" horiz-adv-x="700" 
d="M468 486l-72 -36c-111 -55 -222 -135 -222 -267c0 -78 52 -156 166 -156c122 0 248 76 248 218c0 91 -55 164 -120 241zM688 598c-20 -8 -88 -39 -154 -76c63 -61 130 -145 130 -244c0 -168 -259 -303 -363 -303c-143 0 -212 88 -212 191c0 140 156 245 296 304l71 30
c-35 41 -56 101 -56 149c0 147 182 237 300 237c82 0 136 -66 136 -120c0 -90 -102 -140 -176 -140c-10 0 -14 4 -14 10c0 4 4 8 12 8c6 0 10 -4 20 -4c34 0 80 38 80 102c0 52 -34 112 -108 112c-104 0 -176 -69 -176 -180c0 -51 16 -103 48 -140c42 19 117 54 159 71
c19 8 32 15 37 15c3 0 8 -4 8 -7c0 -4 -13 -6 -38 -15z" />
    <glyph glyph-name="nine" unicode="9" horiz-adv-x="690" 
d="M658 851c-116 0 -250 -132 -250 -262c0 -84 37 -130 86 -130c85 0 128 46 185 91c39 84 74 175 74 229c0 18 0 72 -95 72zM322 582c0 147 191 304 379 304c61 0 131 -34 131 -122c0 -72 -76 -215 -93 -252c-77 -167 -123 -261 -183 -341c-78 -103 -189 -194 -324 -194
c-91 0 -158 52 -158 143c0 84 46 130 96 138c34 6 60 22 76 22c8 0 14 0 14 -8c0 -4 -2 -6 -6 -6s-10 2 -18 2c-44 0 -82 -70 -82 -140c0 -71 52 -119 126 -119c105 0 183 86 231 163c53 85 92 201 153 342c-50 -34 -118 -86 -216 -86c-63 0 -126 40 -126 154z" />
    <glyph glyph-name="colon" unicode=":" horiz-adv-x="404" 
d="M286 360c0 42 35 89 81 89c22 0 37 -15 37 -39c0 -42 -46 -86 -78 -86c-24 0 -40 12 -40 36zM112 28c0 42 35 89 81 89c22 0 37 -15 37 -39c0 -42 -46 -86 -78 -86c-24 0 -40 12 -40 36z" />
    <glyph glyph-name="anoteleia" unicode="&#x387;" horiz-adv-x="420" 
d="M325 327c-24 0 -46 19 -46 39c0 31 27 60 57 60c22 0 42 -15 42 -40c0 -24 -24 -59 -53 -59z" />
    <glyph glyph-name="uni1FFE" unicode="&#x1ffe;" 
d="M421 748c4 -6 10 -11 10 -16c0 -4 -3 -6 -8 -6c-6 0 -37 48 -37 105c0 77 57 125 76 125c5 0 22 -10 22 -22c0 -10 -75 -50 -75 -132c0 -25 4 -40 12 -54z" />
    <glyph glyph-name="equal" unicode="=" horiz-adv-x="800" 
d="M567 316c50 0 166 4 180 4c2 0 4 0 4 -2c0 -3 -1 -4 -9 -22c-9 -20 -9 -26 -14 -26c-26 0 -279 8 -375 8c-58 0 -160 -4 -176 -4c-2 0 -4 0 -4 2s4 6 16 26c10 17 10 22 16 22c48 0 248 -8 362 -8zM631 454c50 0 166 4 180 4c2 0 4 0 4 -2c0 -3 -1 -4 -9 -22
c-9 -20 -9 -26 -14 -26c-26 0 -279 8 -375 8c-58 0 -160 -4 -176 -4c-2 0 -4 0 -4 2s4 6 16 26c10 17 10 22 16 22c48 0 248 -8 362 -8z" />
    <glyph glyph-name="uni1FBF" unicode="&#x1fbf;" 
d="M401 748c31 31 42 65 42 109c0 52 -28 58 -28 72s26 27 32 27c20 0 36 -41 36 -69c0 -78 -85 -161 -93 -161c-4 0 -6 2 -6 4c0 6 10 11 17 18z" />
    <glyph glyph-name="semicolon" unicode=";" horiz-adv-x="454" 
d="M208 312c0 42 35 89 81 89c22 0 37 -15 37 -39c0 -42 -46 -86 -78 -86c-24 0 -40 12 -40 36zM160 84c34 0 40 -56 40 -88c-2 -128 -208 -264 -222 -264c-4 0 -6 2 -6 4c0 6 4 6 38 32c56 42 116 106 116 176c0 54 -22 90 -22 106s48 34 56 34z" />
    <glyph glyph-name="uni1FDF" unicode="&#x1fdf;" 
d="M420 756c5 -8 18 -19 18 -25c0 -2 -2 -4 -4 -4c-5 0 -16 12 -26 31c-13 21 -22 48 -22 74c0 19 9 47 24 62c7 7 23 20 34 20c8 0 22 -16 22 -30c0 -10 -9 -8 -22 -14c-22 -10 -37 -35 -37 -67c0 -16 4 -32 13 -47zM455 1020c64 0 75 -79 129 -79c12 0 42 6 76 55
c2 3 8 14 18 17s12 3 14 3s2 -1 2 -1c0 -3 -60 -93 -150 -93c-58 0 -71 76 -123 76c-49 0 -75 -36 -106 -69c-2 -2 -7 -5 -12 -7c-7 -3 -9 -4 -11 -4c-1 0 -2 1 -2 2c0 5 14 19 42 43c34 29 76 57 123 57z" />
    <glyph glyph-name="Alpha" unicode="&#x391;" horiz-adv-x="980" 
d="M1020 98c-30 -24 -140 -106 -234 -106c-82 0 -96 56 -96 162c0 48 6 100 12 142c-72 -8 -96 -10 -120 -10c-74 0 -148 22 -190 22c-8 0 -14 0 -20 -2c-112 -128 -212 -236 -270 -284c-24 -18 -48 -24 -86 -28c-16 -2 -34 -7 -54 -7c-6 0 -12 1 -12 7c0 8 8 8 16 10
c18 6 46 24 64 40c168 146 368 334 716 740c72 84 76 78 130 100c12 4 34 18 44 18c5 0 8 -5 8 -10c0 -18 -18 -51 -22 -62c-37 -96 -90 -318 -114 -498c72 21 134 76 144 76c4 0 6 -2 6 -6c0 -9 -79 -63 -152 -88c-6 -52 -10 -98 -10 -136c0 -116 23 -149 61 -149
c42 0 115 37 171 79c60 46 96 90 136 140c4 6 6 6 8 6s4 -2 4 -4s0 -2 -2 -6c-50 -68 -104 -120 -138 -146zM404 342h34c78 0 158 -24 228 -24c10 0 24 0 40 2c26 206 100 478 100 482s-1 6 -3 6c-4 0 -20 -16 -33 -32z" />
    <glyph glyph-name="Beta" unicode="&#x392;" horiz-adv-x="850" 
d="M396 476c-84 -161 -157 -313 -219 -449c-9 -21 -20 -24 -56 -34c-56 -16 -62 -31 -75 -31c-5 0 -7 3 -7 5c0 6 13 14 36 50c96 147 173 316 251 460c22 39 71 145 90 177c92 156 242 232 346 232c78 0 142 -56 142 -146c0 -140 -166 -220 -268 -259l1 -2s23 1 32 1
c91 0 171 -81 171 -164c0 -176 -192 -331 -417 -331c-122 0 -199 39 -199 67c0 5 6 13 15 25c8 11 19 34 24 34c1 0 3 -1 3 -4c0 -41 75 -98 155 -98c171 0 331 167 331 331c0 87 -70 121 -120 121c-60 0 -55 -26 -92 -26c-7 0 -28 16 -28 23c0 14 33 12 53 18
c105 31 252 123 252 243c0 77 -52 125 -119 125c-61 0 -102 -17 -162 -112c-31 -49 -87 -155 -140 -256z" />
    <glyph glyph-name="uni1FDD" unicode="&#x1fdd;" 
d="M351 748c4 -6 10 -11 10 -16c0 -4 -3 -6 -8 -6c-6 0 -37 48 -37 105c0 77 57 125 76 125c5 0 22 -10 22 -22c0 -10 -75 -50 -75 -132c0 -25 4 -40 12 -54zM522 732c0 -3 -5 -5 -8 -5s-8 5 -11 14l-50 154c-6 16 -10 31 -10 42c0 9 12 32 24 32c7 0 10 -4 12 -15l39 -199
c2 -10 4 -20 4 -23z" />
    <glyph glyph-name="Delta" unicode="&#x394;" horiz-adv-x="970" 
d="M816 81c0 208 -22 643 -22 713c0 4 -4 6 -6 6c-4 0 -14 -13 -26 -25c-52 -58 -639 -737 -639 -745l2 -2c303 0 575 1 645 10c46 6 46 26 46 43zM-6 -28c-6 0 -10 2 -10 9c0 9 20 18 84 81c139 137 320 355 676 741c61 66 58 58 98 73c19 7 40 20 50 20c4 0 8 -4 8 -12
c0 -25 -4 -50 -4 -201c0 -138 13 -585 13 -648c0 -36 -20 -34 -115 -36c-248 -4 -414 -3 -726 -10c-67 -2 -64 -17 -74 -17z" />
    <glyph glyph-name="Epsilon" unicode="&#x395;" horiz-adv-x="834" 
d="M430 -24c-122 0 -272 80 -272 214c0 290 398 346 398 364c0 2 0 8 -12 16c-44 30 -61 79 -61 117c0 80 99 199 299 199c44 0 212 -18 212 -80c0 -20 -14 -26 -28 -60c-4 -8 -6 -16 -12 -16s-6 6 -8 12c-12 42 -74 120 -186 120c-157 0 -204 -86 -204 -126
c0 -48 26 -110 72 -136c30 -14 40 -18 40 -24c0 -18 -4 -36 -42 -40c-304 -36 -368 -200 -368 -332c0 -140 132 -189 220 -189c196 0 293 125 293 235c0 12 -4 20 -4 26c0 2 0 6 4 6c7 0 49 -25 49 -41c0 -74 -140 -265 -390 -265z" />
    <glyph glyph-name="Phi" unicode="&#x3a6;" horiz-adv-x="933" 
d="M319 65c-165 23 -239 134 -239 257c0 145 93 314 400 418c15 5 49 15 54 15c9 0 13 -3 13 -8c0 -7 -29 -5 -72 -22c-58 -22 -91 -46 -134 -82c-117 -96 -170 -216 -170 -318c0 -97 55 -184 165 -217c42 98 122 230 186 350c77 143 148 267 181 356c-30 6 -62 8 -92 8
c-71 0 -128 -26 -160 -47c-5 -3 -14 -10 -22 -10c-6 0 -12 5 -12 9c0 38 211 76 281 76h17c5 19 8 36 8 51c0 42 -29 66 -57 66c-15 0 -40 -4 -75 -30c-8 -6 -11 -9 -18 -9c-2 0 -6 4 -6 6s5 6 15 14c46 36 102 53 130 53c62 0 98 -46 98 -90c0 -19 -6 -43 -16 -71
c152 -33 234 -146 234 -300c0 -182 -181 -368 -428 -446c-58 -19 -128 -32 -199 -34c-5 -18 -7 -34 -7 -47c0 -42 28 -66 56 -66c15 0 40 5 75 31c8 6 11 9 18 9c2 0 6 -4 6 -6s-5 -6 -15 -14c-46 -36 -101 -54 -129 -54c-62 0 -99 46 -99 90c0 17 5 38 13 62zM592 117
c203 60 342 231 342 401c0 158 -69 239 -159 276c-41 -90 -113 -209 -183 -338c-68 -126 -146 -264 -180 -361c8 -1 17 -1 25 -1c57 0 109 10 155 23z" />
    <glyph glyph-name="Gamma" unicode="&#x393;" horiz-adv-x="746" 
d="M545 886c172 0 250 -23 428 -23c55 0 113 20 119 52c1 6 5 18 10 18c6 0 8 -6 8 -9c0 -42 -94 -110 -191 -110c-92 0 -205 18 -298 26c-54 -91 -172 -306 -225 -406c-77 -145 -135 -258 -192 -373c-29 -58 -39 -56 -80 -61c-44 -5 -56 -17 -69 -17c-5 0 -7 3 -7 5
c0 6 9 9 34 44c47 66 84 126 133 216c94 174 242 438 311 598c0 0 -19 1 -29 1c-63 0 -136 -23 -178 -65c-12 -12 -18 -20 -22 -20s-6 2 -6 6s8 14 22 28c54 55 131 90 232 90z" />
    <glyph glyph-name="Eta" unicode="&#x397;" horiz-adv-x="1025" 
d="M386 409c-1 -2 -3 -5 -4 -7c-79 -153 -155 -298 -202 -392c-8 -16 -49 -14 -79 -20c-28 -6 -29 -20 -39 -20c-4 0 -4 4 -4 6c0 8 15 32 71 130c0 0 91 158 163 285c-5 34 -14 48 -14 59c0 6 5 10 6 10c9 0 22 0 46 -1c23 43 44 82 57 110c33 69 74 162 74 224
c0 28 -11 53 -50 53c-15 0 -77 -4 -137 -64c-12 -12 -18 -20 -22 -20s-6 2 -6 6s8 14 22 28c66 68 148 90 186 90c48 0 95 -33 95 -95c0 -44 -31 -132 -91 -247c-11 -21 -28 -52 -47 -87c43 -1 98 -1 172 -1c152 1 193 3 239 7c77 146 139 253 209 379c10 18 33 16 65 22
c41 8 64 22 71 22c4 0 6 -2 6 -6c0 -6 -17 -8 -62 -76c-89 -135 -139 -211 -211 -355c-66 -131 -139 -277 -139 -346c0 -50 30 -79 76 -79c50 0 147 28 220 84c60 46 96 90 136 140c4 6 6 6 8 6s4 -2 4 -4s0 -2 -2 -6c-50 -68 -104 -120 -138 -146
c-150 -112 -240 -122 -300 -122c-71 0 -105 47 -105 108c0 80 70 202 137 332c-21 10 -55 13 -143 13c-144 0 -249 -9 -268 -20z" />
    <glyph glyph-name="Iota" unicode="&#x399;" horiz-adv-x="400" 
d="M229 142c-27 -53 -47 -100 -63 -138c-10 -24 -48 -3 -96 -22c-20 -8 -20 -14 -28 -14c-4 0 -10 2 -10 6c0 6 26 33 36 46c48 64 81 131 106 177c120 219 172 319 277 521c13 25 42 82 42 102c0 13 -12 21 -19 23c-10 3 -20 2 -20 8c0 8 9 13 16 13c76 0 143 9 172 9
c5 0 10 -7 10 -11c0 -9 -11 1 -40 -23c-27 -22 -65 -92 -85 -129c-123 -227 -184 -345 -298 -568z" />
    <glyph glyph-name="Theta" unicode="&#x398;" horiz-adv-x="960" 
d="M668 458c20 0 78 2 92 2c2 0 5 0 5 -2s-2 -4 -10 -22c-8 -19 -14 -30 -20 -30c-26 0 -133 8 -229 8c-58 0 -130 -4 -146 -4c-2 0 -4 0 -4 2s4 5 15 24c8 14 15 26 22 26c48 0 161 -4 275 -4zM1029 620c0 -161 -101 -311 -182 -403c-136 -153 -311 -239 -474 -239
c-184 0 -271 111 -271 256c0 176 129 358 203 439c104 122 285 213 423 213c89 0 145 -59 145 -114c0 -11 -17 -18 -34 -38c-17 -19 -26 -46 -32 -46c-4 0 -5 3 -5 7c0 19 -3 36 -7 51c-22 79 -82 100 -128 100c-104 0 -237 -89 -319 -204c-72 -99 -145 -225 -145 -380
c0 -138 74 -243 226 -243c142 0 287 85 385 240c49 77 121 223 121 374c0 106 -17 211 -109 246c-6 2 -8 4 -8 6c0 1 1 2 4 2c28 0 98 -33 132 -69c48 -51 75 -110 75 -198z" />
    <glyph glyph-name="Kappa" unicode="&#x39a;" horiz-adv-x="769" 
d="M542 780c0 -62 -47 -148 -81 -214c146 66 432 204 510 262c22 16 78 48 92 48c2 0 4 -2 4 -4c0 -12 -122 -120 -264 -178l-358 -160l-82 -150c66 -112 110 -194 202 -334c74 -112 150 -234 278 -234c72 0 126 26 186 72c2 2 6 4 8 4c0 0 2 0 2 -2
c0 -38 -118 -96 -218 -96c-156 0 -224 54 -322 202c-60 92 -122 194 -182 304c-56 -109 -121 -231 -168 -302c-8 -13 -19 -26 -129 -26c-12 0 -14 0 -14 6s24 6 50 38c73 90 151 212 223 352c-18 30 -58 82 -76 82c-6 0 -14 -4 -20 -4c-4 0 -8 4 -8 8c0 6 140 56 194 74
c34 62 82 158 82 230c0 56 -22 94 -69 94c-15 0 -68 -10 -128 -70c-12 -12 -18 -20 -22 -20s-6 2 -6 6s8 14 22 28c66 68 148 90 186 90c78 0 108 -55 108 -106zM325 448l26 46c-18 -6 -40 -14 -46 -16c6 -12 12 -20 20 -30z" />
    <glyph glyph-name="Lambda" unicode="&#x39b;" horiz-adv-x="980" 
d="M906 830c-47 -160 -125 -434 -125 -652c0 -116 22 -149 60 -149c42 0 115 37 171 79c60 46 96 90 136 140c4 6 6 6 8 6s4 -2 4 -4s0 -2 -2 -6c-50 -68 -104 -120 -138 -146c-30 -24 -140 -106 -234 -106c-82 0 -100 74 -100 176c0 208 120 620 120 634c0 4 -1 6 -3 6
c-4 0 -20 -16 -33 -32l-398 -470c-110 -130 -212 -236 -270 -284c-24 -18 -48 -24 -86 -28c-16 -2 -34 -8 -54 -8c-6 0 -12 2 -12 8c0 8 8 12 16 14c18 6 46 20 64 36c168 146 368 334 716 740c72 84 76 78 130 100c12 4 34 18 44 18c5 0 8 -5 8 -10c0 -18 -19 -51 -22 -62z
" />
    <glyph glyph-name="Mu" unicode="&#x39c;" horiz-adv-x="1170" 
d="M542 780c0 -30 -6 -57 -16 -85c66 68 164 169 250 169c60 0 125 -28 125 -144c142 130 216 180 315 180c56 0 121 -30 121 -116c0 -160 -333 -368 -333 -750c0 -210 114 -288 222 -288c102 0 170 68 204 110c22 28 20 32 26 32c2 0 4 -2 4 -4c0 -38 -114 -186 -268 -186
c-150 0 -270 100 -270 290c0 358 317 564 317 750c0 86 -53 114 -89 114c-69 0 -153 -60 -261 -182c-10 -24 -20 -48 -34 -68s-76 -52 -94 -52c-4 0 -8 0 -8 4c0 20 46 64 60 78c6 16 8 34 8 56c0 114 -68 125 -100 125c-50 0 -137 -83 -222 -205
c-126 -206 -219 -418 -287 -544c-31 -57 -49 -56 -90 -61c-44 -5 -66 -21 -79 -21c-5 0 -7 3 -7 5c0 6 22 11 48 45c45 59 84 126 132 216c144 266 235 415 235 507c0 56 -22 97 -69 97c-15 0 -68 -10 -128 -70c-12 -12 -18 -20 -22 -20s-6 2 -6 6s8 14 22 28
c66 68 148 90 186 90c78 0 108 -55 108 -106z" />
    <glyph glyph-name="Nu" unicode="&#x39d;" horiz-adv-x="907" 
d="M406 848c-7 1 -18 1 -18 5c0 18 65 25 97 25c61 0 67 -42 72 -129c5 -85 18 -199 29 -318c13 -138 23 -222 44 -347h2c55 108 123 258 191 390c48 94 132 249 201 362c32 52 45 51 96 64c46 12 60 16 70 16c7 0 8 -2 8 -3c0 -5 0 -5 -13 -11c-29 -13 -71 -47 -104 -80
c-70 -70 -136 -176 -230 -355c-82 -157 -180 -348 -224 -473c-5 -13 -7 -15 -23 -21c-18 -7 -23 -14 -31 -14c-13 0 -19 20 -20 26c-32 198 -41 321 -54 431c-11 95 -26 238 -37 369h-3c-42 -101 -59 -151 -140 -311c-52 -103 -151 -306 -255 -486c-18 -31 -24 -20 -86 -39
c-13 -4 -19 -10 -28 -10c-4 0 -7 4 -7 7c0 4 40 26 70 67c106 147 203 307 286 475c43 88 129 252 129 331c0 19 -9 28 -22 29z" />
    <glyph glyph-name="Omicron" unicode="&#x39f;" horiz-adv-x="960" 
d="M1029 620c0 -161 -101 -311 -182 -403c-136 -153 -311 -239 -474 -239c-184 0 -271 111 -271 256c0 176 129 358 203 439c104 122 285 213 423 213c89 0 145 -59 145 -114c0 -11 -17 -18 -34 -38c-17 -19 -26 -46 -32 -46c-4 0 -5 3 -5 7c0 19 -3 36 -7 51
c-22 79 -82 100 -128 100c-104 0 -237 -89 -319 -204c-72 -99 -145 -225 -145 -380c0 -138 74 -243 226 -243c142 0 287 85 385 240c49 77 121 223 121 374c0 106 -17 211 -109 246c-6 2 -8 4 -8 6c0 1 1 2 4 2c28 0 98 -33 132 -69c48 -51 75 -110 75 -198z" />
    <glyph glyph-name="Pi" unicode="&#x3a0;" horiz-adv-x="920" 
d="M540 886c172 0 327 -23 505 -23c94 0 149 26 155 58c1 6 5 18 10 18c6 0 8 -6 8 -9c0 -42 -107 -116 -223 -116h-34c-104 -172 -229 -437 -272 -546c-24 -61 -36 -120 -36 -162c0 -32 26 -80 86 -80c50 0 141 28 213 82c60 46 96 90 136 140c4 6 6 6 8 6s4 -2 4 -4
s0 -2 -2 -6c-50 -68 -104 -120 -138 -146c-66 -50 -181 -114 -275 -114c-68 0 -125 29 -125 98c0 49 21 118 45 176c70 170 184 375 275 559c-90 4 -193 11 -287 16c-63 -143 -140 -302 -191 -399c-77 -145 -135 -258 -192 -373c-29 -58 -39 -56 -80 -61
c-44 -5 -56 -17 -69 -17c-5 0 -7 3 -7 5c0 6 9 9 34 44c47 66 84 126 133 216c94 172 224 399 292 589c0 0 -6 1 -11 1c-95 0 -146 -14 -188 -56c-12 -12 -18 -20 -22 -20s-6 2 -6 6s8 14 22 28c55 55 131 90 232 90z" />
    <glyph glyph-name="Chi" unicode="&#x3a7;" horiz-adv-x="796" 
d="M1050 829c-86 -58 -197 -133 -465 -371c12 -135 32 -293 56 -369c25 -84 63 -144 127 -144c20 0 42 3 59 17c10 8 18 23 21 23s4 -3 4 -5c0 -13 -39 -68 -113 -68c-68 0 -146 29 -179 143c-16 55 -33 207 -47 338c-151 -138 -350 -328 -410 -389c-12 -12 -21 -13 -38 -13
c-10 0 -33 -1 -57 -8c-23 -8 -27 -15 -35 -15c-3 0 -8 1 -7 4c0 1 1 1 1 2c4 6 63 42 91 64c127 101 272 230 451 388c-10 98 -22 191 -30 248c-14 99 -33 160 -80 160c-24 0 -57 -7 -102 -52c-12 -12 -18 -20 -22 -20s-6 2 -6 6s8 14 22 28c67 67 119 90 164 90
c62 0 95 -53 107 -160c7 -60 14 -152 21 -235c128 114 267 236 370 325c35 30 63 44 90 50c26 6 56 6 71 6c8 0 16 -3 15 -7c0 -2 -1 -3 -3 -3c-1 0 -3 1 -6 1c-10 0 -28 -6 -70 -34z" />
    <glyph glyph-name="Rho" unicode="&#x3a1;" horiz-adv-x="820" 
d="M90 34c60 98 107 188 152 278c71 142 169 331 169 421c0 11 -10 14 -10 19c0 6 5 6 38 11c46 7 70 22 75 22c8 0 14 -4 14 -10c0 -8 -35 -104 -65 -168l2 -1c53 69 226 280 391 280c84 0 150 -64 150 -174c0 -204 -282 -401 -554 -401c-48 0 -84 4 -124 16
c-60 -124 -113 -263 -138 -323c-10 -24 -48 -4 -96 -22c-20 -8 -20 -14 -28 -14c-4 0 -10 2 -10 6c0 6 26 46 34 60zM351 374c50 -23 100 -36 165 -36c212 0 412 188 412 349c0 85 -54 143 -128 143c-186 0 -369 -290 -449 -456z" />
    <glyph glyph-name="Sigma" unicode="&#x3a3;" horiz-adv-x="945" 
d="M627 441c-38 115 -75 213 -116 315c-17 42 -27 50 -27 62c0 7 8 9 34 32c18 16 28 36 58 36c172 0 255 -23 433 -23c55 0 109 20 115 52c1 6 5 18 10 18c6 0 8 -6 8 -9c0 -42 -94 -110 -191 -110c-116 0 -230 12 -367 20l-1 -1c38 -133 77 -236 126 -355
c2 -6 9 -16 9 -23c0 -4 -8 -15 -26 -27c-106 -68 -323 -249 -481 -385c153 -4 315 -9 541 -9c51 0 105 23 105 73c0 7 3 12 8 12s7 -21 10 -30c4 -11 12 -30 12 -37c0 -45 -47 -83 -99 -83c-177 0 -291 38 -594 38c-45 0 -75 -16 -105 -16h-3c-22 1 -29 4 -29 7
c0 6 4 12 15 13c23 3 65 24 116 64c142 110 317 250 439 366z" />
    <glyph glyph-name="Tau" unicode="&#x3a4;" horiz-adv-x="728" 
d="M919 814c-52 0 -111 6 -172 13c-47 -80 -165 -293 -218 -393c-77 -145 -135 -258 -192 -373c-29 -58 -39 -56 -80 -61c-44 -5 -56 -17 -69 -17c-5 0 -7 3 -7 5c0 6 9 9 34 44c47 66 84 126 133 216c95 174 244 442 307 589c-52 4 -101 10 -158 10
c-59 0 -134 -22 -178 -65c-12 -12 -18 -20 -22 -20s-6 2 -6 6s8 14 22 28c55 56 131 90 236 90c172 0 250 -23 428 -23c55 0 109 20 115 52c1 6 5 18 10 18c6 0 8 -6 8 -9c0 -42 -94 -110 -191 -110z" />
    <glyph glyph-name="Upsilon" unicode="&#x3a5;" horiz-adv-x="715" 
d="M499 432c-66 -92 -205 -388 -228 -422c-15 -22 -48 -10 -102 -28c-23 -8 -22 -14 -31 -14c-5 0 -12 2 -12 6c0 6 30 34 51 66c139 210 202 332 238 413c28 63 44 141 44 211c0 91 -73 180 -163 180c-29 0 -96 -16 -142 -62c-12 -12 -18 -20 -22 -20s-6 2 -6 6s8 14 22 28
c66 68 141 90 190 90c135 0 204 -98 204 -201c0 -60 -11 -116 -25 -164h1c168 165 259 244 460 336c48 22 102 32 133 32c37 0 73 -21 73 -35c0 -2 -1 -4 -3 -4s-3 4 -13 4c-32 0 -72 -9 -118 -20c-219 -52 -388 -175 -551 -402z" />
    <glyph glyph-name="uni1FDE" unicode="&#x1fde;" 
d="M369 748c4 -6 10 -11 10 -16c0 -4 -3 -6 -8 -6c-6 0 -37 48 -37 105c0 77 57 125 76 125c5 0 22 -10 22 -22c0 -10 -75 -50 -75 -132c0 -25 4 -40 12 -54zM427 753l186 189c17 17 23 24 28 24c6 0 15 -21 15 -27s-4 -15 -10 -19l-211 -180c-3 -3 -14 -13 -20 -13
c-3 0 -5 2 -5 5c0 5 8 12 17 21z" />
    <glyph glyph-name="Omega" unicode="&#x3a9;" horiz-adv-x="1084" 
d="M264 29c-37 47 -94 148 -94 268c0 248 264 589 643 589c133 0 294 -90 294 -283c0 -116 -34 -237 -199 -411c-49 -52 -105 -92 -163 -142c96 -13 109 -25 196 -25c40 0 57 1 69 8c10 6 10 13 16 13c2 0 3 -2 3 -4c0 -10 -16 -25 -37 -52c-19 -25 -40 -30 -79 -30
c-102 0 -160 35 -230 35c-25 -28 -44 -29 -56 -29c-3 0 -8 5 -8 12c2 24 28 29 62 53c68 55 143 108 199 181c75 97 127 218 127 358c0 175 -119 266 -243 266c-355 0 -500 -303 -500 -512c0 -139 56 -229 107 -297c8 -10 17 -23 17 -26c0 -9 -6 -10 -18 -10
c-16 0 -40 3 -55 3c-128 0 -148 -18 -230 -18c-35 0 -50 9 -56 27c-8 24 -16 45 -16 48s1 5 4 5c4 0 4 -10 15 -18s31 -16 53 -16c46 0 81 8 106 8c19 0 73 -1 73 -1z" />
    <glyph glyph-name="Xi" unicode="&#x39e;" horiz-adv-x="950" 
d="M388 796c60 64 168 90 224 90c156 0 242 -68 396 -68c60 0 78 10 122 40c10 8 22 20 26 20c2 0 4 -2 4 -4c0 -4 -6 -8 -20 -20c-92 -74 -178 -80 -206 -80c-156 0 -238 68 -396 68c-60 0 -102 -18 -144 -60c-12 -12 -18 -20 -22 -20s-6 2 -6 6s8 14 22 28zM696 374
c-112 0 -168 48 -278 48c-60 0 -78 -10 -122 -40c-10 -8 -22 -20 -26 -20c-2 0 -4 2 -4 4c0 4 6 8 20 20c92 74 178 80 206 80c112 0 168 -48 278 -48c60 0 78 10 122 40c10 8 22 20 26 20c2 0 4 -2 4 -4c0 -4 -6 -8 -20 -20c-92 -74 -178 -80 -206 -80zM228 88
c186 0 268 -72 464 -72c60 0 78 10 122 40c10 8 22 20 26 20c2 0 4 -2 4 -4c0 -4 -6 -8 -20 -20c-92 -74 -178 -80 -206 -80c-196 0 -278 72 -464 72c-60 0 -78 -10 -122 -40c-10 -8 -22 -20 -26 -20c-2 0 -4 2 -4 4c0 4 6 8 20 20c92 74 178 80 206 80z" />
    <glyph glyph-name="Psi" unicode="&#x3a8;" horiz-adv-x="986" 
d="M534 269c-17 -34 -34 -67 -51 -101c-90 -176 -48 -170 -180 -178c-34 -2 -64 -8 -70 -8c-12 0 -16 4 -16 8s4 10 12 10c63 0 125 100 225 275c-106 18 -188 76 -188 169c0 108 100 240 100 330c0 34 -4 76 -62 76c-26 0 -80 -8 -140 -68c-12 -12 -18 -20 -22 -20
s-6 2 -6 6s8 14 22 28c66 68 148 90 186 90c76 0 108 -46 108 -100c0 -82 -94 -218 -94 -326c0 -74 49 -121 123 -138c110 193 238 446 270 518c15 33 16 32 54 38c20 3 47 11 56 11c6 0 6 -4 6 -6c0 -5 -13 -19 -22 -35c-87 -156 -188 -339 -287 -533
c266 0 554 263 554 502c0 44 -33 70 -49 70c-12 0 -14 -4 -18 -4c-2 0 -4 2 -4 4s2 6 10 12c18 14 42 30 70 30c21 0 61 -23 61 -80c0 -254 -358 -571 -648 -580z" />
    <glyph glyph-name="Zeta" unicode="&#x396;" horiz-adv-x="940" 
d="M825 817c158 0 230 31 270 31c9 0 15 -9 19 -14c7 -9 15 -15 15 -20c0 -3 -2 -4 -9 -6c-14 -4 -41 -24 -76 -54c-233 -205 -502 -429 -777 -704v-1c307 -21 441 -161 777 -161c51 0 107 30 107 75c0 3 1 10 6 10c2 0 7 -18 12 -27c5 -11 12 -25 12 -32
c0 -49 -51 -91 -103 -91c-251 0 -468 177 -850 177c-54 0 -89 -9 -144 -9c-22 0 -29 4 -29 7c0 6 4 12 15 13c23 3 57 28 106 70c278 235 540 474 794 715c-48 -10 -143 -13 -173 -13c-138 0 -179 37 -319 37c-46 0 -76 -10 -106 -38c-12 -12 -18 -20 -22 -20s-6 2 -6 6
s8 14 22 28c62 64 132 66 172 66c56 0 203 -45 287 -45z" />
    <glyph glyph-name="bracketleft" unicode="[" horiz-adv-x="540" 
d="M364 -126c16 0 20 -4 20 -8s-4 -8 -20 -8h-317c-4 0 -10 2 -10 8c0 8 21 40 55 100c179 316 392 719 537 1027c9 19 12 21 26 21h269c6 0 10 -2 10 -6c0 -6 -8 -10 -20 -10c-78 0 -151 -3 -180 -6c-17 -2 -30 -21 -37 -35l-529 -1003c-12 -24 -25 -45 -25 -51
c0 -9 5 -15 24 -18c32 -6 124 -11 197 -11z" />
    <glyph glyph-name="uni1FCF" unicode="&#x1fcf;" 
d="M410 751c21 19 32 45 32 70c0 20 -7 38 -20 50c-9 8 -17 11 -17 16c0 14 22 27 28 27c7 0 14 -7 20 -15c14 -17 19 -36 19 -54c0 -37 -24 -73 -50 -96c-15 -14 -29 -22 -32 -22c-4 0 -6 2 -6 4c0 6 18 13 26 20zM455 1020c64 0 75 -79 129 -79c12 0 42 6 76 55
c2 3 8 14 18 17s12 3 14 3s2 -1 2 -1c0 -3 -60 -93 -150 -93c-58 0 -71 76 -123 76c-49 0 -75 -36 -106 -69c-2 -2 -7 -5 -12 -7c-7 -3 -9 -4 -11 -4c-1 0 -2 1 -2 2c0 5 14 19 42 43c34 29 76 57 123 57z" />
    <glyph glyph-name="bracketright" unicode="]" horiz-adv-x="540" 
d="M462 996c-16 0 -20 6 -20 10s4 8 20 8h317c4 0 10 -2 10 -8c0 -8 -21 -40 -55 -100c-179 -316 -392 -719 -537 -1027c-9 -19 -12 -21 -26 -21h-269c-6 0 -10 2 -10 6c0 6 8 10 20 10c78 0 151 11 180 14c17 2 30 21 37 35l529 995c13 24 25 45 25 51c0 9 -1 18 -20 21
c-32 6 -128 6 -201 6z" />
    <glyph glyph-name="uni1FCE" unicode="&#x1fce;" 
d="M427 753l186 189c17 17 23 24 28 24c6 0 15 -21 15 -27s-4 -15 -10 -19l-211 -180c-3 -3 -14 -13 -20 -13c-3 0 -5 2 -5 5c0 5 8 12 17 21zM343 748c31 31 42 65 42 109c0 52 -28 58 -28 72s26 27 32 27c20 0 36 -41 36 -69c0 -78 -85 -161 -93 -161c-4 0 -6 2 -6 4
c0 6 10 11 17 18z" />
    <glyph glyph-name="uni1FCD" unicode="&#x1fcd;" 
d="M337 748c31 31 42 65 42 109c0 52 -28 58 -28 72s26 27 32 27c20 0 36 -41 36 -69c0 -78 -85 -161 -93 -161c-4 0 -6 2 -6 4c0 6 10 11 17 18zM512 732c0 -3 -5 -5 -8 -5s-8 5 -11 14l-50 154c-6 16 -10 31 -10 42c0 9 12 32 24 32c7 0 10 -4 12 -15l39 -199
c2 -10 4 -20 4 -23z" />
    <glyph glyph-name="uni1FEF" unicode="&#x1fef;" 
d="M439 731c0 -3 -5 -5 -8 -5s-8 5 -11 14l-50 154c-6 16 -10 31 -10 42c0 9 12 32 24 32c7 0 10 -4 12 -15l39 -199c2 -10 4 -20 4 -23z" />
    <glyph glyph-name="alpha" unicode="&#x3b1;" horiz-adv-x="658" 
d="M380 139c27 93 70 182 70 226c0 46 -24 65 -57 65c-135 0 -253 -225 -253 -322c0 -44 14 -73 64 -73c44 0 93 28 176 104zM698 98c-112 -88 -191 -113 -254 -113c-34 0 -77 9 -77 74c0 11 6 38 9 52c-82 -80 -152 -115 -226 -115c-59 0 -93 43 -93 104
c0 138 214 351 364 351c71 0 103 -33 103 -73c0 -42 -37 -106 -57 -154c60 71 92 106 129 149c19 22 32 32 50 38c23 8 34 10 38 10c2 0 2 -2 2 -2c0 -5 -4 -3 -17 -13s-38 -35 -45 -42c-53 -55 -115 -122 -170 -182c-9 -34 -16 -61 -16 -92c0 -42 11 -64 68 -64
c49 0 128 40 184 82c60 46 96 90 136 140c4 6 6 6 8 6s4 -2 4 -4s0 -2 -2 -6c-50 -68 -104 -120 -138 -146z" />
    <glyph glyph-name="beta" unicode="&#x3b2;" horiz-adv-x="734" 
d="M-323 -901c-5 -14 -23 -21 -48 -29c-24 -7 -32 -20 -37 -20c-4 0 -6 2 -6 6c0 8 60 137 137 308c162 358 443 944 660 1238c128 173 264 290 380 290c78 0 99 -62 99 -110c0 -122 -144 -260 -252 -300c87 -22 127 -69 127 -137c0 -243 -277 -373 -441 -373
c-42 0 -108 24 -108 58c0 14 2 30 2 42c-2 18 -8 28 -8 40c0 2 2 8 6 8c16 0 50 -114 180 -114c170 0 296 177 296 324c0 82 -52 136 -88 136c-38 0 -86 -12 -116 -12c-12 0 -24 2 -24 10c0 12 22 36 32 36c28 0 38 -14 92 -14c24 0 73 16 110 44c66 50 128 132 128 218
c0 60 -30 84 -78 84c-72 0 -143 -33 -227 -128c-211 -237 -462 -774 -632 -1156c-52 -116 -163 -386 -184 -449z" />
    <glyph glyph-name="sigma1" unicode="&#x3c2;" horiz-adv-x="516" 
d="M397 411c-136 0 -229 -129 -229 -229c0 -91 142 -96 142 -182c0 -68 -140 -142 -208 -142c-46 0 -71 31 -71 37c0 9 7 9 24 21s30 30 34 30c3 0 4 -4 4 -8c0 -19 35 -40 69 -40c14 0 84 6 84 64c0 82 -150 96 -150 192c0 160 225 297 361 297c54 0 80 -44 80 -54
c0 -12 -18 -16 -36 -26c-16 -10 -22 -20 -26 -20s-4 2 -4 4c0 22 -36 56 -74 56z" />
    <glyph glyph-name="delta" unicode="&#x3b4;" horiz-adv-x="572" 
d="M448 435c-159 -39 -303 -164 -303 -316c0 -68 47 -88 87 -88c159 0 233 165 233 256c0 56 -13 125 -17 148zM486 795c0 -147 37 -333 37 -434c0 -175 -169 -375 -339 -375c-66 0 -117 45 -117 115c0 184 251 322 377 349c-4 19 -16 132 -16 248c0 330 210 453 338 453
c97 0 126 -51 126 -88c0 -42 -41 -162 -58 -162c-2 0 -3 1 -3 3c0 13 15 35 15 86c0 80 -40 122 -115 122c-138 0 -245 -135 -245 -317z" />
    <glyph glyph-name="epsilon" unicode="&#x3b5;" horiz-adv-x="432" 
d="M464 108c60 46 96 90 136 140c4 6 6 6 8 6s4 -2 4 -4s0 -2 -2 -6c-50 -68 -104 -120 -138 -146c-46 -36 -164 -118 -290 -118c-84 0 -156 32 -156 118c0 73 110 136 150 158c-14 13 -28 45 -28 59c0 72 98 136 190 136c50 0 80 -35 80 -47c0 -16 -33 -29 -40 -37
c-5 -6 -4 -8 -8 -8c-3 0 -3 14 -8 22c-11 17 -32 42 -72 42c-50 0 -90 -16 -90 -76c0 -34 32 -72 48 -72c10 0 24 2 34 2c12 0 16 -4 16 -8c0 -8 -4 -12 -16 -18c-20 -8 -30 -20 -50 -20c-8 0 -22 2 -30 2c-22 0 -100 -56 -100 -113c0 -68 48 -110 124 -110
c64 0 148 30 238 98z" />
    <glyph glyph-name="phi" unicode="&#x3c6;" horiz-adv-x="696" 
d="M302 390c0 -68 -104 -184 -104 -274c0 -54 30 -86 74 -96c140 270 255 428 363 428c36 0 49 -38 49 -64c0 -178 -194 -384 -390 -402c-196 -390 -243 -557 -243 -673c0 -171 77 -207 164 -207s197 61 233 118c8 13 11 14 14 14c2 0 6 -2 6 -4s0 -4 -2 -8
c-48 -67 -192 -154 -311 -154c-93 0 -170 54 -170 214c0 152 75 322 267 698c-72 6 -128 64 -128 132c0 40 18 86 44 136c20 38 66 120 66 150c0 18 -10 26 -28 26c-28 0 -48 -10 -72 -26c-6 -4 -8 -6 -10 -6s-4 2 -4 4s0 4 6 8c32 22 70 44 110 44s66 -14 66 -58zM312 16
c184 0 306 222 306 332c0 30 -14 60 -38 60c-58 0 -135 -136 -268 -392z" />
    <glyph glyph-name="gamma" unicode="&#x3b3;" horiz-adv-x="540" 
d="M156 -122c106 186 245 395 367 527c49 53 88 77 121 77c7 0 16 -4 32 -8c10 -3 24 -5 24 -9c0 -2 -13 -3 -25 -6c-24 -6 -75 -42 -114 -82c-87 -87 -309 -352 -447 -623c-32 -63 -52 -98 -82 -160c-50 -104 -94 -256 -121 -256c-18 0 -43 50 -43 63c0 48 96 167 130 222
c82 153 176 434 176 673c0 84 -16 106 -26 106c-3 0 -8 0 -14 -4s-8 -6 -10 -6s-4 2 -4 4s0 4 6 8c16 10 66 39 83 39c29 0 48 -12 48 -76c0 -166 -64 -376 -101 -489z" />
    <glyph glyph-name="eta" unicode="&#x3b7;" horiz-adv-x="630" 
d="M305 411c0 -20 -12 -61 -32 -97c58 56 171 138 239 138c42 0 77 -34 77 -74c0 -84 -149 -248 -149 -320c0 -20 12 -38 32 -38c60 0 146 54 190 88c60 46 96 90 136 140c4 6 6 6 8 6s4 -2 4 -4s0 -2 -2 -6c-50 -68 -104 -120 -138 -146c-102 -82 -205 -118 -253 -118
c-34 0 -60 21 -60 57c0 98 148 254 148 332c0 29 -21 45 -40 45c-54 0 -124 -52 -209 -144l-148 -262c-7 -12 -25 -7 -51 -12c-23 -5 -32 -11 -40 -11c-2 0 -4 1 -4 4s5 4 12 14c12 17 31 49 51 83c28 48 48 80 92 162c16 30 60 126 60 152s-8 32 -20 32
c-20 0 -50 -18 -74 -34c-6 -4 -8 -6 -10 -6s-4 2 -4 4s0 4 6 8c8 6 76 56 120 56c40 0 59 -21 59 -49z" />
    <glyph glyph-name="iota" unicode="&#x3b9;" horiz-adv-x="374" 
d="M305 411c0 -84 -152 -246 -152 -330c0 -40 33 -55 75 -55s112 40 168 82c60 46 96 90 136 140c4 6 6 6 8 6s4 -2 4 -4s0 -2 -2 -6c-50 -68 -104 -120 -138 -146c-52 -42 -150 -106 -234 -106c-56 0 -97 25 -97 77c0 100 155 276 155 331c0 26 -8 32 -20 32
c-20 0 -50 -18 -74 -34c-6 -4 -8 -6 -10 -6s-4 2 -4 4s0 4 6 8c8 6 76 56 120 56c40 0 59 -21 59 -49z" />
    <glyph glyph-name="theta" unicode="&#x3b8;" horiz-adv-x="693" 
d="M616 394c30 50 210 389 210 566c0 59 -8 112 -56 112c-122 0 -232 -293 -232 -456c0 -120 20 -170 78 -222zM240 448c32 0 70 -12 70 -50c0 -94 -114 -176 -114 -292c0 -48 18 -84 60 -84c153 0 256 208 334 328c-85 43 -114 129 -114 227c0 216 153 527 334 527
c60 0 82 -63 82 -130c0 -196 -218 -558 -245 -600c14 -8 28 -14 44 -14c60 0 108 30 128 44c6 4 8 6 10 6s4 -2 4 -4s0 -4 -6 -8c-56 -38 -106 -62 -174 -62c-10 0 -17 2 -27 4c-156 -242 -270 -348 -410 -348c-48 0 -96 32 -96 108c0 40 18 98 48 148c32 56 76 110 76 146
c0 24 -26 34 -36 34c-28 0 -50 -14 -74 -30c-6 -4 -8 -6 -10 -6s-4 2 -4 4s0 4 6 8c8 6 56 44 114 44z" />
    <glyph glyph-name="kappa" unicode="&#x3ba;" horiz-adv-x="610" 
d="M306 401c0 -49 -95 -194 -111 -224h2l17 17c108 112 282 256 360 256c22 0 44 -5 44 -21c0 -11 -14 -19 -32 -33c-13 -10 -18 -20 -24 -20c-4 0 -4 2 -4 6c0 6 -13 11 -33 11c-50 0 -95 -30 -191 -111c21 -26 40 -49 56 -117c25 -104 31 -141 84 -141c38 0 122 46 168 84
c60 46 96 90 136 140c4 6 6 6 8 6s4 -2 4 -4s0 -2 -2 -6c-50 -68 -104 -120 -138 -146c-48 -40 -156 -114 -233 -114c-71 0 -82 59 -100 149c-10 47 -33 82 -46 94c-15 -14 -56 -55 -106 -118c-16 -27 -32 -54 -55 -101c-4 -8 -40 -8 -58 -10c-16 -2 -26 -11 -32 -11
c0 0 -4 0 -4 4c0 10 42 47 152 257c36 68 64 120 64 144c0 26 -8 40 -24 40c-20 0 -50 -18 -74 -34c-6 -4 -8 -6 -10 -6s-4 2 -4 4s0 4 6 8c8 6 76 56 120 56c40 0 60 -26 60 -59z" />
    <glyph glyph-name="lambda" unicode="&#x3bb;" horiz-adv-x="776" 
d="M512 432c-87 -75 -137 -120 -201 -180c-95 -88 -259 -262 -302 -349c-4 -7 -4 -14 -8 -14s-5 4 -5 6c0 53 11 109 38 136c126 127 346 316 478 429v398c0 108 -23 254 -136 254c-99 0 -151 -92 -162 -123c-4 -10 -15 -14 -18 -14c-2 0 -4 1 -4 3c0 30 105 173 223 173
c139 0 161 -180 161 -269v-435c0 -166 6 -309 40 -369c16 -26 36 -38 58 -38c34 0 86 30 134 68c60 46 96 90 136 140c4 6 6 6 8 6s4 -2 4 -4s0 -2 -2 -6c-50 -68 -104 -120 -138 -146c-104 -84 -156 -98 -194 -98c-100 0 -110 164 -110 432z" />
    <glyph glyph-name="mu" unicode="&#x3bc;" horiz-adv-x="640" 
d="M84 44c0 41 26 132 60 200c39 78 101 202 129 202c10 0 16 -5 16 -14c0 -67 -116 -301 -145 -358c0 -33 6 -50 54 -50c90 0 186 94 218 128c38 78 89 186 109 226c16 31 28 54 42 54c11 0 42 -6 42 -26c0 -38 -59 -94 -95 -167c-23 -47 -56 -123 -56 -154
c0 -40 15 -58 46 -58c40 0 112 35 168 81c60 46 96 90 136 140c4 6 6 6 8 6s4 -2 4 -4s0 -2 -2 -6c-50 -68 -104 -120 -138 -146c-76 -64 -164 -111 -224 -111c-34 0 -71 11 -71 54c0 20 5 45 15 71c-67 -65 -174 -128 -250 -128c-19 0 -41 12 -51 25
c-144 -241 -324 -482 -411 -591c-42 -52 -79 -88 -111 -107c-39 -24 -82 -29 -93 -29c-5 0 -13 1 -13 4c0 9 22 11 54 33c157 108 377 399 559 725z" />
    <glyph glyph-name="mu" unicode="&#xb5;" horiz-adv-x="640" 
d="M84 44c0 41 26 132 60 200c39 78 101 202 129 202c10 0 16 -5 16 -14c0 -67 -116 -301 -145 -358c0 -33 6 -50 54 -50c90 0 186 94 218 128c38 78 89 186 109 226c16 31 28 54 42 54c11 0 42 -6 42 -26c0 -38 -59 -94 -95 -167c-23 -47 -56 -123 -56 -154
c0 -40 15 -58 46 -58c40 0 112 35 168 81c60 46 96 90 136 140c4 6 6 6 8 6s4 -2 4 -4s0 -2 -2 -6c-50 -68 -104 -120 -138 -146c-76 -64 -164 -111 -224 -111c-34 0 -71 11 -71 54c0 20 5 45 15 71c-67 -65 -174 -128 -250 -128c-19 0 -41 12 -51 25
c-144 -241 -324 -482 -411 -591c-42 -52 -79 -88 -111 -107c-39 -24 -82 -29 -93 -29c-5 0 -13 1 -13 4c0 9 22 11 54 33c157 108 377 399 559 725z" />
    <glyph glyph-name="nu" unicode="&#x3bd;" horiz-adv-x="540" 
d="M292 396c0 -40 -28 -102 -54 -160c-24 -54 -50 -118 -72 -176c98 82 194 148 292 236c50 48 106 118 106 190c0 90 -48 88 -48 100c0 4 22 16 42 16c22 0 70 -30 70 -86c0 -92 -72 -166 -150 -234c-88 -76 -194 -146 -276 -214c-54 -46 -84 -88 -94 -88
c-8 0 -16 18 -16 30c0 56 43 166 76 238c26 57 54 114 54 152c0 20 -12 26 -22 26c-16 0 -42 -12 -66 -28c-6 -4 -8 -6 -10 -6s-4 2 -4 4s0 4 6 8c2 2 60 48 118 48c36 0 48 -30 48 -56z" />
    <glyph glyph-name="omicron" unicode="&#x3bf;" horiz-adv-x="560" 
d="M414 451c76 0 124 -52 124 -132c0 -183 -193 -335 -344 -335c-75 0 -128 54 -128 129c0 172 197 338 348 338zM385 429c-109 0 -234 -170 -234 -305c0 -65 31 -114 74 -114c110 0 232 173 232 308c0 64 -27 111 -72 111z" />
    <glyph glyph-name="pi" unicode="&#x3c0;" horiz-adv-x="634" 
d="M232 247c-55 -101 -87 -160 -124 -239c-6 -12 -28 -6 -51 -12c-20 -5 -31 -10 -39 -10c-3 0 -6 0 -6 4c0 8 21 20 64 92c28 48 48 84 92 166c21 40 63 114 88 172c-60 0 -104 -10 -122 -22c-6 -4 -8 -6 -10 -6s-4 2 -4 4s0 4 6 8c36 24 85 44 133 44
c84 0 161 -26 257 -26c52 0 104 5 152 27c12 6 19 12 23 12c2 0 3 -3 3 -3c0 -12 -89 -60 -138 -72c-81 -155 -130 -251 -130 -307c0 -46 22 -59 50 -59c60 0 146 54 190 88c60 46 96 90 136 140c4 6 6 6 8 6s4 -2 4 -4s0 -2 -2 -6c-50 -68 -104 -120 -138 -146
c-102 -82 -190 -116 -238 -116c-46 0 -86 11 -86 81s68 187 138 323c-38 0 -89 1 -167 17c-16 -24 -49 -83 -89 -156z" />
    <glyph glyph-name="chi" unicode="&#x3c7;" horiz-adv-x="560" 
d="M636 -237c18 18 25 25 30 25c3 0 5 -2 5 -5c0 -6 -5 -13 -25 -33c-50 -50 -127 -85 -199 -85c-190 0 -185 209 -187 452c-20 -17 -39 -34 -58 -52c-88 -82 -168 -164 -227 -240c-12 -15 -15 -17 -17 -17s-4 2 -4 4c0 6 9 25 13 37c12 33 3 34 26 59
c60 62 123 118 197 179c23 19 47 38 70 57c-1 67 -4 139 -4 190c0 54 -15 98 -48 98c-20 0 -50 -18 -74 -34c-6 -4 -8 -6 -10 -6s-4 2 -4 4s0 4 6 8c8 6 76 56 120 56c52 0 81 -35 81 -120c0 -32 -2 -103 -3 -156c69 59 161 127 234 184c41 32 75 59 91 81c3 5 7 21 11 21
s3 -4 3 -7s-1 -32 -2 -46c-1 -8 -27 -24 -50 -40c-90 -59 -202 -145 -288 -217c0 0 -1 -58 -1 -87c0 -193 18 -377 169 -377c47 0 98 22 145 67z" />
    <glyph glyph-name="rho" unicode="&#x3c1;" horiz-adv-x="547" 
d="M415 389c-151 0 -300 -226 -432 -457c-142 -248 -220 -444 -328 -741c-12 -32 -22 -58 -32 -93c-4 -14 -19 -17 -44 -26c-32 -12 -43 -25 -49 -25c-2 0 -4 5 -4 7c0 11 20 57 50 124c106 238 217 490 383 770c182 307 331 502 521 502c37 0 83 -27 83 -82
c0 -70 -48 -153 -151 -246c-64 -58 -180 -140 -296 -140c-18 0 -38 3 -38 14c0 7 10 22 16 30c7 10 12 24 17 24c3 0 3 -9 8 -16c14 -20 44 -22 53 -22c138 0 308 207 308 311c0 50 -28 66 -65 66z" />
    <glyph glyph-name="sigma" unicode="&#x3c3;" horiz-adv-x="600" 
d="M522 391c9 -18 14 -38 14 -59c0 -183 -192 -348 -351 -348c-85 0 -122 60 -122 116c0 171 199 351 358 351c54 0 108 -25 190 -25c61 0 103 15 147 48c8 6 16 14 20 14s4 -2 4 -4s-104 -102 -189 -102c-25 0 -47 5 -71 9zM440 406c-16 5 -43 9 -57 9
c-70 0 -134 -61 -165 -104c-44 -61 -73 -134 -73 -195c0 -63 30 -106 71 -106c114 0 245 185 245 314c0 35 -11 64 -21 82z" />
    <glyph glyph-name="tau" unicode="&#x3c4;" horiz-adv-x="470" 
d="M510 98c-64 -50 -196 -110 -288 -110c-67 0 -109 24 -109 101c0 49 18 94 55 159c23 40 72 122 100 165c-13 3 -51 4 -64 4c-39 0 -68 -5 -90 -19c-6 -4 -8 -6 -10 -6s-4 2 -4 4s0 4 6 8c36 24 85 44 133 44c93 0 159 -10 237 -10c22 0 40 3 62 15c9 5 14 10 17 10
c1 0 2 -2 2 -2c0 -11 -51 -68 -124 -68c-46 0 -69 3 -113 8c-16 -26 -50 -81 -88 -154c-34 -65 -44 -101 -44 -136c0 -64 43 -82 98 -82c76 0 175 47 216 79c59 47 96 90 136 140c4 6 6 6 8 6s4 -2 4 -4s0 -2 -2 -6c-50 -68 -104 -120 -138 -146z" />
    <glyph glyph-name="upsilon" unicode="&#x3c5;" horiz-adv-x="622" 
d="M237 460c33 0 58 -17 58 -64c0 -74 -115 -169 -115 -279c0 -73 50 -103 102 -103c166 0 222 178 222 330c0 47 -16 41 -16 71c0 13 21 21 34 28c16 9 28 23 36 23c6 0 8 -5 8 -9c0 -16 -2 -19 -2 -39c0 -22 22 -56 64 -56c38 0 86 18 120 42c6 4 8 6 10 6s4 -2 4 -4
s0 -4 -6 -8c-26 -18 -97 -58 -142 -58c-29 0 -42 6 -42 6c0 -200 -151 -366 -338 -366c-110 0 -130 92 -130 132s10 78 44 136c33 55 76 111 76 146c0 24 -7 38 -25 38c-15 0 -41 -18 -65 -34c-6 -4 -8 -6 -10 -6s-4 2 -4 4s0 4 6 8c8 6 74 56 111 56z" />
    <glyph glyph-name="uni200C" unicode="&#x200c;" horiz-adv-x="0" 
 />
    <glyph glyph-name="omega" unicode="&#x3c9;" horiz-adv-x="730" 
d="M595 415c0 13 17 22 30 29c16 9 25 18 32 18c5 0 6 -4 6 -8c0 -16 -2 -9 -2 -33c0 -23 28 -61 89 -61c42 0 96 38 106 44c6 4 8 6 10 6s4 -2 4 -4s0 -4 -6 -8c-20 -14 -98 -74 -174 -74c2 -16 4 -36 4 -54c0 -230 -190 -296 -256 -296c-34 0 -72 12 -94 52
c-6 10 -8 18 -12 30c-38 -32 -104 -68 -160 -68c-38 0 -101 21 -101 105c0 98 59 174 99 222c26 31 57 64 57 84s-10 27 -26 27c-20 0 -43 -12 -67 -28c-6 -4 -8 -6 -10 -6s-4 2 -4 4s0 4 6 8c8 6 80 56 117 56c35 0 58 -9 58 -39s-49 -72 -79 -109
c-42 -53 -80 -111 -80 -191c0 -83 32 -105 72 -105c28 0 70 14 112 74c0 134 60 160 60 160c6 4 32 14 36 14c10 0 14 -8 14 -18c0 -26 -14 -72 -44 -118c2 -54 38 -120 94 -120c108 0 150 154 150 226c0 56 -11 94 -23 121c-7 15 -18 44 -18 60z" />
    <glyph glyph-name="xi" unicode="&#x3be;" horiz-adv-x="616" 
d="M300 -206c0 32 -7 63 -22 91c-198 -104 -421 -224 -421 -394c0 -69 38 -101 88 -101c191 0 354 264 355 404zM360 -169c0 -178 -246 -478 -465 -478c-61 0 -111 40 -111 108c0 199 271 331 485 438c-49 73 -146 115 -146 222c0 109 114 237 249 312c43 24 99 48 144 58
c-60 21 -101 67 -101 115c0 73 94 186 281 267c-37 -7 -74 -12 -110 -12c-75 0 -146 32 -146 104c0 26 5 48 25 73c11 14 26 19 41 24c18 6 31 14 36 14c2 0 4 -1 4 -3c0 -3 -10 -7 -16 -14c-16 -19 -31 -41 -31 -69c0 -80 64 -91 138 -91c40 0 91 9 129 26
c31 14 80 43 144 80c26 15 43 19 54 19c17 0 23 -7 23 -14c0 -19 -57 -54 -78 -63c-55 -24 -90 -39 -147 -62c-140 -56 -284 -155 -284 -267c0 -58 98 -108 125 -108c10 0 29 6 37 6c18 0 25 -2 25 -7c0 -25 -26 -28 -42 -28c0 0 -17 1 -36 1c-85 0 -155 -33 -208 -63
c-135 -77 -178 -208 -178 -265c0 -117 97 -143 136 -222c51 25 106 51 166 83c38 20 104 58 146 93c58 48 96 90 136 140c4 6 6 6 8 6s4 -2 4 -4s0 -2 -2 -6c-50 -68 -106 -118 -138 -146c-47 -40 -106 -72 -155 -99c-48 -27 -111 -57 -158 -81c11 -27 15 -56 16 -87z" />
    <glyph glyph-name="psi" unicode="&#x3c8;" horiz-adv-x="710" 
d="M307 -16c-146 -302 -216 -450 -216 -605c0 -151 61 -221 169 -221c87 0 172 61 208 118c8 13 11 14 14 14c2 0 6 -2 6 -4s0 -4 -2 -8c-48 -67 -147 -156 -276 -156c-93 0 -187 66 -187 200c0 159 46 282 238 658c-112 0 -137 80 -137 132c0 40 18 86 44 136
c20 38 66 120 66 150c0 18 -10 26 -28 26c-28 0 -48 -10 -72 -26c-6 -4 -8 -6 -10 -6s-4 2 -4 4s0 4 6 8c32 22 70 44 110 44s66 -14 66 -58c0 -68 -104 -184 -104 -274c0 -62 25 -96 81 -100c64 126 125 269 187 380c4 6 43 27 63 27c10 0 18 -3 18 -6
c0 -9 -123 -201 -224 -401c96 2 184 48 264 200c44 84 129 230 240 230c27 0 37 -22 37 -25s-7 -7 -16 -12c-7 -4 -11 -8 -13 -8s-3 3 -3 4c-3 11 -14 19 -38 19c-61 0 -86 -102 -151 -208c-64 -104 -186 -210 -336 -232z" />
    <glyph glyph-name="zeta" unicode="&#x3b6;" horiz-adv-x="624" 
d="M286 -115c-198 -104 -419 -224 -419 -394c0 -69 36 -101 86 -101c191 0 355 264 355 404c0 32 -7 63 -22 91zM207 167c0 -101 99 -156 138 -235c51 25 106 51 166 83c38 20 104 58 146 93c58 48 96 90 136 140c4 6 6 6 8 6s4 -2 4 -4s0 -2 -2 -6
c-50 -68 -106 -118 -138 -146c-47 -40 -106 -72 -155 -99c-48 -27 -111 -57 -158 -81c11 -27 16 -56 16 -87c0 -178 -246 -478 -465 -478c-61 0 -111 40 -111 108c0 199 271 331 485 438c-49 73 -146 125 -146 242c0 307 377 584 574 732c-37 -7 -75 -12 -111 -12
c-75 0 -148 32 -148 104c0 26 7 48 27 73c11 14 26 19 41 24c18 6 31 14 36 14c2 0 4 -1 4 -3c0 -3 -10 -7 -16 -14c-16 -19 -26 -36 -26 -64c0 -79 60 -88 134 -88c45 0 87 0 128 18c31 14 94 63 158 100c26 15 43 19 54 19c17 0 23 -7 23 -14c0 -19 -58 -50 -78 -62
c-55 -32 -111 -49 -163 -82c-199 -127 -561 -397 -561 -719z" />
    <glyph glyph-name="guillemotleft" unicode="&#xab;" horiz-adv-x="625" 
d="M558 479c2 0 8 -5 8 -9s-9 -16 -13 -18c-288 -230 -289 -222 -289 -240c0 -32 82 -228 82 -248c0 -8 -2 -6 -18 -9c-28 -4 -37 -9 -45 -9c-4 0 -5 0 -7 4c-18 36 -68 232 -68 244c0 8 2 14 6 18c106 72 328 267 344 267zM678 455c4 0 10 -4 10 -12c0 -2 -4 -8 -12 -14
c-226 -182 -238 -187 -238 -207c0 -44 97 -234 97 -242s-58 -16 -62 -16s-6 0 -8 4c-4 6 -81 204 -81 236c0 10 2 18 14 28c147 115 266 223 280 223z" />
    <glyph glyph-name="uni037A" unicode="&#x37a;" horiz-adv-x="200" 
d="M34 -242c-28 -16 -68 -31 -97 -31c-28 0 -51 15 -51 45c0 58 92 158 92 190c0 10 -6 15 -13 15c-12 0 -26 -6 -42 -15c-4 -2 -7 -4 -8 -4c-2 0 -4 1 -4 4c0 1 3 5 7 7c6 4 49 31 79 31c23 0 37 -21 37 -39c0 -49 -85 -130 -85 -179c0 -25 13 -33 29 -33s36 8 51 16
c4 2 7 4 8 4c2 0 4 -1 4 -4c0 -1 -3 -5 -7 -7z" />
    <glyph glyph-name="guillemotright" unicode="&#xbb;" horiz-adv-x="625" 
d="M197 -56c-2 0 -8 5 -8 9s9 16 13 18c288 230 289 222 289 240c0 32 -82 228 -82 248c0 8 2 6 18 9c28 4 37 9 45 9c4 0 5 0 7 -4c18 -36 68 -232 68 -244c0 -8 -2 -14 -6 -18c-106 -72 -328 -267 -344 -267zM77 -32c-4 0 -10 4 -10 12c0 2 4 8 12 14
c226 182 238 187 238 207c0 44 -97 234 -97 242s58 16 62 16s6 0 8 -4c4 -6 81 -204 81 -236c0 -10 -2 -18 -14 -28c-147 -115 -266 -223 -280 -223z" />
    <glyph glyph-name="uni1FC0" unicode="&#x1fc0;" 
d="M409 870c64 0 75 -79 129 -79c12 0 42 6 76 55c2 3 8 14 18 17s12 3 14 3s2 -1 2 -1c0 -3 -60 -93 -150 -93c-58 0 -71 76 -123 76c-49 0 -75 -36 -106 -69c-2 -2 -7 -5 -12 -7c-7 -3 -9 -4 -11 -4c-1 0 -2 1 -2 2c0 5 14 19 42 43c34 29 76 57 123 57z" />
    <glyph glyph-name="emdash" unicode="&#x2014;" horiz-adv-x="1560" 
d="M967 350c107 0 478 2 492 2c2 0 5 0 5 -2s-2 -4 -10 -22c-8 -19 -14 -30 -20 -30c-26 0 -377 6 -629 6c-190 0 -509 -2 -546 -2c-2 0 -4 0 -4 2s4 5 15 24c8 14 15 26 22 26c65 0 459 -4 675 -4z" />
    <glyph glyph-name="uni1F70" unicode="&#x1f70;" horiz-adv-x="658" 
d="M531 551c0 -3 -5 -5 -8 -5s-8 5 -11 14l-50 154c-6 16 -10 31 -10 42c0 9 12 32 24 32c7 0 10 -4 12 -15l39 -199c2 -10 4 -20 4 -23zM380 139c27 93 70 182 70 226c0 46 -24 65 -57 65c-135 0 -253 -225 -253 -322c0 -44 14 -73 64 -73c44 0 93 28 176 104zM698 98
c-112 -88 -191 -113 -254 -113c-34 0 -77 9 -77 74c0 11 6 38 9 52c-82 -80 -152 -115 -226 -115c-59 0 -93 43 -93 104c0 138 214 351 364 351c71 0 103 -33 103 -73c0 -42 -37 -106 -57 -154c60 71 92 106 129 149c19 22 32 32 50 38c23 8 34 10 38 10c2 0 2 -2 2 -2
c0 -5 -4 -3 -17 -13s-38 -35 -45 -42c-53 -55 -115 -122 -170 -182c-9 -34 -16 -61 -16 -92c0 -42 11 -64 68 -64c49 0 128 40 184 82c60 46 96 90 136 140c4 6 6 6 8 6s4 -2 4 -4s0 -2 -2 -6c-50 -68 -104 -120 -138 -146z" />
    <glyph glyph-name="uni1F01" unicode="&#x1f01;" horiz-adv-x="658" 
d="M514 568c4 -6 10 -11 10 -16c0 -4 -3 -6 -8 -6c-6 0 -37 48 -37 105c0 77 57 125 76 125c5 0 22 -10 22 -22c0 -10 -75 -50 -75 -132c0 -25 4 -40 12 -54zM380 139c27 93 70 182 70 226c0 46 -24 65 -57 65c-135 0 -253 -225 -253 -322c0 -44 14 -73 64 -73
c44 0 93 28 176 104zM698 98c-112 -88 -191 -113 -254 -113c-34 0 -77 9 -77 74c0 11 6 38 9 52c-82 -80 -152 -115 -226 -115c-59 0 -93 43 -93 104c0 138 214 351 364 351c71 0 103 -33 103 -73c0 -42 -37 -106 -57 -154c60 71 92 106 129 149c19 22 32 32 50 38
c23 8 34 10 38 10c2 0 2 -2 2 -2c0 -5 -4 -3 -17 -13s-38 -35 -45 -42c-53 -55 -115 -122 -170 -182c-9 -34 -16 -61 -16 -92c0 -42 11 -64 68 -64c49 0 128 40 184 82c60 46 96 90 136 140c4 6 6 6 8 6s4 -2 4 -4s0 -2 -2 -6c-50 -68 -104 -120 -138 -146z" />
    <glyph glyph-name="uni1F00" unicode="&#x1f00;" horiz-adv-x="658" 
d="M494 568c31 31 42 65 42 109c0 52 -28 58 -28 72s26 27 32 27c20 0 36 -41 36 -69c0 -78 -85 -161 -93 -161c-4 0 -6 2 -6 4c0 6 10 11 17 18zM380 139c27 93 70 182 70 226c0 46 -24 65 -57 65c-135 0 -253 -225 -253 -322c0 -44 14 -73 64 -73c44 0 93 28 176 104z
M698 98c-112 -88 -191 -113 -254 -113c-34 0 -77 9 -77 74c0 11 6 38 9 52c-82 -80 -152 -115 -226 -115c-59 0 -93 43 -93 104c0 138 214 351 364 351c71 0 103 -33 103 -73c0 -42 -37 -106 -57 -154c60 71 92 106 129 149c19 22 32 32 50 38c23 8 34 10 38 10
c2 0 2 -2 2 -2c0 -5 -4 -3 -17 -13s-38 -35 -45 -42c-53 -55 -115 -122 -170 -182c-9 -34 -16 -61 -16 -92c0 -42 11 -64 68 -64c49 0 128 40 184 82c60 46 96 90 136 140c4 6 6 6 8 6s4 -2 4 -4s0 -2 -2 -6c-50 -68 -104 -120 -138 -146z" />
    <glyph glyph-name="uni1F03" unicode="&#x1f03;" horiz-adv-x="658" 
d="M615 552c0 -3 -5 -5 -8 -5s-8 5 -11 14l-50 154c-6 16 -10 31 -10 42c0 9 12 32 24 32c7 0 10 -4 12 -15l39 -199c2 -10 4 -20 4 -23zM444 568c4 -6 10 -11 10 -16c0 -4 -3 -6 -8 -6c-6 0 -37 48 -37 105c0 77 57 125 76 125c5 0 22 -10 22 -22c0 -10 -75 -50 -75 -132
c0 -25 4 -40 12 -54zM380 139c27 93 70 182 70 226c0 46 -24 65 -57 65c-135 0 -253 -225 -253 -322c0 -44 14 -73 64 -73c44 0 93 28 176 104zM698 98c-112 -88 -191 -113 -254 -113c-34 0 -77 9 -77 74c0 11 6 38 9 52c-82 -80 -152 -115 -226 -115c-59 0 -93 43 -93 104
c0 138 214 351 364 351c71 0 103 -33 103 -73c0 -42 -37 -106 -57 -154c60 71 92 106 129 149c19 22 32 32 50 38c23 8 34 10 38 10c2 0 2 -2 2 -2c0 -5 -4 -3 -17 -13s-38 -35 -45 -42c-53 -55 -115 -122 -170 -182c-9 -34 -16 -61 -16 -92c0 -42 11 -64 68 -64
c49 0 128 40 184 82c60 46 96 90 136 140c4 6 6 6 8 6s4 -2 4 -4s0 -2 -2 -6c-50 -68 -104 -120 -138 -146z" />
    <glyph glyph-name="uni1FB2" unicode="&#x1fb2;" horiz-adv-x="658" 
d="M182 -100c6 0 6 -4 6 -6c0 -12 -62 -40 -62 -100c0 -32 28 -58 64 -58c20 0 42 9 46 9c1 0 2 -1 2 -3c0 -4 -60 -24 -88 -24c-36 0 -86 10 -86 58c0 74 112 124 118 124zM380 139c27 93 70 182 70 226c0 46 -24 65 -57 65c-135 0 -253 -225 -253 -322
c0 -44 14 -73 64 -73c44 0 93 28 176 104zM698 98c-112 -88 -191 -113 -254 -113c-34 0 -77 9 -77 74c0 11 6 38 9 52c-82 -80 -152 -115 -226 -115c-59 0 -93 43 -93 104c0 138 214 351 364 351c71 0 103 -33 103 -73c0 -42 -37 -106 -57 -154c60 71 92 106 129 149
c19 22 32 32 50 38c23 8 34 10 38 10c2 0 2 -2 2 -2c0 -5 -4 -3 -17 -13s-38 -35 -45 -42c-53 -55 -115 -122 -170 -182c-9 -34 -16 -61 -16 -92c0 -42 11 -64 68 -64c49 0 128 40 184 82c60 46 96 90 136 140c4 6 6 6 8 6s4 -2 4 -4s0 -2 -2 -6
c-50 -68 -104 -120 -138 -146zM531 551c0 -3 -5 -5 -8 -5s-8 5 -11 14l-50 154c-6 16 -10 31 -10 42c0 9 12 32 24 32c7 0 10 -4 12 -15l39 -199c2 -10 4 -20 4 -23z" />
    <glyph glyph-name="uni1F81" unicode="&#x1f81;" horiz-adv-x="658" 
d="M182 -100c6 0 6 -4 6 -6c0 -12 -62 -40 -62 -100c0 -32 28 -58 64 -58c20 0 42 9 46 9c1 0 2 -1 2 -3c0 -4 -60 -24 -88 -24c-36 0 -86 10 -86 58c0 74 112 124 118 124zM380 139c27 93 70 182 70 226c0 46 -24 65 -57 65c-135 0 -253 -225 -253 -322
c0 -44 14 -73 64 -73c44 0 93 28 176 104zM698 98c-112 -88 -191 -113 -254 -113c-34 0 -77 9 -77 74c0 11 6 38 9 52c-82 -80 -152 -115 -226 -115c-59 0 -93 43 -93 104c0 138 214 351 364 351c71 0 103 -33 103 -73c0 -42 -37 -106 -57 -154c60 71 92 106 129 149
c19 22 32 32 50 38c23 8 34 10 38 10c2 0 2 -2 2 -2c0 -5 -4 -3 -17 -13s-38 -35 -45 -42c-53 -55 -115 -122 -170 -182c-9 -34 -16 -61 -16 -92c0 -42 11 -64 68 -64c49 0 128 40 184 82c60 46 96 90 136 140c4 6 6 6 8 6s4 -2 4 -4s0 -2 -2 -6
c-50 -68 -104 -120 -138 -146zM514 568c4 -6 10 -11 10 -16c0 -4 -3 -6 -8 -6c-6 0 -37 48 -37 105c0 77 57 125 76 125c5 0 22 -10 22 -22c0 -10 -75 -50 -75 -132c0 -25 4 -40 12 -54z" />
    <glyph glyph-name="uni1F80" unicode="&#x1f80;" horiz-adv-x="658" 
d="M182 -100c6 0 6 -4 6 -6c0 -12 -62 -40 -62 -100c0 -32 28 -58 64 -58c20 0 42 9 46 9c1 0 2 -1 2 -3c0 -4 -60 -24 -88 -24c-36 0 -86 10 -86 58c0 74 112 124 118 124zM380 139c27 93 70 182 70 226c0 46 -24 65 -57 65c-135 0 -253 -225 -253 -322
c0 -44 14 -73 64 -73c44 0 93 28 176 104zM698 98c-112 -88 -191 -113 -254 -113c-34 0 -77 9 -77 74c0 11 6 38 9 52c-82 -80 -152 -115 -226 -115c-59 0 -93 43 -93 104c0 138 214 351 364 351c71 0 103 -33 103 -73c0 -42 -37 -106 -57 -154c60 71 92 106 129 149
c19 22 32 32 50 38c23 8 34 10 38 10c2 0 2 -2 2 -2c0 -5 -4 -3 -17 -13s-38 -35 -45 -42c-53 -55 -115 -122 -170 -182c-9 -34 -16 -61 -16 -92c0 -42 11 -64 68 -64c49 0 128 40 184 82c60 46 96 90 136 140c4 6 6 6 8 6s4 -2 4 -4s0 -2 -2 -6
c-50 -68 -104 -120 -138 -146zM494 568c31 31 42 65 42 109c0 52 -28 58 -28 72s26 27 32 27c20 0 36 -41 36 -69c0 -78 -85 -161 -93 -161c-4 0 -6 2 -6 4c0 6 10 11 17 18z" />
    <glyph glyph-name="uni1F83" unicode="&#x1f83;" horiz-adv-x="658" 
d="M182 -100c6 0 6 -4 6 -6c0 -12 -62 -40 -62 -100c0 -32 28 -58 64 -58c20 0 42 9 46 9c1 0 2 -1 2 -3c0 -4 -60 -24 -88 -24c-36 0 -86 10 -86 58c0 74 112 124 118 124zM380 139c27 93 70 182 70 226c0 46 -24 65 -57 65c-135 0 -253 -225 -253 -322
c0 -44 14 -73 64 -73c44 0 93 28 176 104zM698 98c-112 -88 -191 -113 -254 -113c-34 0 -77 9 -77 74c0 11 6 38 9 52c-82 -80 -152 -115 -226 -115c-59 0 -93 43 -93 104c0 138 214 351 364 351c71 0 103 -33 103 -73c0 -42 -37 -106 -57 -154c60 71 92 106 129 149
c19 22 32 32 50 38c23 8 34 10 38 10c2 0 2 -2 2 -2c0 -5 -4 -3 -17 -13s-38 -35 -45 -42c-53 -55 -115 -122 -170 -182c-9 -34 -16 -61 -16 -92c0 -42 11 -64 68 -64c49 0 128 40 184 82c60 46 96 90 136 140c4 6 6 6 8 6s4 -2 4 -4s0 -2 -2 -6
c-50 -68 -104 -120 -138 -146zM615 552c0 -3 -5 -5 -8 -5s-8 5 -11 14l-50 154c-6 16 -10 31 -10 42c0 9 12 32 24 32c7 0 10 -4 12 -15l39 -199c2 -10 4 -20 4 -23zM444 568c4 -6 10 -11 10 -16c0 -4 -3 -6 -8 -6c-6 0 -37 48 -37 105c0 77 57 125 76 125
c5 0 22 -10 22 -22c0 -10 -75 -50 -75 -132c0 -25 4 -40 12 -54z" />
    <glyph glyph-name="alphatonos" unicode="&#x3ac;" horiz-adv-x="658" 
d="M471 573l186 189c17 17 23 24 28 24c6 0 15 -21 15 -27s-4 -15 -10 -19l-211 -180c-3 -3 -14 -13 -20 -13c-3 0 -5 2 -5 5c0 5 8 12 17 21zM380 139c27 93 70 182 70 226c0 46 -24 65 -57 65c-135 0 -253 -225 -253 -322c0 -44 14 -73 64 -73c44 0 93 28 176 104zM698 98
c-112 -88 -191 -113 -254 -113c-34 0 -77 9 -77 74c0 11 6 38 9 52c-82 -80 -152 -115 -226 -115c-59 0 -93 43 -93 104c0 138 214 351 364 351c71 0 103 -33 103 -73c0 -42 -37 -106 -57 -154c60 71 92 106 129 149c19 22 32 32 50 38c23 8 34 10 38 10c2 0 2 -2 2 -2
c0 -5 -4 -3 -17 -13s-38 -35 -45 -42c-53 -55 -115 -122 -170 -182c-9 -34 -16 -61 -16 -92c0 -42 11 -64 68 -64c49 0 128 40 184 82c60 46 96 90 136 140c4 6 6 6 8 6s4 -2 4 -4s0 -2 -2 -6c-50 -68 -104 -120 -138 -146z" />
    <glyph glyph-name="uni1F05" unicode="&#x1f05;" horiz-adv-x="658" 
d="M520 573l186 189c17 17 23 24 28 24c6 0 15 -21 15 -27s-4 -15 -10 -19l-211 -180c-3 -3 -14 -13 -20 -13c-3 0 -5 2 -5 5c0 5 8 12 17 21zM462 568c4 -6 10 -11 10 -16c0 -4 -3 -6 -8 -6c-6 0 -37 48 -37 105c0 77 57 125 76 125c5 0 22 -10 22 -22
c0 -10 -75 -50 -75 -132c0 -25 4 -40 12 -54zM380 139c27 93 70 182 70 226c0 46 -24 65 -57 65c-135 0 -253 -225 -253 -322c0 -44 14 -73 64 -73c44 0 93 28 176 104zM698 98c-112 -88 -191 -113 -254 -113c-34 0 -77 9 -77 74c0 11 6 38 9 52
c-82 -80 -152 -115 -226 -115c-59 0 -93 43 -93 104c0 138 214 351 364 351c71 0 103 -33 103 -73c0 -42 -37 -106 -57 -154c60 71 92 106 129 149c19 22 32 32 50 38c23 8 34 10 38 10c2 0 2 -2 2 -2c0 -5 -4 -3 -17 -13s-38 -35 -45 -42c-53 -55 -115 -122 -170 -182
c-9 -34 -16 -61 -16 -92c0 -42 11 -64 68 -64c49 0 128 40 184 82c60 46 96 90 136 140c4 6 6 6 8 6s4 -2 4 -4s0 -2 -2 -6c-50 -68 -104 -120 -138 -146z" />
    <glyph glyph-name="uni1F04" unicode="&#x1f04;" horiz-adv-x="658" 
d="M436 568c31 31 42 65 42 109c0 52 -28 58 -28 72s26 27 32 27c20 0 36 -41 36 -69c0 -78 -85 -161 -93 -161c-4 0 -6 2 -6 4c0 6 10 11 17 18zM520 573l186 189c17 17 23 24 28 24c6 0 15 -21 15 -27s-4 -15 -10 -19l-211 -180c-3 -3 -14 -13 -20 -13c-3 0 -5 2 -5 5
c0 5 8 12 17 21zM380 139c27 93 70 182 70 226c0 46 -24 65 -57 65c-135 0 -253 -225 -253 -322c0 -44 14 -73 64 -73c44 0 93 28 176 104zM698 98c-112 -88 -191 -113 -254 -113c-34 0 -77 9 -77 74c0 11 6 38 9 52c-82 -80 -152 -115 -226 -115c-59 0 -93 43 -93 104
c0 138 214 351 364 351c71 0 103 -33 103 -73c0 -42 -37 -106 -57 -154c60 71 92 106 129 149c19 22 32 32 50 38c23 8 34 10 38 10c2 0 2 -2 2 -2c0 -5 -4 -3 -17 -13s-38 -35 -45 -42c-53 -55 -115 -122 -170 -182c-9 -34 -16 -61 -16 -92c0 -42 11 -64 68 -64
c49 0 128 40 184 82c60 46 96 90 136 140c4 6 6 6 8 6s4 -2 4 -4s0 -2 -2 -6c-50 -68 -104 -120 -138 -146z" />
    <glyph glyph-name="uni1F02" unicode="&#x1f02;" horiz-adv-x="658" 
d="M605 552c0 -3 -5 -5 -8 -5s-8 5 -11 14l-50 154c-6 16 -10 31 -10 42c0 9 12 32 24 32c7 0 10 -4 12 -15l39 -199c2 -10 4 -20 4 -23zM430 568c31 31 42 65 42 109c0 52 -28 58 -28 72s26 27 32 27c20 0 36 -41 36 -69c0 -78 -85 -161 -93 -161c-4 0 -6 2 -6 4
c0 6 10 11 17 18zM380 139c27 93 70 182 70 226c0 46 -24 65 -57 65c-135 0 -253 -225 -253 -322c0 -44 14 -73 64 -73c44 0 93 28 176 104zM698 98c-112 -88 -191 -113 -254 -113c-34 0 -77 9 -77 74c0 11 6 38 9 52c-82 -80 -152 -115 -226 -115c-59 0 -93 43 -93 104
c0 138 214 351 364 351c71 0 103 -33 103 -73c0 -42 -37 -106 -57 -154c60 71 92 106 129 149c19 22 32 32 50 38c23 8 34 10 38 10c2 0 2 -2 2 -2c0 -5 -4 -3 -17 -13s-38 -35 -45 -42c-53 -55 -115 -122 -170 -182c-9 -34 -16 -61 -16 -92c0 -42 11 -64 68 -64
c49 0 128 40 184 82c60 46 96 90 136 140c4 6 6 6 8 6s4 -2 4 -4s0 -2 -2 -6c-50 -68 -104 -120 -138 -146z" />
    <glyph glyph-name="uni1FB4" unicode="&#x1fb4;" horiz-adv-x="658" 
d="M182 -100c6 0 6 -4 6 -6c0 -12 -62 -40 -62 -100c0 -32 28 -58 64 -58c20 0 42 9 46 9c1 0 2 -1 2 -3c0 -4 -60 -24 -88 -24c-36 0 -86 10 -86 58c0 74 112 124 118 124zM380 139c27 93 70 182 70 226c0 46 -24 65 -57 65c-135 0 -253 -225 -253 -322
c0 -44 14 -73 64 -73c44 0 93 28 176 104zM698 98c-112 -88 -191 -113 -254 -113c-34 0 -77 9 -77 74c0 11 6 38 9 52c-82 -80 -152 -115 -226 -115c-59 0 -93 43 -93 104c0 138 214 351 364 351c71 0 103 -33 103 -73c0 -42 -37 -106 -57 -154c60 71 92 106 129 149
c19 22 32 32 50 38c23 8 34 10 38 10c2 0 2 -2 2 -2c0 -5 -4 -3 -17 -13s-38 -35 -45 -42c-53 -55 -115 -122 -170 -182c-9 -34 -16 -61 -16 -92c0 -42 11 -64 68 -64c49 0 128 40 184 82c60 46 96 90 136 140c4 6 6 6 8 6s4 -2 4 -4s0 -2 -2 -6
c-50 -68 -104 -120 -138 -146zM455 573l186 189c17 17 23 24 28 24c6 0 15 -21 15 -27s-4 -15 -10 -19l-211 -180c-3 -3 -14 -13 -20 -13c-3 0 -5 2 -5 5c0 5 8 12 17 21z" />
    <glyph glyph-name="uni1F85" unicode="&#x1f85;" horiz-adv-x="658" 
d="M182 -100c6 0 6 -4 6 -6c0 -12 -62 -40 -62 -100c0 -32 28 -58 64 -58c20 0 42 9 46 9c1 0 2 -1 2 -3c0 -4 -60 -24 -88 -24c-36 0 -86 10 -86 58c0 74 112 124 118 124zM380 139c27 93 70 182 70 226c0 46 -24 65 -57 65c-135 0 -253 -225 -253 -322
c0 -44 14 -73 64 -73c44 0 93 28 176 104zM698 98c-112 -88 -191 -113 -254 -113c-34 0 -77 9 -77 74c0 11 6 38 9 52c-82 -80 -152 -115 -226 -115c-59 0 -93 43 -93 104c0 138 214 351 364 351c71 0 103 -33 103 -73c0 -42 -37 -106 -57 -154c60 71 92 106 129 149
c19 22 32 32 50 38c23 8 34 10 38 10c2 0 2 -2 2 -2c0 -5 -4 -3 -17 -13s-38 -35 -45 -42c-53 -55 -115 -122 -170 -182c-9 -34 -16 -61 -16 -92c0 -42 11 -64 68 -64c49 0 128 40 184 82c60 46 96 90 136 140c4 6 6 6 8 6s4 -2 4 -4s0 -2 -2 -6
c-50 -68 -104 -120 -138 -146zM520 573l186 189c17 17 23 24 28 24c6 0 15 -21 15 -27s-4 -15 -10 -19l-211 -180c-3 -3 -14 -13 -20 -13c-3 0 -5 2 -5 5c0 5 8 12 17 21zM462 568c4 -6 10 -11 10 -16c0 -4 -3 -6 -8 -6c-6 0 -37 48 -37 105c0 77 57 125 76 125
c5 0 22 -10 22 -22c0 -10 -75 -50 -75 -132c0 -25 4 -40 12 -54z" />
    <glyph glyph-name="uni1F84" unicode="&#x1f84;" horiz-adv-x="658" 
d="M182 -100c6 0 6 -4 6 -6c0 -12 -62 -40 -62 -100c0 -32 28 -58 64 -58c20 0 42 9 46 9c1 0 2 -1 2 -3c0 -4 -60 -24 -88 -24c-36 0 -86 10 -86 58c0 74 112 124 118 124zM380 139c27 93 70 182 70 226c0 46 -24 65 -57 65c-135 0 -253 -225 -253 -322
c0 -44 14 -73 64 -73c44 0 93 28 176 104zM698 98c-112 -88 -191 -113 -254 -113c-34 0 -77 9 -77 74c0 11 6 38 9 52c-82 -80 -152 -115 -226 -115c-59 0 -93 43 -93 104c0 138 214 351 364 351c71 0 103 -33 103 -73c0 -42 -37 -106 -57 -154c60 71 92 106 129 149
c19 22 32 32 50 38c23 8 34 10 38 10c2 0 2 -2 2 -2c0 -5 -4 -3 -17 -13s-38 -35 -45 -42c-53 -55 -115 -122 -170 -182c-9 -34 -16 -61 -16 -92c0 -42 11 -64 68 -64c49 0 128 40 184 82c60 46 96 90 136 140c4 6 6 6 8 6s4 -2 4 -4s0 -2 -2 -6
c-50 -68 -104 -120 -138 -146zM436 568c31 31 42 65 42 109c0 52 -28 58 -28 72s26 27 32 27c20 0 36 -41 36 -69c0 -78 -85 -161 -93 -161c-4 0 -6 2 -6 4c0 6 10 11 17 18zM520 573l186 189c17 17 23 24 28 24c6 0 15 -21 15 -27s-4 -15 -10 -19l-211 -180
c-3 -3 -14 -13 -20 -13c-3 0 -5 2 -5 5c0 5 8 12 17 21z" />
    <glyph glyph-name="uni1F82" unicode="&#x1f82;" horiz-adv-x="658" 
d="M182 -100c6 0 6 -4 6 -6c0 -12 -62 -40 -62 -100c0 -32 28 -58 64 -58c20 0 42 9 46 9c1 0 2 -1 2 -3c0 -4 -60 -24 -88 -24c-36 0 -86 10 -86 58c0 74 112 124 118 124zM380 139c27 93 70 182 70 226c0 46 -24 65 -57 65c-135 0 -253 -225 -253 -322
c0 -44 14 -73 64 -73c44 0 93 28 176 104zM698 98c-112 -88 -191 -113 -254 -113c-34 0 -77 9 -77 74c0 11 6 38 9 52c-82 -80 -152 -115 -226 -115c-59 0 -93 43 -93 104c0 138 214 351 364 351c71 0 103 -33 103 -73c0 -42 -37 -106 -57 -154c60 71 92 106 129 149
c19 22 32 32 50 38c23 8 34 10 38 10c2 0 2 -2 2 -2c0 -5 -4 -3 -17 -13s-38 -35 -45 -42c-53 -55 -115 -122 -170 -182c-9 -34 -16 -61 -16 -92c0 -42 11 -64 68 -64c49 0 128 40 184 82c60 46 96 90 136 140c4 6 6 6 8 6s4 -2 4 -4s0 -2 -2 -6
c-50 -68 -104 -120 -138 -146zM605 552c0 -3 -5 -5 -8 -5s-8 5 -11 14l-50 154c-6 16 -10 31 -10 42c0 9 12 32 24 32c7 0 10 -4 12 -15l39 -199c2 -10 4 -20 4 -23zM430 568c31 31 42 65 42 109c0 52 -28 58 -28 72s26 27 32 27c20 0 36 -41 36 -69
c0 -78 -85 -161 -93 -161c-4 0 -6 2 -6 4c0 6 10 11 17 18z" />
    <glyph glyph-name="uni1FB6" unicode="&#x1fb6;" horiz-adv-x="658" 
d="M502 690c64 0 75 -79 129 -79c12 0 42 6 76 55c2 3 8 14 18 17s12 3 14 3s2 -1 2 -1c0 -3 -60 -93 -150 -93c-58 0 -71 76 -123 76c-49 0 -75 -36 -106 -69c-2 -2 -7 -5 -12 -7c-7 -3 -9 -4 -11 -4c-1 0 -2 1 -2 2c0 5 14 19 42 43c34 29 76 57 123 57zM380 139
c27 93 70 182 70 226c0 46 -24 65 -57 65c-135 0 -253 -225 -253 -322c0 -44 14 -73 64 -73c44 0 93 28 176 104zM698 98c-112 -88 -191 -113 -254 -113c-34 0 -77 9 -77 74c0 11 6 38 9 52c-82 -80 -152 -115 -226 -115c-59 0 -93 43 -93 104c0 138 214 351 364 351
c71 0 103 -33 103 -73c0 -42 -37 -106 -57 -154c60 71 92 106 129 149c19 22 32 32 50 38c23 8 34 10 38 10c2 0 2 -2 2 -2c0 -5 -4 -3 -17 -13s-38 -35 -45 -42c-53 -55 -115 -122 -170 -182c-9 -34 -16 -61 -16 -92c0 -42 11 -64 68 -64c49 0 128 40 184 82
c60 46 96 90 136 140c4 6 6 6 8 6s4 -2 4 -4s0 -2 -2 -6c-50 -68 -104 -120 -138 -146z" />
    <glyph glyph-name="uni1F07" unicode="&#x1f07;" horiz-adv-x="658" 
d="M548 840c64 0 75 -79 129 -79c12 0 42 6 76 55c2 3 8 14 18 17s12 3 14 3s2 -1 2 -1c0 -3 -60 -93 -150 -93c-58 0 -71 76 -123 76c-49 0 -75 -36 -106 -69c-2 -2 -7 -5 -12 -7c-7 -3 -9 -4 -11 -4c-1 0 -2 1 -2 2c0 5 14 19 42 43c34 29 76 57 123 57zM513 576
c5 -8 18 -19 18 -25c0 -2 -2 -4 -4 -4c-5 0 -16 12 -26 31c-13 21 -22 48 -22 74c0 19 9 47 24 62c7 7 23 20 34 20c8 0 22 -16 22 -30c0 -10 -9 -8 -22 -14c-22 -10 -37 -35 -37 -67c0 -16 4 -32 13 -47zM380 139c27 93 70 182 70 226c0 46 -24 65 -57 65
c-135 0 -253 -225 -253 -322c0 -44 14 -73 64 -73c44 0 93 28 176 104zM698 98c-112 -88 -191 -113 -254 -113c-34 0 -77 9 -77 74c0 11 6 38 9 52c-82 -80 -152 -115 -226 -115c-59 0 -93 43 -93 104c0 138 214 351 364 351c71 0 103 -33 103 -73c0 -42 -37 -106 -57 -154
c60 71 92 106 129 149c19 22 32 32 50 38c23 8 34 10 38 10c2 0 2 -2 2 -2c0 -5 -4 -3 -17 -13s-38 -35 -45 -42c-53 -55 -115 -122 -170 -182c-9 -34 -16 -61 -16 -92c0 -42 11 -64 68 -64c49 0 128 40 184 82c60 46 96 90 136 140c4 6 6 6 8 6s4 -2 4 -4s0 -2 -2 -6
c-50 -68 -104 -120 -138 -146z" />
    <glyph glyph-name="uni1F06" unicode="&#x1f06;" horiz-adv-x="658" 
d="M548 840c64 0 75 -79 129 -79c12 0 42 6 76 55c2 3 8 14 18 17s12 3 14 3s2 -1 2 -1c0 -3 -60 -93 -150 -93c-58 0 -71 76 -123 76c-49 0 -75 -36 -106 -69c-2 -2 -7 -5 -12 -7c-7 -3 -9 -4 -11 -4c-1 0 -2 1 -2 2c0 5 14 19 42 43c34 29 76 57 123 57zM503 571
c21 19 32 45 32 70c0 20 -7 38 -20 50c-9 8 -17 11 -17 16c0 14 22 27 28 27c7 0 14 -7 20 -15c14 -17 19 -36 19 -54c0 -37 -24 -73 -50 -96c-15 -14 -29 -22 -32 -22c-4 0 -6 2 -6 4c0 6 18 13 26 20zM380 139c27 93 70 182 70 226c0 46 -24 65 -57 65
c-135 0 -253 -225 -253 -322c0 -44 14 -73 64 -73c44 0 93 28 176 104zM698 98c-112 -88 -191 -113 -254 -113c-34 0 -77 9 -77 74c0 11 6 38 9 52c-82 -80 -152 -115 -226 -115c-59 0 -93 43 -93 104c0 138 214 351 364 351c71 0 103 -33 103 -73c0 -42 -37 -106 -57 -154
c60 71 92 106 129 149c19 22 32 32 50 38c23 8 34 10 38 10c2 0 2 -2 2 -2c0 -5 -4 -3 -17 -13s-38 -35 -45 -42c-53 -55 -115 -122 -170 -182c-9 -34 -16 -61 -16 -92c0 -42 11 -64 68 -64c49 0 128 40 184 82c60 46 96 90 136 140c4 6 6 6 8 6s4 -2 4 -4s0 -2 -2 -6
c-50 -68 -104 -120 -138 -146z" />
    <glyph glyph-name="uni03DD" unicode="&#x3dd;" horiz-adv-x="568" 
d="M40 -198c-74 -162 -217 -305 -348 -305c-75 0 -109 47 -109 67c0 12 11 17 25 32c8 9 21 37 27 37c2 0 5 -1 5 -4s-2 -8 -2 -13c0 -30 40 -80 97 -80c71 0 151 58 222 232c55 135 102 242 155 377c65 165 217 305 358 305c75 0 125 -47 125 -67c0 -12 -9 -21 -25 -34
c-11 -9 -28 -30 -30 -30s-5 0 -5 3s2 4 2 9c0 30 -43 80 -110 80c-85 0 -152 -45 -212 -183c42 2 105 6 197 6c10 0 11 -10 20 -28c6 -12 9 -11 9 -14s-2 -4 -5 -4c-11 0 -99 11 -233 12c-56 -153 -92 -244 -163 -398z" />
    <glyph glyph-name="uni1FB7" unicode="&#x1fb7;" horiz-adv-x="658" 
d="M182 -100c6 0 6 -4 6 -6c0 -12 -62 -40 -62 -100c0 -32 28 -58 64 -58c20 0 42 9 46 9c1 0 2 -1 2 -3c0 -4 -60 -24 -88 -24c-36 0 -86 10 -86 58c0 74 112 124 118 124zM380 139c27 93 70 182 70 226c0 46 -24 65 -57 65c-135 0 -253 -225 -253 -322
c0 -44 14 -73 64 -73c44 0 93 28 176 104zM698 98c-112 -88 -191 -113 -254 -113c-34 0 -77 9 -77 74c0 11 6 38 9 52c-82 -80 -152 -115 -226 -115c-59 0 -93 43 -93 104c0 138 214 351 364 351c71 0 103 -33 103 -73c0 -42 -37 -106 -57 -154c60 71 92 106 129 149
c19 22 32 32 50 38c23 8 34 10 38 10c2 0 2 -2 2 -2c0 -5 -4 -3 -17 -13s-38 -35 -45 -42c-53 -55 -115 -122 -170 -182c-9 -34 -16 -61 -16 -92c0 -42 11 -64 68 -64c49 0 128 40 184 82c60 46 96 90 136 140c4 6 6 6 8 6s4 -2 4 -4s0 -2 -2 -6
c-50 -68 -104 -120 -138 -146zM502 690c64 0 75 -79 129 -79c12 0 42 6 76 55c2 3 8 14 18 17s12 3 14 3s2 -1 2 -1c0 -3 -60 -93 -150 -93c-58 0 -71 76 -123 76c-49 0 -75 -36 -106 -69c-2 -2 -7 -5 -12 -7c-7 -3 -9 -4 -11 -4c-1 0 -2 1 -2 2c0 5 14 19 42 43
c34 29 76 57 123 57z" />
    <glyph glyph-name="uni1F87" unicode="&#x1f87;" horiz-adv-x="658" 
d="M182 -100c6 0 6 -4 6 -6c0 -12 -62 -40 -62 -100c0 -32 28 -58 64 -58c20 0 42 9 46 9c1 0 2 -1 2 -3c0 -4 -60 -24 -88 -24c-36 0 -86 10 -86 58c0 74 112 124 118 124zM380 139c27 93 70 182 70 226c0 46 -24 65 -57 65c-135 0 -253 -225 -253 -322
c0 -44 14 -73 64 -73c44 0 93 28 176 104zM698 98c-112 -88 -191 -113 -254 -113c-34 0 -77 9 -77 74c0 11 6 38 9 52c-82 -80 -152 -115 -226 -115c-59 0 -93 43 -93 104c0 138 214 351 364 351c71 0 103 -33 103 -73c0 -42 -37 -106 -57 -154c60 71 92 106 129 149
c19 22 32 32 50 38c23 8 34 10 38 10c2 0 2 -2 2 -2c0 -5 -4 -3 -17 -13s-38 -35 -45 -42c-53 -55 -115 -122 -170 -182c-9 -34 -16 -61 -16 -92c0 -42 11 -64 68 -64c49 0 128 40 184 82c60 46 96 90 136 140c4 6 6 6 8 6s4 -2 4 -4s0 -2 -2 -6
c-50 -68 -104 -120 -138 -146zM548 840c64 0 75 -79 129 -79c12 0 42 6 76 55c2 3 8 14 18 17s12 3 14 3s2 -1 2 -1c0 -3 -60 -93 -150 -93c-58 0 -71 76 -123 76c-49 0 -75 -36 -106 -69c-2 -2 -7 -5 -12 -7c-7 -3 -9 -4 -11 -4c-1 0 -2 1 -2 2c0 5 14 19 42 43
c34 29 76 57 123 57zM513 576c5 -8 18 -19 18 -25c0 -2 -2 -4 -4 -4c-5 0 -16 12 -26 31c-13 21 -22 48 -22 74c0 19 9 47 24 62c7 7 23 20 34 20c8 0 22 -16 22 -30c0 -10 -9 -8 -22 -14c-22 -10 -37 -35 -37 -67c0 -16 4 -32 13 -47z" />
    <glyph glyph-name="uni1F86" unicode="&#x1f86;" horiz-adv-x="658" 
d="M182 -100c6 0 6 -4 6 -6c0 -12 -62 -40 -62 -100c0 -32 28 -58 64 -58c20 0 42 9 46 9c1 0 2 -1 2 -3c0 -4 -60 -24 -88 -24c-36 0 -86 10 -86 58c0 74 112 124 118 124zM380 139c27 93 70 182 70 226c0 46 -24 65 -57 65c-135 0 -253 -225 -253 -322
c0 -44 14 -73 64 -73c44 0 93 28 176 104zM698 98c-112 -88 -191 -113 -254 -113c-34 0 -77 9 -77 74c0 11 6 38 9 52c-82 -80 -152 -115 -226 -115c-59 0 -93 43 -93 104c0 138 214 351 364 351c71 0 103 -33 103 -73c0 -42 -37 -106 -57 -154c60 71 92 106 129 149
c19 22 32 32 50 38c23 8 34 10 38 10c2 0 2 -2 2 -2c0 -5 -4 -3 -17 -13s-38 -35 -45 -42c-53 -55 -115 -122 -170 -182c-9 -34 -16 -61 -16 -92c0 -42 11 -64 68 -64c49 0 128 40 184 82c60 46 96 90 136 140c4 6 6 6 8 6s4 -2 4 -4s0 -2 -2 -6
c-50 -68 -104 -120 -138 -146zM548 840c64 0 75 -79 129 -79c12 0 42 6 76 55c2 3 8 14 18 17s12 3 14 3s2 -1 2 -1c0 -3 -60 -93 -150 -93c-58 0 -71 76 -123 76c-49 0 -75 -36 -106 -69c-2 -2 -7 -5 -12 -7c-7 -3 -9 -4 -11 -4c-1 0 -2 1 -2 2c0 5 14 19 42 43
c34 29 76 57 123 57zM503 571c21 19 32 45 32 70c0 20 -7 38 -20 50c-9 8 -17 11 -17 16c0 14 22 27 28 27c7 0 14 -7 20 -15c14 -17 19 -36 19 -54c0 -37 -24 -73 -50 -96c-15 -14 -29 -22 -32 -22c-4 0 -6 2 -6 4c0 6 18 13 26 20z" />
    <glyph glyph-name="uniE00F" unicode="&#xe00f;" horiz-adv-x="420" 
d="M601 707c2 0 7 -1 7 -5c0 -7 -57 -42 -72 -51c-75 -43 -152 -65 -212 -65c-84 0 -144 54 -144 101c0 7 9 10 21 14c20 6 19 10 23 10c3 0 2 -8 5 -18c13 -51 62 -84 135 -84c58 0 111 19 151 42c17 10 35 22 53 38c10 9 20 18 33 18z" />
    <glyph glyph-name="uni1F74" unicode="&#x1f74;" horiz-adv-x="630" 
d="M529 551c0 -3 -5 -5 -8 -5s-8 5 -11 14l-50 154c-6 16 -10 31 -10 42c0 9 12 32 24 32c7 0 10 -4 12 -15l39 -199c2 -10 4 -20 4 -23zM305 411c0 -20 -12 -61 -32 -97c58 56 171 138 239 138c42 0 77 -34 77 -74c0 -84 -149 -248 -149 -320c0 -20 12 -38 32 -38
c60 0 146 54 190 88c60 46 96 90 136 140c4 6 6 6 8 6s4 -2 4 -4s0 -2 -2 -6c-50 -68 -104 -120 -138 -146c-102 -82 -205 -118 -253 -118c-34 0 -60 21 -60 57c0 98 148 254 148 332c0 29 -21 45 -40 45c-54 0 -124 -52 -209 -144l-148 -262c-7 -12 -25 -7 -51 -12
c-23 -5 -32 -11 -40 -11c-2 0 -4 1 -4 4s5 4 12 14c12 17 31 49 51 83c28 48 48 80 92 162c16 30 60 126 60 152s-8 32 -20 32c-20 0 -50 -18 -74 -34c-6 -4 -8 -6 -10 -6s-4 2 -4 4s0 4 6 8c8 6 76 56 120 56c40 0 59 -21 59 -49z" />
    <glyph glyph-name="uni1F21" unicode="&#x1f21;" horiz-adv-x="630" 
d="M512 568c4 -6 10 -11 10 -16c0 -4 -3 -6 -8 -6c-6 0 -37 48 -37 105c0 77 57 125 76 125c5 0 22 -10 22 -22c0 -10 -75 -50 -75 -132c0 -25 4 -40 12 -54zM305 411c0 -20 -12 -61 -32 -97c58 56 171 138 239 138c42 0 77 -34 77 -74c0 -84 -149 -248 -149 -320
c0 -20 12 -38 32 -38c60 0 146 54 190 88c60 46 96 90 136 140c4 6 6 6 8 6s4 -2 4 -4s0 -2 -2 -6c-50 -68 -104 -120 -138 -146c-102 -82 -205 -118 -253 -118c-34 0 -60 21 -60 57c0 98 148 254 148 332c0 29 -21 45 -40 45c-54 0 -124 -52 -209 -144l-148 -262
c-7 -12 -25 -7 -51 -12c-23 -5 -32 -11 -40 -11c-2 0 -4 1 -4 4s5 4 12 14c12 17 31 49 51 83c28 48 48 80 92 162c16 30 60 126 60 152s-8 32 -20 32c-20 0 -50 -18 -74 -34c-6 -4 -8 -6 -10 -6s-4 2 -4 4s0 4 6 8c8 6 76 56 120 56c40 0 59 -21 59 -49z" />
    <glyph glyph-name="uni1F20" unicode="&#x1f20;" horiz-adv-x="630" 
d="M492 568c31 31 42 65 42 109c0 52 -28 58 -28 72s26 27 32 27c20 0 36 -41 36 -69c0 -78 -85 -161 -93 -161c-4 0 -6 2 -6 4c0 6 10 11 17 18zM305 411c0 -20 -12 -61 -32 -97c58 56 171 138 239 138c42 0 77 -34 77 -74c0 -84 -149 -248 -149 -320c0 -20 12 -38 32 -38
c60 0 146 54 190 88c60 46 96 90 136 140c4 6 6 6 8 6s4 -2 4 -4s0 -2 -2 -6c-50 -68 -104 -120 -138 -146c-102 -82 -205 -118 -253 -118c-34 0 -60 21 -60 57c0 98 148 254 148 332c0 29 -21 45 -40 45c-54 0 -124 -52 -209 -144l-148 -262c-7 -12 -25 -7 -51 -12
c-23 -5 -32 -11 -40 -11c-2 0 -4 1 -4 4s5 4 12 14c12 17 31 49 51 83c28 48 48 80 92 162c16 30 60 126 60 152s-8 32 -20 32c-20 0 -50 -18 -74 -34c-6 -4 -8 -6 -10 -6s-4 2 -4 4s0 4 6 8c8 6 76 56 120 56c40 0 59 -21 59 -49z" />
    <glyph glyph-name="uni1FC2" unicode="&#x1fc2;" horiz-adv-x="630" 
d="M213 -100c6 0 6 -4 6 -6c0 -12 -62 -40 -62 -100c0 -32 28 -58 64 -58c20 0 42 9 46 9c1 0 2 -1 2 -3c0 -4 -60 -24 -88 -24c-36 0 -86 10 -86 58c0 74 112 124 118 124zM305 411c0 -20 -12 -61 -32 -97c58 56 171 138 239 138c42 0 77 -34 77 -74
c0 -84 -149 -248 -149 -320c0 -20 12 -38 32 -38c60 0 146 54 190 88c60 46 96 90 136 140c4 6 6 6 8 6s4 -2 4 -4s0 -2 -2 -6c-50 -68 -104 -120 -138 -146c-102 -82 -205 -118 -253 -118c-34 0 -60 21 -60 57c0 98 148 254 148 332c0 29 -21 45 -40 45
c-54 0 -124 -52 -209 -144l-148 -262c-7 -12 -25 -7 -51 -12c-23 -5 -32 -11 -40 -11c-2 0 -4 1 -4 4s5 4 12 14c12 17 31 49 51 83c28 48 48 80 92 162c16 30 60 126 60 152s-8 32 -20 32c-20 0 -50 -18 -74 -34c-6 -4 -8 -6 -10 -6s-4 2 -4 4s0 4 6 8c8 6 76 56 120 56
c40 0 59 -21 59 -49zM529 551c0 -3 -5 -5 -8 -5s-8 5 -11 14l-50 154c-6 16 -10 31 -10 42c0 9 12 32 24 32c7 0 10 -4 12 -15l39 -199c2 -10 4 -20 4 -23z" />
    <glyph glyph-name="uni1F91" unicode="&#x1f91;" horiz-adv-x="630" 
d="M213 -100c6 0 6 -4 6 -6c0 -12 -62 -40 -62 -100c0 -32 28 -58 64 -58c20 0 42 9 46 9c1 0 2 -1 2 -3c0 -4 -60 -24 -88 -24c-36 0 -86 10 -86 58c0 74 112 124 118 124zM305 411c0 -20 -12 -61 -32 -97c58 56 171 138 239 138c42 0 77 -34 77 -74
c0 -84 -149 -248 -149 -320c0 -20 12 -38 32 -38c60 0 146 54 190 88c60 46 96 90 136 140c4 6 6 6 8 6s4 -2 4 -4s0 -2 -2 -6c-50 -68 -104 -120 -138 -146c-102 -82 -205 -118 -253 -118c-34 0 -60 21 -60 57c0 98 148 254 148 332c0 29 -21 45 -40 45
c-54 0 -124 -52 -209 -144l-148 -262c-7 -12 -25 -7 -51 -12c-23 -5 -32 -11 -40 -11c-2 0 -4 1 -4 4s5 4 12 14c12 17 31 49 51 83c28 48 48 80 92 162c16 30 60 126 60 152s-8 32 -20 32c-20 0 -50 -18 -74 -34c-6 -4 -8 -6 -10 -6s-4 2 -4 4s0 4 6 8c8 6 76 56 120 56
c40 0 59 -21 59 -49zM512 568c4 -6 10 -11 10 -16c0 -4 -3 -6 -8 -6c-6 0 -37 48 -37 105c0 77 57 125 76 125c5 0 22 -10 22 -22c0 -10 -75 -50 -75 -132c0 -25 4 -40 12 -54z" />
    <glyph glyph-name="uni1F90" unicode="&#x1f90;" horiz-adv-x="630" 
d="M213 -100c6 0 6 -4 6 -6c0 -12 -62 -40 -62 -100c0 -32 28 -58 64 -58c20 0 42 9 46 9c1 0 2 -1 2 -3c0 -4 -60 -24 -88 -24c-36 0 -86 10 -86 58c0 74 112 124 118 124zM305 411c0 -20 -12 -61 -32 -97c58 56 171 138 239 138c42 0 77 -34 77 -74
c0 -84 -149 -248 -149 -320c0 -20 12 -38 32 -38c60 0 146 54 190 88c60 46 96 90 136 140c4 6 6 6 8 6s4 -2 4 -4s0 -2 -2 -6c-50 -68 -104 -120 -138 -146c-102 -82 -205 -118 -253 -118c-34 0 -60 21 -60 57c0 98 148 254 148 332c0 29 -21 45 -40 45
c-54 0 -124 -52 -209 -144l-148 -262c-7 -12 -25 -7 -51 -12c-23 -5 -32 -11 -40 -11c-2 0 -4 1 -4 4s5 4 12 14c12 17 31 49 51 83c28 48 48 80 92 162c16 30 60 126 60 152s-8 32 -20 32c-20 0 -50 -18 -74 -34c-6 -4 -8 -6 -10 -6s-4 2 -4 4s0 4 6 8c8 6 76 56 120 56
c40 0 59 -21 59 -49zM492 568c31 31 42 65 42 109c0 52 -28 58 -28 72s26 27 32 27c20 0 36 -41 36 -69c0 -78 -85 -161 -93 -161c-4 0 -6 2 -6 4c0 6 10 11 17 18z" />
    <glyph glyph-name="etatonos" unicode="&#x3ae;" horiz-adv-x="630" 
d="M469 573l186 189c17 17 23 24 28 24c6 0 15 -21 15 -27s-4 -15 -10 -19l-211 -180c-3 -3 -14 -13 -20 -13c-3 0 -5 2 -5 5c0 5 8 12 17 21zM305 411c0 -20 -12 -61 -32 -97c58 56 171 138 239 138c42 0 77 -34 77 -74c0 -84 -149 -248 -149 -320c0 -20 12 -38 32 -38
c60 0 146 54 190 88c60 46 96 90 136 140c4 6 6 6 8 6s4 -2 4 -4s0 -2 -2 -6c-50 -68 -104 -120 -138 -146c-102 -82 -205 -118 -253 -118c-34 0 -60 21 -60 57c0 98 148 254 148 332c0 29 -21 45 -40 45c-54 0 -124 -52 -209 -144l-148 -262c-7 -12 -25 -7 -51 -12
c-23 -5 -32 -11 -40 -11c-2 0 -4 1 -4 4s5 4 12 14c12 17 31 49 51 83c28 48 48 80 92 162c16 30 60 126 60 152s-8 32 -20 32c-20 0 -50 -18 -74 -34c-6 -4 -8 -6 -10 -6s-4 2 -4 4s0 4 6 8c8 6 76 56 120 56c40 0 59 -21 59 -49z" />
    <glyph glyph-name="uni1F25" unicode="&#x1f25;" horiz-adv-x="630" 
d="M518 573l186 189c17 17 23 24 28 24c6 0 15 -21 15 -27s-4 -15 -10 -19l-211 -180c-3 -3 -14 -13 -20 -13c-3 0 -5 2 -5 5c0 5 8 12 17 21zM460 568c4 -6 10 -11 10 -16c0 -4 -3 -6 -8 -6c-6 0 -37 48 -37 105c0 77 57 125 76 125c5 0 22 -10 22 -22
c0 -10 -75 -50 -75 -132c0 -25 4 -40 12 -54zM305 411c0 -20 -12 -61 -32 -97c58 56 171 138 239 138c42 0 77 -34 77 -74c0 -84 -149 -248 -149 -320c0 -20 12 -38 32 -38c60 0 146 54 190 88c60 46 96 90 136 140c4 6 6 6 8 6s4 -2 4 -4s0 -2 -2 -6
c-50 -68 -104 -120 -138 -146c-102 -82 -205 -118 -253 -118c-34 0 -60 21 -60 57c0 98 148 254 148 332c0 29 -21 45 -40 45c-54 0 -124 -52 -209 -144l-148 -262c-7 -12 -25 -7 -51 -12c-23 -5 -32 -11 -40 -11c-2 0 -4 1 -4 4s5 4 12 14c12 17 31 49 51 83
c28 48 48 80 92 162c16 30 60 126 60 152s-8 32 -20 32c-20 0 -50 -18 -74 -34c-6 -4 -8 -6 -10 -6s-4 2 -4 4s0 4 6 8c8 6 76 56 120 56c40 0 59 -21 59 -49z" />
    <glyph glyph-name="uni1F24" unicode="&#x1f24;" horiz-adv-x="630" 
d="M434 568c31 31 42 65 42 109c0 52 -28 58 -28 72s26 27 32 27c20 0 36 -41 36 -69c0 -78 -85 -161 -93 -161c-4 0 -6 2 -6 4c0 6 10 11 17 18zM518 573l186 189c17 17 23 24 28 24c6 0 15 -21 15 -27s-4 -15 -10 -19l-211 -180c-3 -3 -14 -13 -20 -13c-3 0 -5 2 -5 5
c0 5 8 12 17 21zM305 411c0 -20 -12 -61 -32 -97c58 56 171 138 239 138c42 0 77 -34 77 -74c0 -84 -149 -248 -149 -320c0 -20 12 -38 32 -38c60 0 146 54 190 88c60 46 96 90 136 140c4 6 6 6 8 6s4 -2 4 -4s0 -2 -2 -6c-50 -68 -104 -120 -138 -146
c-102 -82 -205 -118 -253 -118c-34 0 -60 21 -60 57c0 98 148 254 148 332c0 29 -21 45 -40 45c-54 0 -124 -52 -209 -144l-148 -262c-7 -12 -25 -7 -51 -12c-23 -5 -32 -11 -40 -11c-2 0 -4 1 -4 4s5 4 12 14c12 17 31 49 51 83c28 48 48 80 92 162c16 30 60 126 60 152
s-8 32 -20 32c-20 0 -50 -18 -74 -34c-6 -4 -8 -6 -10 -6s-4 2 -4 4s0 4 6 8c8 6 76 56 120 56c40 0 59 -21 59 -49z" />
    <glyph glyph-name="uni1F23" unicode="&#x1f23;" horiz-adv-x="630" 
d="M613 552c0 -3 -5 -5 -8 -5s-8 5 -11 14l-50 154c-6 16 -10 31 -10 42c0 9 12 32 24 32c7 0 10 -4 12 -15l39 -199c2 -10 4 -20 4 -23zM442 568c4 -6 10 -11 10 -16c0 -4 -3 -6 -8 -6c-6 0 -37 48 -37 105c0 77 57 125 76 125c5 0 22 -10 22 -22c0 -10 -75 -50 -75 -132
c0 -25 4 -40 12 -54zM305 411c0 -20 -12 -61 -32 -97c58 56 171 138 239 138c42 0 77 -34 77 -74c0 -84 -149 -248 -149 -320c0 -20 12 -38 32 -38c60 0 146 54 190 88c60 46 96 90 136 140c4 6 6 6 8 6s4 -2 4 -4s0 -2 -2 -6c-50 -68 -104 -120 -138 -146
c-102 -82 -205 -118 -253 -118c-34 0 -60 21 -60 57c0 98 148 254 148 332c0 29 -21 45 -40 45c-54 0 -124 -52 -209 -144l-148 -262c-7 -12 -25 -7 -51 -12c-23 -5 -32 -11 -40 -11c-2 0 -4 1 -4 4s5 4 12 14c12 17 31 49 51 83c28 48 48 80 92 162c16 30 60 126 60 152
s-8 32 -20 32c-20 0 -50 -18 -74 -34c-6 -4 -8 -6 -10 -6s-4 2 -4 4s0 4 6 8c8 6 76 56 120 56c40 0 59 -21 59 -49z" />
    <glyph glyph-name="uni1FC4" unicode="&#x1fc4;" horiz-adv-x="630" 
d="M213 -100c6 0 6 -4 6 -6c0 -12 -62 -40 -62 -100c0 -32 28 -58 64 -58c20 0 42 9 46 9c1 0 2 -1 2 -3c0 -4 -60 -24 -88 -24c-36 0 -86 10 -86 58c0 74 112 124 118 124zM305 411c0 -20 -12 -61 -32 -97c58 56 171 138 239 138c42 0 77 -34 77 -74
c0 -84 -149 -248 -149 -320c0 -20 12 -38 32 -38c60 0 146 54 190 88c60 46 96 90 136 140c4 6 6 6 8 6s4 -2 4 -4s0 -2 -2 -6c-50 -68 -104 -120 -138 -146c-102 -82 -205 -118 -253 -118c-34 0 -60 21 -60 57c0 98 148 254 148 332c0 29 -21 45 -40 45
c-54 0 -124 -52 -209 -144l-148 -262c-7 -12 -25 -7 -51 -12c-23 -5 -32 -11 -40 -11c-2 0 -4 1 -4 4s5 4 12 14c12 17 31 49 51 83c28 48 48 80 92 162c16 30 60 126 60 152s-8 32 -20 32c-20 0 -50 -18 -74 -34c-6 -4 -8 -6 -10 -6s-4 2 -4 4s0 4 6 8c8 6 76 56 120 56
c40 0 59 -21 59 -49zM453 573l186 189c17 17 23 24 28 24c6 0 15 -21 15 -27s-4 -15 -10 -19l-211 -180c-3 -3 -14 -13 -20 -13c-3 0 -5 2 -5 5c0 5 8 12 17 21z" />
    <glyph glyph-name="uni1F95" unicode="&#x1f95;" horiz-adv-x="630" 
d="M213 -100c6 0 6 -4 6 -6c0 -12 -62 -40 -62 -100c0 -32 28 -58 64 -58c20 0 42 9 46 9c1 0 2 -1 2 -3c0 -4 -60 -24 -88 -24c-36 0 -86 10 -86 58c0 74 112 124 118 124zM305 411c0 -20 -12 -61 -32 -97c58 56 171 138 239 138c42 0 77 -34 77 -74
c0 -84 -149 -248 -149 -320c0 -20 12 -38 32 -38c60 0 146 54 190 88c60 46 96 90 136 140c4 6 6 6 8 6s4 -2 4 -4s0 -2 -2 -6c-50 -68 -104 -120 -138 -146c-102 -82 -205 -118 -253 -118c-34 0 -60 21 -60 57c0 98 148 254 148 332c0 29 -21 45 -40 45
c-54 0 -124 -52 -209 -144l-148 -262c-7 -12 -25 -7 -51 -12c-23 -5 -32 -11 -40 -11c-2 0 -4 1 -4 4s5 4 12 14c12 17 31 49 51 83c28 48 48 80 92 162c16 30 60 126 60 152s-8 32 -20 32c-20 0 -50 -18 -74 -34c-6 -4 -8 -6 -10 -6s-4 2 -4 4s0 4 6 8c8 6 76 56 120 56
c40 0 59 -21 59 -49zM518 573l186 189c17 17 23 24 28 24c6 0 15 -21 15 -27s-4 -15 -10 -19l-211 -180c-3 -3 -14 -13 -20 -13c-3 0 -5 2 -5 5c0 5 8 12 17 21zM460 568c4 -6 10 -11 10 -16c0 -4 -3 -6 -8 -6c-6 0 -37 48 -37 105c0 77 57 125 76 125c5 0 22 -10 22 -22
c0 -10 -75 -50 -75 -132c0 -25 4 -40 12 -54z" />
    <glyph glyph-name="uni1F94" unicode="&#x1f94;" horiz-adv-x="630" 
d="M213 -100c6 0 6 -4 6 -6c0 -12 -62 -40 -62 -100c0 -32 28 -58 64 -58c20 0 42 9 46 9c1 0 2 -1 2 -3c0 -4 -60 -24 -88 -24c-36 0 -86 10 -86 58c0 74 112 124 118 124zM305 411c0 -20 -12 -61 -32 -97c58 56 171 138 239 138c42 0 77 -34 77 -74
c0 -84 -149 -248 -149 -320c0 -20 12 -38 32 -38c60 0 146 54 190 88c60 46 96 90 136 140c4 6 6 6 8 6s4 -2 4 -4s0 -2 -2 -6c-50 -68 -104 -120 -138 -146c-102 -82 -205 -118 -253 -118c-34 0 -60 21 -60 57c0 98 148 254 148 332c0 29 -21 45 -40 45
c-54 0 -124 -52 -209 -144l-148 -262c-7 -12 -25 -7 -51 -12c-23 -5 -32 -11 -40 -11c-2 0 -4 1 -4 4s5 4 12 14c12 17 31 49 51 83c28 48 48 80 92 162c16 30 60 126 60 152s-8 32 -20 32c-20 0 -50 -18 -74 -34c-6 -4 -8 -6 -10 -6s-4 2 -4 4s0 4 6 8c8 6 76 56 120 56
c40 0 59 -21 59 -49zM434 568c31 31 42 65 42 109c0 52 -28 58 -28 72s26 27 32 27c20 0 36 -41 36 -69c0 -78 -85 -161 -93 -161c-4 0 -6 2 -6 4c0 6 10 11 17 18zM518 573l186 189c17 17 23 24 28 24c6 0 15 -21 15 -27s-4 -15 -10 -19l-211 -180c-3 -3 -14 -13 -20 -13
c-3 0 -5 2 -5 5c0 5 8 12 17 21z" />
    <glyph glyph-name="uni1F93" unicode="&#x1f93;" horiz-adv-x="630" 
d="M213 -100c6 0 6 -4 6 -6c0 -12 -62 -40 -62 -100c0 -32 28 -58 64 -58c20 0 42 9 46 9c1 0 2 -1 2 -3c0 -4 -60 -24 -88 -24c-36 0 -86 10 -86 58c0 74 112 124 118 124zM305 411c0 -20 -12 -61 -32 -97c58 56 171 138 239 138c42 0 77 -34 77 -74
c0 -84 -149 -248 -149 -320c0 -20 12 -38 32 -38c60 0 146 54 190 88c60 46 96 90 136 140c4 6 6 6 8 6s4 -2 4 -4s0 -2 -2 -6c-50 -68 -104 -120 -138 -146c-102 -82 -205 -118 -253 -118c-34 0 -60 21 -60 57c0 98 148 254 148 332c0 29 -21 45 -40 45
c-54 0 -124 -52 -209 -144l-148 -262c-7 -12 -25 -7 -51 -12c-23 -5 -32 -11 -40 -11c-2 0 -4 1 -4 4s5 4 12 14c12 17 31 49 51 83c28 48 48 80 92 162c16 30 60 126 60 152s-8 32 -20 32c-20 0 -50 -18 -74 -34c-6 -4 -8 -6 -10 -6s-4 2 -4 4s0 4 6 8c8 6 76 56 120 56
c40 0 59 -21 59 -49zM613 552c0 -3 -5 -5 -8 -5s-8 5 -11 14l-50 154c-6 16 -10 31 -10 42c0 9 12 32 24 32c7 0 10 -4 12 -15l39 -199c2 -10 4 -20 4 -23zM442 568c4 -6 10 -11 10 -16c0 -4 -3 -6 -8 -6c-6 0 -37 48 -37 105c0 77 57 125 76 125c5 0 22 -10 22 -22
c0 -10 -75 -50 -75 -132c0 -25 4 -40 12 -54z" />
    <glyph glyph-name="uni1FC6" unicode="&#x1fc6;" horiz-adv-x="630" 
d="M500 690c64 0 75 -79 129 -79c12 0 42 6 76 55c2 3 8 14 18 17s12 3 14 3s2 -1 2 -1c0 -3 -60 -93 -150 -93c-58 0 -71 76 -123 76c-49 0 -75 -36 -106 -69c-2 -2 -7 -5 -12 -7c-7 -3 -9 -4 -11 -4c-1 0 -2 1 -2 2c0 5 14 19 42 43c34 29 76 57 123 57zM305 411
c0 -20 -12 -61 -32 -97c58 56 171 138 239 138c42 0 77 -34 77 -74c0 -84 -149 -248 -149 -320c0 -20 12 -38 32 -38c60 0 146 54 190 88c60 46 96 90 136 140c4 6 6 6 8 6s4 -2 4 -4s0 -2 -2 -6c-50 -68 -104 -120 -138 -146c-102 -82 -205 -118 -253 -118
c-34 0 -60 21 -60 57c0 98 148 254 148 332c0 29 -21 45 -40 45c-54 0 -124 -52 -209 -144l-148 -262c-7 -12 -25 -7 -51 -12c-23 -5 -32 -11 -40 -11c-2 0 -4 1 -4 4s5 4 12 14c12 17 31 49 51 83c28 48 48 80 92 162c16 30 60 126 60 152s-8 32 -20 32
c-20 0 -50 -18 -74 -34c-6 -4 -8 -6 -10 -6s-4 2 -4 4s0 4 6 8c8 6 76 56 120 56c40 0 59 -21 59 -49z" />
    <glyph glyph-name="uni1F27" unicode="&#x1f27;" horiz-adv-x="630" 
d="M546 840c64 0 75 -79 129 -79c12 0 42 6 76 55c2 3 8 14 18 17s12 3 14 3s2 -1 2 -1c0 -3 -60 -93 -150 -93c-58 0 -71 76 -123 76c-49 0 -75 -36 -106 -69c-2 -2 -7 -5 -12 -7c-7 -3 -9 -4 -11 -4c-1 0 -2 1 -2 2c0 5 14 19 42 43c34 29 76 57 123 57zM511 576
c5 -8 18 -19 18 -25c0 -2 -2 -4 -4 -4c-5 0 -16 12 -26 31c-13 21 -22 48 -22 74c0 19 9 47 24 62c7 7 23 20 34 20c8 0 22 -16 22 -30c0 -10 -9 -8 -22 -14c-22 -10 -37 -35 -37 -67c0 -16 4 -32 13 -47zM305 411c0 -20 -12 -61 -32 -97c58 56 171 138 239 138
c42 0 77 -34 77 -74c0 -84 -149 -248 -149 -320c0 -20 12 -38 32 -38c60 0 146 54 190 88c60 46 96 90 136 140c4 6 6 6 8 6s4 -2 4 -4s0 -2 -2 -6c-50 -68 -104 -120 -138 -146c-102 -82 -205 -118 -253 -118c-34 0 -60 21 -60 57c0 98 148 254 148 332c0 29 -21 45 -40 45
c-54 0 -124 -52 -209 -144l-148 -262c-7 -12 -25 -7 -51 -12c-23 -5 -32 -11 -40 -11c-2 0 -4 1 -4 4s5 4 12 14c12 17 31 49 51 83c28 48 48 80 92 162c16 30 60 126 60 152s-8 32 -20 32c-20 0 -50 -18 -74 -34c-6 -4 -8 -6 -10 -6s-4 2 -4 4s0 4 6 8c8 6 76 56 120 56
c40 0 59 -21 59 -49z" />
    <glyph glyph-name="uni1F26" unicode="&#x1f26;" horiz-adv-x="630" 
d="M546 840c64 0 75 -79 129 -79c12 0 42 6 76 55c2 3 8 14 18 17s12 3 14 3s2 -1 2 -1c0 -3 -60 -93 -150 -93c-58 0 -71 76 -123 76c-49 0 -75 -36 -106 -69c-2 -2 -7 -5 -12 -7c-7 -3 -9 -4 -11 -4c-1 0 -2 1 -2 2c0 5 14 19 42 43c34 29 76 57 123 57zM501 571
c21 19 32 45 32 70c0 20 -7 38 -20 50c-9 8 -17 11 -17 16c0 14 22 27 28 27c7 0 14 -7 20 -15c14 -17 19 -36 19 -54c0 -37 -24 -73 -50 -96c-15 -14 -29 -22 -32 -22c-4 0 -6 2 -6 4c0 6 18 13 26 20zM305 411c0 -20 -12 -61 -32 -97c58 56 171 138 239 138
c42 0 77 -34 77 -74c0 -84 -149 -248 -149 -320c0 -20 12 -38 32 -38c60 0 146 54 190 88c60 46 96 90 136 140c4 6 6 6 8 6s4 -2 4 -4s0 -2 -2 -6c-50 -68 -104 -120 -138 -146c-102 -82 -205 -118 -253 -118c-34 0 -60 21 -60 57c0 98 148 254 148 332c0 29 -21 45 -40 45
c-54 0 -124 -52 -209 -144l-148 -262c-7 -12 -25 -7 -51 -12c-23 -5 -32 -11 -40 -11c-2 0 -4 1 -4 4s5 4 12 14c12 17 31 49 51 83c28 48 48 80 92 162c16 30 60 126 60 152s-8 32 -20 32c-20 0 -50 -18 -74 -34c-6 -4 -8 -6 -10 -6s-4 2 -4 4s0 4 6 8c8 6 76 56 120 56
c40 0 59 -21 59 -49z" />
    <glyph glyph-name="uni1F22" unicode="&#x1f22;" horiz-adv-x="630" 
d="M603 552c0 -3 -5 -5 -8 -5s-8 5 -11 14l-50 154c-6 16 -10 31 -10 42c0 9 12 32 24 32c7 0 10 -4 12 -15l39 -199c2 -10 4 -20 4 -23zM428 568c31 31 42 65 42 109c0 52 -28 58 -28 72s26 27 32 27c20 0 36 -41 36 -69c0 -78 -85 -161 -93 -161c-4 0 -6 2 -6 4
c0 6 10 11 17 18zM305 411c0 -20 -12 -61 -32 -97c58 56 171 138 239 138c42 0 77 -34 77 -74c0 -84 -149 -248 -149 -320c0 -20 12 -38 32 -38c60 0 146 54 190 88c60 46 96 90 136 140c4 6 6 6 8 6s4 -2 4 -4s0 -2 -2 -6c-50 -68 -104 -120 -138 -146
c-102 -82 -205 -118 -253 -118c-34 0 -60 21 -60 57c0 98 148 254 148 332c0 29 -21 45 -40 45c-54 0 -124 -52 -209 -144l-148 -262c-7 -12 -25 -7 -51 -12c-23 -5 -32 -11 -40 -11c-2 0 -4 1 -4 4s5 4 12 14c12 17 31 49 51 83c28 48 48 80 92 162c16 30 60 126 60 152
s-8 32 -20 32c-20 0 -50 -18 -74 -34c-6 -4 -8 -6 -10 -6s-4 2 -4 4s0 4 6 8c8 6 76 56 120 56c40 0 59 -21 59 -49z" />
    <glyph glyph-name="uni1FC7" unicode="&#x1fc7;" horiz-adv-x="630" 
d="M213 -100c6 0 6 -4 6 -6c0 -12 -62 -40 -62 -100c0 -32 28 -58 64 -58c20 0 42 9 46 9c1 0 2 -1 2 -3c0 -4 -60 -24 -88 -24c-36 0 -86 10 -86 58c0 74 112 124 118 124zM305 411c0 -20 -12 -61 -32 -97c58 56 171 138 239 138c42 0 77 -34 77 -74
c0 -84 -149 -248 -149 -320c0 -20 12 -38 32 -38c60 0 146 54 190 88c60 46 96 90 136 140c4 6 6 6 8 6s4 -2 4 -4s0 -2 -2 -6c-50 -68 -104 -120 -138 -146c-102 -82 -205 -118 -253 -118c-34 0 -60 21 -60 57c0 98 148 254 148 332c0 29 -21 45 -40 45
c-54 0 -124 -52 -209 -144l-148 -262c-7 -12 -25 -7 -51 -12c-23 -5 -32 -11 -40 -11c-2 0 -4 1 -4 4s5 4 12 14c12 17 31 49 51 83c28 48 48 80 92 162c16 30 60 126 60 152s-8 32 -20 32c-20 0 -50 -18 -74 -34c-6 -4 -8 -6 -10 -6s-4 2 -4 4s0 4 6 8c8 6 76 56 120 56
c40 0 59 -21 59 -49zM500 690c64 0 75 -79 129 -79c12 0 42 6 76 55c2 3 8 14 18 17s12 3 14 3s2 -1 2 -1c0 -3 -60 -93 -150 -93c-58 0 -71 76 -123 76c-49 0 -75 -36 -106 -69c-2 -2 -7 -5 -12 -7c-7 -3 -9 -4 -11 -4c-1 0 -2 1 -2 2c0 5 14 19 42 43c34 29 76 57 123 57z
" />
    <glyph glyph-name="uni1F97" unicode="&#x1f97;" horiz-adv-x="630" 
d="M213 -100c6 0 6 -4 6 -6c0 -12 -62 -40 -62 -100c0 -32 28 -58 64 -58c20 0 42 9 46 9c1 0 2 -1 2 -3c0 -4 -60 -24 -88 -24c-36 0 -86 10 -86 58c0 74 112 124 118 124zM305 411c0 -20 -12 -61 -32 -97c58 56 171 138 239 138c42 0 77 -34 77 -74
c0 -84 -149 -248 -149 -320c0 -20 12 -38 32 -38c60 0 146 54 190 88c60 46 96 90 136 140c4 6 6 6 8 6s4 -2 4 -4s0 -2 -2 -6c-50 -68 -104 -120 -138 -146c-102 -82 -205 -118 -253 -118c-34 0 -60 21 -60 57c0 98 148 254 148 332c0 29 -21 45 -40 45
c-54 0 -124 -52 -209 -144l-148 -262c-7 -12 -25 -7 -51 -12c-23 -5 -32 -11 -40 -11c-2 0 -4 1 -4 4s5 4 12 14c12 17 31 49 51 83c28 48 48 80 92 162c16 30 60 126 60 152s-8 32 -20 32c-20 0 -50 -18 -74 -34c-6 -4 -8 -6 -10 -6s-4 2 -4 4s0 4 6 8c8 6 76 56 120 56
c40 0 59 -21 59 -49zM546 840c64 0 75 -79 129 -79c12 0 42 6 76 55c2 3 8 14 18 17s12 3 14 3s2 -1 2 -1c0 -3 -60 -93 -150 -93c-58 0 -71 76 -123 76c-49 0 -75 -36 -106 -69c-2 -2 -7 -5 -12 -7c-7 -3 -9 -4 -11 -4c-1 0 -2 1 -2 2c0 5 14 19 42 43c34 29 76 57 123 57z
M511 576c5 -8 18 -19 18 -25c0 -2 -2 -4 -4 -4c-5 0 -16 12 -26 31c-13 21 -22 48 -22 74c0 19 9 47 24 62c7 7 23 20 34 20c8 0 22 -16 22 -30c0 -10 -9 -8 -22 -14c-22 -10 -37 -35 -37 -67c0 -16 4 -32 13 -47z" />
    <glyph glyph-name="uni1F96" unicode="&#x1f96;" horiz-adv-x="630" 
d="M213 -100c6 0 6 -4 6 -6c0 -12 -62 -40 -62 -100c0 -32 28 -58 64 -58c20 0 42 9 46 9c1 0 2 -1 2 -3c0 -4 -60 -24 -88 -24c-36 0 -86 10 -86 58c0 74 112 124 118 124zM305 411c0 -20 -12 -61 -32 -97c58 56 171 138 239 138c42 0 77 -34 77 -74
c0 -84 -149 -248 -149 -320c0 -20 12 -38 32 -38c60 0 146 54 190 88c60 46 96 90 136 140c4 6 6 6 8 6s4 -2 4 -4s0 -2 -2 -6c-50 -68 -104 -120 -138 -146c-102 -82 -205 -118 -253 -118c-34 0 -60 21 -60 57c0 98 148 254 148 332c0 29 -21 45 -40 45
c-54 0 -124 -52 -209 -144l-148 -262c-7 -12 -25 -7 -51 -12c-23 -5 -32 -11 -40 -11c-2 0 -4 1 -4 4s5 4 12 14c12 17 31 49 51 83c28 48 48 80 92 162c16 30 60 126 60 152s-8 32 -20 32c-20 0 -50 -18 -74 -34c-6 -4 -8 -6 -10 -6s-4 2 -4 4s0 4 6 8c8 6 76 56 120 56
c40 0 59 -21 59 -49zM546 840c64 0 75 -79 129 -79c12 0 42 6 76 55c2 3 8 14 18 17s12 3 14 3s2 -1 2 -1c0 -3 -60 -93 -150 -93c-58 0 -71 76 -123 76c-49 0 -75 -36 -106 -69c-2 -2 -7 -5 -12 -7c-7 -3 -9 -4 -11 -4c-1 0 -2 1 -2 2c0 5 14 19 42 43c34 29 76 57 123 57z
M501 571c21 19 32 45 32 70c0 20 -7 38 -20 50c-9 8 -17 11 -17 16c0 14 22 27 28 27c7 0 14 -7 20 -15c14 -17 19 -36 19 -54c0 -37 -24 -73 -50 -96c-15 -14 -29 -22 -32 -22c-4 0 -6 2 -6 4c0 6 18 13 26 20z" />
    <glyph glyph-name="uni1F92" unicode="&#x1f92;" horiz-adv-x="630" 
d="M213 -100c6 0 6 -4 6 -6c0 -12 -62 -40 -62 -100c0 -32 28 -58 64 -58c20 0 42 9 46 9c1 0 2 -1 2 -3c0 -4 -60 -24 -88 -24c-36 0 -86 10 -86 58c0 74 112 124 118 124zM305 411c0 -20 -12 -61 -32 -97c58 56 171 138 239 138c42 0 77 -34 77 -74
c0 -84 -149 -248 -149 -320c0 -20 12 -38 32 -38c60 0 146 54 190 88c60 46 96 90 136 140c4 6 6 6 8 6s4 -2 4 -4s0 -2 -2 -6c-50 -68 -104 -120 -138 -146c-102 -82 -205 -118 -253 -118c-34 0 -60 21 -60 57c0 98 148 254 148 332c0 29 -21 45 -40 45
c-54 0 -124 -52 -209 -144l-148 -262c-7 -12 -25 -7 -51 -12c-23 -5 -32 -11 -40 -11c-2 0 -4 1 -4 4s5 4 12 14c12 17 31 49 51 83c28 48 48 80 92 162c16 30 60 126 60 152s-8 32 -20 32c-20 0 -50 -18 -74 -34c-6 -4 -8 -6 -10 -6s-4 2 -4 4s0 4 6 8c8 6 76 56 120 56
c40 0 59 -21 59 -49zM603 552c0 -3 -5 -5 -8 -5s-8 5 -11 14l-50 154c-6 16 -10 31 -10 42c0 9 12 32 24 32c7 0 10 -4 12 -15l39 -199c2 -10 4 -20 4 -23zM428 568c31 31 42 65 42 109c0 52 -28 58 -28 72s26 27 32 27c20 0 36 -41 36 -69c0 -78 -85 -161 -93 -161
c-4 0 -6 2 -6 4c0 6 10 11 17 18z" />
    <glyph glyph-name="uni1F7C" unicode="&#x1f7c;" horiz-adv-x="730" 
d="M545 551c0 -3 -5 -5 -8 -5s-8 5 -11 14l-50 154c-6 16 -10 31 -10 42c0 9 12 32 24 32c7 0 10 -4 12 -15l39 -199c2 -10 4 -20 4 -23zM595 415c0 13 17 22 30 29c16 9 25 18 32 18c5 0 6 -4 6 -8c0 -16 -2 -9 -2 -33c0 -23 28 -61 89 -61c42 0 96 38 106 44c6 4 8 6 10 6
s4 -2 4 -4s0 -4 -6 -8c-20 -14 -98 -74 -174 -74c2 -16 4 -36 4 -54c0 -230 -190 -296 -256 -296c-34 0 -72 12 -94 52c-6 10 -8 18 -12 30c-38 -32 -104 -68 -160 -68c-38 0 -101 21 -101 105c0 98 59 174 99 222c26 31 57 64 57 84s-10 27 -26 27c-20 0 -43 -12 -67 -28
c-6 -4 -8 -6 -10 -6s-4 2 -4 4s0 4 6 8c8 6 80 56 117 56c35 0 58 -9 58 -39s-49 -72 -79 -109c-42 -53 -80 -111 -80 -191c0 -83 32 -105 72 -105c28 0 70 14 112 74c0 134 60 160 60 160c6 4 32 14 36 14c10 0 14 -8 14 -18c0 -26 -14 -72 -44 -118c2 -54 38 -120 94 -120
c108 0 150 154 150 226c0 56 -11 94 -23 121c-7 15 -18 44 -18 60z" />
    <glyph glyph-name="uni1F61" unicode="&#x1f61;" horiz-adv-x="730" 
d="M528 568c4 -6 10 -11 10 -16c0 -4 -3 -6 -8 -6c-6 0 -37 48 -37 105c0 77 57 125 76 125c5 0 22 -10 22 -22c0 -10 -75 -50 -75 -132c0 -25 4 -40 12 -54zM595 415c0 13 17 22 30 29c16 9 25 18 32 18c5 0 6 -4 6 -8c0 -16 -2 -9 -2 -33c0 -23 28 -61 89 -61
c42 0 96 38 106 44c6 4 8 6 10 6s4 -2 4 -4s0 -4 -6 -8c-20 -14 -98 -74 -174 -74c2 -16 4 -36 4 -54c0 -230 -190 -296 -256 -296c-34 0 -72 12 -94 52c-6 10 -8 18 -12 30c-38 -32 -104 -68 -160 -68c-38 0 -101 21 -101 105c0 98 59 174 99 222c26 31 57 64 57 84
s-10 27 -26 27c-20 0 -43 -12 -67 -28c-6 -4 -8 -6 -10 -6s-4 2 -4 4s0 4 6 8c8 6 80 56 117 56c35 0 58 -9 58 -39s-49 -72 -79 -109c-42 -53 -80 -111 -80 -191c0 -83 32 -105 72 -105c28 0 70 14 112 74c0 134 60 160 60 160c6 4 32 14 36 14c10 0 14 -8 14 -18
c0 -26 -14 -72 -44 -118c2 -54 38 -120 94 -120c108 0 150 154 150 226c0 56 -11 94 -23 121c-7 15 -18 44 -18 60z" />
    <glyph glyph-name="uni1F60" unicode="&#x1f60;" horiz-adv-x="730" 
d="M508 568c31 31 42 65 42 109c0 52 -28 58 -28 72s26 27 32 27c20 0 36 -41 36 -69c0 -78 -85 -161 -93 -161c-4 0 -6 2 -6 4c0 6 10 11 17 18zM595 415c0 13 17 22 30 29c16 9 25 18 32 18c5 0 6 -4 6 -8c0 -16 -2 -9 -2 -33c0 -23 28 -61 89 -61c42 0 96 38 106 44
c6 4 8 6 10 6s4 -2 4 -4s0 -4 -6 -8c-20 -14 -98 -74 -174 -74c2 -16 4 -36 4 -54c0 -230 -190 -296 -256 -296c-34 0 -72 12 -94 52c-6 10 -8 18 -12 30c-38 -32 -104 -68 -160 -68c-38 0 -101 21 -101 105c0 98 59 174 99 222c26 31 57 64 57 84s-10 27 -26 27
c-20 0 -43 -12 -67 -28c-6 -4 -8 -6 -10 -6s-4 2 -4 4s0 4 6 8c8 6 80 56 117 56c35 0 58 -9 58 -39s-49 -72 -79 -109c-42 -53 -80 -111 -80 -191c0 -83 32 -105 72 -105c28 0 70 14 112 74c0 134 60 160 60 160c6 4 32 14 36 14c10 0 14 -8 14 -18c0 -26 -14 -72 -44 -118
c2 -54 38 -120 94 -120c108 0 150 154 150 226c0 56 -11 94 -23 121c-7 15 -18 44 -18 60z" />
    <glyph glyph-name="uni1F63" unicode="&#x1f63;" horiz-adv-x="730" 
d="M629 552c0 -3 -5 -5 -8 -5s-8 5 -11 14l-50 154c-6 16 -10 31 -10 42c0 9 12 32 24 32c7 0 10 -4 12 -15l39 -199c2 -10 4 -20 4 -23zM458 568c4 -6 10 -11 10 -16c0 -4 -3 -6 -8 -6c-6 0 -37 48 -37 105c0 77 57 125 76 125c5 0 22 -10 22 -22c0 -10 -75 -50 -75 -132
c0 -25 4 -40 12 -54zM595 415c0 13 17 22 30 29c16 9 25 18 32 18c5 0 6 -4 6 -8c0 -16 -2 -9 -2 -33c0 -23 28 -61 89 -61c42 0 96 38 106 44c6 4 8 6 10 6s4 -2 4 -4s0 -4 -6 -8c-20 -14 -98 -74 -174 -74c2 -16 4 -36 4 -54c0 -230 -190 -296 -256 -296
c-34 0 -72 12 -94 52c-6 10 -8 18 -12 30c-38 -32 -104 -68 -160 -68c-38 0 -101 21 -101 105c0 98 59 174 99 222c26 31 57 64 57 84s-10 27 -26 27c-20 0 -43 -12 -67 -28c-6 -4 -8 -6 -10 -6s-4 2 -4 4s0 4 6 8c8 6 80 56 117 56c35 0 58 -9 58 -39s-49 -72 -79 -109
c-42 -53 -80 -111 -80 -191c0 -83 32 -105 72 -105c28 0 70 14 112 74c0 134 60 160 60 160c6 4 32 14 36 14c10 0 14 -8 14 -18c0 -26 -14 -72 -44 -118c2 -54 38 -120 94 -120c108 0 150 154 150 226c0 56 -11 94 -23 121c-7 15 -18 44 -18 60z" />
    <glyph glyph-name="uni1FF2" unicode="&#x1ff2;" horiz-adv-x="730" 
d="M309 -86c6 0 6 -4 6 -6c0 -12 -62 -40 -62 -100c0 -32 28 -58 64 -58c20 0 42 9 46 9c1 0 2 -1 2 -3c0 -4 -60 -24 -88 -24c-36 0 -86 10 -86 58c0 74 112 124 118 124zM595 415c0 13 17 22 30 29c16 9 25 18 32 18c5 0 6 -4 6 -8c0 -16 -2 -9 -2 -33
c0 -23 28 -61 89 -61c42 0 96 38 106 44c6 4 8 6 10 6s4 -2 4 -4s0 -4 -6 -8c-20 -14 -98 -74 -174 -74c2 -16 4 -36 4 -54c0 -230 -190 -296 -256 -296c-34 0 -72 12 -94 52c-6 10 -8 18 -12 30c-38 -32 -104 -68 -160 -68c-38 0 -101 21 -101 105c0 98 59 174 99 222
c26 31 57 64 57 84s-10 27 -26 27c-20 0 -43 -12 -67 -28c-6 -4 -8 -6 -10 -6s-4 2 -4 4s0 4 6 8c8 6 80 56 117 56c35 0 58 -9 58 -39s-49 -72 -79 -109c-42 -53 -80 -111 -80 -191c0 -83 32 -105 72 -105c28 0 70 14 112 74c0 134 60 160 60 160c6 4 32 14 36 14
c10 0 14 -8 14 -18c0 -26 -14 -72 -44 -118c2 -54 38 -120 94 -120c108 0 150 154 150 226c0 56 -11 94 -23 121c-7 15 -18 44 -18 60zM545 551c0 -3 -5 -5 -8 -5s-8 5 -11 14l-50 154c-6 16 -10 31 -10 42c0 9 12 32 24 32c7 0 10 -4 12 -15l39 -199c2 -10 4 -20 4 -23z
" />
    <glyph glyph-name="uni1FA1" unicode="&#x1fa1;" horiz-adv-x="730" 
d="M307 -100c6 0 6 -4 6 -6c0 -12 -62 -40 -62 -100c0 -32 28 -58 64 -58c20 0 42 9 46 9c1 0 2 -1 2 -3c0 -4 -60 -24 -88 -24c-36 0 -86 10 -86 58c0 74 112 124 118 124zM595 415c0 13 17 22 30 29c16 9 25 18 32 18c5 0 6 -4 6 -8c0 -16 -2 -9 -2 -33
c0 -23 28 -61 89 -61c42 0 96 38 106 44c6 4 8 6 10 6s4 -2 4 -4s0 -4 -6 -8c-20 -14 -98 -74 -174 -74c2 -16 4 -36 4 -54c0 -230 -190 -296 -256 -296c-34 0 -72 12 -94 52c-6 10 -8 18 -12 30c-38 -32 -104 -68 -160 -68c-38 0 -101 21 -101 105c0 98 59 174 99 222
c26 31 57 64 57 84s-10 27 -26 27c-20 0 -43 -12 -67 -28c-6 -4 -8 -6 -10 -6s-4 2 -4 4s0 4 6 8c8 6 80 56 117 56c35 0 58 -9 58 -39s-49 -72 -79 -109c-42 -53 -80 -111 -80 -191c0 -83 32 -105 72 -105c28 0 70 14 112 74c0 134 60 160 60 160c6 4 32 14 36 14
c10 0 14 -8 14 -18c0 -26 -14 -72 -44 -118c2 -54 38 -120 94 -120c108 0 150 154 150 226c0 56 -11 94 -23 121c-7 15 -18 44 -18 60zM528 568c4 -6 10 -11 10 -16c0 -4 -3 -6 -8 -6c-6 0 -37 48 -37 105c0 77 57 125 76 125c5 0 22 -10 22 -22c0 -10 -75 -50 -75 -132
c0 -25 4 -40 12 -54z" />
    <glyph glyph-name="uni1FA0" unicode="&#x1fa0;" horiz-adv-x="730" 
d="M307 -100c6 0 6 -4 6 -6c0 -12 -62 -40 -62 -100c0 -32 28 -58 64 -58c20 0 42 9 46 9c1 0 2 -1 2 -3c0 -4 -60 -24 -88 -24c-36 0 -86 10 -86 58c0 74 112 124 118 124zM595 415c0 13 17 22 30 29c16 9 25 18 32 18c5 0 6 -4 6 -8c0 -16 -2 -9 -2 -33
c0 -23 28 -61 89 -61c42 0 96 38 106 44c6 4 8 6 10 6s4 -2 4 -4s0 -4 -6 -8c-20 -14 -98 -74 -174 -74c2 -16 4 -36 4 -54c0 -230 -190 -296 -256 -296c-34 0 -72 12 -94 52c-6 10 -8 18 -12 30c-38 -32 -104 -68 -160 -68c-38 0 -101 21 -101 105c0 98 59 174 99 222
c26 31 57 64 57 84s-10 27 -26 27c-20 0 -43 -12 -67 -28c-6 -4 -8 -6 -10 -6s-4 2 -4 4s0 4 6 8c8 6 80 56 117 56c35 0 58 -9 58 -39s-49 -72 -79 -109c-42 -53 -80 -111 -80 -191c0 -83 32 -105 72 -105c28 0 70 14 112 74c0 134 60 160 60 160c6 4 32 14 36 14
c10 0 14 -8 14 -18c0 -26 -14 -72 -44 -118c2 -54 38 -120 94 -120c108 0 150 154 150 226c0 56 -11 94 -23 121c-7 15 -18 44 -18 60zM508 568c31 31 42 65 42 109c0 52 -28 58 -28 72s26 27 32 27c20 0 36 -41 36 -69c0 -78 -85 -161 -93 -161c-4 0 -6 2 -6 4
c0 6 10 11 17 18z" />
    <glyph glyph-name="uni1FA3" unicode="&#x1fa3;" horiz-adv-x="730" 
d="M307 -100c6 0 6 -4 6 -6c0 -12 -62 -40 -62 -100c0 -32 28 -58 64 -58c20 0 42 9 46 9c1 0 2 -1 2 -3c0 -4 -60 -24 -88 -24c-36 0 -86 10 -86 58c0 74 112 124 118 124zM595 415c0 13 17 22 30 29c16 9 25 18 32 18c5 0 6 -4 6 -8c0 -16 -2 -9 -2 -33
c0 -23 28 -61 89 -61c42 0 96 38 106 44c6 4 8 6 10 6s4 -2 4 -4s0 -4 -6 -8c-20 -14 -98 -74 -174 -74c2 -16 4 -36 4 -54c0 -230 -190 -296 -256 -296c-34 0 -72 12 -94 52c-6 10 -8 18 -12 30c-38 -32 -104 -68 -160 -68c-38 0 -101 21 -101 105c0 98 59 174 99 222
c26 31 57 64 57 84s-10 27 -26 27c-20 0 -43 -12 -67 -28c-6 -4 -8 -6 -10 -6s-4 2 -4 4s0 4 6 8c8 6 80 56 117 56c35 0 58 -9 58 -39s-49 -72 -79 -109c-42 -53 -80 -111 -80 -191c0 -83 32 -105 72 -105c28 0 70 14 112 74c0 134 60 160 60 160c6 4 32 14 36 14
c10 0 14 -8 14 -18c0 -26 -14 -72 -44 -118c2 -54 38 -120 94 -120c108 0 150 154 150 226c0 56 -11 94 -23 121c-7 15 -18 44 -18 60zM629 552c0 -3 -5 -5 -8 -5s-8 5 -11 14l-50 154c-6 16 -10 31 -10 42c0 9 12 32 24 32c7 0 10 -4 12 -15l39 -199c2 -10 4 -20 4 -23z
M458 568c4 -6 10 -11 10 -16c0 -4 -3 -6 -8 -6c-6 0 -37 48 -37 105c0 77 57 125 76 125c5 0 22 -10 22 -22c0 -10 -75 -50 -75 -132c0 -25 4 -40 12 -54z" />
    <glyph glyph-name="omegatonos" unicode="&#x3ce;" horiz-adv-x="730" 
d="M485 573l186 189c17 17 23 24 28 24c6 0 15 -21 15 -27s-4 -15 -10 -19l-211 -180c-3 -3 -14 -13 -20 -13c-3 0 -5 2 -5 5c0 5 8 12 17 21zM595 415c0 13 17 22 30 29c16 9 25 18 32 18c5 0 6 -4 6 -8c0 -16 -2 -9 -2 -33c0 -23 28 -61 89 -61c42 0 96 38 106 44
c6 4 8 6 10 6s4 -2 4 -4s0 -4 -6 -8c-20 -14 -98 -74 -174 -74c2 -16 4 -36 4 -54c0 -230 -190 -296 -256 -296c-34 0 -72 12 -94 52c-6 10 -8 18 -12 30c-38 -32 -104 -68 -160 -68c-38 0 -101 21 -101 105c0 98 59 174 99 222c26 31 57 64 57 84s-10 27 -26 27
c-20 0 -43 -12 -67 -28c-6 -4 -8 -6 -10 -6s-4 2 -4 4s0 4 6 8c8 6 80 56 117 56c35 0 58 -9 58 -39s-49 -72 -79 -109c-42 -53 -80 -111 -80 -191c0 -83 32 -105 72 -105c28 0 70 14 112 74c0 134 60 160 60 160c6 4 32 14 36 14c10 0 14 -8 14 -18c0 -26 -14 -72 -44 -118
c2 -54 38 -120 94 -120c108 0 150 154 150 226c0 56 -11 94 -23 121c-7 15 -18 44 -18 60z" />
    <glyph glyph-name="uni1F65" unicode="&#x1f65;" horiz-adv-x="730" 
d="M534 573l186 189c17 17 23 24 28 24c6 0 15 -21 15 -27s-4 -15 -10 -19l-211 -180c-3 -3 -14 -13 -20 -13c-3 0 -5 2 -5 5c0 5 8 12 17 21zM476 568c4 -6 10 -11 10 -16c0 -4 -3 -6 -8 -6c-6 0 -37 48 -37 105c0 77 57 125 76 125c5 0 22 -10 22 -22
c0 -10 -75 -50 -75 -132c0 -25 4 -40 12 -54zM595 415c0 13 17 22 30 29c16 9 25 18 32 18c5 0 6 -4 6 -8c0 -16 -2 -9 -2 -33c0 -23 28 -61 89 -61c42 0 96 38 106 44c6 4 8 6 10 6s4 -2 4 -4s0 -4 -6 -8c-20 -14 -98 -74 -174 -74c2 -16 4 -36 4 -54
c0 -230 -190 -296 -256 -296c-34 0 -72 12 -94 52c-6 10 -8 18 -12 30c-38 -32 -104 -68 -160 -68c-38 0 -101 21 -101 105c0 98 59 174 99 222c26 31 57 64 57 84s-10 27 -26 27c-20 0 -43 -12 -67 -28c-6 -4 -8 -6 -10 -6s-4 2 -4 4s0 4 6 8c8 6 80 56 117 56
c35 0 58 -9 58 -39s-49 -72 -79 -109c-42 -53 -80 -111 -80 -191c0 -83 32 -105 72 -105c28 0 70 14 112 74c0 134 60 160 60 160c6 4 32 14 36 14c10 0 14 -8 14 -18c0 -26 -14 -72 -44 -118c2 -54 38 -120 94 -120c108 0 150 154 150 226c0 56 -11 94 -23 121
c-7 15 -18 44 -18 60z" />
    <glyph glyph-name="uni1F64" unicode="&#x1f64;" horiz-adv-x="730" 
d="M450 568c31 31 42 65 42 109c0 52 -28 58 -28 72s26 27 32 27c20 0 36 -41 36 -69c0 -78 -85 -161 -93 -161c-4 0 -6 2 -6 4c0 6 10 11 17 18zM534 573l186 189c17 17 23 24 28 24c6 0 15 -21 15 -27s-4 -15 -10 -19l-211 -180c-3 -3 -14 -13 -20 -13c-3 0 -5 2 -5 5
c0 5 8 12 17 21zM595 415c0 13 17 22 30 29c16 9 25 18 32 18c5 0 6 -4 6 -8c0 -16 -2 -9 -2 -33c0 -23 28 -61 89 -61c42 0 96 38 106 44c6 4 8 6 10 6s4 -2 4 -4s0 -4 -6 -8c-20 -14 -98 -74 -174 -74c2 -16 4 -36 4 -54c0 -230 -190 -296 -256 -296c-34 0 -72 12 -94 52
c-6 10 -8 18 -12 30c-38 -32 -104 -68 -160 -68c-38 0 -101 21 -101 105c0 98 59 174 99 222c26 31 57 64 57 84s-10 27 -26 27c-20 0 -43 -12 -67 -28c-6 -4 -8 -6 -10 -6s-4 2 -4 4s0 4 6 8c8 6 80 56 117 56c35 0 58 -9 58 -39s-49 -72 -79 -109
c-42 -53 -80 -111 -80 -191c0 -83 32 -105 72 -105c28 0 70 14 112 74c0 134 60 160 60 160c6 4 32 14 36 14c10 0 14 -8 14 -18c0 -26 -14 -72 -44 -118c2 -54 38 -120 94 -120c108 0 150 154 150 226c0 56 -11 94 -23 121c-7 15 -18 44 -18 60z" />
    <glyph glyph-name="uni1F62" unicode="&#x1f62;" horiz-adv-x="730" 
d="M619 552c0 -3 -5 -5 -8 -5s-8 5 -11 14l-50 154c-6 16 -10 31 -10 42c0 9 12 32 24 32c7 0 10 -4 12 -15l39 -199c2 -10 4 -20 4 -23zM444 568c31 31 42 65 42 109c0 52 -28 58 -28 72s26 27 32 27c20 0 36 -41 36 -69c0 -78 -85 -161 -93 -161c-4 0 -6 2 -6 4
c0 6 10 11 17 18zM595 415c0 13 17 22 30 29c16 9 25 18 32 18c5 0 6 -4 6 -8c0 -16 -2 -9 -2 -33c0 -23 28 -61 89 -61c42 0 96 38 106 44c6 4 8 6 10 6s4 -2 4 -4s0 -4 -6 -8c-20 -14 -98 -74 -174 -74c2 -16 4 -36 4 -54c0 -230 -190 -296 -256 -296c-34 0 -72 12 -94 52
c-6 10 -8 18 -12 30c-38 -32 -104 -68 -160 -68c-38 0 -101 21 -101 105c0 98 59 174 99 222c26 31 57 64 57 84s-10 27 -26 27c-20 0 -43 -12 -67 -28c-6 -4 -8 -6 -10 -6s-4 2 -4 4s0 4 6 8c8 6 80 56 117 56c35 0 58 -9 58 -39s-49 -72 -79 -109
c-42 -53 -80 -111 -80 -191c0 -83 32 -105 72 -105c28 0 70 14 112 74c0 134 60 160 60 160c6 4 32 14 36 14c10 0 14 -8 14 -18c0 -26 -14 -72 -44 -118c2 -54 38 -120 94 -120c108 0 150 154 150 226c0 56 -11 94 -23 121c-7 15 -18 44 -18 60z" />
    <glyph glyph-name="uni1FF4" unicode="&#x1ff4;" horiz-adv-x="730" 
d="M309 -86c6 0 6 -4 6 -6c0 -12 -62 -40 -62 -100c0 -32 28 -58 64 -58c20 0 42 9 46 9c1 0 2 -1 2 -3c0 -4 -60 -24 -88 -24c-36 0 -86 10 -86 58c0 74 112 124 118 124zM595 415c0 13 17 22 30 29c16 9 25 18 32 18c5 0 6 -4 6 -8c0 -16 -2 -9 -2 -33
c0 -23 28 -61 89 -61c42 0 96 38 106 44c6 4 8 6 10 6s4 -2 4 -4s0 -4 -6 -8c-20 -14 -98 -74 -174 -74c2 -16 4 -36 4 -54c0 -230 -190 -296 -256 -296c-34 0 -72 12 -94 52c-6 10 -8 18 -12 30c-38 -32 -104 -68 -160 -68c-38 0 -101 21 -101 105c0 98 59 174 99 222
c26 31 57 64 57 84s-10 27 -26 27c-20 0 -43 -12 -67 -28c-6 -4 -8 -6 -10 -6s-4 2 -4 4s0 4 6 8c8 6 80 56 117 56c35 0 58 -9 58 -39s-49 -72 -79 -109c-42 -53 -80 -111 -80 -191c0 -83 32 -105 72 -105c28 0 70 14 112 74c0 134 60 160 60 160c6 4 32 14 36 14
c10 0 14 -8 14 -18c0 -26 -14 -72 -44 -118c2 -54 38 -120 94 -120c108 0 150 154 150 226c0 56 -11 94 -23 121c-7 15 -18 44 -18 60zM485 573l186 189c17 17 23 24 28 24c6 0 15 -21 15 -27s-4 -15 -10 -19l-211 -180c-3 -3 -14 -13 -20 -13c-3 0 -5 2 -5 5
c0 5 8 12 17 21z" />
    <glyph glyph-name="uni1FA5" unicode="&#x1fa5;" horiz-adv-x="730" 
d="M307 -100c6 0 6 -4 6 -6c0 -12 -62 -40 -62 -100c0 -32 28 -58 64 -58c20 0 42 9 46 9c1 0 2 -1 2 -3c0 -4 -60 -24 -88 -24c-36 0 -86 10 -86 58c0 74 112 124 118 124zM595 415c0 13 17 22 30 29c16 9 25 18 32 18c5 0 6 -4 6 -8c0 -16 -2 -9 -2 -33
c0 -23 28 -61 89 -61c42 0 96 38 106 44c6 4 8 6 10 6s4 -2 4 -4s0 -4 -6 -8c-20 -14 -98 -74 -174 -74c2 -16 4 -36 4 -54c0 -230 -190 -296 -256 -296c-34 0 -72 12 -94 52c-6 10 -8 18 -12 30c-38 -32 -104 -68 -160 -68c-38 0 -101 21 -101 105c0 98 59 174 99 222
c26 31 57 64 57 84s-10 27 -26 27c-20 0 -43 -12 -67 -28c-6 -4 -8 -6 -10 -6s-4 2 -4 4s0 4 6 8c8 6 80 56 117 56c35 0 58 -9 58 -39s-49 -72 -79 -109c-42 -53 -80 -111 -80 -191c0 -83 32 -105 72 -105c28 0 70 14 112 74c0 134 60 160 60 160c6 4 32 14 36 14
c10 0 14 -8 14 -18c0 -26 -14 -72 -44 -118c2 -54 38 -120 94 -120c108 0 150 154 150 226c0 56 -11 94 -23 121c-7 15 -18 44 -18 60zM534 573l186 189c17 17 23 24 28 24c6 0 15 -21 15 -27s-4 -15 -10 -19l-211 -180c-3 -3 -14 -13 -20 -13c-3 0 -5 2 -5 5
c0 5 8 12 17 21zM476 568c4 -6 10 -11 10 -16c0 -4 -3 -6 -8 -6c-6 0 -37 48 -37 105c0 77 57 125 76 125c5 0 22 -10 22 -22c0 -10 -75 -50 -75 -132c0 -25 4 -40 12 -54z" />
    <glyph glyph-name="uni1FA4" unicode="&#x1fa4;" horiz-adv-x="730" 
d="M307 -100c6 0 6 -4 6 -6c0 -12 -62 -40 -62 -100c0 -32 28 -58 64 -58c20 0 42 9 46 9c1 0 2 -1 2 -3c0 -4 -60 -24 -88 -24c-36 0 -86 10 -86 58c0 74 112 124 118 124zM595 415c0 13 17 22 30 29c16 9 25 18 32 18c5 0 6 -4 6 -8c0 -16 -2 -9 -2 -33
c0 -23 28 -61 89 -61c42 0 96 38 106 44c6 4 8 6 10 6s4 -2 4 -4s0 -4 -6 -8c-20 -14 -98 -74 -174 -74c2 -16 4 -36 4 -54c0 -230 -190 -296 -256 -296c-34 0 -72 12 -94 52c-6 10 -8 18 -12 30c-38 -32 -104 -68 -160 -68c-38 0 -101 21 -101 105c0 98 59 174 99 222
c26 31 57 64 57 84s-10 27 -26 27c-20 0 -43 -12 -67 -28c-6 -4 -8 -6 -10 -6s-4 2 -4 4s0 4 6 8c8 6 80 56 117 56c35 0 58 -9 58 -39s-49 -72 -79 -109c-42 -53 -80 -111 -80 -191c0 -83 32 -105 72 -105c28 0 70 14 112 74c0 134 60 160 60 160c6 4 32 14 36 14
c10 0 14 -8 14 -18c0 -26 -14 -72 -44 -118c2 -54 38 -120 94 -120c108 0 150 154 150 226c0 56 -11 94 -23 121c-7 15 -18 44 -18 60zM450 568c31 31 42 65 42 109c0 52 -28 58 -28 72s26 27 32 27c20 0 36 -41 36 -69c0 -78 -85 -161 -93 -161c-4 0 -6 2 -6 4
c0 6 10 11 17 18zM534 573l186 189c17 17 23 24 28 24c6 0 15 -21 15 -27s-4 -15 -10 -19l-211 -180c-3 -3 -14 -13 -20 -13c-3 0 -5 2 -5 5c0 5 8 12 17 21z" />
    <glyph glyph-name="uni1FA2" unicode="&#x1fa2;" horiz-adv-x="730" 
d="M307 -100c6 0 6 -4 6 -6c0 -12 -62 -40 -62 -100c0 -32 28 -58 64 -58c20 0 42 9 46 9c1 0 2 -1 2 -3c0 -4 -60 -24 -88 -24c-36 0 -86 10 -86 58c0 74 112 124 118 124zM595 415c0 13 17 22 30 29c16 9 25 18 32 18c5 0 6 -4 6 -8c0 -16 -2 -9 -2 -33
c0 -23 28 -61 89 -61c42 0 96 38 106 44c6 4 8 6 10 6s4 -2 4 -4s0 -4 -6 -8c-20 -14 -98 -74 -174 -74c2 -16 4 -36 4 -54c0 -230 -190 -296 -256 -296c-34 0 -72 12 -94 52c-6 10 -8 18 -12 30c-38 -32 -104 -68 -160 -68c-38 0 -101 21 -101 105c0 98 59 174 99 222
c26 31 57 64 57 84s-10 27 -26 27c-20 0 -43 -12 -67 -28c-6 -4 -8 -6 -10 -6s-4 2 -4 4s0 4 6 8c8 6 80 56 117 56c35 0 58 -9 58 -39s-49 -72 -79 -109c-42 -53 -80 -111 -80 -191c0 -83 32 -105 72 -105c28 0 70 14 112 74c0 134 60 160 60 160c6 4 32 14 36 14
c10 0 14 -8 14 -18c0 -26 -14 -72 -44 -118c2 -54 38 -120 94 -120c108 0 150 154 150 226c0 56 -11 94 -23 121c-7 15 -18 44 -18 60zM619 552c0 -3 -5 -5 -8 -5s-8 5 -11 14l-50 154c-6 16 -10 31 -10 42c0 9 12 32 24 32c7 0 10 -4 12 -15l39 -199c2 -10 4 -20 4 -23z
M444 568c31 31 42 65 42 109c0 52 -28 58 -28 72s26 27 32 27c20 0 36 -41 36 -69c0 -78 -85 -161 -93 -161c-4 0 -6 2 -6 4c0 6 10 11 17 18z" />
    <glyph glyph-name="uni1FF6" unicode="&#x1ff6;" horiz-adv-x="730" 
d="M516 690c64 0 75 -79 129 -79c12 0 42 6 76 55c2 3 8 14 18 17s12 3 14 3s2 -1 2 -1c0 -3 -60 -93 -150 -93c-58 0 -71 76 -123 76c-49 0 -75 -36 -106 -69c-2 -2 -7 -5 -12 -7c-7 -3 -9 -4 -11 -4c-1 0 -2 1 -2 2c0 5 14 19 42 43c34 29 76 57 123 57zM595 415
c0 13 17 22 30 29c16 9 25 18 32 18c5 0 6 -4 6 -8c0 -16 -2 -9 -2 -33c0 -23 28 -61 89 -61c42 0 96 38 106 44c6 4 8 6 10 6s4 -2 4 -4s0 -4 -6 -8c-20 -14 -98 -74 -174 -74c2 -16 4 -36 4 -54c0 -230 -190 -296 -256 -296c-34 0 -72 12 -94 52c-6 10 -8 18 -12 30
c-38 -32 -104 -68 -160 -68c-38 0 -101 21 -101 105c0 98 59 174 99 222c26 31 57 64 57 84s-10 27 -26 27c-20 0 -43 -12 -67 -28c-6 -4 -8 -6 -10 -6s-4 2 -4 4s0 4 6 8c8 6 80 56 117 56c35 0 58 -9 58 -39s-49 -72 -79 -109c-42 -53 -80 -111 -80 -191
c0 -83 32 -105 72 -105c28 0 70 14 112 74c0 134 60 160 60 160c6 4 32 14 36 14c10 0 14 -8 14 -18c0 -26 -14 -72 -44 -118c2 -54 38 -120 94 -120c108 0 150 154 150 226c0 56 -11 94 -23 121c-7 15 -18 44 -18 60z" />
    <glyph glyph-name="uni1F67" unicode="&#x1f67;" horiz-adv-x="730" 
d="M562 840c64 0 75 -79 129 -79c12 0 42 6 76 55c2 3 8 14 18 17s12 3 14 3s2 -1 2 -1c0 -3 -60 -93 -150 -93c-58 0 -71 76 -123 76c-49 0 -75 -36 -106 -69c-2 -2 -7 -5 -12 -7c-7 -3 -9 -4 -11 -4c-1 0 -2 1 -2 2c0 5 14 19 42 43c34 29 76 57 123 57zM527 576
c5 -8 18 -19 18 -25c0 -2 -2 -4 -4 -4c-5 0 -16 12 -26 31c-13 21 -22 48 -22 74c0 19 9 47 24 62c7 7 23 20 34 20c8 0 22 -16 22 -30c0 -10 -9 -8 -22 -14c-22 -10 -37 -35 -37 -67c0 -16 4 -32 13 -47zM595 415c0 13 17 22 30 29c16 9 25 18 32 18c5 0 6 -4 6 -8
c0 -16 -2 -9 -2 -33c0 -23 28 -61 89 -61c42 0 96 38 106 44c6 4 8 6 10 6s4 -2 4 -4s0 -4 -6 -8c-20 -14 -98 -74 -174 -74c2 -16 4 -36 4 -54c0 -230 -190 -296 -256 -296c-34 0 -72 12 -94 52c-6 10 -8 18 -12 30c-38 -32 -104 -68 -160 -68c-38 0 -101 21 -101 105
c0 98 59 174 99 222c26 31 57 64 57 84s-10 27 -26 27c-20 0 -43 -12 -67 -28c-6 -4 -8 -6 -10 -6s-4 2 -4 4s0 4 6 8c8 6 80 56 117 56c35 0 58 -9 58 -39s-49 -72 -79 -109c-42 -53 -80 -111 -80 -191c0 -83 32 -105 72 -105c28 0 70 14 112 74c0 134 60 160 60 160
c6 4 32 14 36 14c10 0 14 -8 14 -18c0 -26 -14 -72 -44 -118c2 -54 38 -120 94 -120c108 0 150 154 150 226c0 56 -11 94 -23 121c-7 15 -18 44 -18 60z" />
    <glyph glyph-name="uni1F66" unicode="&#x1f66;" horiz-adv-x="730" 
d="M562 840c64 0 75 -79 129 -79c12 0 42 6 76 55c2 3 8 14 18 17s12 3 14 3s2 -1 2 -1c0 -3 -60 -93 -150 -93c-58 0 -71 76 -123 76c-49 0 -75 -36 -106 -69c-2 -2 -7 -5 -12 -7c-7 -3 -9 -4 -11 -4c-1 0 -2 1 -2 2c0 5 14 19 42 43c34 29 76 57 123 57zM517 571
c21 19 32 45 32 70c0 20 -7 38 -20 50c-9 8 -17 11 -17 16c0 14 22 27 28 27c7 0 14 -7 20 -15c14 -17 19 -36 19 -54c0 -37 -24 -73 -50 -96c-15 -14 -29 -22 -32 -22c-4 0 -6 2 -6 4c0 6 18 13 26 20zM595 415c0 13 17 22 30 29c16 9 25 18 32 18c5 0 6 -4 6 -8
c0 -16 -2 -9 -2 -33c0 -23 28 -61 89 -61c42 0 96 38 106 44c6 4 8 6 10 6s4 -2 4 -4s0 -4 -6 -8c-20 -14 -98 -74 -174 -74c2 -16 4 -36 4 -54c0 -230 -190 -296 -256 -296c-34 0 -72 12 -94 52c-6 10 -8 18 -12 30c-38 -32 -104 -68 -160 -68c-38 0 -101 21 -101 105
c0 98 59 174 99 222c26 31 57 64 57 84s-10 27 -26 27c-20 0 -43 -12 -67 -28c-6 -4 -8 -6 -10 -6s-4 2 -4 4s0 4 6 8c8 6 80 56 117 56c35 0 58 -9 58 -39s-49 -72 -79 -109c-42 -53 -80 -111 -80 -191c0 -83 32 -105 72 -105c28 0 70 14 112 74c0 134 60 160 60 160
c6 4 32 14 36 14c10 0 14 -8 14 -18c0 -26 -14 -72 -44 -118c2 -54 38 -120 94 -120c108 0 150 154 150 226c0 56 -11 94 -23 121c-7 15 -18 44 -18 60z" />
    <glyph glyph-name="uni03DC" unicode="&#x3dc;" horiz-adv-x="670" 
d="M480 886c172 0 234 -23 412 -23c94 0 123 26 129 58c1 6 5 18 10 18c6 0 8 -6 8 -9c0 -42 -104 -115 -220 -115c-74 0 -147 11 -212 19c-43 -74 -145 -266 -195 -358h138c144 0 215 12 226 12c3 0 5 -1 5 -4s-3 -2 -9 -14c-9 -18 -10 -28 -20 -28c-127 0 -318 7 -355 7
c-78 -146 -144 -270 -201 -388c-28 -58 -36 -56 -77 -61c-44 -5 -53 -17 -66 -17c-5 0 -7 3 -7 5c0 6 11 10 34 46c54 83 90 145 128 214c42 76 78 143 110 202c-21 -1 -15 -1 -25 -1c-4 0 -13 3 -13 13c0 11 17 15 53 15c66 124 146 284 184 366c0 0 -59 2 -73 2
c-95 0 -148 -22 -190 -63c-12 -12 -18 -20 -22 -20s-6 2 -6 6s8 14 22 28c54 55 131 90 232 90z" />
    <glyph glyph-name="uni1FF7" unicode="&#x1ff7;" horiz-adv-x="730" 
d="M309 -86c6 0 6 -4 6 -6c0 -12 -62 -40 -62 -100c0 -32 28 -58 64 -58c20 0 42 9 46 9c1 0 2 -1 2 -3c0 -4 -60 -24 -88 -24c-36 0 -86 10 -86 58c0 74 112 124 118 124zM595 415c0 13 17 22 30 29c16 9 25 18 32 18c5 0 6 -4 6 -8c0 -16 -2 -9 -2 -33
c0 -23 28 -61 89 -61c42 0 96 38 106 44c6 4 8 6 10 6s4 -2 4 -4s0 -4 -6 -8c-20 -14 -98 -74 -174 -74c2 -16 4 -36 4 -54c0 -230 -190 -296 -256 -296c-34 0 -72 12 -94 52c-6 10 -8 18 -12 30c-38 -32 -104 -68 -160 -68c-38 0 -101 21 -101 105c0 98 59 174 99 222
c26 31 57 64 57 84s-10 27 -26 27c-20 0 -43 -12 -67 -28c-6 -4 -8 -6 -10 -6s-4 2 -4 4s0 4 6 8c8 6 80 56 117 56c35 0 58 -9 58 -39s-49 -72 -79 -109c-42 -53 -80 -111 -80 -191c0 -83 32 -105 72 -105c28 0 70 14 112 74c0 134 60 160 60 160c6 4 32 14 36 14
c10 0 14 -8 14 -18c0 -26 -14 -72 -44 -118c2 -54 38 -120 94 -120c108 0 150 154 150 226c0 56 -11 94 -23 121c-7 15 -18 44 -18 60zM516 690c64 0 75 -79 129 -79c12 0 42 6 76 55c2 3 8 14 18 17s12 3 14 3s2 -1 2 -1c0 -3 -60 -93 -150 -93c-58 0 -71 76 -123 76
c-49 0 -75 -36 -106 -69c-2 -2 -7 -5 -12 -7c-7 -3 -9 -4 -11 -4c-1 0 -2 1 -2 2c0 5 14 19 42 43c34 29 76 57 123 57z" />
    <glyph glyph-name="uni1FA7" unicode="&#x1fa7;" horiz-adv-x="730" 
d="M307 -100c6 0 6 -4 6 -6c0 -12 -62 -40 -62 -100c0 -32 28 -58 64 -58c20 0 42 9 46 9c1 0 2 -1 2 -3c0 -4 -60 -24 -88 -24c-36 0 -86 10 -86 58c0 74 112 124 118 124zM595 415c0 13 17 22 30 29c16 9 25 18 32 18c5 0 6 -4 6 -8c0 -16 -2 -9 -2 -33
c0 -23 28 -61 89 -61c42 0 96 38 106 44c6 4 8 6 10 6s4 -2 4 -4s0 -4 -6 -8c-20 -14 -98 -74 -174 -74c2 -16 4 -36 4 -54c0 -230 -190 -296 -256 -296c-34 0 -72 12 -94 52c-6 10 -8 18 -12 30c-38 -32 -104 -68 -160 -68c-38 0 -101 21 -101 105c0 98 59 174 99 222
c26 31 57 64 57 84s-10 27 -26 27c-20 0 -43 -12 -67 -28c-6 -4 -8 -6 -10 -6s-4 2 -4 4s0 4 6 8c8 6 80 56 117 56c35 0 58 -9 58 -39s-49 -72 -79 -109c-42 -53 -80 -111 -80 -191c0 -83 32 -105 72 -105c28 0 70 14 112 74c0 134 60 160 60 160c6 4 32 14 36 14
c10 0 14 -8 14 -18c0 -26 -14 -72 -44 -118c2 -54 38 -120 94 -120c108 0 150 154 150 226c0 56 -11 94 -23 121c-7 15 -18 44 -18 60zM562 840c64 0 75 -79 129 -79c12 0 42 6 76 55c2 3 8 14 18 17s12 3 14 3s2 -1 2 -1c0 -3 -60 -93 -150 -93c-58 0 -71 76 -123 76
c-49 0 -75 -36 -106 -69c-2 -2 -7 -5 -12 -7c-7 -3 -9 -4 -11 -4c-1 0 -2 1 -2 2c0 5 14 19 42 43c34 29 76 57 123 57zM527 576c5 -8 18 -19 18 -25c0 -2 -2 -4 -4 -4c-5 0 -16 12 -26 31c-13 21 -22 48 -22 74c0 19 9 47 24 62c7 7 23 20 34 20c8 0 22 -16 22 -30
c0 -10 -9 -8 -22 -14c-22 -10 -37 -35 -37 -67c0 -16 4 -32 13 -47z" />
    <glyph glyph-name="uni1FA6" unicode="&#x1fa6;" horiz-adv-x="730" 
d="M307 -100c6 0 6 -4 6 -6c0 -12 -62 -40 -62 -100c0 -32 28 -58 64 -58c20 0 42 9 46 9c1 0 2 -1 2 -3c0 -4 -60 -24 -88 -24c-36 0 -86 10 -86 58c0 74 112 124 118 124zM595 415c0 13 17 22 30 29c16 9 25 18 32 18c5 0 6 -4 6 -8c0 -16 -2 -9 -2 -33
c0 -23 28 -61 89 -61c42 0 96 38 106 44c6 4 8 6 10 6s4 -2 4 -4s0 -4 -6 -8c-20 -14 -98 -74 -174 -74c2 -16 4 -36 4 -54c0 -230 -190 -296 -256 -296c-34 0 -72 12 -94 52c-6 10 -8 18 -12 30c-38 -32 -104 -68 -160 -68c-38 0 -101 21 -101 105c0 98 59 174 99 222
c26 31 57 64 57 84s-10 27 -26 27c-20 0 -43 -12 -67 -28c-6 -4 -8 -6 -10 -6s-4 2 -4 4s0 4 6 8c8 6 80 56 117 56c35 0 58 -9 58 -39s-49 -72 -79 -109c-42 -53 -80 -111 -80 -191c0 -83 32 -105 72 -105c28 0 70 14 112 74c0 134 60 160 60 160c6 4 32 14 36 14
c10 0 14 -8 14 -18c0 -26 -14 -72 -44 -118c2 -54 38 -120 94 -120c108 0 150 154 150 226c0 56 -11 94 -23 121c-7 15 -18 44 -18 60zM562 840c64 0 75 -79 129 -79c12 0 42 6 76 55c2 3 8 14 18 17s12 3 14 3s2 -1 2 -1c0 -3 -60 -93 -150 -93c-58 0 -71 76 -123 76
c-49 0 -75 -36 -106 -69c-2 -2 -7 -5 -12 -7c-7 -3 -9 -4 -11 -4c-1 0 -2 1 -2 2c0 5 14 19 42 43c34 29 76 57 123 57zM517 571c21 19 32 45 32 70c0 20 -7 38 -20 50c-9 8 -17 11 -17 16c0 14 22 27 28 27c7 0 14 -7 20 -15c14 -17 19 -36 19 -54c0 -37 -24 -73 -50 -96
c-15 -14 -29 -22 -32 -22c-4 0 -6 2 -6 4c0 6 18 13 26 20z" />
    <glyph glyph-name="uni1F76" unicode="&#x1f76;" horiz-adv-x="374" 
d="M372 551c0 -3 -5 -5 -8 -5s-8 5 -11 14l-50 154c-6 16 -10 31 -10 42c0 9 12 32 24 32c7 0 10 -4 12 -15l39 -199c2 -10 4 -20 4 -23zM305 411c0 -84 -152 -246 -152 -330c0 -40 33 -55 75 -55s112 40 168 82c60 46 96 90 136 140c4 6 6 6 8 6s4 -2 4 -4s0 -2 -2 -6
c-50 -68 -104 -120 -138 -146c-52 -42 -150 -106 -234 -106c-56 0 -97 25 -97 77c0 100 155 276 155 331c0 26 -8 32 -20 32c-20 0 -50 -18 -74 -34c-6 -4 -8 -6 -10 -6s-4 2 -4 4s0 4 6 8c8 6 76 56 120 56c40 0 59 -21 59 -49z" />
    <glyph glyph-name="uni1F31" unicode="&#x1f31;" horiz-adv-x="374" 
d="M355 568c4 -6 10 -11 10 -16c0 -4 -3 -6 -8 -6c-6 0 -37 48 -37 105c0 77 57 125 76 125c5 0 22 -10 22 -22c0 -10 -75 -50 -75 -132c0 -25 4 -40 12 -54zM305 411c0 -84 -152 -246 -152 -330c0 -40 33 -55 75 -55s112 40 168 82c60 46 96 90 136 140c4 6 6 6 8 6
s4 -2 4 -4s0 -2 -2 -6c-50 -68 -104 -120 -138 -146c-52 -42 -150 -106 -234 -106c-56 0 -97 25 -97 77c0 100 155 276 155 331c0 26 -8 32 -20 32c-20 0 -50 -18 -74 -34c-6 -4 -8 -6 -10 -6s-4 2 -4 4s0 4 6 8c8 6 76 56 120 56c40 0 59 -21 59 -49z" />
    <glyph glyph-name="uni1F30" unicode="&#x1f30;" horiz-adv-x="374" 
d="M335 568c31 31 42 65 42 109c0 52 -28 58 -28 72s26 27 32 27c20 0 36 -41 36 -69c0 -78 -85 -161 -93 -161c-4 0 -6 2 -6 4c0 6 10 11 17 18zM305 411c0 -84 -152 -246 -152 -330c0 -40 33 -55 75 -55s112 40 168 82c60 46 96 90 136 140c4 6 6 6 8 6s4 -2 4 -4
s0 -2 -2 -6c-50 -68 -104 -120 -138 -146c-52 -42 -150 -106 -234 -106c-56 0 -97 25 -97 77c0 100 155 276 155 331c0 26 -8 32 -20 32c-20 0 -50 -18 -74 -34c-6 -4 -8 -6 -10 -6s-4 2 -4 4s0 4 6 8c8 6 76 56 120 56c40 0 59 -21 59 -49z" />
    <glyph glyph-name="uni1F33" unicode="&#x1f33;" horiz-adv-x="374" 
d="M456 552c0 -3 -5 -5 -8 -5s-8 5 -11 14l-50 154c-6 16 -10 31 -10 42c0 9 12 32 24 32c7 0 10 -4 12 -15l39 -199c2 -10 4 -20 4 -23zM285 568c4 -6 10 -11 10 -16c0 -4 -3 -6 -8 -6c-6 0 -37 48 -37 105c0 77 57 125 76 125c5 0 22 -10 22 -22c0 -10 -75 -50 -75 -132
c0 -25 4 -40 12 -54zM305 411c0 -84 -152 -246 -152 -330c0 -40 33 -55 75 -55s112 40 168 82c60 46 96 90 136 140c4 6 6 6 8 6s4 -2 4 -4s0 -2 -2 -6c-50 -68 -104 -120 -138 -146c-52 -42 -150 -106 -234 -106c-56 0 -97 25 -97 77c0 100 155 276 155 331
c0 26 -8 32 -20 32c-20 0 -50 -18 -74 -34c-6 -4 -8 -6 -10 -6s-4 2 -4 4s0 4 6 8c8 6 76 56 120 56c40 0 59 -21 59 -49z" />
    <glyph glyph-name="uni1F7A" unicode="&#x1f7a;" horiz-adv-x="622" 
d="M473 551c0 -3 -5 -5 -8 -5s-8 5 -11 14l-50 154c-6 16 -10 31 -10 42c0 9 12 32 24 32c7 0 10 -4 12 -15l39 -199c2 -10 4 -20 4 -23zM237 460c33 0 58 -17 58 -64c0 -74 -115 -169 -115 -279c0 -73 50 -103 102 -103c166 0 222 178 222 330c0 47 -16 41 -16 71
c0 13 21 21 34 28c16 9 28 23 36 23c6 0 8 -5 8 -9c0 -16 -2 -19 -2 -39c0 -22 22 -56 64 -56c38 0 86 18 120 42c6 4 8 6 10 6s4 -2 4 -4s0 -4 -6 -8c-26 -18 -97 -58 -142 -58c-29 0 -42 6 -42 6c0 -200 -151 -366 -338 -366c-110 0 -130 92 -130 132s10 78 44 136
c33 55 76 111 76 146c0 24 -7 38 -25 38c-15 0 -41 -18 -65 -34c-6 -4 -8 -6 -10 -6s-4 2 -4 4s0 4 6 8c8 6 74 56 111 56z" />
    <glyph glyph-name="uni1F51" unicode="&#x1f51;" horiz-adv-x="622" 
d="M456 568c4 -6 10 -11 10 -16c0 -4 -3 -6 -8 -6c-6 0 -37 48 -37 105c0 77 57 125 76 125c5 0 22 -10 22 -22c0 -10 -75 -50 -75 -132c0 -25 4 -40 12 -54zM237 460c33 0 58 -17 58 -64c0 -74 -115 -169 -115 -279c0 -73 50 -103 102 -103c166 0 222 178 222 330
c0 47 -16 41 -16 71c0 13 21 21 34 28c16 9 28 23 36 23c6 0 8 -5 8 -9c0 -16 -2 -19 -2 -39c0 -22 22 -56 64 -56c38 0 86 18 120 42c6 4 8 6 10 6s4 -2 4 -4s0 -4 -6 -8c-26 -18 -97 -58 -142 -58c-29 0 -42 6 -42 6c0 -200 -151 -366 -338 -366c-110 0 -130 92 -130 132
s10 78 44 136c33 55 76 111 76 146c0 24 -7 38 -25 38c-15 0 -41 -18 -65 -34c-6 -4 -8 -6 -10 -6s-4 2 -4 4s0 4 6 8c8 6 74 56 111 56z" />
    <glyph glyph-name="uni1F50" unicode="&#x1f50;" horiz-adv-x="622" 
d="M436 568c31 31 42 65 42 109c0 52 -28 58 -28 72s26 27 32 27c20 0 36 -41 36 -69c0 -78 -85 -161 -93 -161c-4 0 -6 2 -6 4c0 6 10 11 17 18zM237 460c33 0 58 -17 58 -64c0 -74 -115 -169 -115 -279c0 -73 50 -103 102 -103c166 0 222 178 222 330c0 47 -16 41 -16 71
c0 13 21 21 34 28c16 9 28 23 36 23c6 0 8 -5 8 -9c0 -16 -2 -19 -2 -39c0 -22 22 -56 64 -56c38 0 86 18 120 42c6 4 8 6 10 6s4 -2 4 -4s0 -4 -6 -8c-26 -18 -97 -58 -142 -58c-29 0 -42 6 -42 6c0 -200 -151 -366 -338 -366c-110 0 -130 92 -130 132s10 78 44 136
c33 55 76 111 76 146c0 24 -7 38 -25 38c-15 0 -41 -18 -65 -34c-6 -4 -8 -6 -10 -6s-4 2 -4 4s0 4 6 8c8 6 74 56 111 56z" />
    <glyph glyph-name="uni1F53" unicode="&#x1f53;" horiz-adv-x="622" 
d="M557 552c0 -3 -5 -5 -8 -5s-8 5 -11 14l-50 154c-6 16 -10 31 -10 42c0 9 12 32 24 32c7 0 10 -4 12 -15l39 -199c2 -10 4 -20 4 -23zM386 568c4 -6 10 -11 10 -16c0 -4 -3 -6 -8 -6c-6 0 -37 48 -37 105c0 77 57 125 76 125c5 0 22 -10 22 -22c0 -10 -75 -50 -75 -132
c0 -25 4 -40 12 -54zM237 460c33 0 58 -17 58 -64c0 -74 -115 -169 -115 -279c0 -73 50 -103 102 -103c166 0 222 178 222 330c0 47 -16 41 -16 71c0 13 21 21 34 28c16 9 28 23 36 23c6 0 8 -5 8 -9c0 -16 -2 -19 -2 -39c0 -22 22 -56 64 -56c38 0 86 18 120 42
c6 4 8 6 10 6s4 -2 4 -4s0 -4 -6 -8c-26 -18 -97 -58 -142 -58c-29 0 -42 6 -42 6c0 -200 -151 -366 -338 -366c-110 0 -130 92 -130 132s10 78 44 136c33 55 76 111 76 146c0 24 -7 38 -25 38c-15 0 -41 -18 -65 -34c-6 -4 -8 -6 -10 -6s-4 2 -4 4s0 4 6 8
c8 6 74 56 111 56z" />
    <glyph glyph-name="iotatonos" unicode="&#x3af;" horiz-adv-x="374" 
d="M312 573l186 189c17 17 23 24 28 24c6 0 15 -21 15 -27s-4 -15 -10 -19l-211 -180c-3 -3 -14 -13 -20 -13c-3 0 -5 2 -5 5c0 5 8 12 17 21zM305 411c0 -84 -152 -246 -152 -330c0 -40 33 -55 75 -55s112 40 168 82c60 46 96 90 136 140c4 6 6 6 8 6s4 -2 4 -4s0 -2 -2 -6
c-50 -68 -104 -120 -138 -146c-52 -42 -150 -106 -234 -106c-56 0 -97 25 -97 77c0 100 155 276 155 331c0 26 -8 32 -20 32c-20 0 -50 -18 -74 -34c-6 -4 -8 -6 -10 -6s-4 2 -4 4s0 4 6 8c8 6 76 56 120 56c40 0 59 -21 59 -49z" />
    <glyph glyph-name="uni1F35" unicode="&#x1f35;" horiz-adv-x="374" 
d="M361 573l186 189c17 17 23 24 28 24c6 0 15 -21 15 -27s-4 -15 -10 -19l-211 -180c-3 -3 -14 -13 -20 -13c-3 0 -5 2 -5 5c0 5 8 12 17 21zM303 568c4 -6 10 -11 10 -16c0 -4 -3 -6 -8 -6c-6 0 -37 48 -37 105c0 77 57 125 76 125c5 0 22 -10 22 -22
c0 -10 -75 -50 -75 -132c0 -25 4 -40 12 -54zM305 411c0 -84 -152 -246 -152 -330c0 -40 33 -55 75 -55s112 40 168 82c60 46 96 90 136 140c4 6 6 6 8 6s4 -2 4 -4s0 -2 -2 -6c-50 -68 -104 -120 -138 -146c-52 -42 -150 -106 -234 -106c-56 0 -97 25 -97 77
c0 100 155 276 155 331c0 26 -8 32 -20 32c-20 0 -50 -18 -74 -34c-6 -4 -8 -6 -10 -6s-4 2 -4 4s0 4 6 8c8 6 76 56 120 56c40 0 59 -21 59 -49z" />
    <glyph glyph-name="uni1F34" unicode="&#x1f34;" horiz-adv-x="374" 
d="M277 568c31 31 42 65 42 109c0 52 -28 58 -28 72s26 27 32 27c20 0 36 -41 36 -69c0 -78 -85 -161 -93 -161c-4 0 -6 2 -6 4c0 6 10 11 17 18zM361 573l186 189c17 17 23 24 28 24c6 0 15 -21 15 -27s-4 -15 -10 -19l-211 -180c-3 -3 -14 -13 -20 -13c-3 0 -5 2 -5 5
c0 5 8 12 17 21zM305 411c0 -84 -152 -246 -152 -330c0 -40 33 -55 75 -55s112 40 168 82c60 46 96 90 136 140c4 6 6 6 8 6s4 -2 4 -4s0 -2 -2 -6c-50 -68 -104 -120 -138 -146c-52 -42 -150 -106 -234 -106c-56 0 -97 25 -97 77c0 100 155 276 155 331c0 26 -8 32 -20 32
c-20 0 -50 -18 -74 -34c-6 -4 -8 -6 -10 -6s-4 2 -4 4s0 4 6 8c8 6 76 56 120 56c40 0 59 -21 59 -49z" />
    <glyph glyph-name="uni1F32" unicode="&#x1f32;" horiz-adv-x="374" 
d="M446 552c0 -3 -5 -5 -8 -5s-8 5 -11 14l-50 154c-6 16 -10 31 -10 42c0 9 12 32 24 32c7 0 10 -4 12 -15l39 -199c2 -10 4 -20 4 -23zM271 568c31 31 42 65 42 109c0 52 -28 58 -28 72s26 27 32 27c20 0 36 -41 36 -69c0 -78 -85 -161 -93 -161c-4 0 -6 2 -6 4
c0 6 10 11 17 18zM305 411c0 -84 -152 -246 -152 -330c0 -40 33 -55 75 -55s112 40 168 82c60 46 96 90 136 140c4 6 6 6 8 6s4 -2 4 -4s0 -2 -2 -6c-50 -68 -104 -120 -138 -146c-52 -42 -150 -106 -234 -106c-56 0 -97 25 -97 77c0 100 155 276 155 331c0 26 -8 32 -20 32
c-20 0 -50 -18 -74 -34c-6 -4 -8 -6 -10 -6s-4 2 -4 4s0 4 6 8c8 6 76 56 120 56c40 0 59 -21 59 -49z" />
    <glyph glyph-name="upsilontonos" unicode="&#x3cd;" horiz-adv-x="622" 
d="M413 573l186 189c17 17 23 24 28 24c6 0 15 -21 15 -27s-4 -15 -10 -19l-211 -180c-3 -3 -14 -13 -20 -13c-3 0 -5 2 -5 5c0 5 8 12 17 21zM237 460c33 0 58 -17 58 -64c0 -74 -115 -169 -115 -279c0 -73 50 -103 102 -103c166 0 222 178 222 330c0 47 -16 41 -16 71
c0 13 21 21 34 28c16 9 28 23 36 23c6 0 8 -5 8 -9c0 -16 -2 -19 -2 -39c0 -22 22 -56 64 -56c38 0 86 18 120 42c6 4 8 6 10 6s4 -2 4 -4s0 -4 -6 -8c-26 -18 -97 -58 -142 -58c-29 0 -42 6 -42 6c0 -200 -151 -366 -338 -366c-110 0 -130 92 -130 132s10 78 44 136
c33 55 76 111 76 146c0 24 -7 38 -25 38c-15 0 -41 -18 -65 -34c-6 -4 -8 -6 -10 -6s-4 2 -4 4s0 4 6 8c8 6 74 56 111 56z" />
    <glyph glyph-name="uni1F55" unicode="&#x1f55;" horiz-adv-x="622" 
d="M462 573l186 189c17 17 23 24 28 24c6 0 15 -21 15 -27s-4 -15 -10 -19l-211 -180c-3 -3 -14 -13 -20 -13c-3 0 -5 2 -5 5c0 5 8 12 17 21zM404 568c4 -6 10 -11 10 -16c0 -4 -3 -6 -8 -6c-6 0 -37 48 -37 105c0 77 57 125 76 125c5 0 22 -10 22 -22
c0 -10 -75 -50 -75 -132c0 -25 4 -40 12 -54zM237 460c33 0 58 -17 58 -64c0 -74 -115 -169 -115 -279c0 -73 50 -103 102 -103c166 0 222 178 222 330c0 47 -16 41 -16 71c0 13 21 21 34 28c16 9 28 23 36 23c6 0 8 -5 8 -9c0 -16 -2 -19 -2 -39c0 -22 22 -56 64 -56
c38 0 86 18 120 42c6 4 8 6 10 6s4 -2 4 -4s0 -4 -6 -8c-26 -18 -97 -58 -142 -58c-29 0 -42 6 -42 6c0 -200 -151 -366 -338 -366c-110 0 -130 92 -130 132s10 78 44 136c33 55 76 111 76 146c0 24 -7 38 -25 38c-15 0 -41 -18 -65 -34c-6 -4 -8 -6 -10 -6s-4 2 -4 4
s0 4 6 8c8 6 74 56 111 56z" />
    <glyph glyph-name="uni1F54" unicode="&#x1f54;" horiz-adv-x="622" 
d="M378 568c31 31 42 65 42 109c0 52 -28 58 -28 72s26 27 32 27c20 0 36 -41 36 -69c0 -78 -85 -161 -93 -161c-4 0 -6 2 -6 4c0 6 10 11 17 18zM462 573l186 189c17 17 23 24 28 24c6 0 15 -21 15 -27s-4 -15 -10 -19l-211 -180c-3 -3 -14 -13 -20 -13c-3 0 -5 2 -5 5
c0 5 8 12 17 21zM237 460c33 0 58 -17 58 -64c0 -74 -115 -169 -115 -279c0 -73 50 -103 102 -103c166 0 222 178 222 330c0 47 -16 41 -16 71c0 13 21 21 34 28c16 9 28 23 36 23c6 0 8 -5 8 -9c0 -16 -2 -19 -2 -39c0 -22 22 -56 64 -56c38 0 86 18 120 42c6 4 8 6 10 6
s4 -2 4 -4s0 -4 -6 -8c-26 -18 -97 -58 -142 -58c-29 0 -42 6 -42 6c0 -200 -151 -366 -338 -366c-110 0 -130 92 -130 132s10 78 44 136c33 55 76 111 76 146c0 24 -7 38 -25 38c-15 0 -41 -18 -65 -34c-6 -4 -8 -6 -10 -6s-4 2 -4 4s0 4 6 8c8 6 74 56 111 56z" />
    <glyph glyph-name="uni1F52" unicode="&#x1f52;" horiz-adv-x="622" 
d="M547 552c0 -3 -5 -5 -8 -5s-8 5 -11 14l-50 154c-6 16 -10 31 -10 42c0 9 12 32 24 32c7 0 10 -4 12 -15l39 -199c2 -10 4 -20 4 -23zM372 568c31 31 42 65 42 109c0 52 -28 58 -28 72s26 27 32 27c20 0 36 -41 36 -69c0 -78 -85 -161 -93 -161c-4 0 -6 2 -6 4
c0 6 10 11 17 18zM237 460c33 0 58 -17 58 -64c0 -74 -115 -169 -115 -279c0 -73 50 -103 102 -103c166 0 222 178 222 330c0 47 -16 41 -16 71c0 13 21 21 34 28c16 9 28 23 36 23c6 0 8 -5 8 -9c0 -16 -2 -19 -2 -39c0 -22 22 -56 64 -56c38 0 86 18 120 42c6 4 8 6 10 6
s4 -2 4 -4s0 -4 -6 -8c-26 -18 -97 -58 -142 -58c-29 0 -42 6 -42 6c0 -200 -151 -366 -338 -366c-110 0 -130 92 -130 132s10 78 44 136c33 55 76 111 76 146c0 24 -7 38 -25 38c-15 0 -41 -18 -65 -34c-6 -4 -8 -6 -10 -6s-4 2 -4 4s0 4 6 8c8 6 74 56 111 56z" />
    <glyph glyph-name="uni1FD6" unicode="&#x1fd6;" horiz-adv-x="374" 
d="M343 690c64 0 75 -79 129 -79c12 0 42 6 76 55c2 3 8 14 18 17s12 3 14 3s2 -1 2 -1c0 -3 -60 -93 -150 -93c-58 0 -71 76 -123 76c-49 0 -75 -36 -106 -69c-2 -2 -7 -5 -12 -7c-7 -3 -9 -4 -11 -4c-1 0 -2 1 -2 2c0 5 14 19 42 43c34 29 76 57 123 57zM305 411
c0 -84 -152 -246 -152 -330c0 -40 33 -55 75 -55s112 40 168 82c60 46 96 90 136 140c4 6 6 6 8 6s4 -2 4 -4s0 -2 -2 -6c-50 -68 -104 -120 -138 -146c-52 -42 -150 -106 -234 -106c-56 0 -97 25 -97 77c0 100 155 276 155 331c0 26 -8 32 -20 32c-20 0 -50 -18 -74 -34
c-6 -4 -8 -6 -10 -6s-4 2 -4 4s0 4 6 8c8 6 76 56 120 56c40 0 59 -21 59 -49z" />
    <glyph glyph-name="uni1F37" unicode="&#x1f37;" horiz-adv-x="374" 
d="M389 840c64 0 75 -79 129 -79c12 0 42 6 76 55c2 3 8 14 18 17s12 3 14 3s2 -1 2 -1c0 -3 -60 -93 -150 -93c-58 0 -71 76 -123 76c-49 0 -75 -36 -106 -69c-2 -2 -7 -5 -12 -7c-7 -3 -9 -4 -11 -4c-1 0 -2 1 -2 2c0 5 14 19 42 43c34 29 76 57 123 57zM354 576
c5 -8 18 -19 18 -25c0 -2 -2 -4 -4 -4c-5 0 -16 12 -26 31c-13 21 -22 48 -22 74c0 19 9 47 24 62c7 7 23 20 34 20c8 0 22 -16 22 -30c0 -10 -9 -8 -22 -14c-22 -10 -37 -35 -37 -67c0 -16 4 -32 13 -47zM305 411c0 -84 -152 -246 -152 -330c0 -40 33 -55 75 -55
s112 40 168 82c60 46 96 90 136 140c4 6 6 6 8 6s4 -2 4 -4s0 -2 -2 -6c-50 -68 -104 -120 -138 -146c-52 -42 -150 -106 -234 -106c-56 0 -97 25 -97 77c0 100 155 276 155 331c0 26 -8 32 -20 32c-20 0 -50 -18 -74 -34c-6 -4 -8 -6 -10 -6s-4 2 -4 4s0 4 6 8
c8 6 76 56 120 56c40 0 59 -21 59 -49z" />
    <glyph glyph-name="uni1F36" unicode="&#x1f36;" horiz-adv-x="374" 
d="M389 840c64 0 75 -79 129 -79c12 0 42 6 76 55c2 3 8 14 18 17s12 3 14 3s2 -1 2 -1c0 -3 -60 -93 -150 -93c-58 0 -71 76 -123 76c-49 0 -75 -36 -106 -69c-2 -2 -7 -5 -12 -7c-7 -3 -9 -4 -11 -4c-1 0 -2 1 -2 2c0 5 14 19 42 43c34 29 76 57 123 57zM344 571
c21 19 32 45 32 70c0 20 -7 38 -20 50c-9 8 -17 11 -17 16c0 14 22 27 28 27c7 0 14 -7 20 -15c14 -17 19 -36 19 -54c0 -37 -24 -73 -50 -96c-15 -14 -29 -22 -32 -22c-4 0 -6 2 -6 4c0 6 18 13 26 20zM305 411c0 -84 -152 -246 -152 -330c0 -40 33 -55 75 -55
s112 40 168 82c60 46 96 90 136 140c4 6 6 6 8 6s4 -2 4 -4s0 -2 -2 -6c-50 -68 -104 -120 -138 -146c-52 -42 -150 -106 -234 -106c-56 0 -97 25 -97 77c0 100 155 276 155 331c0 26 -8 32 -20 32c-20 0 -50 -18 -74 -34c-6 -4 -8 -6 -10 -6s-4 2 -4 4s0 4 6 8
c8 6 76 56 120 56c40 0 59 -21 59 -49z" />
    <glyph glyph-name="Iotadieresis" unicode="&#x3aa;" horiz-adv-x="400" 
d="M556 1112c24 0 42 -18 42 -38c0 -33 -31 -60 -60 -60c-22 0 -33 19 -33 44c0 24 22 54 51 54zM751 1107c24 0 34 -17 34 -37c0 -33 -25 -57 -54 -57c-22 0 -33 17 -33 42c0 24 26 52 53 52zM229 142c-27 -53 -47 -100 -63 -138c-10 -24 -48 -3 -96 -22
c-20 -8 -20 -14 -28 -14c-4 0 -10 2 -10 6c0 6 26 33 36 46c48 64 81 131 106 177c120 219 172 319 277 521c13 25 42 82 42 102c0 13 -12 21 -19 23c-10 3 -20 2 -20 8c0 8 9 13 16 13c76 0 143 9 172 9c5 0 10 -7 10 -11c0 -9 -11 1 -40 -23c-27 -22 -65 -92 -85 -129
c-123 -227 -184 -345 -298 -568z" />
    <glyph glyph-name="uni1FE6" unicode="&#x1fe6;" horiz-adv-x="622" 
d="M444 690c64 0 75 -79 129 -79c12 0 42 6 76 55c2 3 8 14 18 17s12 3 14 3s2 -1 2 -1c0 -3 -60 -93 -150 -93c-58 0 -71 76 -123 76c-49 0 -75 -36 -106 -69c-2 -2 -7 -5 -12 -7c-7 -3 -9 -4 -11 -4c-1 0 -2 1 -2 2c0 5 14 19 42 43c34 29 76 57 123 57zM237 460
c33 0 58 -17 58 -64c0 -74 -115 -169 -115 -279c0 -73 50 -103 102 -103c166 0 222 178 222 330c0 47 -16 41 -16 71c0 13 21 21 34 28c16 9 28 23 36 23c6 0 8 -5 8 -9c0 -16 -2 -19 -2 -39c0 -22 22 -56 64 -56c38 0 86 18 120 42c6 4 8 6 10 6s4 -2 4 -4s0 -4 -6 -8
c-26 -18 -97 -58 -142 -58c-29 0 -42 6 -42 6c0 -200 -151 -366 -338 -366c-110 0 -130 92 -130 132s10 78 44 136c33 55 76 111 76 146c0 24 -7 38 -25 38c-15 0 -41 -18 -65 -34c-6 -4 -8 -6 -10 -6s-4 2 -4 4s0 4 6 8c8 6 74 56 111 56z" />
    <glyph glyph-name="uni1F57" unicode="&#x1f57;" horiz-adv-x="622" 
d="M490 840c64 0 75 -79 129 -79c12 0 42 6 76 55c2 3 8 14 18 17s12 3 14 3s2 -1 2 -1c0 -3 -60 -93 -150 -93c-58 0 -71 76 -123 76c-49 0 -75 -36 -106 -69c-2 -2 -7 -5 -12 -7c-7 -3 -9 -4 -11 -4c-1 0 -2 1 -2 2c0 5 14 19 42 43c34 29 76 57 123 57zM455 576
c5 -8 18 -19 18 -25c0 -2 -2 -4 -4 -4c-5 0 -16 12 -26 31c-13 21 -22 48 -22 74c0 19 9 47 24 62c7 7 23 20 34 20c8 0 22 -16 22 -30c0 -10 -9 -8 -22 -14c-22 -10 -37 -35 -37 -67c0 -16 4 -32 13 -47zM237 460c33 0 58 -17 58 -64c0 -74 -115 -169 -115 -279
c0 -73 50 -103 102 -103c166 0 222 178 222 330c0 47 -16 41 -16 71c0 13 21 21 34 28c16 9 28 23 36 23c6 0 8 -5 8 -9c0 -16 -2 -19 -2 -39c0 -22 22 -56 64 -56c38 0 86 18 120 42c6 4 8 6 10 6s4 -2 4 -4s0 -4 -6 -8c-26 -18 -97 -58 -142 -58c-29 0 -42 6 -42 6
c0 -200 -151 -366 -338 -366c-110 0 -130 92 -130 132s10 78 44 136c33 55 76 111 76 146c0 24 -7 38 -25 38c-15 0 -41 -18 -65 -34c-6 -4 -8 -6 -10 -6s-4 2 -4 4s0 4 6 8c8 6 74 56 111 56z" />
    <glyph glyph-name="uni1F56" unicode="&#x1f56;" horiz-adv-x="622" 
d="M490 840c64 0 75 -79 129 -79c12 0 42 6 76 55c2 3 8 14 18 17s12 3 14 3s2 -1 2 -1c0 -3 -60 -93 -150 -93c-58 0 -71 76 -123 76c-49 0 -75 -36 -106 -69c-2 -2 -7 -5 -12 -7c-7 -3 -9 -4 -11 -4c-1 0 -2 1 -2 2c0 5 14 19 42 43c34 29 76 57 123 57zM445 571
c21 19 32 45 32 70c0 20 -7 38 -20 50c-9 8 -17 11 -17 16c0 14 22 27 28 27c7 0 14 -7 20 -15c14 -17 19 -36 19 -54c0 -37 -24 -73 -50 -96c-15 -14 -29 -22 -32 -22c-4 0 -6 2 -6 4c0 6 18 13 26 20zM237 460c33 0 58 -17 58 -64c0 -74 -115 -169 -115 -279
c0 -73 50 -103 102 -103c166 0 222 178 222 330c0 47 -16 41 -16 71c0 13 21 21 34 28c16 9 28 23 36 23c6 0 8 -5 8 -9c0 -16 -2 -19 -2 -39c0 -22 22 -56 64 -56c38 0 86 18 120 42c6 4 8 6 10 6s4 -2 4 -4s0 -4 -6 -8c-26 -18 -97 -58 -142 -58c-29 0 -42 6 -42 6
c0 -200 -151 -366 -338 -366c-110 0 -130 92 -130 132s10 78 44 136c33 55 76 111 76 146c0 24 -7 38 -25 38c-15 0 -41 -18 -65 -34c-6 -4 -8 -6 -10 -6s-4 2 -4 4s0 4 6 8c8 6 74 56 111 56z" />
    <glyph glyph-name="Upsilondieresis" unicode="&#x3ab;" horiz-adv-x="715" 
d="M685 1112c24 0 42 -18 42 -38c0 -33 -31 -60 -60 -60c-22 0 -33 19 -33 44c0 24 22 54 51 54zM880 1107c24 0 34 -17 34 -37c0 -33 -25 -57 -54 -57c-22 0 -33 17 -33 42c0 24 26 52 53 52zM499 432c-66 -92 -205 -388 -228 -422c-15 -22 -48 -10 -102 -28
c-23 -8 -22 -14 -31 -14c-5 0 -12 2 -12 6c0 6 30 34 51 66c139 210 202 332 238 413c28 63 44 141 44 211c0 91 -73 180 -163 180c-29 0 -96 -16 -142 -62c-12 -12 -18 -20 -22 -20s-6 2 -6 6s8 14 22 28c66 68 141 90 190 90c135 0 204 -98 204 -201
c0 -60 -11 -116 -25 -164h1c168 165 259 244 460 336c48 22 102 32 133 32c37 0 73 -21 73 -35c0 -2 -1 -4 -3 -4s-3 4 -13 4c-32 0 -72 -9 -118 -20c-219 -52 -388 -175 -551 -402z" />
    <glyph glyph-name="uni1F72" unicode="&#x1f72;" horiz-adv-x="432" 
d="M409 551c0 -3 -5 -5 -8 -5s-8 5 -11 14l-50 154c-6 16 -10 31 -10 42c0 9 12 32 24 32c7 0 10 -4 12 -15l39 -199c2 -10 4 -20 4 -23zM464 108c60 46 96 90 136 140c4 6 6 6 8 6s4 -2 4 -4s0 -2 -2 -6c-50 -68 -104 -120 -138 -146c-46 -36 -164 -118 -290 -118
c-84 0 -156 32 -156 118c0 73 110 136 150 158c-14 13 -28 45 -28 59c0 72 98 136 190 136c50 0 80 -35 80 -47c0 -16 -33 -29 -40 -37c-5 -6 -4 -8 -8 -8c-3 0 -3 14 -8 22c-11 17 -32 42 -72 42c-50 0 -90 -16 -90 -76c0 -34 32 -72 48 -72c10 0 24 2 34 2
c12 0 16 -4 16 -8c0 -8 -4 -12 -16 -18c-20 -8 -30 -20 -50 -20c-8 0 -22 2 -30 2c-22 0 -100 -56 -100 -113c0 -68 48 -110 124 -110c64 0 148 30 238 98z" />
    <glyph glyph-name="uni1F11" unicode="&#x1f11;" horiz-adv-x="432" 
d="M392 568c4 -6 10 -11 10 -16c0 -4 -3 -6 -8 -6c-6 0 -37 48 -37 105c0 77 57 125 76 125c5 0 22 -10 22 -22c0 -10 -75 -50 -75 -132c0 -25 4 -40 12 -54zM464 108c60 46 96 90 136 140c4 6 6 6 8 6s4 -2 4 -4s0 -2 -2 -6c-50 -68 -104 -120 -138 -146
c-46 -36 -164 -118 -290 -118c-84 0 -156 32 -156 118c0 73 110 136 150 158c-14 13 -28 45 -28 59c0 72 98 136 190 136c50 0 80 -35 80 -47c0 -16 -33 -29 -40 -37c-5 -6 -4 -8 -8 -8c-3 0 -3 14 -8 22c-11 17 -32 42 -72 42c-50 0 -90 -16 -90 -76c0 -34 32 -72 48 -72
c10 0 24 2 34 2c12 0 16 -4 16 -8c0 -8 -4 -12 -16 -18c-20 -8 -30 -20 -50 -20c-8 0 -22 2 -30 2c-22 0 -100 -56 -100 -113c0 -68 48 -110 124 -110c64 0 148 30 238 98z" />
    <glyph glyph-name="uni1F10" unicode="&#x1f10;" horiz-adv-x="432" 
d="M372 568c31 31 42 65 42 109c0 52 -28 58 -28 72s26 27 32 27c20 0 36 -41 36 -69c0 -78 -85 -161 -93 -161c-4 0 -6 2 -6 4c0 6 10 11 17 18zM464 108c60 46 96 90 136 140c4 6 6 6 8 6s4 -2 4 -4s0 -2 -2 -6c-50 -68 -104 -120 -138 -146c-46 -36 -164 -118 -290 -118
c-84 0 -156 32 -156 118c0 73 110 136 150 158c-14 13 -28 45 -28 59c0 72 98 136 190 136c50 0 80 -35 80 -47c0 -16 -33 -29 -40 -37c-5 -6 -4 -8 -8 -8c-3 0 -3 14 -8 22c-11 17 -32 42 -72 42c-50 0 -90 -16 -90 -76c0 -34 32 -72 48 -72c10 0 24 2 34 2
c12 0 16 -4 16 -8c0 -8 -4 -12 -16 -18c-20 -8 -30 -20 -50 -20c-8 0 -22 2 -30 2c-22 0 -100 -56 -100 -113c0 -68 48 -110 124 -110c64 0 148 30 238 98z" />
    <glyph glyph-name="uni1F13" unicode="&#x1f13;" horiz-adv-x="432" 
d="M493 552c0 -3 -5 -5 -8 -5s-8 5 -11 14l-50 154c-6 16 -10 31 -10 42c0 9 12 32 24 32c7 0 10 -4 12 -15l39 -199c2 -10 4 -20 4 -23zM322 568c4 -6 10 -11 10 -16c0 -4 -3 -6 -8 -6c-6 0 -37 48 -37 105c0 77 57 125 76 125c5 0 22 -10 22 -22c0 -10 -75 -50 -75 -132
c0 -25 4 -40 12 -54zM464 108c60 46 96 90 136 140c4 6 6 6 8 6s4 -2 4 -4s0 -2 -2 -6c-50 -68 -104 -120 -138 -146c-46 -36 -164 -118 -290 -118c-84 0 -156 32 -156 118c0 73 110 136 150 158c-14 13 -28 45 -28 59c0 72 98 136 190 136c50 0 80 -35 80 -47
c0 -16 -33 -29 -40 -37c-5 -6 -4 -8 -8 -8c-3 0 -3 14 -8 22c-11 17 -32 42 -72 42c-50 0 -90 -16 -90 -76c0 -34 32 -72 48 -72c10 0 24 2 34 2c12 0 16 -4 16 -8c0 -8 -4 -12 -16 -18c-20 -8 -30 -20 -50 -20c-8 0 -22 2 -30 2c-22 0 -100 -56 -100 -113
c0 -68 48 -110 124 -110c64 0 148 30 238 98z" />
    <glyph glyph-name="uni1F78" unicode="&#x1f78;" horiz-adv-x="560" 
d="M500 551c0 -3 -5 -5 -8 -5s-8 5 -11 14l-50 154c-6 16 -10 31 -10 42c0 9 12 32 24 32c7 0 10 -4 12 -15l39 -199c2 -10 4 -20 4 -23zM414 451c76 0 124 -52 124 -132c0 -183 -193 -335 -344 -335c-75 0 -128 54 -128 129c0 172 197 338 348 338zM385 429
c-109 0 -234 -170 -234 -305c0 -65 31 -114 74 -114c110 0 232 173 232 308c0 64 -27 111 -72 111z" />
    <glyph glyph-name="uni1F41" unicode="&#x1f41;" horiz-adv-x="560" 
d="M483 568c4 -6 10 -11 10 -16c0 -4 -3 -6 -8 -6c-6 0 -37 48 -37 105c0 77 57 125 76 125c5 0 22 -10 22 -22c0 -10 -75 -50 -75 -132c0 -25 4 -40 12 -54zM414 451c76 0 124 -52 124 -132c0 -183 -193 -335 -344 -335c-75 0 -128 54 -128 129c0 172 197 338 348 338z
M385 429c-109 0 -234 -170 -234 -305c0 -65 31 -114 74 -114c110 0 232 173 232 308c0 64 -27 111 -72 111z" />
    <glyph glyph-name="uni1F40" unicode="&#x1f40;" horiz-adv-x="560" 
d="M463 568c31 31 42 65 42 109c0 52 -28 58 -28 72s26 27 32 27c20 0 36 -41 36 -69c0 -78 -85 -161 -93 -161c-4 0 -6 2 -6 4c0 6 10 11 17 18zM414 451c76 0 124 -52 124 -132c0 -183 -193 -335 -344 -335c-75 0 -128 54 -128 129c0 172 197 338 348 338zM385 429
c-109 0 -234 -170 -234 -305c0 -65 31 -114 74 -114c110 0 232 173 232 308c0 64 -27 111 -72 111z" />
    <glyph glyph-name="uni1F43" unicode="&#x1f43;" horiz-adv-x="560" 
d="M584 552c0 -3 -5 -5 -8 -5s-8 5 -11 14l-50 154c-6 16 -10 31 -10 42c0 9 12 32 24 32c7 0 10 -4 12 -15l39 -199c2 -10 4 -20 4 -23zM413 568c4 -6 10 -11 10 -16c0 -4 -3 -6 -8 -6c-6 0 -37 48 -37 105c0 77 57 125 76 125c5 0 22 -10 22 -22c0 -10 -75 -50 -75 -132
c0 -25 4 -40 12 -54zM414 451c76 0 124 -52 124 -132c0 -183 -193 -335 -344 -335c-75 0 -128 54 -128 129c0 172 197 338 348 338zM385 429c-109 0 -234 -170 -234 -305c0 -65 31 -114 74 -114c110 0 232 173 232 308c0 64 -27 111 -72 111z" />
    <glyph glyph-name="epsilontonos" unicode="&#x3ad;" horiz-adv-x="432" 
d="M349 573l186 189c17 17 23 24 28 24c6 0 15 -21 15 -27s-4 -15 -10 -19l-211 -180c-3 -3 -14 -13 -20 -13c-3 0 -5 2 -5 5c0 5 8 12 17 21zM464 108c60 46 96 90 136 140c4 6 6 6 8 6s4 -2 4 -4s0 -2 -2 -6c-50 -68 -104 -120 -138 -146c-46 -36 -164 -118 -290 -118
c-84 0 -156 32 -156 118c0 73 110 136 150 158c-14 13 -28 45 -28 59c0 72 98 136 190 136c50 0 80 -35 80 -47c0 -16 -33 -29 -40 -37c-5 -6 -4 -8 -8 -8c-3 0 -3 14 -8 22c-11 17 -32 42 -72 42c-50 0 -90 -16 -90 -76c0 -34 32 -72 48 -72c10 0 24 2 34 2
c12 0 16 -4 16 -8c0 -8 -4 -12 -16 -18c-20 -8 -30 -20 -50 -20c-8 0 -22 2 -30 2c-22 0 -100 -56 -100 -113c0 -68 48 -110 124 -110c64 0 148 30 238 98z" />
    <glyph glyph-name="uni1F15" unicode="&#x1f15;" horiz-adv-x="432" 
d="M398 573l186 189c17 17 23 24 28 24c6 0 15 -21 15 -27s-4 -15 -10 -19l-211 -180c-3 -3 -14 -13 -20 -13c-3 0 -5 2 -5 5c0 5 8 12 17 21zM340 568c4 -6 10 -11 10 -16c0 -4 -3 -6 -8 -6c-6 0 -37 48 -37 105c0 77 57 125 76 125c5 0 22 -10 22 -22
c0 -10 -75 -50 -75 -132c0 -25 4 -40 12 -54zM464 108c60 46 96 90 136 140c4 6 6 6 8 6s4 -2 4 -4s0 -2 -2 -6c-50 -68 -104 -120 -138 -146c-46 -36 -164 -118 -290 -118c-84 0 -156 32 -156 118c0 73 110 136 150 158c-14 13 -28 45 -28 59c0 72 98 136 190 136
c50 0 80 -35 80 -47c0 -16 -33 -29 -40 -37c-5 -6 -4 -8 -8 -8c-3 0 -3 14 -8 22c-11 17 -32 42 -72 42c-50 0 -90 -16 -90 -76c0 -34 32 -72 48 -72c10 0 24 2 34 2c12 0 16 -4 16 -8c0 -8 -4 -12 -16 -18c-20 -8 -30 -20 -50 -20c-8 0 -22 2 -30 2
c-22 0 -100 -56 -100 -113c0 -68 48 -110 124 -110c64 0 148 30 238 98z" />
    <glyph glyph-name="uni1F14" unicode="&#x1f14;" horiz-adv-x="432" 
d="M314 568c31 31 42 65 42 109c0 52 -28 58 -28 72s26 27 32 27c20 0 36 -41 36 -69c0 -78 -85 -161 -93 -161c-4 0 -6 2 -6 4c0 6 10 11 17 18zM398 573l186 189c17 17 23 24 28 24c6 0 15 -21 15 -27s-4 -15 -10 -19l-211 -180c-3 -3 -14 -13 -20 -13c-3 0 -5 2 -5 5
c0 5 8 12 17 21zM464 108c60 46 96 90 136 140c4 6 6 6 8 6s4 -2 4 -4s0 -2 -2 -6c-50 -68 -104 -120 -138 -146c-46 -36 -164 -118 -290 -118c-84 0 -156 32 -156 118c0 73 110 136 150 158c-14 13 -28 45 -28 59c0 72 98 136 190 136c50 0 80 -35 80 -47
c0 -16 -33 -29 -40 -37c-5 -6 -4 -8 -8 -8c-3 0 -3 14 -8 22c-11 17 -32 42 -72 42c-50 0 -90 -16 -90 -76c0 -34 32 -72 48 -72c10 0 24 2 34 2c12 0 16 -4 16 -8c0 -8 -4 -12 -16 -18c-20 -8 -30 -20 -50 -20c-8 0 -22 2 -30 2c-22 0 -100 -56 -100 -113
c0 -68 48 -110 124 -110c64 0 148 30 238 98z" />
    <glyph glyph-name="uni1F12" unicode="&#x1f12;" horiz-adv-x="432" 
d="M483 552c0 -3 -5 -5 -8 -5s-8 5 -11 14l-50 154c-6 16 -10 31 -10 42c0 9 12 32 24 32c7 0 10 -4 12 -15l39 -199c2 -10 4 -20 4 -23zM308 568c31 31 42 65 42 109c0 52 -28 58 -28 72s26 27 32 27c20 0 36 -41 36 -69c0 -78 -85 -161 -93 -161c-4 0 -6 2 -6 4
c0 6 10 11 17 18zM464 108c60 46 96 90 136 140c4 6 6 6 8 6s4 -2 4 -4s0 -2 -2 -6c-50 -68 -104 -120 -138 -146c-46 -36 -164 -118 -290 -118c-84 0 -156 32 -156 118c0 73 110 136 150 158c-14 13 -28 45 -28 59c0 72 98 136 190 136c50 0 80 -35 80 -47
c0 -16 -33 -29 -40 -37c-5 -6 -4 -8 -8 -8c-3 0 -3 14 -8 22c-11 17 -32 42 -72 42c-50 0 -90 -16 -90 -76c0 -34 32 -72 48 -72c10 0 24 2 34 2c12 0 16 -4 16 -8c0 -8 -4 -12 -16 -18c-20 -8 -30 -20 -50 -20c-8 0 -22 2 -30 2c-22 0 -100 -56 -100 -113
c0 -68 48 -110 124 -110c64 0 148 30 238 98z" />
    <glyph glyph-name="omicrontonos" unicode="&#x3cc;" horiz-adv-x="560" 
d="M440 573l186 189c17 17 23 24 28 24c6 0 15 -21 15 -27s-4 -15 -10 -19l-211 -180c-3 -3 -14 -13 -20 -13c-3 0 -5 2 -5 5c0 5 8 12 17 21zM414 451c76 0 124 -52 124 -132c0 -183 -193 -335 -344 -335c-75 0 -128 54 -128 129c0 172 197 338 348 338zM385 429
c-109 0 -234 -170 -234 -305c0 -65 31 -114 74 -114c110 0 232 173 232 308c0 64 -27 111 -72 111z" />
    <glyph glyph-name="uni1F45" unicode="&#x1f45;" horiz-adv-x="560" 
d="M489 573l186 189c17 17 23 24 28 24c6 0 15 -21 15 -27s-4 -15 -10 -19l-211 -180c-3 -3 -14 -13 -20 -13c-3 0 -5 2 -5 5c0 5 8 12 17 21zM431 568c4 -6 10 -11 10 -16c0 -4 -3 -6 -8 -6c-6 0 -37 48 -37 105c0 77 57 125 76 125c5 0 22 -10 22 -22
c0 -10 -75 -50 -75 -132c0 -25 4 -40 12 -54zM414 451c76 0 124 -52 124 -132c0 -183 -193 -335 -344 -335c-75 0 -128 54 -128 129c0 172 197 338 348 338zM385 429c-109 0 -234 -170 -234 -305c0 -65 31 -114 74 -114c110 0 232 173 232 308c0 64 -27 111 -72 111z" />
    <glyph glyph-name="uni1F44" unicode="&#x1f44;" horiz-adv-x="560" 
d="M405 568c31 31 42 65 42 109c0 52 -28 58 -28 72s26 27 32 27c20 0 36 -41 36 -69c0 -78 -85 -161 -93 -161c-4 0 -6 2 -6 4c0 6 10 11 17 18zM489 573l186 189c17 17 23 24 28 24c6 0 15 -21 15 -27s-4 -15 -10 -19l-211 -180c-3 -3 -14 -13 -20 -13c-3 0 -5 2 -5 5
c0 5 8 12 17 21zM414 451c76 0 124 -52 124 -132c0 -183 -193 -335 -344 -335c-75 0 -128 54 -128 129c0 172 197 338 348 338zM385 429c-109 0 -234 -170 -234 -305c0 -65 31 -114 74 -114c110 0 232 173 232 308c0 64 -27 111 -72 111z" />
    <glyph glyph-name="uni1F42" unicode="&#x1f42;" horiz-adv-x="560" 
d="M574 552c0 -3 -5 -5 -8 -5s-8 5 -11 14l-50 154c-6 16 -10 31 -10 42c0 9 12 32 24 32c7 0 10 -4 12 -15l39 -199c2 -10 4 -20 4 -23zM399 568c31 31 42 65 42 109c0 52 -28 58 -28 72s26 27 32 27c20 0 36 -41 36 -69c0 -78 -85 -161 -93 -161c-4 0 -6 2 -6 4
c0 6 10 11 17 18zM414 451c76 0 124 -52 124 -132c0 -183 -193 -335 -344 -335c-75 0 -128 54 -128 129c0 172 197 338 348 338zM385 429c-109 0 -234 -170 -234 -305c0 -65 31 -114 74 -114c110 0 232 173 232 308c0 64 -27 111 -72 111z" />
    <glyph glyph-name="iotadieresis" unicode="&#x3ca;" horiz-adv-x="374" 
d="M283 692c24 0 42 -18 42 -38c0 -33 -31 -60 -60 -60c-22 0 -33 19 -33 44c0 24 22 54 51 54zM478 687c24 0 34 -17 34 -37c0 -33 -25 -57 -54 -57c-22 0 -33 17 -33 42c0 24 26 52 53 52zM305 411c0 -84 -152 -246 -152 -330c0 -40 33 -55 75 -55s112 40 168 82
c60 46 96 90 136 140c4 6 6 6 8 6s4 -2 4 -4s0 -2 -2 -6c-50 -68 -104 -120 -138 -146c-52 -42 -150 -106 -234 -106c-56 0 -97 25 -97 77c0 100 155 276 155 331c0 26 -8 32 -20 32c-20 0 -50 -18 -74 -34c-6 -4 -8 -6 -10 -6s-4 2 -4 4s0 4 6 8c8 6 76 56 120 56
c40 0 59 -21 59 -49z" />
    <glyph glyph-name="uni1FD2" unicode="&#x1fd2;" horiz-adv-x="374" 
d="M283 683c24 0 42 -18 42 -38c0 -33 -31 -60 -60 -60c-22 0 -33 19 -33 44c0 24 22 54 51 54zM478 678c24 0 34 -17 34 -37c0 -33 -25 -57 -54 -57c-22 0 -33 17 -33 42c0 24 26 52 53 52zM412 748c0 -3 -5 -5 -8 -5s-8 5 -11 14l-50 154c-6 16 -10 31 -10 42
c0 9 12 32 24 32c7 0 10 -4 12 -15l39 -199c2 -10 4 -20 4 -23zM305 411c0 -84 -152 -246 -152 -330c0 -40 33 -55 75 -55s112 40 168 82c60 46 96 90 136 140c4 6 6 6 8 6s4 -2 4 -4s0 -2 -2 -6c-50 -68 -104 -120 -138 -146c-52 -42 -150 -106 -234 -106
c-56 0 -97 25 -97 77c0 100 155 276 155 331c0 26 -8 32 -20 32c-20 0 -50 -18 -74 -34c-6 -4 -8 -6 -10 -6s-4 2 -4 4s0 4 6 8c8 6 76 56 120 56c40 0 59 -21 59 -49z" />
    <glyph glyph-name="iotadieresistonos" unicode="&#x390;" horiz-adv-x="374" 
d="M380 785l186 189c17 17 23 24 28 24c6 0 15 -21 15 -27s-4 -15 -10 -19l-211 -180c-3 -3 -14 -13 -20 -13c-3 0 -5 2 -5 5c0 5 8 12 17 21zM283 692c24 0 42 -18 42 -38c0 -33 -31 -60 -60 -60c-22 0 -33 19 -33 44c0 24 22 54 51 54zM478 687c24 0 34 -17 34 -37
c0 -33 -25 -57 -54 -57c-22 0 -33 17 -33 42c0 24 26 52 53 52zM305 411c0 -84 -152 -246 -152 -330c0 -40 33 -55 75 -55s112 40 168 82c60 46 96 90 136 140c4 6 6 6 8 6s4 -2 4 -4s0 -2 -2 -6c-50 -68 -104 -120 -138 -146c-52 -42 -150 -106 -234 -106
c-56 0 -97 25 -97 77c0 100 155 276 155 331c0 26 -8 32 -20 32c-20 0 -50 -18 -74 -34c-6 -4 -8 -6 -10 -6s-4 2 -4 4s0 4 6 8c8 6 76 56 120 56c40 0 59 -21 59 -49z" />
    <glyph glyph-name="uni1FD7" unicode="&#x1fd7;" horiz-adv-x="374" 
d="M283 692c24 0 42 -18 42 -38c0 -33 -31 -60 -60 -60c-22 0 -33 19 -33 44c0 24 22 54 51 54zM478 687c24 0 34 -17 34 -37c0 -33 -25 -57 -54 -57c-22 0 -33 17 -33 42c0 24 26 52 53 52zM416 870c64 0 75 -79 129 -79c12 0 42 6 76 55c2 3 8 14 18 17s12 3 14 3
s2 -1 2 -1c0 -3 -60 -93 -150 -93c-58 0 -71 76 -123 76c-49 0 -75 -36 -106 -69c-2 -2 -7 -5 -12 -7c-7 -3 -9 -4 -11 -4c-1 0 -2 1 -2 2c0 5 14 19 42 43c34 29 76 57 123 57zM305 411c0 -84 -152 -246 -152 -330c0 -40 33 -55 75 -55s112 40 168 82c60 46 96 90 136 140
c4 6 6 6 8 6s4 -2 4 -4s0 -2 -2 -6c-50 -68 -104 -120 -138 -146c-52 -42 -150 -106 -234 -106c-56 0 -97 25 -97 77c0 100 155 276 155 331c0 26 -8 32 -20 32c-20 0 -50 -18 -74 -34c-6 -4 -8 -6 -10 -6s-4 2 -4 4s0 4 6 8c8 6 76 56 120 56c40 0 59 -21 59 -49z" />
    <glyph glyph-name="upsilondieresis" unicode="&#x3cb;" horiz-adv-x="622" 
d="M384 692c24 0 42 -18 42 -38c0 -33 -31 -60 -60 -60c-22 0 -33 19 -33 44c0 24 22 54 51 54zM579 687c24 0 34 -17 34 -37c0 -33 -25 -57 -54 -57c-22 0 -33 17 -33 42c0 24 26 52 53 52zM237 460c33 0 58 -17 58 -64c0 -74 -115 -169 -115 -279c0 -73 50 -103 102 -103
c166 0 222 178 222 330c0 47 -16 41 -16 71c0 13 21 21 34 28c16 9 28 23 36 23c6 0 8 -5 8 -9c0 -16 -2 -19 -2 -39c0 -22 22 -56 64 -56c38 0 86 18 120 42c6 4 8 6 10 6s4 -2 4 -4s0 -4 -6 -8c-26 -18 -97 -58 -142 -58c-29 0 -42 6 -42 6c0 -200 -151 -366 -338 -366
c-110 0 -130 92 -130 132s10 78 44 136c33 55 76 111 76 146c0 24 -7 38 -25 38c-15 0 -41 -18 -65 -34c-6 -4 -8 -6 -10 -6s-4 2 -4 4s0 4 6 8c8 6 74 56 111 56z" />
    <glyph glyph-name="uni1FE2" unicode="&#x1fe2;" horiz-adv-x="622" 
d="M384 683c24 0 42 -18 42 -38c0 -33 -31 -60 -60 -60c-22 0 -33 19 -33 44c0 24 22 54 51 54zM579 678c24 0 34 -17 34 -37c0 -33 -25 -57 -54 -57c-22 0 -33 17 -33 42c0 24 26 52 53 52zM513 748c0 -3 -5 -5 -8 -5s-8 5 -11 14l-50 154c-6 16 -10 31 -10 42
c0 9 12 32 24 32c7 0 10 -4 12 -15l39 -199c2 -10 4 -20 4 -23zM237 460c33 0 58 -17 58 -64c0 -74 -115 -169 -115 -279c0 -73 50 -103 102 -103c166 0 222 178 222 330c0 47 -16 41 -16 71c0 13 21 21 34 28c16 9 28 23 36 23c6 0 8 -5 8 -9c0 -16 -2 -19 -2 -39
c0 -22 22 -56 64 -56c38 0 86 18 120 42c6 4 8 6 10 6s4 -2 4 -4s0 -4 -6 -8c-26 -18 -97 -58 -142 -58c-29 0 -42 6 -42 6c0 -200 -151 -366 -338 -366c-110 0 -130 92 -130 132s10 78 44 136c33 55 76 111 76 146c0 24 -7 38 -25 38c-15 0 -41 -18 -65 -34
c-6 -4 -8 -6 -10 -6s-4 2 -4 4s0 4 6 8c8 6 74 56 111 56z" />
    <glyph glyph-name="upsilondieresistonos" unicode="&#x3b0;" horiz-adv-x="622" 
d="M481 785l186 189c17 17 23 24 28 24c6 0 15 -21 15 -27s-4 -15 -10 -19l-211 -180c-3 -3 -14 -13 -20 -13c-3 0 -5 2 -5 5c0 5 8 12 17 21zM384 692c24 0 42 -18 42 -38c0 -33 -31 -60 -60 -60c-22 0 -33 19 -33 44c0 24 22 54 51 54zM579 687c24 0 34 -17 34 -37
c0 -33 -25 -57 -54 -57c-22 0 -33 17 -33 42c0 24 26 52 53 52zM237 460c33 0 58 -17 58 -64c0 -74 -115 -169 -115 -279c0 -73 50 -103 102 -103c166 0 222 178 222 330c0 47 -16 41 -16 71c0 13 21 21 34 28c16 9 28 23 36 23c6 0 8 -5 8 -9c0 -16 -2 -19 -2 -39
c0 -22 22 -56 64 -56c38 0 86 18 120 42c6 4 8 6 10 6s4 -2 4 -4s0 -4 -6 -8c-26 -18 -97 -58 -142 -58c-29 0 -42 6 -42 6c0 -200 -151 -366 -338 -366c-110 0 -130 92 -130 132s10 78 44 136c33 55 76 111 76 146c0 24 -7 38 -25 38c-15 0 -41 -18 -65 -34
c-6 -4 -8 -6 -10 -6s-4 2 -4 4s0 4 6 8c8 6 74 56 111 56z" />
    <glyph glyph-name="uni1FE7" unicode="&#x1fe7;" horiz-adv-x="622" 
d="M384 692c24 0 42 -18 42 -38c0 -33 -31 -60 -60 -60c-22 0 -33 19 -33 44c0 24 22 54 51 54zM579 687c24 0 34 -17 34 -37c0 -33 -25 -57 -54 -57c-22 0 -33 17 -33 42c0 24 26 52 53 52zM517 870c64 0 75 -79 129 -79c12 0 42 6 76 55c2 3 8 14 18 17s12 3 14 3
s2 -1 2 -1c0 -3 -60 -93 -150 -93c-58 0 -71 76 -123 76c-49 0 -75 -36 -106 -69c-2 -2 -7 -5 -12 -7c-7 -3 -9 -4 -11 -4c-1 0 -2 1 -2 2c0 5 14 19 42 43c34 29 76 57 123 57zM237 460c33 0 58 -17 58 -64c0 -74 -115 -169 -115 -279c0 -73 50 -103 102 -103
c166 0 222 178 222 330c0 47 -16 41 -16 71c0 13 21 21 34 28c16 9 28 23 36 23c6 0 8 -5 8 -9c0 -16 -2 -19 -2 -39c0 -22 22 -56 64 -56c38 0 86 18 120 42c6 4 8 6 10 6s4 -2 4 -4s0 -4 -6 -8c-26 -18 -97 -58 -142 -58c-29 0 -42 6 -42 6c0 -200 -151 -366 -338 -366
c-110 0 -130 92 -130 132s10 78 44 136c33 55 76 111 76 146c0 24 -7 38 -25 38c-15 0 -41 -18 -65 -34c-6 -4 -8 -6 -10 -6s-4 2 -4 4s0 4 6 8c8 6 74 56 111 56z" />
    <glyph glyph-name="uni1FB3" unicode="&#x1fb3;" horiz-adv-x="658" 
d="M182 -100c6 0 6 -4 6 -6c0 -12 -62 -40 -62 -100c0 -32 28 -58 64 -58c20 0 42 9 46 9c1 0 2 -1 2 -3c0 -4 -60 -24 -88 -24c-36 0 -86 10 -86 58c0 74 112 124 118 124zM380 139c27 93 70 182 70 226c0 46 -24 65 -57 65c-135 0 -253 -225 -253 -322
c0 -44 14 -73 64 -73c44 0 93 28 176 104zM698 98c-112 -88 -191 -113 -254 -113c-34 0 -77 9 -77 74c0 11 6 38 9 52c-82 -80 -152 -115 -226 -115c-59 0 -93 43 -93 104c0 138 214 351 364 351c71 0 103 -33 103 -73c0 -42 -37 -106 -57 -154c60 71 92 106 129 149
c19 22 32 32 50 38c23 8 34 10 38 10c2 0 2 -2 2 -2c0 -5 -4 -3 -17 -13s-38 -35 -45 -42c-53 -55 -115 -122 -170 -182c-9 -34 -16 -61 -16 -92c0 -42 11 -64 68 -64c49 0 128 40 184 82c60 46 96 90 136 140c4 6 6 6 8 6s4 -2 4 -4s0 -2 -2 -6
c-50 -68 -104 -120 -138 -146z" />
    <glyph glyph-name="uni1FC3" unicode="&#x1fc3;" horiz-adv-x="630" 
d="M213 -100c6 0 6 -4 6 -6c0 -12 -62 -40 -62 -100c0 -32 28 -58 64 -58c20 0 42 9 46 9c1 0 2 -1 2 -3c0 -4 -60 -24 -88 -24c-36 0 -86 10 -86 58c0 74 112 124 118 124zM305 411c0 -20 -12 -61 -32 -97c58 56 171 138 239 138c42 0 77 -34 77 -74
c0 -84 -149 -248 -149 -320c0 -20 12 -38 32 -38c60 0 146 54 190 88c60 46 96 90 136 140c4 6 6 6 8 6s4 -2 4 -4s0 -2 -2 -6c-50 -68 -104 -120 -138 -146c-102 -82 -205 -118 -253 -118c-34 0 -60 21 -60 57c0 98 148 254 148 332c0 29 -21 45 -40 45
c-54 0 -124 -52 -209 -144l-148 -262c-7 -12 -25 -7 -51 -12c-23 -5 -32 -11 -40 -11c-2 0 -4 1 -4 4s5 4 12 14c12 17 31 49 51 83c28 48 48 80 92 162c16 30 60 126 60 152s-8 32 -20 32c-20 0 -50 -18 -74 -34c-6 -4 -8 -6 -10 -6s-4 2 -4 4s0 4 6 8c8 6 76 56 120 56
c40 0 59 -21 59 -49z" />
    <glyph glyph-name="uni1FF3" unicode="&#x1ff3;" horiz-adv-x="730" 
d="M309 -86c6 0 6 -4 6 -6c0 -12 -62 -40 -62 -100c0 -32 28 -58 64 -58c20 0 42 9 46 9c1 0 2 -1 2 -3c0 -4 -60 -24 -88 -24c-36 0 -86 10 -86 58c0 74 112 124 118 124zM595 415c0 13 17 22 30 29c16 9 25 18 32 18c5 0 6 -4 6 -8c0 -16 -2 -9 -2 -33
c0 -23 28 -61 89 -61c42 0 96 38 106 44c6 4 8 6 10 6s4 -2 4 -4s0 -4 -6 -8c-20 -14 -98 -74 -174 -74c2 -16 4 -36 4 -54c0 -230 -190 -296 -256 -296c-34 0 -72 12 -94 52c-6 10 -8 18 -12 30c-38 -32 -104 -68 -160 -68c-38 0 -101 21 -101 105c0 98 59 174 99 222
c26 31 57 64 57 84s-10 27 -26 27c-20 0 -43 -12 -67 -28c-6 -4 -8 -6 -10 -6s-4 2 -4 4s0 4 6 8c8 6 80 56 117 56c35 0 58 -9 58 -39s-49 -72 -79 -109c-42 -53 -80 -111 -80 -191c0 -83 32 -105 72 -105c28 0 70 14 112 74c0 134 60 160 60 160c6 4 32 14 36 14
c10 0 14 -8 14 -18c0 -26 -14 -72 -44 -118c2 -54 38 -120 94 -120c108 0 150 154 150 226c0 56 -11 94 -23 121c-7 15 -18 44 -18 60z" />
    <glyph glyph-name="uni1FE5" unicode="&#x1fe5;" horiz-adv-x="547" 
d="M542 568c4 -6 10 -11 10 -16c0 -4 -3 -6 -8 -6c-6 0 -37 48 -37 105c0 77 57 125 76 125c5 0 22 -10 22 -22c0 -10 -75 -50 -75 -132c0 -25 4 -40 12 -54zM415 389c-151 0 -300 -226 -432 -457c-142 -248 -220 -444 -328 -741c-12 -32 -22 -58 -32 -93
c-4 -14 -19 -17 -44 -26c-32 -12 -43 -25 -49 -25c-2 0 -4 5 -4 7c0 11 20 57 50 124c106 238 217 490 383 770c182 307 331 502 521 502c37 0 83 -27 83 -82c0 -70 -48 -153 -151 -246c-64 -58 -180 -140 -296 -140c-18 0 -38 3 -38 14c0 7 10 22 16 30c7 10 12 24 17 24
c3 0 3 -9 8 -16c14 -20 44 -22 53 -22c138 0 308 207 308 311c0 50 -28 66 -65 66z" />
    <glyph glyph-name="uni1FE4" unicode="&#x1fe4;" horiz-adv-x="547" 
d="M522 568c31 31 42 65 42 109c0 52 -28 58 -28 72s26 27 32 27c20 0 36 -41 36 -69c0 -78 -85 -161 -93 -161c-4 0 -6 2 -6 4c0 6 10 11 17 18zM415 389c-151 0 -300 -226 -432 -457c-142 -248 -220 -444 -328 -741c-12 -32 -22 -58 -32 -93c-4 -14 -19 -17 -44 -26
c-32 -12 -43 -25 -49 -25c-2 0 -4 5 -4 7c0 11 20 57 50 124c106 238 217 490 383 770c182 307 331 502 521 502c37 0 83 -27 83 -82c0 -70 -48 -153 -151 -246c-64 -58 -180 -140 -296 -140c-18 0 -38 3 -38 14c0 7 10 22 16 30c7 10 12 24 17 24c3 0 3 -9 8 -16
c14 -20 44 -22 53 -22c138 0 308 207 308 311c0 50 -28 66 -65 66z" />
    <glyph glyph-name="uni0374" unicode="&#x374;" horiz-adv-x="286" 
d="M194 -78c28 0 52 -62 52 -88c0 -84 -84 -156 -138 -188c-4 -2 -6 -2 -6 -2c-4 0 -6 2 -6 4c0 6 4 12 12 18c46 28 98 78 98 144c0 44 -48 64 -48 78s30 34 36 34z" />
    <glyph glyph-name="uni0375" unicode="&#x375;" horiz-adv-x="320" 
d="M126 -38c3 0 4 -1 4 -5c0 -8 -3 -23 -8 -42c-29 -111 -208 -246 -222 -246c-4 0 -6 2 -6 4c0 6 4 6 38 32c56 42 97 92 115 162c10 40 10 46 15 52c6 8 20 14 35 23c21 13 25 20 29 20z" />
    <glyph glyph-name="space" unicode=" " horiz-adv-x="420" 
 />
    <glyph glyph-name="quotedbl" unicode="&#x22;" horiz-adv-x="480" 
d="M297 544c-6 0 -12 4 -12 12c0 4 4 10 24 48l139 269c4 8 37 15 55 23c10 4 18 10 24 10c4 0 5 -4 5 -8c0 -8 -47 -44 -195 -298c-25 -43 -32 -56 -40 -56zM436 550c-5 0 -10 2 -10 10c0 4 0 6 20 44l145 278c4 8 39 20 57 28c10 4 21 10 27 10c4 0 6 -2 6 -6
c0 -8 -60 -61 -207 -314c-25 -43 -30 -50 -38 -50z" />
    <glyph glyph-name="numbersign" unicode="#" horiz-adv-x="582" 
d="M483 335c42 76 80 144 117 213c-46 0 -116 -1 -164 -3c-42 -75 -80 -146 -120 -221c49 3 123 8 167 11zM612 861c-17 -30 -110 -199 -142 -255c49 4 122 9 168 12c34 63 107 202 130 250c2 4 8 6 13 7c7 2 35 9 38 9c2 0 4 0 4 -2s-5 -7 -10 -15
c-17 -26 -102 -186 -134 -245c39 3 73 4 99 4c6 0 14 0 14 -6s-8 -7 -22 -28c-14 -20 -27 -44 -40 -44h-92c-37 -67 -75 -137 -115 -211c37 2 77 3 87 3c16 0 20 -1 20 -7c0 -4 -8 -11 -18 -27c-25 -40 -31 -42 -63 -44c-10 -1 -38 -2 -67 -2c-41 -76 -86 -163 -128 -242
c-4 -8 -15 -13 -30 -19c-17 -6 -28 -11 -34 -11c-2 0 -3 1 -3 3s3 6 7 13c56 97 103 180 146 255c-42 -2 -111 -5 -164 -9c-38 -71 -78 -148 -124 -236c-4 -8 -13 -11 -30 -18c-21 -8 -30 -13 -36 -13c-2 0 -3 1 -3 3s5 6 9 13c54 94 100 175 141 247c-34 -2 -97 -7 -107 -7
c-4 0 -6 2 -6 6c0 3 9 16 20 30s24 25 46 32c19 6 49 11 90 15c45 80 83 151 121 221c-32 -2 -104 -11 -108 -11s-7 0 -7 6c0 3 6 11 13 20c10 13 15 22 34 28c26 8 75 15 101 17c36 65 114 208 142 261c2 4 6 5 11 6c7 1 35 12 38 12c2 0 4 0 4 -2s-7 -8 -13 -19z" />
    <glyph glyph-name="dollar" unicode="$" horiz-adv-x="722" 
d="M76 136c0 8 12 18 24 30c32 32 56 68 60 68c2 0 6 0 6 -4s-18 -22 -18 -40c0 -104 46 -152 110 -172l224 432c-48 62 -94 122 -94 188c0 138 188 246 322 248c49 93 63 120 70 135c2 4 7 5 12 6c7 2 21 5 24 5c2 0 6 1 6 -1s-5 -7 -7 -11c-9 -17 -30 -56 -73 -136
c94 -12 128 -84 128 -94s-28 -24 -46 -38c-14 -10 -14 -12 -18 -12s-6 2 -6 6c0 34 -34 70 -86 86l-166 -320c60 -70 128 -144 128 -226c0 -166 -230 -318 -406 -320l-104 -192c-4 -8 -17 -14 -30 -23c-14 -9 -30 -21 -36 -21c-2 0 -3 1 -3 3s3 5 5 9l130 226
c-125 22 -156 106 -156 168zM528 536l158 304c-10 2 -22 2 -34 2c-128 0 -194 -86 -194 -162c0 -48 32 -96 70 -144zM504 424l-212 -412c16 -2 30 -4 42 -4c168 0 260 136 260 220c0 72 -44 136 -90 196z" />
    <glyph glyph-name="ampersand" unicode="&#x26;" horiz-adv-x="1016" 
d="M666 546c0 -36 -44 -60 -92 -60c-46 0 -94 34 -116 76c-176 -28 -234 -178 -234 -282c0 -162 144 -266 286 -266c176 0 270 142 292 272c-68 42 -120 98 -180 98c-26 0 -48 -26 -48 -54c0 -36 46 -54 46 -64c0 -4 -14 -6 -28 -6h-8c-20 0 -66 4 -66 62c0 40 56 72 116 72
c156 0 284 -158 400 -158c26 0 38 10 56 28c12 12 20 26 22 26s4 -2 4 -4s-6 -12 -20 -26c-32 -36 -56 -52 -82 -52c-58 0 -106 20 -158 48c-36 -104 -204 -286 -414 -286c-144 0 -290 104 -290 270c0 178 150 298 296 346c-6 16 -8 36 -8 58c0 156 150 240 252 240
c78 0 174 -38 174 -94c0 -10 -10 -18 -20 -36c-12 -22 -16 -32 -20 -32c-2 0 -4 2 -4 4c0 68 -98 118 -162 118c-120 0 -194 -76 -194 -178c0 -24 6 -48 16 -70c34 6 74 10 94 10c40 0 90 -18 90 -60zM502 566c20 -26 52 -60 86 -60c22 0 28 10 28 26c0 26 -52 34 -114 34z
" />
    <glyph glyph-name="quotesingle" unicode="'" horiz-adv-x="360" 
d="M304 544c-6 0 -12 4 -12 12c0 4 4 10 24 48l143 276c4 8 41 20 59 28c10 4 18 10 24 10c4 0 6 -2 6 -6c0 -8 -52 -58 -204 -312c-26 -42 -32 -56 -40 -56z" />
    <glyph glyph-name="less" unicode="&#x3c;" horiz-adv-x="800" 
d="M266 320c0 -22 320 -137 381 -159c11 -4 17 -7 19 -9c1 -1 1 -2 1 -4c0 -5 -7 -12 -16 -29c-10 -19 -10 -22 -15 -27c-3 -3 -11 0 -26 6c-56 23 -421 180 -421 204c0 20 15 34 32 42c74 37 441 159 566 211c19 8 26 11 31 11c8 0 16 -25 16 -29c0 -3 -7 -9 -19 -12
c-117 -29 -474 -153 -535 -190c-10 -6 -14 -8 -14 -15z" />
    <glyph glyph-name="greater" unicode="&#x3e;" horiz-adv-x="800" 
d="M702 314c0 22 -320 137 -381 159c-11 4 -17 7 -19 9c-1 1 -1 2 -1 4c0 5 7 12 16 29c10 19 10 22 15 27c3 3 11 0 26 -6c56 -23 421 -180 421 -204c0 -20 -15 -34 -32 -42c-74 -37 -441 -159 -566 -211c-19 -8 -26 -11 -31 -11c-8 0 -16 25 -16 29c0 3 7 9 19 12
c117 29 474 153 535 190c10 6 14 8 14 15z" />
    <glyph glyph-name="question" unicode="?" horiz-adv-x="640" 
d="M568 838c-53 0 -103 -31 -138 -55c-22 -15 -38 -30 -44 -30s-7 4 -7 6c0 8 33 32 42 39c61 48 131 88 219 88c72 0 124 -42 124 -120c0 -110 -147 -167 -236 -214c-98 -52 -202 -114 -202 -210c0 -48 50 -85 98 -85c18 0 19 6 20 6c2 0 4 -3 4 -5c0 -11 -23 -35 -29 -47
c-9 -16 -8 -20 -19 -20c-57 0 -140 47 -140 125c0 116 110 172 250 250c68 38 176 70 176 168c0 58 -50 104 -118 104zM157 38c0 36 38 73 79 73c22 0 40 -22 40 -46c0 -45 -53 -71 -81 -71c-24 0 -38 17 -38 44z" />
    <glyph glyph-name="at" unicode="@" horiz-adv-x="926" 
d="M712 230c164 0 244 206 244 300c0 162 -117 232 -237 232c-314 0 -505 -256 -505 -490c0 -156 122 -262 250 -262c158 0 284 34 388 130c14 12 44 28 56 28c2 0 4 0 4 -2c0 0 -172 -196 -482 -196c-156 0 -282 122 -282 266c0 336 322 558 604 558
c122 0 256 -68 256 -234c0 -176 -158 -370 -344 -370c-42 0 -72 26 -72 60c0 4 2 10 2 14c-32 -22 -92 -56 -144 -56c-46 0 -80 36 -80 84c0 132 150 274 274 274c38 0 84 -4 98 -42c10 10 26 18 32 20c8 4 24 10 40 10c6 0 6 -4 6 -6c0 -4 -8 -10 -14 -16
c-36 -36 -58 -66 -88 -116c-20 -34 -52 -98 -52 -146c0 -22 20 -40 46 -40zM600 288c24 80 66 152 126 222c-10 30 -36 48 -70 48c-100 0 -212 -158 -212 -258c0 -22 10 -62 42 -62c34 0 80 28 114 50z" />
    <glyph glyph-name="A" unicode="A" horiz-adv-x="980" 
d="M1020 98c-30 -24 -140 -106 -234 -106c-82 0 -96 56 -96 162c0 48 6 100 12 142c-72 -8 -96 -10 -120 -10c-74 0 -148 22 -190 22c-8 0 -14 0 -20 -2c-112 -128 -212 -236 -270 -284c-24 -18 -48 -24 -86 -28c-16 -2 -34 -7 -54 -7c-6 0 -12 1 -12 7c0 8 8 8 16 10
c18 6 46 24 64 40c168 146 368 334 716 740c72 84 76 78 130 100c12 4 34 18 44 18c5 0 8 -5 8 -10c0 -18 -18 -51 -22 -62c-37 -96 -90 -318 -114 -498c72 21 134 76 144 76c4 0 6 -2 6 -6c0 -9 -79 -63 -152 -88c-6 -52 -10 -98 -10 -136c0 -116 23 -149 61 -149
c42 0 115 37 171 79c60 46 96 90 136 140c4 6 6 6 8 6s4 -2 4 -4s0 -2 -2 -6c-50 -68 -104 -120 -138 -146zM404 342h34c78 0 158 -24 228 -24c10 0 24 0 40 2c26 206 100 478 100 482s-1 6 -3 6c-4 0 -20 -16 -33 -32z" />
    <glyph glyph-name="B" unicode="B" horiz-adv-x="850" 
d="M396 476c-84 -161 -157 -313 -219 -449c-9 -21 -20 -24 -56 -34c-56 -16 -62 -31 -75 -31c-5 0 -7 3 -7 5c0 6 13 14 36 50c96 147 173 316 251 460c22 39 71 145 90 177c92 156 242 232 346 232c78 0 142 -56 142 -146c0 -140 -166 -220 -268 -259l1 -2s23 1 32 1
c91 0 171 -81 171 -164c0 -176 -192 -331 -417 -331c-122 0 -199 39 -199 67c0 5 6 13 15 25c8 11 19 34 24 34c1 0 3 -1 3 -4c0 -41 75 -98 155 -98c171 0 331 167 331 331c0 87 -70 121 -120 121c-60 0 -55 -26 -92 -26c-7 0 -28 16 -28 23c0 14 33 12 53 18
c105 31 252 123 252 243c0 77 -52 125 -119 125c-61 0 -102 -17 -162 -112c-31 -49 -87 -155 -140 -256z" />
    <glyph glyph-name="C" unicode="C" horiz-adv-x="860" 
d="M944 744c-4 -6 -6 -8 -10 -8s-6 4 -6 8c0 44 -74 98 -144 98c-110 0 -212 -34 -300 -114c-122 -111 -221 -263 -221 -453c0 -70 20 -130 52 -175c44 -62 114 -91 185 -91c122 0 222 79 273 159c10 15 13 25 13 31c0 9 -3 9 -3 14c0 3 3 4 5 4c4 0 5 -5 23 -18
c17 -13 28 -14 28 -23c0 -10 -9 -24 -17 -35c-74 -104 -220 -161 -362 -161c-89 0 -182 26 -234 90c-40 50 -62 116 -62 185c0 191 124 366 296 492c118 87 257 139 388 139c104 0 144 -66 144 -78c0 -18 -32 -36 -48 -64z" />
    <glyph glyph-name="D" unicode="D" horiz-adv-x="1140" 
d="M430 122c62 -43 128 -87 215 -87c249 0 449 258 449 480c0 204 -108 314 -276 340c-16 -85 -78 -238 -148 -382c-47 -97 -138 -244 -240 -351zM370 129c-30 31 -61 54 -108 54c-48 0 -119 -55 -119 -124c0 -34 20 -51 58 -53h3c51 0 109 52 166 123zM717 886
c261 0 439 -149 439 -418c0 -265 -218 -488 -504 -488c-138 0 -200 59 -250 114c-67 -63 -139 -106 -212 -106c-54 0 -104 42 -104 92c0 87 92 126 156 127c54 0 100 -25 146 -56c78 103 145 230 190 319c53 105 132 280 157 391h-2c-188 0 -311 -124 -311 -196
c0 -17 5 -22 5 -25c0 -2 -2 -4 -5 -4c-5 0 -15 9 -28 16c-16 9 -30 18 -30 32c0 93 164 202 353 202z" />
    <glyph glyph-name="E" unicode="E" horiz-adv-x="834" 
d="M430 -24c-122 0 -272 80 -272 214c0 290 398 346 398 364c0 2 0 8 -12 16c-44 30 -61 79 -61 117c0 80 99 199 299 199c44 0 212 -18 212 -80c0 -20 -14 -26 -28 -60c-4 -8 -6 -16 -12 -16s-6 6 -8 12c-12 42 -74 120 -186 120c-157 0 -204 -86 -204 -126
c0 -48 26 -110 72 -136c30 -14 40 -18 40 -24c0 -18 -4 -36 -42 -40c-304 -36 -368 -200 -368 -332c0 -140 132 -189 220 -189c196 0 293 125 293 235c0 12 -4 20 -4 26c0 2 0 6 4 6c7 0 49 -25 49 -41c0 -74 -140 -265 -390 -265z" />
    <glyph glyph-name="F" unicode="F" horiz-adv-x="670" 
d="M480 886c172 0 234 -23 412 -23c94 0 123 26 129 58c1 6 5 18 10 18c6 0 8 -6 8 -9c0 -42 -104 -115 -220 -115c-74 0 -147 11 -212 19c-43 -74 -145 -266 -195 -358h138c144 0 215 12 226 12c3 0 5 -1 5 -4s-3 -2 -9 -14c-9 -18 -10 -28 -20 -28c-127 0 -318 7 -355 7
c-78 -146 -144 -270 -201 -388c-28 -58 -36 -56 -77 -61c-44 -5 -53 -17 -66 -17c-5 0 -7 3 -7 5c0 6 11 10 34 46c54 83 90 145 128 214c42 76 78 143 110 202c-21 -1 -15 -1 -25 -1c-4 0 -13 3 -13 13c0 11 17 15 53 15c66 124 146 284 184 366c0 0 -59 2 -73 2
c-95 0 -148 -22 -190 -63c-12 -12 -18 -20 -22 -20s-6 2 -6 6s8 14 22 28c54 55 131 90 232 90z" />
    <glyph glyph-name="G" unicode="G" horiz-adv-x="970" 
d="M729 339c-46 4 -62 2 -62 8c0 14 26 15 47 15c103 0 103 -7 229 -7c12 0 14 -3 14 -7c0 -6 -16 -4 -31 -18c-12 -11 -29 -35 -52 -72c-32 -53 -51 -103 -74 -150c-23 -48 -50 -122 -50 -193c0 -98 36 -189 155 -189c35 0 80 13 119 51c38 38 37 75 52 75
c8 0 14 -6 14 -11c0 -6 -2 -12 -6 -18c-42 -61 -114 -118 -205 -118c-152 0 -206 101 -206 213c0 47 13 99 33 148c-68 -50 -158 -90 -275 -90c-168 0 -267 131 -267 279c0 191 124 366 296 492c118 87 236 139 368 139c127 0 216 -105 216 -169c0 -14 -4 -26 -13 -35
c-2 -9 -19 -20 -33 -37s-28 -39 -33 -39c-4 1 -6 2 -6 4v2c2 7 8 17 11 28c2 3 4 9 4 18c0 51 -45 184 -210 184c-80 0 -192 -34 -280 -114c-122 -111 -221 -263 -221 -453c0 -159 101 -267 225 -267c113 0 197 76 262 185c17 28 41 69 41 101c0 25 -10 40 -62 45z" />
    <glyph glyph-name="H" unicode="H" horiz-adv-x="1025" 
d="M386 409c-1 -2 -3 -5 -4 -7c-79 -153 -155 -298 -202 -392c-8 -16 -49 -14 -79 -20c-28 -6 -29 -20 -39 -20c-4 0 -4 4 -4 6c0 8 15 32 71 130c0 0 91 158 163 285c-5 34 -14 48 -14 59c0 6 5 10 6 10c9 0 22 0 46 -1c23 43 44 82 57 110c33 69 74 162 74 224
c0 28 -11 53 -50 53c-15 0 -77 -4 -137 -64c-12 -12 -18 -20 -22 -20s-6 2 -6 6s8 14 22 28c66 68 148 90 186 90c48 0 95 -33 95 -95c0 -44 -31 -132 -91 -247c-11 -21 -28 -52 -47 -87c43 -1 98 -1 172 -1c152 1 193 3 239 7c77 146 139 253 209 379c10 18 33 16 65 22
c41 8 64 22 71 22c4 0 6 -2 6 -6c0 -6 -17 -8 -62 -76c-89 -135 -139 -211 -211 -355c-66 -131 -139 -277 -139 -346c0 -50 30 -79 76 -79c50 0 147 28 220 84c60 46 96 90 136 140c4 6 6 6 8 6s4 -2 4 -4s0 -2 -2 -6c-50 -68 -104 -120 -138 -146
c-150 -112 -240 -122 -300 -122c-71 0 -105 47 -105 108c0 80 70 202 137 332c-21 10 -55 13 -143 13c-144 0 -249 -9 -268 -20z" />
    <glyph glyph-name="I" unicode="I" horiz-adv-x="400" 
d="M229 142c-27 -53 -47 -100 -63 -138c-10 -24 -48 -3 -96 -22c-20 -8 -20 -14 -28 -14c-4 0 -10 2 -10 6c0 6 26 33 36 46c48 64 81 131 106 177c120 219 172 319 277 521c13 25 42 82 42 102c0 13 -12 21 -19 23c-10 3 -20 2 -20 8c0 8 9 13 16 13c76 0 143 9 172 9
c5 0 10 -7 10 -11c0 -9 -11 1 -40 -23c-27 -22 -65 -92 -85 -129c-123 -227 -184 -345 -298 -568z" />
    <glyph glyph-name="J" unicode="J" horiz-adv-x="576" 
d="M506 886c45 0 99 -31 172 -31c137 0 142 37 177 37c6 0 8 -2 8 -6c0 -6 -18 -12 -28 -24c-156 -188 -232 -381 -331 -596c-86 -186 -188 -339 -266 -432c-120 -142 -251 -237 -377 -237c-115 0 -165 79 -165 121c0 35 5 44 22 70c9 14 13 28 21 28c4 0 6 -3 6 -5
c0 -7 -7 -14 -7 -23c0 -38 41 -130 160 -130c121 0 175 43 264 150c68 82 197 345 237 425c75 150 152 335 242 471l77 116c-26 -4 -48 -5 -64 -5c-108 0 -109 32 -204 32c-15 0 -64 -5 -124 -65c-12 -12 -18 -20 -22 -20s-6 2 -6 6s8 14 22 28c67 67 148 90 186 90z" />
    <glyph glyph-name="K" unicode="K" horiz-adv-x="770" 
d="M542 780c0 -62 -47 -148 -81 -214c146 66 432 204 510 262c22 16 78 48 92 48c2 0 4 -2 4 -4c0 -12 -122 -120 -264 -178l-358 -160l-82 -150c66 -112 110 -194 202 -334c74 -112 150 -234 278 -234c72 0 126 26 186 72c2 2 6 4 8 4c0 0 2 0 2 -2
c0 -38 -118 -96 -218 -96c-156 0 -224 54 -322 202c-60 92 -122 194 -182 304c-56 -109 -121 -231 -168 -302c-8 -13 -19 -26 -129 -26c-12 0 -14 0 -14 6s24 6 50 38c73 90 151 212 223 352c-18 30 -58 82 -76 82c-6 0 -14 -4 -20 -4c-4 0 -8 4 -8 8c0 6 140 56 194 74
c34 62 82 158 82 230c0 56 -22 94 -69 94c-15 0 -68 -10 -128 -70c-12 -12 -18 -20 -22 -20s-6 2 -6 6s8 14 22 28c66 68 148 90 186 90c78 0 108 -55 108 -106zM325 448l26 46c-18 -6 -40 -14 -46 -16c6 -12 12 -20 20 -30z" />
    <glyph glyph-name="L" unicode="L" horiz-adv-x="680" 
d="M276 124c-24 35 -45 56 -76 56c-63 0 -130 -99 -130 -157c0 -27 17 -49 41 -49c69 0 132 101 165 150zM676 781c0 -98 -61 -231 -131 -356c-75 -133 -144 -242 -198 -309c29 -40 63 -91 112 -147c120 -136 312 -223 477 -223c94 0 162 35 191 70c21 26 27 42 37 42
c2 0 5 -2 5 -6c0 -7 -10 -27 -30 -48c-57 -61 -174 -106 -271 -106c-127 0 -300 46 -445 213c-52 59 -87 114 -115 161c-69 -69 -144 -122 -231 -122c-34 0 -60 22 -60 59c0 79 141 198 211 198c37 0 51 -11 77 -38c59 93 125 200 168 283c80 156 116 266 116 306
c0 56 -22 94 -69 94c-15 0 -68 -10 -128 -70c-12 -12 -18 -20 -22 -20s-6 2 -6 6s8 14 22 28c66 68 148 90 186 90c78 0 104 -54 104 -105z" />
    <glyph glyph-name="M" unicode="M" horiz-adv-x="1200" 
d="M542 780c0 -30 -6 -57 -16 -85c66 68 164 169 250 169c60 0 125 -28 125 -144c142 130 216 180 315 180c56 0 121 -30 121 -116c0 -160 -333 -368 -333 -750c0 -210 114 -288 222 -288c102 0 170 68 204 110c22 28 20 32 26 32c2 0 4 -2 4 -4c0 -38 -114 -186 -268 -186
c-150 0 -270 100 -270 290c0 358 317 564 317 750c0 86 -53 114 -89 114c-69 0 -153 -60 -261 -182c-10 -24 -20 -48 -34 -68s-76 -52 -94 -52c-4 0 -8 0 -8 4c0 20 46 64 60 78c6 16 8 34 8 56c0 114 -68 125 -100 125c-50 0 -162 -103 -241 -230
c-112 -179 -203 -393 -271 -519c-31 -57 -46 -56 -87 -61c-44 -5 -66 -21 -79 -21c-5 0 -7 3 -7 5c0 6 22 11 48 45c45 59 84 126 132 216c144 266 235 415 235 507c0 56 -22 97 -69 97c-15 0 -68 -10 -128 -70c-12 -12 -18 -20 -22 -20s-6 2 -6 6s8 14 22 28
c66 68 148 90 186 90c78 0 108 -55 108 -106z" />
    <glyph glyph-name="N" unicode="N" horiz-adv-x="850" 
d="M386 848c-7 1 -18 1 -18 5c0 18 65 25 97 25c61 0 72 -42 79 -129c7 -85 11 -198 22 -318c13 -138 23 -216 44 -341h2c55 108 116 251 181 384c46 94 132 249 201 362c32 52 45 51 96 64c46 12 110 16 120 16c7 0 8 -2 8 -3c0 -5 -50 -5 -63 -11
c-29 -13 -71 -47 -104 -80c-70 -70 -139 -176 -230 -355c-80 -158 -168 -348 -214 -473c-5 -13 -7 -15 -23 -21c-18 -7 -26 -14 -34 -14c-13 0 -19 20 -20 26c-32 198 -41 321 -53 431c-10 95 -24 238 -35 369h-3c-42 -101 -82 -203 -134 -311c-50 -104 -133 -306 -233 -486
c-17 -31 -32 -20 -94 -39c-13 -4 -22 -10 -31 -10c-4 0 -7 4 -7 7c0 4 38 27 70 67c91 113 193 307 274 475c43 88 124 252 124 331c0 19 -9 28 -22 29z" />
    <glyph glyph-name="O" unicode="O" horiz-adv-x="960" 
d="M1029 620c0 -161 -101 -311 -182 -403c-136 -153 -311 -239 -474 -239c-184 0 -271 111 -271 256c0 176 129 358 203 439c104 122 285 213 423 213c89 0 145 -59 145 -114c0 -11 -17 -18 -34 -38c-17 -19 -26 -46 -32 -46c-4 0 -5 3 -5 7c0 19 -3 36 -7 51
c-22 79 -82 100 -128 100c-104 0 -237 -89 -319 -204c-72 -99 -145 -225 -145 -380c0 -138 74 -243 226 -243c142 0 287 85 385 240c49 77 121 223 121 374c0 106 -17 211 -109 246c-6 2 -8 4 -8 6c0 1 1 2 4 2c28 0 98 -33 132 -69c48 -51 75 -110 75 -198z" />
    </font>
</defs>
</svg>
