<svg width="112" height="36" viewBox="0 0 112 36" fill="none" xmlns="http://www.w3.org/2000/svg">
<path d="M107.852 36H4.14815C1.8677 36 0 33.9739 0 31.5V4.5C0 2.02613 1.8677 1.90258e-06 4.14815 1.90258e-06H107.852C110.132 1.90258e-06 112 2.02613 112 4.5V31.5C112 33.9739 110.132 36 107.852 36Z" fill="black"/>
<path d="M107.852 0.721125C109.772 0.721125 111.335 2.4165 111.335 4.5V31.5C111.335 33.5835 109.772 35.2789 107.852 35.2789H4.14815C2.22756 35.2789 0.664741 33.5835 0.664741 31.5V4.5C0.664741 2.4165 2.22756 0.721125 4.14815 0.721125H107.852ZM107.852 1.90258e-06H4.14815C1.8677 1.90258e-06 0 2.02613 0 4.5V31.5C0 33.9739 1.8677 36 4.14815 36H107.852C110.132 36 112 33.9739 112 31.5V4.5C112 2.02613 110.132 1.90258e-06 107.852 1.90258e-06Z" fill="#A6A6A6"/>
<path d="M39.339 9.21934C39.339 9.97084 39.1315 10.5727 38.723 11.0216C38.2532 11.5537 37.6413 11.8215 36.8915 11.8215C36.175 11.8215 35.5631 11.5492 35.0612 11.0126C34.5582 10.4681 34.3073 9.79984 34.3073 8.99997C34.3073 8.20009 34.5582 7.53184 35.0612 6.99184C35.5631 6.45072 36.175 6.17847 36.8915 6.17847C37.2483 6.17847 37.5884 6.25834 37.913 6.40684C38.2366 6.55647 38.5 6.75897 38.6908 7.00872L38.2573 7.48347C37.9244 7.05709 37.4713 6.84672 36.8915 6.84672C36.3689 6.84672 35.9157 7.04472 35.531 7.44409C35.1504 7.84459 34.9595 8.36322 34.9595 8.99997C34.9595 9.63672 35.1504 10.1598 35.531 10.5603C35.9157 10.9552 36.3689 11.1577 36.8915 11.1577C37.4464 11.1577 37.913 10.9552 38.2812 10.5558C38.5238 10.2915 38.6618 9.92697 38.6981 9.46122H36.8915V8.81097H39.3016C39.3307 8.95159 39.339 9.08772 39.339 9.21934Z" fill="white" stroke="white" stroke-width="0.16" stroke-miterlimit="10"/>
<path d="M43.1625 6.96487H40.8987V8.67487H42.9396V9.32512H40.8987V11.0351H43.1625V11.6977H40.2578V6.30225H43.1625V6.96487Z" fill="white" stroke="white" stroke-width="0.16" stroke-miterlimit="10"/>
<path d="M45.8609 11.6977H45.22V6.96487H43.8314V6.30225H47.2505V6.96487H45.8609V11.6977Z" fill="white" stroke="white" stroke-width="0.16" stroke-miterlimit="10"/>
<path d="M49.7249 11.6977V6.30225H50.3647V11.6977H49.7249Z" fill="white" stroke="white" stroke-width="0.16" stroke-miterlimit="10"/>
<path d="M53.201 11.6977H52.5653V6.96487H51.1716V6.30225H54.5948V6.96487H53.201V11.6977Z" fill="white" stroke="white" stroke-width="0.16" stroke-miterlimit="10"/>
<path d="M61.068 11.0036C60.5775 11.5492 59.9698 11.8215 59.2449 11.8215C58.5159 11.8215 57.9082 11.5492 57.4176 11.0036C56.9282 10.4591 56.6844 9.79084 56.6844 8.99997C56.6844 8.20909 56.9282 7.54084 57.4176 6.99634C57.9082 6.45072 58.5159 6.17847 59.2449 6.17847C59.9656 6.17847 60.5733 6.45072 61.0639 7.00084C61.5575 7.54984 61.8012 8.21359 61.8012 8.99997C61.8012 9.79084 61.5575 10.4591 61.068 11.0036ZM57.8916 10.5513C58.2607 10.9552 58.7098 11.1577 59.2449 11.1577C59.7759 11.1577 60.229 10.9552 60.5941 10.5513C60.9622 10.1475 61.1489 9.62884 61.1489 8.99997C61.1489 8.37109 60.9622 7.85247 60.5941 7.44859C60.229 7.04472 59.7759 6.84222 59.2449 6.84222C58.7098 6.84222 58.2607 7.04472 57.8916 7.44859C57.5234 7.85247 57.3367 8.37109 57.3367 8.99997C57.3367 9.62884 57.5234 10.1475 57.8916 10.5513Z" fill="white" stroke="white" stroke-width="0.16" stroke-miterlimit="10"/>
<path d="M62.7003 11.6977V6.30225H63.4781L65.8964 10.4985H65.9244L65.8964 9.46124V6.30225H66.5363V11.6977H65.8684L63.336 7.2945H63.308L63.336 8.33625V11.6977H62.7003Z" fill="white" stroke="white" stroke-width="0.16" stroke-miterlimit="10"/>
<path d="M56.5268 19.5772C54.5782 19.5772 52.9864 21.1859 52.9864 23.4056C52.9864 25.6072 54.5782 27.2328 56.5268 27.2328C58.4796 27.2328 60.0714 25.6072 60.0714 23.4056C60.0714 21.1859 58.4796 19.5772 56.5268 19.5772ZM56.5268 25.7253C55.4576 25.7253 54.5378 24.7679 54.5378 23.4056C54.5378 22.0252 55.4576 21.0847 56.5268 21.0847C57.596 21.0847 58.52 22.0252 58.52 23.4056C58.52 24.7679 57.596 25.7253 56.5268 25.7253ZM48.8019 19.5772C46.8492 19.5772 45.2615 21.1859 45.2615 23.4056C45.2615 25.6072 46.8492 27.2328 48.8019 27.2328C50.7536 27.2328 52.3424 25.6072 52.3424 23.4056C52.3424 21.1859 50.7536 19.5772 48.8019 19.5772ZM48.8019 25.7253C47.7317 25.7253 46.8087 24.7679 46.8087 23.4056C46.8087 22.0252 47.7317 21.0847 48.8019 21.0847C49.8711 21.0847 50.791 22.0252 50.791 23.4056C50.791 24.7679 49.8711 25.7253 48.8019 25.7253ZM39.6096 20.7506V22.3773H43.1905C43.0858 23.2863 42.8058 23.9546 42.3764 24.4203C41.8538 24.9828 41.0397 25.6072 39.6096 25.6072C37.4059 25.6072 35.6803 23.6778 35.6803 21.2872C35.6803 18.8966 37.4059 16.9672 39.6096 16.9672C40.8012 16.9672 41.6681 17.4723 42.308 18.1271L43.3647 16.9807C42.4698 16.0537 41.2793 15.3416 39.6096 15.3416C36.5877 15.3416 34.048 18.0089 34.048 21.2872C34.048 24.5654 36.5877 27.2328 39.6096 27.2328C41.243 27.2328 42.4698 26.6523 43.4342 25.5633C44.4225 24.4912 44.7305 22.9837 44.7305 21.7664C44.7305 21.3884 44.7015 21.0408 44.6496 20.7506H39.6096ZM77.1981 22.0117C76.9067 21.1556 76.0075 19.5772 74.1761 19.5772C72.3613 19.5772 70.8504 21.1286 70.8504 23.4056C70.8504 25.5498 72.3458 27.2328 74.3504 27.2328C75.9712 27.2328 76.9067 26.1607 77.2914 25.5363L76.0884 24.6667C75.6871 25.3034 75.1406 25.7253 74.3504 25.7253C73.5653 25.7253 73.0022 25.3349 72.6413 24.5654L77.3609 22.4471L77.1981 22.0117ZM72.3862 23.2863C72.3458 21.8103 73.443 21.0543 74.229 21.0543C74.845 21.0543 75.3677 21.3884 75.5419 21.8666L72.3862 23.2863ZM68.5502 26.9999H70.1016V15.7499H68.5502V26.9999ZM66.0095 20.4299H65.9576C65.6092 19.9822 64.9444 19.5772 64.1024 19.5772C62.3353 19.5772 60.7196 21.2602 60.7196 23.4179C60.7196 25.5633 62.3353 27.2328 64.1024 27.2328C64.9444 27.2328 65.6092 26.8244 65.9576 26.3632H66.0095V26.9122C66.0095 28.3758 65.2887 29.1622 64.1262 29.1622C63.1784 29.1622 62.5904 28.4197 62.3477 27.7953L60.9985 28.4062C61.3874 29.4209 62.4172 30.6697 64.1262 30.6697C65.9452 30.6697 67.48 29.5087 67.48 26.6838V19.8101H66.0095V20.4299ZM64.2351 25.7253C63.1659 25.7253 62.271 24.7544 62.271 23.4179C62.271 22.0691 63.1659 21.0847 64.2351 21.0847C65.2887 21.0847 66.1194 22.0691 66.1194 23.4179C66.1194 24.7544 65.2887 25.7253 64.2351 25.7253ZM84.4615 15.7499H80.7509V26.9999H82.2982V22.7373H84.4615C86.1798 22.7373 87.865 21.3884 87.865 19.2431C87.865 17.0988 86.1757 15.7499 84.4615 15.7499ZM84.5019 21.1724H82.2982V17.3148H84.5019C85.6572 17.3148 86.3167 18.3554 86.3167 19.2431C86.3167 20.1138 85.6572 21.1724 84.5019 21.1724ZM94.0665 19.5558C92.9486 19.5558 91.7861 20.0913 91.308 21.2782L92.681 21.9026C92.9766 21.2782 93.52 21.0757 94.0945 21.0757C94.8972 21.0757 95.7112 21.5988 95.7237 22.5224V22.6406C95.4437 22.4651 94.8443 22.2052 94.1069 22.2052C92.6281 22.2052 91.1213 23.0883 91.1213 24.7364C91.1213 26.2439 92.3326 27.2148 93.6942 27.2148C94.7354 27.2148 95.3099 26.7052 95.6708 26.1123H95.7237V26.9819H97.2181V22.6664C97.2181 20.6718 95.845 19.5558 94.0665 19.5558ZM93.8798 25.7208C93.3738 25.7208 92.6686 25.4486 92.6686 24.7679C92.6686 23.8972 93.548 23.5631 94.3092 23.5631C94.9905 23.5631 95.3099 23.7262 95.7237 23.9411C95.6024 24.9828 94.7758 25.7208 93.8798 25.7208ZM102.663 19.8022L100.884 24.6791H100.831L98.9924 19.8022H97.3238L100.087 26.6174L98.5102 30.4098H100.127L104.384 19.8022H102.663ZM88.7154 26.9999H90.2668V15.7499H88.7154V26.9999Z" fill="white"/>
<path d="M8.6572 6.78502C8.4135 7.06177 8.27246 7.49264 8.27246 8.05064V27.9541C8.27246 28.5121 8.4135 28.943 8.6572 29.2198L8.71735 29.2805L18.9985 18.1318V17.8685L8.71735 6.71977L8.6572 6.78502Z" fill="url(#paint0_linear_1220_253)"/>
<path d="M22.4218 21.8499L18.9985 18.1317V17.8685L22.4259 14.1504L22.5027 14.1987L26.5616 16.7041C27.72 17.4151 27.72 18.5851 26.5616 19.3006L22.5027 21.8015L22.4218 21.8499Z" fill="url(#paint1_linear_1220_253)"/>
<path d="M22.5026 21.8015L18.9985 18.0001L8.65717 29.2197C9.04191 29.6585 9.66931 29.7113 10.3828 29.2726L22.5026 21.8015Z" fill="url(#paint2_linear_1220_253)"/>
<path d="M22.5026 14.1986L10.3828 6.7275C9.66931 6.29325 9.04191 6.34613 8.65717 6.78488L18.9985 18L22.5026 14.1986Z" fill="url(#paint3_linear_1220_253)"/>
<defs>
<linearGradient id="paint0_linear_1220_253" x1="18.0857" y1="28.1614" x2="3.03145" y2="14.2843" gradientUnits="userSpaceOnUse">
<stop stop-color="#00A0FF"/>
<stop offset="0.0066" stop-color="#00A1FF"/>
<stop offset="0.2601" stop-color="#00BEFF"/>
<stop offset="0.5122" stop-color="#00D2FF"/>
<stop offset="0.7604" stop-color="#00DFFF"/>
<stop offset="1" stop-color="#00E3FF"/>
</linearGradient>
<linearGradient id="paint1_linear_1220_253" x1="28.07" y1="17.9988" x2="7.99554" y2="17.9988" gradientUnits="userSpaceOnUse">
<stop stop-color="#FFE000"/>
<stop offset="0.4087" stop-color="#FFBD00"/>
<stop offset="0.7754" stop-color="#FFA500"/>
<stop offset="1" stop-color="#FF9C00"/>
</linearGradient>
<linearGradient id="paint2_linear_1220_253" x1="20.5972" y1="15.9336" x2="0.182421" y2="-2.88494" gradientUnits="userSpaceOnUse">
<stop stop-color="#FF3A44"/>
<stop offset="1" stop-color="#C31162"/>
</linearGradient>
<linearGradient id="paint3_linear_1220_253" x1="6.05404" y1="35.8414" x2="15.1701" y2="27.4382" gradientUnits="userSpaceOnUse">
<stop stop-color="#32A071"/>
<stop offset="0.0685" stop-color="#2DA771"/>
<stop offset="0.4762" stop-color="#15CF74"/>
<stop offset="0.8009" stop-color="#06E775"/>
<stop offset="1" stop-color="#00F076"/>
</linearGradient>
</defs>
</svg>
