<svg width="112" height="36" viewBox="0 0 112 36" fill="none" xmlns="http://www.w3.org/2000/svg">
<path d="M111.378 31.8482C111.378 33.7667 109.952 35.3207 108.188 35.3207H3.8157C2.05299 35.3207 0.622192 33.7667 0.622192 31.8482V4.15622C0.622192 2.23865 2.05299 0.679199 3.8157 0.679199H108.188C109.952 0.679199 111.377 2.23865 111.377 4.15622L111.378 31.8482Z" fill="black"/>
<path d="M107.852 0.721126C109.772 0.721126 111.335 2.4165 111.335 4.5V31.5C111.335 33.5835 109.772 35.2789 107.852 35.2789H4.14815C2.22756 35.2789 0.664741 33.5835 0.664741 31.5V4.5C0.664741 2.4165 2.22756 0.721126 4.14815 0.721126H107.852ZM107.852 1.90258e-06H4.14815C1.8677 1.90258e-06 0 2.02613 0 4.5V31.5C0 33.9739 1.8677 36 4.14815 36H107.852C110.132 36 112 33.9739 112 31.5V4.5C112 2.02613 110.132 1.90258e-06 107.852 1.90258e-06Z" fill="#A6A6A6"/>
<path d="M24.9951 17.8055C24.971 14.9048 27.1845 13.4936 27.2857 13.4279C26.0321 11.4452 24.0891 11.1743 23.4063 11.1527C21.7745 10.9664 20.1915 12.212 19.3602 12.212C18.5124 12.212 17.2322 11.1707 15.8526 11.2013C14.0772 11.231 12.4162 12.3461 11.5053 14.0777C9.62537 17.6084 11.0274 22.7969 12.8286 25.6508C13.7295 27.0485 14.7823 28.6091 16.1604 28.5542C17.5085 28.4939 18.0121 27.6218 19.639 27.6218C21.251 27.6218 21.7239 28.5542 23.1293 28.5191C24.5761 28.4939 25.4871 27.1151 26.3565 25.7048C27.3977 24.1028 27.8158 22.5251 27.8324 22.4441C27.7984 22.4315 25.0225 21.2822 24.9951 17.8055Z" fill="white"/>
<path d="M22.3403 9.27531C23.0654 8.29161 23.5615 6.95331 23.4238 5.59521C22.3743 5.64561 21.0618 6.38271 20.306 7.34481C19.6373 8.19261 19.04 9.58221 19.1943 10.889C20.3732 10.9844 21.5837 10.2437 22.3403 9.27531Z" fill="white"/>
<path d="M44.5055 28.3537H42.6214L41.5893 24.8356H38.002L37.0189 28.3537H35.1846L38.7387 16.3765H40.9339L44.5055 28.3537ZM41.2782 23.3596L40.3449 20.2321C40.2461 19.9126 40.0611 19.1602 39.7882 17.9758H39.755C39.6463 18.4852 39.4713 19.2376 39.2307 20.2321L38.3139 23.3596H41.2782V23.3596Z" fill="white"/>
<path d="M53.6455 23.9293C53.6455 25.3981 53.2796 26.5591 52.5479 27.4114C51.8925 28.1701 51.0786 28.549 50.1071 28.549C49.0585 28.549 48.3052 28.1404 47.8464 27.3232H47.8132V31.8727H46.0444V22.5604C46.0444 21.637 46.022 20.6893 45.9789 19.7173H47.5344L47.6332 21.0862H47.6663C48.2562 20.0548 49.1514 19.54 50.3527 19.54C51.2918 19.54 52.0758 19.9423 52.703 20.7478C53.3319 21.5542 53.6455 22.6144 53.6455 23.9293ZM51.8435 23.9995C51.8435 23.1589 51.6693 22.4659 51.3192 21.9205C50.9367 21.3517 50.4232 21.0673 49.7794 21.0673C49.343 21.0673 48.9465 21.2257 48.5922 21.538C48.2371 21.853 48.0048 22.2643 47.8962 22.7737C47.8414 23.0113 47.814 23.2057 47.814 23.3587V24.7987C47.814 25.4269 47.9916 25.957 48.3466 26.3899C48.7017 26.8228 49.163 27.0388 49.7305 27.0388C50.3967 27.0388 50.9152 26.7598 51.286 26.2036C51.6577 25.6465 51.8435 24.9121 51.8435 23.9995Z" fill="white"/>
<path d="M62.8021 23.9293C62.8021 25.3981 62.4362 26.5591 61.7036 27.4114C61.0491 28.1701 60.2352 28.549 59.2637 28.549C58.215 28.549 57.4617 28.1404 57.0038 27.3232H56.9706V31.8727H55.2018V22.5604C55.2018 21.637 55.1794 20.6893 55.1363 19.7173H56.6918L56.7906 21.0862H56.8238C57.4128 20.0548 58.308 19.54 59.5101 19.54C60.4484 19.54 61.2324 19.9423 61.8613 20.7478C62.4876 21.5542 62.8021 22.6144 62.8021 23.9293ZM61.0001 23.9995C61.0001 23.1589 60.8251 22.4659 60.475 21.9205C60.0925 21.3517 59.5806 21.0673 58.936 21.0673C58.4988 21.0673 58.103 21.2257 57.748 21.538C57.3929 21.853 57.1614 22.2643 57.0527 22.7737C56.9988 23.0113 56.9706 23.2057 56.9706 23.3587V24.7987C56.9706 25.4269 57.1481 25.957 57.5016 26.3899C57.8566 26.8219 58.3179 27.0388 58.8871 27.0388C59.5532 27.0388 60.0718 26.7598 60.4426 26.2036C60.8143 25.6465 61.0001 24.9121 61.0001 23.9995Z" fill="white"/>
<path d="M73.0397 24.9948C73.0397 26.0136 72.7137 26.8425 72.0591 27.4824C71.3398 28.1817 70.3385 28.5309 69.0517 28.5309C67.8637 28.5309 66.9113 28.2825 66.1903 27.7848L66.6001 26.1855C67.3767 26.6949 68.2287 26.9505 69.1571 26.9505C69.8233 26.9505 70.3418 26.7867 70.7143 26.4609C71.0851 26.1351 71.2701 25.6977 71.2701 25.1523C71.2701 24.6663 71.1175 24.2568 70.8113 23.9247C70.5069 23.5926 69.9983 23.2839 69.2881 22.9986C67.3551 22.2165 66.3894 21.0708 66.3894 19.5642C66.3894 18.5796 66.7279 17.7723 67.4057 17.1441C68.081 16.515 68.982 16.2009 70.1086 16.2009C71.1133 16.2009 71.9479 16.3908 72.6141 16.7697L72.1719 18.3339C71.5497 17.9667 70.8462 17.7831 70.0589 17.7831C69.4366 17.7831 68.9505 17.9496 68.602 18.2808C68.3075 18.5769 68.1598 18.9378 68.1598 19.3653C68.1598 19.8387 68.3283 20.2302 68.6668 20.538C68.9613 20.8224 69.4964 21.1302 70.2729 21.4623C71.2228 21.8772 71.9206 22.3623 72.3694 22.9185C72.8166 23.4729 73.0397 24.1668 73.0397 24.9948Z" fill="white"/>
<path d="M78.8878 21.1571H76.9382V25.3502C76.9382 26.4167 77.2816 26.9495 77.9702 26.9495C78.2863 26.9495 78.5485 26.9198 78.7559 26.8604L78.8048 28.3175C78.4564 28.4588 77.9976 28.5299 77.4293 28.5299C76.7307 28.5299 76.1849 28.2986 75.7908 27.8369C75.3984 27.3743 75.2009 26.5985 75.2009 25.5086V21.1553H74.0394V19.7153H75.2009V18.134L76.9382 17.5652V19.7153H78.8878V21.1571Z" fill="white"/>
<path d="M87.6843 23.9643C87.6843 25.2918 87.3342 26.3817 86.6357 27.234C85.9031 28.1115 84.9308 28.5489 83.7187 28.5489C82.5506 28.5489 81.6206 28.1286 80.927 27.288C80.2334 26.4474 79.8867 25.3863 79.8867 24.1074C79.8867 22.7691 80.2434 21.6729 80.9594 20.8206C81.6737 19.9674 82.6377 19.5408 83.8498 19.5408C85.0179 19.5408 85.9579 19.9611 86.6672 20.8026C87.3459 21.6189 87.6843 22.6728 87.6843 23.9643ZM85.8492 24.0264C85.8492 23.2299 85.6924 22.5468 85.3747 21.9771C85.0038 21.2877 84.4737 20.9439 83.7867 20.9439C83.0757 20.9439 82.5357 21.2886 82.1648 21.9771C81.8471 22.5477 81.6903 23.2416 81.6903 24.0624C81.6903 24.8589 81.8471 25.542 82.1648 26.1108C82.5473 26.8002 83.0816 27.144 83.771 27.144C84.4463 27.144 84.9764 26.793 85.3589 26.0928C85.6849 25.5123 85.8492 24.822 85.8492 24.0264Z" fill="white"/>
<path d="M93.4337 21.4048C93.2587 21.3697 93.072 21.3517 92.8762 21.3517C92.254 21.3517 91.7728 21.6064 91.4343 22.1167C91.1398 22.5667 90.9921 23.1355 90.9921 23.8222V28.3537H89.2242L89.2407 22.4371C89.2407 21.4417 89.2183 20.5354 89.1744 19.7182H90.715L90.7797 21.3706H90.8287C91.0153 20.8027 91.3099 20.3455 91.7131 20.0026C92.1071 19.6939 92.5327 19.54 92.9915 19.54C93.155 19.54 93.3026 19.5526 93.4337 19.5751V21.4048Z" fill="white"/>
<path d="M101.344 23.6268C101.344 23.9706 101.324 24.2604 101.28 24.4971H95.9732C95.994 25.3503 96.2503 26.0028 96.7431 26.4528C97.1903 26.8551 97.7685 27.0567 98.4787 27.0567C99.2644 27.0567 99.9812 26.9208 100.626 26.6481L100.903 27.9801C100.15 28.3365 99.2602 28.5138 98.234 28.5138C96.9995 28.5138 96.0305 28.1196 95.3253 27.3321C94.6218 26.5446 94.2692 25.4871 94.2692 24.1605C94.2692 22.8582 94.5969 21.7737 95.2531 20.9088C95.94 19.9854 96.8684 19.5237 98.0365 19.5237C99.1839 19.5237 100.053 19.9854 100.642 20.9088C101.109 21.6423 101.344 22.5495 101.344 23.6268ZM99.6576 23.1291C99.6692 22.5603 99.5539 22.0689 99.3141 21.654C99.008 21.1203 98.5376 20.8539 97.9046 20.8539C97.3263 20.8539 96.856 21.114 96.4967 21.636C96.2022 22.0509 96.0271 22.5486 95.9732 23.1282H99.6576V23.1291Z" fill="white"/>
<path d="M40.6934 9.00808C40.6934 10.0674 40.4005 10.8648 39.8156 11.4003C39.2739 11.8944 38.504 12.1419 37.5067 12.1419C37.0123 12.1419 36.5892 12.1185 36.2349 12.0717V6.28378C36.697 6.20278 37.1948 6.16138 37.7324 6.16138C38.6823 6.16138 39.3983 6.38548 39.8812 6.83368C40.4221 7.34038 40.6934 8.06488 40.6934 9.00808ZM39.7766 9.03418C39.7766 8.34748 39.609 7.82098 39.2739 7.45378C38.9387 7.08748 38.4492 6.90388 37.8046 6.90388C37.5308 6.90388 37.2977 6.92368 37.1044 6.96508V11.3652C37.2114 11.3832 37.4072 11.3913 37.6918 11.3913C38.3571 11.3913 38.8707 11.1906 39.2324 10.7892C39.5941 10.3878 39.7766 9.80278 39.7766 9.03418Z" fill="white"/>
<path d="M45.5542 9.9331C45.5542 10.5856 45.3824 11.1202 45.039 11.5396C44.6789 11.9707 44.2019 12.1858 43.6062 12.1858C43.0321 12.1858 42.575 11.9797 42.234 11.5657C41.8938 11.1526 41.7238 10.6315 41.7238 10.0033C41.7238 9.3463 41.8988 8.8072 42.2506 8.3887C42.6023 7.9702 43.0752 7.7605 43.6709 7.7605C44.245 7.7605 44.7063 7.9666 45.0555 8.3797C45.3874 8.7811 45.5542 9.2995 45.5542 9.9331ZM44.6523 9.9637C44.6523 9.5722 44.5744 9.2365 44.4192 8.9566C44.2367 8.6182 43.977 8.449 43.6394 8.449C43.2901 8.449 43.0246 8.6182 42.8421 8.9566C42.6861 9.2365 42.609 9.5776 42.609 9.9808C42.609 10.3723 42.687 10.708 42.8421 10.9879C43.0304 11.3263 43.2926 11.4955 43.6311 11.4955C43.9629 11.4955 44.2234 11.3236 44.4109 10.9789C44.5719 10.6936 44.6523 10.3552 44.6523 9.9637Z" fill="white"/>
<path d="M52.0717 7.84717L50.848 12.0898H50.0516L49.5447 10.2475C49.4161 9.78757 49.3115 9.33037 49.2302 8.87677H49.2145C49.139 9.34297 49.0344 9.79927 48.9 10.2475L48.3616 12.0898H47.556L46.4053 7.84717H47.2988L47.741 9.86407C47.8481 10.3411 47.936 10.7956 48.0065 11.2258H48.0223C48.087 10.8712 48.194 10.4194 48.345 9.87307L48.9 7.84807H49.6085L50.1403 9.82987C50.2689 10.3132 50.3734 10.7785 50.4539 11.2267H50.478C50.5369 10.7902 50.6257 10.3249 50.7435 9.82987L51.218 7.84807H52.0717V7.84717Z" fill="white"/>
<path d="M56.5791 12.0895H55.7096V9.65951C55.7096 8.91071 55.4475 8.53631 54.9215 8.53631C54.6635 8.53631 54.4552 8.63891 54.2935 8.84501C54.1333 9.05111 54.052 9.29411 54.052 9.57221V12.0886H53.1826V9.05921C53.1826 8.68661 53.1718 8.28251 53.1511 7.84511H53.9151L53.9558 8.50841H53.9799C54.0811 8.30231 54.2321 8.13221 54.4303 7.99631C54.666 7.83791 54.9298 7.75781 55.2185 7.75781C55.5835 7.75781 55.8872 7.88561 56.1286 8.14211C56.4289 8.45621 56.5791 8.92511 56.5791 9.54791V12.0895V12.0895Z" fill="white"/>
<path d="M58.9767 12.0897H58.1081V5.90039H58.9767V12.0897Z" fill="white"/>
<path d="M64.0955 9.9331C64.0955 10.5856 63.9238 11.1202 63.5803 11.5396C63.2203 11.9707 62.7424 12.1858 62.1476 12.1858C61.5726 12.1858 61.1155 11.9797 60.7754 11.5657C60.4352 11.1526 60.2651 10.6315 60.2651 10.0033C60.2651 9.3463 60.4402 8.8072 60.792 8.3887C61.1437 7.9702 61.6166 7.7605 62.2114 7.7605C62.7864 7.7605 63.2468 7.9666 63.5969 8.3797C63.9288 8.7811 64.0955 9.2995 64.0955 9.9331ZM63.1929 9.9637C63.1929 9.5722 63.1149 9.2365 62.9598 8.9566C62.7781 8.6182 62.5176 8.449 62.1807 8.449C61.8306 8.449 61.5652 8.6182 61.3835 8.9566C61.2275 9.2365 61.1504 9.5776 61.1504 9.9808C61.1504 10.3723 61.2283 10.708 61.3835 10.9879C61.5718 11.3263 61.834 11.4955 62.1725 11.4955C62.5043 11.4955 62.764 11.3236 62.9515 10.9789C63.1133 10.6936 63.1929 10.3552 63.1929 9.9637Z" fill="white"/>
<path d="M68.3034 12.0895H67.5228L67.458 11.6008H67.434C67.1668 11.9905 66.786 12.1858 66.2916 12.1858C65.9224 12.1858 65.6237 12.0571 65.3989 11.8015C65.1948 11.5693 65.0928 11.2804 65.0928 10.9375C65.0928 10.4191 65.2919 10.024 65.6926 9.7504C66.0925 9.4768 66.655 9.3427 67.3792 9.349V9.2698C67.3792 8.7109 67.1088 8.4319 66.567 8.4319C66.1812 8.4319 65.8411 8.5372 65.5474 8.746L65.3707 8.1268C65.7341 7.8829 66.1829 7.7605 66.7122 7.7605C67.7343 7.7605 68.247 8.3455 68.247 9.5155V11.0779C68.247 11.5018 68.2661 11.8393 68.3034 12.0895ZM67.4008 10.6315V9.9772C66.4417 9.9592 65.9622 10.2445 65.9622 10.8322C65.9622 11.0536 66.017 11.2192 66.129 11.3299C66.241 11.4406 66.3837 11.4955 66.5538 11.4955C66.7446 11.4955 66.9229 11.4298 67.0855 11.2993C67.249 11.1679 67.3494 11.0014 67.3867 10.7971C67.3958 10.7512 67.4008 10.6954 67.4008 10.6315Z" fill="white"/>
<path d="M73.2439 12.0897H72.4723L72.4317 11.4084H72.4076C72.1612 11.9268 71.7414 12.186 71.1516 12.186C70.6803 12.186 70.2879 11.9853 69.9768 11.5839C69.6657 11.1825 69.5106 10.6614 69.5106 10.0215C69.5106 9.33479 69.679 8.77859 70.0175 8.35379C70.3452 7.95779 70.7467 7.75979 71.2246 7.75979C71.7497 7.75979 72.1172 7.95149 72.3263 8.33579H72.3429V5.90039H73.2132V10.9467C73.2132 11.3598 73.2231 11.7405 73.2439 12.0897ZM72.3429 10.3005V9.59309C72.3429 9.47069 72.3346 9.37169 72.3188 9.29609C72.2699 9.06929 72.1645 8.87849 72.0044 8.72459C71.8426 8.57069 71.6477 8.49329 71.4228 8.49329C71.0985 8.49329 70.8446 8.63279 70.6579 8.91269C70.4729 9.19259 70.3792 9.54989 70.3792 9.98639C70.3792 10.4058 70.4679 10.746 70.6463 11.0079C70.8346 11.2869 71.0885 11.4264 71.4063 11.4264C71.6916 11.4264 71.9198 11.3103 72.0932 11.0772C72.2608 10.8621 72.3429 10.6029 72.3429 10.3005Z" fill="white"/>
<path d="M80.6799 9.9331C80.6799 10.5856 80.5082 11.1202 80.1647 11.5396C79.8046 11.9707 79.3284 12.1858 78.7319 12.1858C78.1586 12.1858 77.7015 11.9797 77.3597 11.5657C77.0196 11.1526 76.8495 10.6315 76.8495 10.0033C76.8495 9.3463 77.0245 8.8072 77.3763 8.3887C77.7281 7.9702 78.201 7.7605 78.7975 7.7605C79.3707 7.7605 79.8328 7.9666 80.1813 8.3797C80.5131 8.7811 80.6799 9.2995 80.6799 9.9331ZM79.7789 9.9637C79.7789 9.5722 79.7009 9.2365 79.5458 8.9566C79.3624 8.6182 79.1036 8.449 78.7651 8.449C78.4167 8.449 78.1512 8.6182 77.9678 8.9566C77.8119 9.2365 77.7347 9.5776 77.7347 9.9808C77.7347 10.3723 77.8127 10.708 77.9678 10.9879C78.1562 11.3263 78.4183 11.4955 78.7568 11.4955C79.0887 11.4955 79.35 11.3236 79.5375 10.9789C79.6976 10.6936 79.7789 10.3552 79.7789 9.9637Z" fill="white"/>
<path d="M85.3548 12.0895H84.4862V9.65951C84.4862 8.91071 84.224 8.53631 83.6972 8.53631C83.4392 8.53631 83.231 8.63891 83.07 8.84501C82.9091 9.05111 82.8286 9.29411 82.8286 9.57221V12.0886H81.9583V9.05921C81.9583 8.68661 81.9484 8.28251 81.9276 7.84511H82.6909L82.7315 8.50841H82.7556C82.8576 8.30231 83.0086 8.13221 83.2061 7.99631C83.4425 7.83791 83.7055 7.75781 83.995 7.75781C84.3593 7.75781 84.6629 7.88561 84.9043 8.14211C85.2055 8.45621 85.3548 8.92511 85.3548 9.54791V12.0895V12.0895Z" fill="white"/>
<path d="M91.2062 8.55338H90.2488V10.6144C90.2488 11.1382 90.4189 11.4001 90.7557 11.4001C90.9117 11.4001 91.0411 11.3857 91.1432 11.356L91.1656 12.0715C90.9938 12.1417 90.7682 12.1768 90.4902 12.1768C90.1468 12.1768 89.8796 12.0634 89.6863 11.8366C89.4922 11.6098 89.396 11.2282 89.396 10.6927V8.55338H88.8243V7.84688H89.396V7.06928L90.248 6.79028V7.84598H91.2054V8.55338H91.2062Z" fill="white"/>
<path d="M95.809 12.0897H94.9387V9.67769C94.9387 8.91719 94.6765 8.53649 94.1514 8.53649C93.7482 8.53649 93.4727 8.75699 93.3218 9.19799C93.296 9.29069 93.2811 9.40409 93.2811 9.53729V12.0888H92.4125V5.90039H93.2811V8.45729H93.2977C93.5715 7.99199 93.9639 7.75979 94.4725 7.75979C94.8325 7.75979 95.1304 7.88759 95.3668 8.14409C95.6613 8.46359 95.809 8.93879 95.809 9.56699V12.0897V12.0897Z" fill="white"/>
<path d="M100.557 9.76754C100.557 9.93674 100.545 10.0789 100.525 10.195H97.9171C97.9287 10.6144 98.0531 10.9339 98.2945 11.1553C98.5152 11.3533 98.7998 11.4523 99.1482 11.4523C99.534 11.4523 99.8858 11.3857 100.203 11.2516L100.339 11.9068C99.9679 12.0814 99.5315 12.1687 99.0263 12.1687C98.4206 12.1687 97.9436 11.9752 97.5985 11.5882C97.2517 11.2012 97.08 10.6819 97.08 10.0303C97.08 9.39044 97.2401 8.85764 97.5628 8.43284C97.8996 7.97924 98.3551 7.75244 98.93 7.75244C99.4925 7.75244 99.9198 7.97924 100.208 8.43284C100.442 8.79284 100.557 9.23834 100.557 9.76754ZM99.7273 9.52364C99.7339 9.24374 99.6767 9.00254 99.5589 8.79914C99.4079 8.53724 99.1781 8.40584 98.867 8.40584C98.5832 8.40584 98.3518 8.53364 98.1751 8.79014C98.0307 8.99444 97.9453 9.23834 97.9171 9.52364H99.7273Z" fill="white"/>
</svg>
