<svg width="25" height="25" viewBox="0 0 25 25" fill="none" xmlns="http://www.w3.org/2000/svg">
<path fill-rule="evenodd" clip-rule="evenodd" d="M5.94255 6.24391H22.1577L20.6134 15.6098H7.48685L5.94255 6.24391Z" stroke="black" stroke-linecap="round" stroke-linejoin="round"/>
<path fill-rule="evenodd" clip-rule="evenodd" d="M9.36584 20.813C9.94058 20.813 10.4065 20.3471 10.4065 19.7724C10.4065 19.1976 9.94058 18.7317 9.36584 18.7317C8.79111 18.7317 8.3252 19.1976 8.3252 19.7724C8.3252 20.3471 8.79111 20.813 9.36584 20.813Z" stroke="black"/>
<path fill-rule="evenodd" clip-rule="evenodd" d="M18.7317 20.813C19.3064 20.813 19.7723 20.3471 19.7723 19.7724C19.7723 19.1976 19.3064 18.7317 18.7317 18.7317C18.157 18.7317 17.691 19.1976 17.691 19.7724C17.691 20.3471 18.157 20.813 18.7317 20.813Z" stroke="black"/>
<path d="M7.28455 6.24391H3.12195" stroke="black" stroke-linecap="round"/>
</svg>
