<svg width="64" height="37" viewBox="0 0 64 37" fill="none" xmlns="http://www.w3.org/2000/svg">
<line opacity="0.2" y1="-1" x2="40.6184" y2="-1" transform="matrix(0.697127 -0.716948 0.738909 0.673805 2 32.1213)" stroke="black" stroke-width="2"/>
<line opacity="0.2" x1="34.3485" y1="12.2413" x2="43.6647" y2="4.24134" stroke="black" stroke-width="2"/>
<line x1="28.848" y1="1.47" x2="38.848" y2="17.47" stroke="black" stroke-width="2"/>
<line x1="43.848" y1="2.47" x2="53.848" y2="18.47" stroke="black" stroke-width="2"/>
<path d="M32.3965 31.7207C32.3965 32.4746 32.123 33.0625 31.5762 33.4844C31.0293 33.9062 30.2871 34.1172 29.3496 34.1172C28.334 34.1172 27.5527 33.9863 27.0059 33.7246V32.7637C27.3574 32.9121 27.7402 33.0293 28.1543 33.1152C28.5684 33.2012 28.9785 33.2441 29.3848 33.2441C30.0488 33.2441 30.5488 33.1191 30.8848 32.8691C31.2207 32.6152 31.3887 32.2637 31.3887 31.8145C31.3887 31.5176 31.3281 31.2754 31.207 31.0879C31.0898 30.8965 30.8906 30.7207 30.6094 30.5605C30.332 30.4004 29.9082 30.2188 29.3379 30.0156C28.541 29.7305 27.9707 29.3926 27.627 29.002C27.2871 28.6113 27.1172 28.1016 27.1172 27.4727C27.1172 26.8125 27.3652 26.2871 27.8613 25.8965C28.3574 25.5059 29.0137 25.3105 29.8301 25.3105C30.6816 25.3105 31.4648 25.4668 32.1797 25.7793L31.8691 26.6465C31.1621 26.3496 30.4746 26.2012 29.8066 26.2012C29.2793 26.2012 28.8672 26.3145 28.5703 26.541C28.2734 26.7676 28.125 27.082 28.125 27.4844C28.125 27.7812 28.1797 28.0254 28.2891 28.2168C28.3984 28.4043 28.582 28.5781 28.8398 28.7383C29.1016 28.8945 29.5 29.0684 30.0352 29.2598C30.9336 29.5801 31.5508 29.9238 31.8867 30.291C32.2266 30.6582 32.3965 31.1348 32.3965 31.7207ZM39.5801 27.9297C39.5801 28.7969 39.2832 29.4648 38.6895 29.9336C38.0996 30.3984 37.2539 30.6309 36.1523 30.6309H35.1445V34H34.1484V25.4336H36.3691C38.5098 25.4336 39.5801 26.2656 39.5801 27.9297ZM35.1445 29.7754H36.041C36.9238 29.7754 37.5625 29.6328 37.957 29.3477C38.3516 29.0625 38.5488 28.6055 38.5488 27.9766C38.5488 27.4102 38.3633 26.9883 37.9922 26.7109C37.6211 26.4336 37.043 26.2949 36.2578 26.2949H35.1445V29.7754ZM48.8145 29.7051C48.8145 31.0762 48.4668 32.1543 47.7715 32.9395C47.0801 33.7246 46.1172 34.1172 44.8828 34.1172C43.6211 34.1172 42.6465 33.7324 41.959 32.9629C41.2754 32.1895 40.9336 31.0996 40.9336 29.6934C40.9336 28.2988 41.2773 27.2188 41.9648 26.4531C42.6523 25.6836 43.6289 25.2988 44.8945 25.2988C46.125 25.2988 47.0859 25.6895 47.7773 26.4707C48.4688 27.252 48.8145 28.3301 48.8145 29.7051ZM41.9883 29.7051C41.9883 30.8652 42.2344 31.7461 42.7266 32.3477C43.2227 32.9453 43.9414 33.2441 44.8828 33.2441C45.832 33.2441 46.5488 32.9453 47.0332 32.3477C47.5176 31.75 47.7598 30.8691 47.7598 29.7051C47.7598 28.5527 47.5176 27.6797 47.0332 27.0859C46.5527 26.4883 45.8398 26.1895 44.8945 26.1895C43.9453 26.1895 43.2227 26.4902 42.7266 27.0918C42.2344 27.6895 41.9883 28.5605 41.9883 29.7051ZM51.7266 30.4375V34H50.7305V25.4336H53.0801C54.1309 25.4336 54.9062 25.6348 55.4062 26.0371C55.9102 26.4395 56.1621 27.0449 56.1621 27.8535C56.1621 28.9863 55.5879 29.752 54.4395 30.1504L56.7656 34H55.5879L53.5137 30.4375H51.7266ZM51.7266 29.582H53.0918C53.7949 29.582 54.3105 29.4434 54.6387 29.166C54.9668 28.8848 55.1309 28.4648 55.1309 27.9062C55.1309 27.3398 54.9629 26.9316 54.627 26.6816C54.2949 26.4316 53.7598 26.3066 53.0215 26.3066H51.7266V29.582ZM60.7852 34H59.7891V26.3184H57.0762V25.4336H63.498V26.3184H60.7852V34Z" fill="black"/>
</svg>
