<svg width="19" height="20" viewBox="0 0 19 20" fill="none" xmlns="http://www.w3.org/2000/svg">
<path fill-rule="evenodd" clip-rule="evenodd" d="M0.196045 1.37781C0.196045 1.10167 0.419903 0.877808 0.696045 0.877808H1.42749C2.56804 0.877808 3.56399 1.64974 3.84847 2.75424L4.55556 5.49951H17.0104C17.995 5.49951 18.7125 6.43201 18.4604 7.38373L17.0085 12.8626C16.718 13.9589 15.726 14.7223 14.5919 14.7223H7.83607C6.69553 14.7223 5.69957 13.9503 5.41509 12.8458L3.68383 6.12423L2.88008 3.00367C2.70939 2.34097 2.11182 1.87781 1.42749 1.87781H0.696045C0.419903 1.87781 0.196045 1.65395 0.196045 1.37781ZM4.81313 6.49951L6.38348 12.5964C6.55417 13.2591 7.15174 13.7223 7.83607 13.7223H14.5919C15.2724 13.7223 15.8676 13.2642 16.0419 12.6065L17.4937 7.12759C17.5778 6.81035 17.3386 6.49951 17.0104 6.49951H4.81313ZM13.9947 18.0936C14.4286 18.0936 14.8295 17.7232 14.8295 17.2047C14.8295 16.6862 14.4286 16.3158 13.9947 16.3158C13.5609 16.3158 13.16 16.6862 13.16 17.2047C13.16 17.7232 13.5609 18.0936 13.9947 18.0936ZM13.9947 19.0936C15.0081 19.0936 15.8295 18.2479 15.8295 17.2047C15.8295 16.1615 15.0081 15.3158 13.9947 15.3158C12.9814 15.3158 12.16 16.1615 12.16 17.2047C12.16 18.2479 12.9814 19.0936 13.9947 19.0936ZM9.4611 17.2047C9.4611 17.7232 9.06016 18.0936 8.62633 18.0936C8.19249 18.0936 7.79155 17.7232 7.79155 17.2047C7.79155 16.6862 8.19249 16.3158 8.62633 16.3158C9.06016 16.3158 9.4611 16.6862 9.4611 17.2047ZM10.4611 17.2047C10.4611 18.2479 9.63964 19.0936 8.62633 19.0936C7.61301 19.0936 6.79155 18.2479 6.79155 17.2047C6.79155 16.1615 7.61301 15.3158 8.62633 15.3158C9.63964 15.3158 10.4611 16.1615 10.4611 17.2047Z" fill="white"/>
</svg>
