<svg width="20" height="19" viewBox="0 0 20 19" fill="none" xmlns="http://www.w3.org/2000/svg">
<path fill-rule="evenodd" clip-rule="evenodd" d="M0.946045 0.877747C0.946045 0.463533 1.28183 0.127747 1.69604 0.127747H2.42749C3.68209 0.127747 4.77764 0.976876 5.09057 2.19183L5.74933 4.74945H18.0104C19.1591 4.74945 19.9962 5.83736 19.702 6.94771L18.2502 12.4266C17.9306 13.6325 16.8394 14.4722 15.5919 14.4722H8.83607C7.58147 14.4722 6.48592 13.6231 6.17299 12.4081L4.44173 5.68652L3.63798 2.56596C3.49574 2.01371 2.99776 1.62775 2.42749 1.62775H1.69604C1.28183 1.62775 0.946045 1.29196 0.946045 0.877747ZM6.13568 6.24945L7.62558 12.034C7.76782 12.5862 8.2658 12.9722 8.83607 12.9722H15.5919C16.159 12.9722 16.655 12.5905 16.8002 12.0424L18.2521 6.56349C18.2941 6.40487 18.1745 6.24945 18.0104 6.24945H6.13568ZM14.9947 17.0935C15.1388 17.0935 15.3295 16.9608 15.3295 16.7046C15.3295 16.4485 15.1388 16.3157 14.9947 16.3157C14.8507 16.3157 14.66 16.4485 14.66 16.7046C14.66 16.9608 14.8507 17.0935 14.9947 17.0935ZM14.9947 18.5935C16.0081 18.5935 16.8295 17.7478 16.8295 16.7046C16.8295 15.6614 16.0081 14.8157 14.9947 14.8157C13.9814 14.8157 13.16 15.6614 13.16 16.7046C13.16 17.7478 13.9814 18.5935 14.9947 18.5935ZM9.9611 16.7046C9.9611 16.9608 9.77042 17.0935 9.62633 17.0935C9.48223 17.0935 9.29155 16.9608 9.29155 16.7046C9.29155 16.4485 9.48223 16.3157 9.62633 16.3157C9.77042 16.3157 9.9611 16.4485 9.9611 16.7046ZM11.4611 16.7046C11.4611 17.7478 10.6396 18.5935 9.62633 18.5935C8.61301 18.5935 7.79155 17.7478 7.79155 16.7046C7.79155 15.6614 8.61301 14.8157 9.62633 14.8157C10.6396 14.8157 11.4611 15.6614 11.4611 16.7046Z" fill="black"/>
</svg>
