<svg width="23" height="17" viewBox="0 0 23 17" fill="none" xmlns="http://www.w3.org/2000/svg">
<path d="M8.79076 8.62204L8.79076 8.36198L9.00369 8.21266C10.1495 7.40914 10.8611 6.18299 10.8611 4.82855C10.8611 2.49157 8.71049 0.5 5.93057 0.5C3.15066 0.499999 1.00002 2.49157 1.00002 4.82855C1.00002 7.16554 3.15066 9.15711 5.93057 9.15711C6.24544 9.15711 6.55299 9.13121 6.85074 9.08183L7.03585 9.05113L7.19545 9.14979C7.51191 9.34542 8.1725 9.76608 8.79076 10.1652L8.79076 10.1627L8.79076 10.1576L8.79076 10.1525L8.79076 10.1474L8.79076 10.1424L8.79076 10.1373L8.79076 10.1322L8.79076 10.1271L8.79076 10.1221L8.79076 10.117L8.79076 10.1119L8.79076 10.1069L8.79076 10.1018L8.79076 10.0967L8.79076 10.0917L8.79076 10.0866L8.79076 10.0815L8.79076 10.0765L8.79076 10.0714L8.79076 10.0664L8.79076 10.0613L8.79076 10.0563L8.79076 10.0512L8.79076 10.0462L8.79076 10.0411L8.79076 10.0361L8.79076 10.0311L8.79076 10.026L8.79076 10.021L8.79076 10.016L8.79076 10.0109L8.79076 10.0059L8.79076 10.0009L8.79076 9.99584L8.79076 9.99081L8.79076 9.98579L8.79076 9.98077L8.79076 9.97574L8.79076 9.97073L8.79076 9.96571L8.79076 9.9607L8.79076 9.95569L8.79076 9.95068L8.79076 9.94567L8.79076 9.94066L8.79076 9.93566L8.79076 9.93066L8.79076 9.92566L8.79076 9.92066L8.79076 9.91567L8.79076 9.91067L8.79076 9.90568L8.79076 9.90069L8.79076 9.8957L8.79076 9.89072L8.79076 9.88574L8.79076 9.88076L8.79076 9.87578L8.79076 9.8708L8.79076 9.86583L8.79076 9.86085L8.79076 9.85588L8.79076 9.85092L8.79076 9.84595L8.79076 9.84099L8.79076 9.83603L8.79076 9.83107L8.79076 9.82611L8.79076 9.82116L8.79076 9.8162L8.79076 9.81125L8.79076 9.80631L8.79076 9.80136L8.79076 9.79642L8.79076 9.79148L8.79076 9.78654L8.79076 9.7816L8.79076 9.77667L8.79076 9.77174L8.79076 9.76681L8.79076 9.76188L8.79076 9.75696L8.79076 9.75204L8.79076 9.74712L8.79076 9.7422L8.79076 9.73729L8.79076 9.73238L8.79076 9.72747L8.79076 9.72256L8.79076 9.71766L8.79076 9.71276L8.79076 9.70786L8.79076 9.70296L8.79076 9.69807L8.79076 9.69318L8.79076 9.68829L8.79076 9.6834L8.79076 9.67852L8.79076 9.67363L8.79076 9.66876L8.79076 9.66388L8.79076 9.65901L8.79076 9.65414L8.79076 9.64927L8.79076 9.6444L8.79076 9.63954L8.79076 9.63468L8.79076 9.62982L8.79076 9.62497L8.79076 9.62011L8.79076 9.61526L8.79076 9.61042L8.79076 9.60557L8.79076 9.60073L8.79076 9.59589L8.79076 9.59106L8.79076 9.58623L8.79076 9.5814L8.79076 9.57657L8.79076 9.57174L8.79076 9.56692L8.79076 9.5621L8.79076 9.55729L8.79076 9.55248L8.79076 9.54767L8.79076 9.54286L8.79076 9.53805L8.79076 9.53325L8.79076 9.52845L8.79076 9.52366L8.79076 9.51887L8.79076 9.51408L8.79076 9.50929L8.79076 9.50451L8.79076 9.49973L8.79076 9.49495L8.79076 9.49017L8.79076 9.4854L8.79076 9.48063L8.79076 9.47587L8.79076 9.4711L8.79076 9.46634L8.79076 9.46159L8.79076 9.45683L8.79076 9.45208L8.79076 9.44734L8.79076 9.44259L8.79076 9.43785L8.79076 9.43311L8.79076 9.42838L8.79076 9.42365L8.79076 9.41892L8.79076 9.41419L8.79076 9.40947L8.79076 9.40475L8.79076 9.40004L8.79076 9.39532L8.79076 9.39061L8.79076 9.38591L8.79076 9.3812L8.79076 9.37651L8.79076 9.37181L8.79076 9.36712L8.79076 9.36243L8.79076 9.35774L8.79076 9.35306L8.79076 9.34838L8.79076 9.3437L8.79076 9.33903L8.79076 9.33436L8.79076 9.32969L8.79076 9.32503L8.79076 9.32037L8.79076 9.31571L8.79076 9.31106L8.79076 9.30641L8.79076 9.30177L8.79076 9.29712L8.79076 9.29248L8.79076 9.28785L8.79076 9.28322L8.79076 9.27859L8.79076 9.27396L8.79076 9.26934L8.79076 9.26472L8.79076 9.26011L8.79076 9.2555L8.79076 9.25089L8.79076 9.24629L8.79076 9.24169L8.79076 9.23709L8.79076 9.2325L8.79076 9.22791L8.79076 9.22332L8.79076 9.21874L8.79076 9.21416L8.79076 9.20958L8.79076 9.20501L8.79076 9.20044L8.79076 9.19588L8.79076 9.19132L8.79076 9.18676L8.79076 9.18221L8.79076 9.17766L8.79076 9.17312L8.79076 9.16858L8.79076 9.16404L8.79076 9.1595L8.79076 9.15497L8.79076 9.15045L8.79076 9.14592L8.79076 9.1414L8.79076 9.13689L8.79076 9.13238L8.79076 9.12787L8.79076 9.12337L8.79076 9.11887L8.79076 9.11437L8.79076 9.10988L8.79076 9.10539L8.79076 9.10091L8.79076 9.09643L8.79076 9.09195L8.79076 9.08748L8.79076 9.08301L8.79076 9.07855L8.79076 9.07409L8.79076 9.06963L8.79076 9.06518L8.79076 9.06073L8.79076 9.05628L8.79076 9.05184L8.79076 9.04741L8.79076 9.04297L8.79076 9.03855L8.79076 9.03412L8.79076 9.0297L8.79076 9.02529L8.79076 9.02087L8.79076 9.01647L8.79076 9.01206L8.79076 9.00766L8.79076 9.00327L8.79076 8.99888L8.79076 8.99449L8.79076 8.99011L8.79076 8.98573L8.79076 8.98135L8.79076 8.97698L8.79076 8.97262L8.79076 8.96825L8.79076 8.9639L8.79076 8.95954L8.79076 8.95519L8.79076 8.95085L8.79076 8.94651L8.79076 8.94217L8.79076 8.93784L8.79076 8.93351L8.79076 8.92919L8.79076 8.92487L8.79076 8.92056L8.79076 8.91625L8.79076 8.91194L8.79076 8.90764L8.79076 8.90334L8.79076 8.89905L8.79076 8.89476L8.79076 8.89048L8.79076 8.8862L8.79076 8.88192L8.79076 8.87765L8.79076 8.87339L8.79076 8.86912L8.79076 8.86487L8.79076 8.86061L8.79076 8.85637L8.79076 8.85212L8.79076 8.84788L8.79076 8.84365L8.79076 8.83942L8.79076 8.83519L8.79076 8.83097L8.79076 8.82676L8.79076 8.82255L8.79076 8.81834L8.79076 8.81414L8.79076 8.80994L8.79076 8.80575L8.79076 8.80156L8.79076 8.79737L8.79076 8.7932L8.79076 8.78902L8.79076 8.78485L8.79076 8.78069L8.79076 8.77653L8.79076 8.77237L8.79076 8.76822L8.79076 8.76407L8.79076 8.75993L8.79076 8.7558L8.79076 8.75166L8.79076 8.74754L8.79076 8.74342L8.79076 8.7393L8.79076 8.73519L8.79076 8.73108L8.79076 8.72698L8.79076 8.72288L8.79076 8.71878L8.79076 8.7147L8.79076 8.71061L8.79076 8.70653L8.79076 8.70246L8.79076 8.69839L8.79076 8.69433L8.79076 8.69027L8.79076 8.68622L8.79076 8.68217L8.79076 8.67812L8.79076 8.67409L8.79076 8.67005L8.79076 8.66602L8.79076 8.662L8.79076 8.65798L8.79076 8.65397L8.79076 8.64996L8.79076 8.64595L8.79076 8.64196L8.79076 8.63796L8.79076 8.63397L8.79076 8.62999L8.79076 8.62601L8.79076 8.62204Z" stroke="black"/>
<path d="M19.416 7.74037C19.416 9.30656 18.1946 10.5459 16.7247 10.5459C15.2548 10.5459 14.0334 9.30656 14.0334 7.74037C14.0334 6.17418 15.2548 4.93481 16.7247 4.93481C18.1946 4.93481 19.416 6.17418 19.416 7.74037Z" stroke="black"/>
<mask id="path-3-inside-1_6330_2318" fill="white">
<path fill-rule="evenodd" clip-rule="evenodd" d="M22.2222 17C22.2222 17 22.2222 17 22.2222 17C22.2222 13.7343 19.7909 11.0869 16.7917 11.0869C13.7925 11.0869 11.3611 13.7343 11.3611 17C11.3611 17 11.3611 17 11.3611 17H22.2222Z"/>
</mask>
<path d="M22.2222 17V18H23.2222V17H22.2222ZM11.3611 17H10.3611V18H11.3611V17ZM21.2222 17V17C21.2222 17 21.2222 17 21.2222 17C21.2222 17 21.2222 17 21.2222 17V17C21.2222 17 21.2222 17 21.2222 17C21.2222 17 21.2222 17 21.2222 17V17C21.2222 17 21.2222 17 21.2222 17C21.2222 17 21.2222 17 21.2222 17C21.2222 17 21.2222 17 21.2222 17C21.2222 17 21.2222 17 21.2222 17C21.2222 17 21.2222 17 21.2222 17C21.2222 17 21.2222 17 21.2222 17C21.2222 17 21.2222 17 21.2222 17C21.2222 17 21.2222 17 21.2222 17C21.2222 17 21.2222 17 21.2222 17C21.2222 17 21.2222 17 21.2222 17C21.2222 17 21.2222 17 21.2222 17C21.2222 17 21.2222 17 21.2222 17C21.2222 17 21.2222 17 21.2222 17C21.2222 17 21.2222 17 21.2222 17V17C21.2222 17 21.2222 17 21.2222 17C21.2222 17 21.2222 17 21.2222 17V17C21.2222 17 21.2222 17 21.2222 17C21.2222 17 21.2222 17 21.2222 17V17H23.2222V17C23.2222 17 23.2222 17 23.2222 17C23.2222 17 23.2222 17 23.2222 17V17C23.2222 17 23.2222 17 23.2222 17C23.2222 17 23.2222 17 23.2222 17V17C23.2222 17 23.2222 17 23.2222 17C23.2222 17 23.2222 17 23.2222 17C23.2222 17 23.2222 17 23.2222 17C23.2222 17 23.2222 17 23.2222 17C23.2222 17 23.2222 17 23.2222 17C23.2222 17 23.2222 17 23.2222 17C23.2222 17 23.2222 17 23.2222 17C23.2222 17 23.2222 17 23.2222 17C23.2222 17 23.2222 17 23.2222 17C23.2222 17 23.2222 17 23.2222 17C23.2222 17 23.2222 17 23.2222 17C23.2222 17 23.2222 17 23.2222 17C23.2222 17 23.2222 17 23.2222 17C23.2222 17 23.2222 17 23.2222 17V17C23.2222 17 23.2222 17 23.2222 17C23.2222 17 23.2222 17 23.2222 17V17C23.2222 17 23.2222 17 23.2222 17C23.2222 17 23.2222 17 23.2222 17V17H21.2222ZM16.7917 12.0869C19.1602 12.0869 21.2222 14.2047 21.2222 17H23.2222C23.2222 13.2638 20.4216 10.0869 16.7917 10.0869V12.0869ZM12.3611 17C12.3611 14.2047 14.4232 12.0869 16.7917 12.0869V10.0869C13.1617 10.0869 10.3611 13.2638 10.3611 17H12.3611ZM12.3611 17C12.3611 17 12.3611 17 12.3611 17C12.3611 17 12.3611 17 12.3611 17H10.3611C10.3611 17 10.3611 17 10.3611 17C10.3611 17 10.3611 17 10.3611 17H12.3611ZM11.3611 18H22.2222V16H11.3611V18Z" fill="black" mask="url(#path-3-inside-1_6330_2318)"/>
</svg>
