<svg width="25" height="16" viewBox="0 0 25 16" fill="none" xmlns="http://www.w3.org/2000/svg">
<path fill-rule="evenodd" clip-rule="evenodd" d="M1.8077 8.27382C2.46825 7.19963 3.81333 5.5652 5.67265 4.2148C7.52943 2.86625 9.86757 1.82296 12.5272 1.86578C15.195 1.90873 17.5277 2.97388 19.3717 4.3108C21.0784 5.54812 22.3418 7.00074 23.0353 8.03211C21.7778 10.1971 18.143 14.1016 12.5337 14.1354C8.45673 14.1348 4.99309 11.5908 3.78651 10.3253C3.59595 10.1254 3.27946 10.1179 3.0796 10.3085C2.87974 10.499 2.87219 10.8155 3.06274 11.0154C4.3763 12.3931 8.0846 15.1354 12.5352 15.1354L12.5382 15.1354C18.8738 15.0979 22.8512 10.5343 24.0603 8.24546C24.1436 8.08788 24.1367 7.8979 24.0422 7.7468C23.3285 6.60556 21.9136 4.91844 19.9587 3.50118C18.0012 2.08205 15.4733 0.913075 12.5433 0.865907C9.60503 0.818606 7.05914 1.9719 5.085 3.40568C3.11341 4.83762 1.6807 6.57128 0.955868 7.75C0.811221 7.98523 0.88465 8.29318 1.11988 8.43782C1.3551 8.58247 1.66305 8.50904 1.8077 8.27382ZM15.3219 7.83408C15.3219 9.34599 14.0247 10.6495 12.3262 10.6495C10.6278 10.6495 9.33063 9.34599 9.33063 7.83408C9.33063 6.32217 10.6278 5.01868 12.3262 5.01868C14.0247 5.01868 15.3219 6.32217 15.3219 7.83408ZM16.3219 7.83408C16.3219 9.94126 14.533 11.6495 12.3262 11.6495C10.1195 11.6495 8.33063 9.94126 8.33063 7.83408C8.33063 5.72689 10.1195 4.01868 12.3262 4.01868C14.533 4.01868 16.3219 5.72689 16.3219 7.83408Z" fill="black"/>
</svg>
