<svg width="18" height="17" viewBox="0 0 18 17" fill="none" xmlns="http://www.w3.org/2000/svg">
<path d="M15.6839 8.81825L16.2143 9.34855L16.23 9.33283L16.2447 9.3162L15.6839 8.81825ZM8.99706 15.5L8.4667 16.0303L8.997 16.5607L9.52736 16.0303L8.99706 15.5ZM2.31613 8.81824L1.7553 9.31621C1.76514 9.32728 1.7753 9.33807 1.78577 9.34854L2.31613 8.81824ZM2.31613 2.42701L1.78577 1.89671L1.78577 1.89671L2.31613 2.42701ZM8.99706 3.41987L8.4667 3.95017C8.60735 4.09084 8.79813 4.16987 8.99706 4.16987C9.19599 4.16987 9.38677 4.09084 9.52742 3.95017L8.99706 3.41987ZM9.00297 15.5L8.47261 16.0303L9.00297 16.5607L9.53334 16.0303L9.00297 15.5ZM15.1538 8.28772L8.46988 14.9665L9.53014 16.0276L16.214 9.34878L15.1538 8.28772ZM8.46971 14.9667L8.46675 14.9696L9.52736 16.0303L9.53032 16.0274L8.46971 14.9667ZM9.52742 14.9697L2.8465 8.28795L1.78577 9.34854L8.4667 16.0303L9.52742 14.9697ZM2.8465 2.95731C3.49633 2.30739 4.43819 2.11885 5.50813 2.33493C6.58258 2.55192 7.68133 3.1647 8.4667 3.95017L9.52742 2.88957C8.54812 1.91015 7.18874 1.14405 5.80507 0.864614C4.41688 0.584263 2.90061 0.781735 1.78577 1.89671L2.8465 2.95731ZM1.78577 1.89671C-0.289922 3.97266 -0.223737 7.08731 1.7553 9.31621L2.87697 8.32028C1.36602 6.61858 1.39284 4.41114 2.8465 2.95731L1.78577 1.89671ZM1.78601 9.34878L8.46988 16.0276L9.53014 14.9665L2.84626 8.28771L1.78601 9.34878ZM8.46965 16.0273L8.47261 16.0303L9.53333 14.9697L9.53037 14.9667L8.46965 16.0273ZM9.53334 16.0303L16.2143 9.34855L15.1535 8.28795L8.47261 14.9697L9.53334 16.0303ZM16.2143 1.89672C15.0992 0.781568 13.5814 0.584363 12.1922 0.864582C10.8073 1.14394 9.44627 1.90988 8.4667 2.88957L9.52742 3.95017C10.3125 3.16497 11.4126 2.55204 12.4888 2.33497C13.5606 2.11876 14.5039 2.30757 15.1535 2.95731L16.2143 1.89672ZM15.1535 2.95731C16.6072 4.41113 16.6339 6.61857 15.1231 8.3203L16.2447 9.3162C18.2237 7.08732 18.29 3.97268 16.2143 1.89672L15.1535 2.95731Z" fill="black"/>
</svg>
