<svg width="18" height="16" viewBox="0 0 18 16" fill="none" xmlns="http://www.w3.org/2000/svg">
<path d="M15.6839 8.43441L16.0402 8.78515L16.0506 8.7746L16.0604 8.76345L15.6839 8.43441ZM8.99706 15.2222L8.64071 15.573L8.99702 15.935L9.35337 15.573L8.99706 15.2222ZM2.31613 8.43441L1.93966 8.76345C1.94616 8.77088 1.95287 8.77811 1.95979 8.78514L2.31613 8.43441ZM2.31613 1.94172L1.95979 1.59099L1.95979 1.59099L2.31613 1.94172ZM8.99706 2.95034L8.64071 3.30108C8.7347 3.39657 8.86308 3.45034 8.99706 3.45034C9.13104 3.45034 9.25942 3.39657 9.35341 3.30108L8.99706 2.95034ZM9.00297 15.2222L8.64663 15.573L9.00297 15.935L9.35932 15.573L9.00297 15.2222ZM15.3277 8.08352L8.64382 14.8683L9.3562 15.5701L16.0401 8.78531L15.3277 8.08352ZM8.6437 14.8684L8.64075 14.8714L9.35337 15.573L9.35632 15.57L8.6437 14.8684ZM9.35341 14.8715L2.67248 8.08367L1.95979 8.78514L8.64071 15.573L9.35341 14.8715ZM2.67248 2.29246C3.39999 1.55332 4.43566 1.36128 5.55611 1.59115C6.68057 1.82185 7.82247 2.46975 8.64071 3.30108L9.35341 2.59961C8.40697 1.63803 7.09075 0.885173 5.75708 0.611557C4.41941 0.337118 2.99696 0.537225 1.95979 1.59099L2.67248 2.29246ZM1.95979 1.59099C-0.00828261 3.59054 0.0418294 6.59208 1.93966 8.76345L2.6926 8.10536C1.10046 6.28374 1.1112 3.87872 2.67248 2.29246L1.95979 1.59099ZM1.95994 8.7853L8.64382 15.5701L9.3562 14.8683L2.67233 8.08351L1.95994 8.7853ZM8.64366 15.57L8.64663 15.573L9.35932 14.8715L9.35636 14.8685L8.64366 15.57ZM9.35932 15.573L16.0402 8.78515L15.3275 8.08368L8.64662 14.8715L9.35932 15.573ZM16.0402 1.59099C15.003 0.537112 13.579 0.337189 12.2401 0.611536C10.9051 0.885094 9.58733 1.63785 8.64071 2.59961L9.35341 3.30108C10.1715 2.46993 11.3148 1.82193 12.4408 1.59118C13.5631 1.36122 14.6002 1.55344 15.3275 2.29247L16.0402 1.59099ZM15.3275 2.29247C16.8888 3.87871 16.8995 6.28373 15.3074 8.10538L16.0604 8.76345C17.9581 6.59209 18.0083 3.59056 16.0402 1.59099L15.3275 2.29247Z" fill="white"/>
</svg>
