<svg width="17" height="17" viewBox="0 0 17 17" fill="none" xmlns="http://www.w3.org/2000/svg">
<path d="M15.5509 7.86733H10.5497C10.2961 6.91484 9.44028 6.2151 8.43713 6.2151C7.43398 6.2151 6.57815 6.91484 6.3246 7.86733H1.4491C1.11015 7.86733 0.85 8.14338 0.85 8.48144C0.85 8.81949 1.11015 9.09554 1.4491 9.09554H6.3246C6.57815 10.048 7.43398 10.7478 8.43713 10.7478C9.44028 10.7478 10.2961 10.048 10.5497 9.09554H15.5509C15.8898 9.09554 16.15 8.81949 16.15 8.48144C16.15 8.31641 16.077 8.16425 15.9708 8.05457C15.8648 7.94505 15.7154 7.86733 15.5509 7.86733ZM8.43713 9.51955C7.89584 9.51955 7.43743 9.05303 7.43743 8.48144C7.43743 7.90984 7.89584 7.44332 8.43713 7.44332C8.97842 7.44332 9.43683 7.90984 9.43683 8.48144C9.43683 9.05303 8.97842 9.51955 8.43713 9.51955ZM3.06587 5.38267C4.06902 5.38267 4.92484 4.68294 5.1784 3.73045H15.5329C15.8719 3.73045 16.132 3.45439 16.132 3.11634C16.132 2.77828 15.8719 2.50223 15.5329 2.50223H5.1784C4.92484 1.54974 4.06902 0.85 3.06587 0.85C1.84584 0.85 0.867964 1.88806 0.867964 3.11634C0.867964 4.34461 1.84584 5.38267 3.06587 5.38267ZM3.06587 2.07822C3.60716 2.07822 4.06557 2.54474 4.06557 3.11634C4.06557 3.68793 3.60716 4.15445 3.06587 4.15445C2.52458 4.15445 2.06617 3.68793 2.06617 3.11634C2.06617 2.54474 2.52458 2.07822 3.06587 2.07822ZM13.9341 11.6173C12.9295 11.6173 12.0924 12.3182 11.8242 13.251H1.4491C1.11015 13.251 0.85 13.527 0.85 13.8651C0.85 14.2032 1.11015 14.4792 1.4491 14.4792H11.8216C12.0747 15.4314 12.9292 16.15 13.9341 16.15C15.1533 16.15 16.132 15.1314 16.132 13.8837C16.132 12.6351 15.1345 11.6173 13.9341 11.6173ZM13.9341 14.9032C13.3928 14.9032 12.9344 14.4367 12.9344 13.8651C12.9344 13.2935 13.3928 12.827 13.9341 12.827C14.4754 12.827 14.9338 13.2935 14.9338 13.8651C14.9338 14.4367 14.4754 14.9032 13.9341 14.9032Z" fill="#333333" stroke="black" stroke-width="0.3"/>
</svg>
