<svg width="15" height="16" viewBox="0 0 15 16" fill="none" xmlns="http://www.w3.org/2000/svg">
<path d="M12.8027 0.736816H2.19727C0.985794 0.736816 0 1.72261 0 2.93408V13.5396C0 14.751 0.985794 15.7368 2.19727 15.7368H12.8027C14.0142 15.7368 15 14.751 15 13.5396V2.93408C15 1.72261 14.0142 0.736816 12.8027 0.736816ZM7.5293 12.1626C5.3484 12.1626 3.57422 10.3884 3.57422 8.20752C3.57422 6.02662 5.3484 4.25244 7.5293 4.25244C9.7102 4.25244 11.4844 6.02662 11.4844 8.20752C11.4844 10.3884 9.7102 12.1626 7.5293 12.1626ZM11.9238 5.13135C11.1969 5.13135 10.6055 4.53992 10.6055 3.81299C10.6055 3.08606 11.1969 2.49463 11.9238 2.49463C12.6508 2.49463 13.2422 3.08606 13.2422 3.81299C13.2422 4.53992 12.6508 5.13135 11.9238 5.13135Z" fill="#727272"/>
<path d="M11.9368 3.3457C11.6609 3.3457 11.4368 3.56979 11.4368 3.8457C11.4368 4.12161 11.6609 4.3457 11.9368 4.3457C12.2127 4.3457 12.4368 4.12161 12.4368 3.8457C12.4368 3.56979 12.2127 3.3457 11.9368 3.3457Z" fill="#727272"/>
</svg>
