<svg width="20" height="19" viewBox="0 0 20 19" fill="none" xmlns="http://www.w3.org/2000/svg">
<path fill-rule="evenodd" clip-rule="evenodd" d="M14.5963 1.28847C14.4064 1.07978 14.058 0.850445 13.6101 0.858997C13.1364 0.868041 12.6854 1.13874 12.3044 1.6754L12.2447 1.75958L12.2232 1.86055C12.1366 2.26623 11.7771 3.43273 11.0649 4.64367C10.9814 4.73732 10.8058 4.92712 10.6196 5.11743C10.5147 5.22473 10.4102 5.32827 10.32 5.41229C10.275 5.45431 10.2358 5.48924 10.2036 5.51628C10.1877 5.5297 10.1747 5.54011 10.1646 5.54784C10.1547 5.55537 10.1499 5.55858 10.1494 5.55888L10.1494 5.55889L10.1494 5.5589C10.0863 5.59947 10.0384 5.64797 10.014 5.67353C9.98378 5.70522 9.95406 5.7401 9.92637 5.77426C9.87073 5.84289 9.80765 5.92804 9.74139 6.02137C9.6081 6.20911 9.44642 6.45192 9.27871 6.71082C8.94252 7.22981 8.57069 7.83116 8.33075 8.22674L8.32305 8.23943L8.31612 8.25257C8.19324 8.48527 7.67222 9.07379 6.65038 9.22479V8.86839V8.36839H6.15038H1.35522H0.855225V8.86839V17.6412V18.1412H1.35522H6.15038H6.65038V18.0987H16.1192H16.1594L16.199 18.0923C16.5284 18.0391 17.0083 17.8755 17.3794 17.5284C17.7337 17.197 17.9668 16.7139 17.8919 16.0957C18.0754 15.8446 18.2748 15.5034 18.4068 15.1218C18.5468 14.7169 18.6279 14.2132 18.4744 13.7172C18.6987 13.3848 18.9356 12.936 19.0576 12.4562C19.1888 11.9406 19.2017 11.3103 18.8299 10.7801C19.0583 10.2193 19.2384 9.46572 19.0916 8.77458C18.9995 8.34096 18.7755 7.92338 18.3545 7.6194C17.9415 7.32118 17.3872 7.16706 16.6939 7.15766L16.6939 7.15761H16.6871H14.0923C14.5698 6.46219 15.205 5.30502 15.4879 4.23841C15.6532 3.61509 15.5108 2.98305 15.3107 2.48597C15.1082 1.98314 14.8213 1.55458 14.6085 1.30246L14.6025 1.29535L14.5963 1.28847ZM6.65038 17.0987H16.0753C16.2683 17.061 16.522 16.9612 16.6962 16.7982C16.8516 16.6528 16.9633 16.4467 16.8743 16.0815L16.8136 15.8322L16.9806 15.6375C17.1297 15.4639 17.34 15.147 17.4617 14.795C17.5847 14.4393 17.5928 14.1249 17.4643 13.8803L17.3132 13.5928L17.5145 13.3379C17.7198 13.0779 17.9779 12.6443 18.0885 12.2096C18.1986 11.7771 18.1425 11.4543 17.9028 11.2311L17.6292 10.9765L17.7959 10.6421C18.0384 10.1556 18.2205 9.48612 18.1134 8.98238C18.0641 8.75025 17.9571 8.56589 17.7691 8.43013C17.5735 8.28888 17.2418 8.16565 16.6836 8.15761H13.912C13.8183 8.16527 13.7093 8.16697 13.5991 8.15638C13.4874 8.14563 13.3298 8.11836 13.1842 8.03779C13.0219 7.94806 12.8351 7.763 12.827 7.46747C12.8202 7.22281 12.9443 7.01985 13.0578 6.87802C13.4663 6.36714 14.2274 5.0902 14.5213 3.98207C14.6084 3.65377 14.5439 3.25912 14.383 2.85944C14.2269 2.47174 14.0033 2.13796 13.8516 1.95609C13.8021 1.90479 13.716 1.85716 13.6292 1.85881C13.5699 1.85995 13.4053 1.88595 13.176 2.1788C13.0379 2.74808 12.6364 3.95648 11.9012 5.19404L11.8784 5.23237L11.8492 5.26606C11.7669 5.3611 11.5544 5.59188 11.3345 5.81669C11.2239 5.92977 11.1076 6.04528 11.0018 6.14381C10.9167 6.22319 10.818 6.31106 10.7277 6.37476C10.7217 6.38159 10.7136 6.39117 10.7032 6.40401C10.6668 6.44881 10.6177 6.51443 10.5568 6.60027C10.4357 6.77085 10.2829 6.99987 10.118 7.25449C9.79209 7.75763 9.42963 8.34352 9.19267 8.73396C8.90855 9.25816 8.07176 10.074 6.65038 10.2331V17.0987ZM1.85522 17.1412V9.36839H5.65038V17.1412H1.85522Z" fill="black"/>
</svg>
