<svg width="17" height="18" viewBox="0 0 17 18" fill="none" xmlns="http://www.w3.org/2000/svg">
<path fill-rule="evenodd" clip-rule="evenodd" d="M11.4511 4.38711C11.4511 5.99502 10.1636 7.27423 8.60524 7.27423C7.04684 7.27423 5.75938 5.99502 5.75938 4.38711C5.75938 2.77921 7.04684 1.5 8.60524 1.5C10.1636 1.5 11.4511 2.77921 11.4511 4.38711ZM12.9511 4.38711C12.9511 6.81005 11.0054 8.77423 8.60524 8.77423C6.20509 8.77423 4.25938 6.81005 4.25938 4.38711C4.25938 1.96418 6.20509 0 8.60524 0C11.0054 0 12.9511 1.96418 12.9511 4.38711ZM1.8136 15.1081C4.37825 13.1007 10.0557 10.7734 15.3853 15.0932C15.4272 15.1272 15.4605 15.1889 15.4605 15.2634V16.2499H1.75V15.2634C1.75 15.1819 1.78314 15.132 1.8136 15.1081ZM16.3298 13.928C10.2187 8.97458 3.71919 11.7117 0.889051 13.9269C0.462316 14.2609 0.25 14.7643 0.25 15.2634V16.9999V17.7499H1H16.2105H16.9605V16.9999V15.2634C16.9605 14.7574 16.7389 14.2596 16.3298 13.928Z" fill="black"/>
</svg>
