<svg width="14" height="14" viewBox="0 0 14 14" fill="none" xmlns="http://www.w3.org/2000/svg">
<path fill-rule="evenodd" clip-rule="evenodd" d="M4.00045 12.6657C4.00045 12.4889 4.05313 12.3194 4.14689 12.1944C4.24065 12.0694 4.36783 11.9991 4.50043 11.9991H13.5C13.6326 11.9991 13.7598 12.0694 13.8536 12.1944C13.9473 12.3194 14 12.4889 14 12.6657C14 12.8425 13.9473 13.012 13.8536 13.137C13.7598 13.262 13.6326 13.3323 13.5 13.3323H4.50043C4.36783 13.3323 4.24065 13.262 4.14689 13.137C4.05313 13.012 4.00045 12.8425 4.00045 12.6657ZM4.00045 7.33328C4.00045 7.1565 4.05313 6.98696 4.14689 6.86195C4.24065 6.73695 4.36783 6.66672 4.50043 6.66672H13.5C13.5 6.66672 13.7598 6.73695 13.8536 6.86195C13.9473 6.98696 14 7.1565 14 7.33328C14 7.51006 13.8536 7.8046 13.8536 7.8046C13.8536 7.8046 13.6326 7.99983 13.5 7.99983H4.50043C4.36783 7.99983 4.24065 7.9296 4.14689 7.8046C4.05313 7.6796 4.00045 7.51006 4.00045 7.33328ZM4.00045 2.00085C4.00045 1.82407 4.05313 1.65453 4.14689 1.52953C4.24065 1.40452 4.36783 1.3343 4.50043 1.3343H13.5C13.6326 1.3343 13.7598 1.40452 13.8536 1.52953C13.9473 1.65453 14 1.82407 14 2.00085C14 2.17763 13.9473 2.34717 13.8536 2.47218C13.7598 2.59718 13.6326 2.6674 13.5 2.6674H4.50043C4.36783 2.6674 4.24065 2.59718 4.14689 2.47218C4.05313 2.34717 4.00045 2.17763 4.00045 2.00085ZM2.8545 0.195825C2.90106 0.257742 2.938 0.331297 2.96321 0.412277C2.98842 0.493256 3.00139 0.58007 3.00139 0.667745C3.00139 0.75542 2.98842 0.842233 2.96321 0.923213C2.938 1.00419 2.90106 1.07775 2.8545 1.13966L1.35457 3.13932C1.30813 3.2014 1.25295 3.25065 1.19221 3.28425C1.13147 3.31785 1.06635 3.33515 1.00059 3.33515C0.934822 3.33515 0.869704 3.31785 0.808962 3.28425C0.748219 3.25065 0.693046 3.2014 0.646602 3.13932L0.146625 2.47277C0.100139 2.4108 0.0632645 2.33722 0.0381066 2.25625C0.0129486 2.17528 6.92693e-10 2.0885 0 2.00085C-6.92693e-10 1.91321 0.0129486 1.82642 0.0381066 1.74545C0.0632645 1.66448 0.100139 1.5909 0.146625 1.52893C0.193111 1.46696 0.248298 1.4178 0.309034 1.38426C0.369771 1.35072 0.434868 1.33346 0.500609 1.33346C0.56635 1.33346 0.631447 1.35072 0.692184 1.38426C0.75292 1.4178 0.808107 1.46696 0.854593 1.52893L1.00059 1.7249L2.14653 0.195825C2.19298 0.133751 2.24815 0.0845026 2.30889 0.0508997C2.36964 0.0172969 2.43475 0 2.50052 0C2.56628 0 2.6314 0.0172969 2.69214 0.0508997C2.75289 0.0845026 2.80806 0.133751 2.8545 0.195825ZM2.8545 5.52825C2.90106 5.59017 2.938 5.66372 2.96321 5.7447C2.98842 5.82568 3.00139 5.9125 3.00139 6.00017C3.00139 6.08784 2.98842 6.17466 2.96321 6.25564C2.938 6.33662 2.90106 6.41017 2.8545 6.47209L1.35457 8.47175C1.30813 8.53382 1.25295 8.58307 1.19221 8.61668C1.13147 8.65028 1.06635 8.66757 1.00059 8.66757C0.934822 8.66757 0.869704 8.65028 0.808962 8.61668C0.748219 8.58307 0.693046 8.53382 0.646602 8.47175L0.146625 7.8052C0.0527426 7.68004 0 7.51028 0 7.33328C0 7.15627 0.0527426 6.98652 0.146625 6.86136C0.240507 6.7362 0.367839 6.66588 0.500609 6.66588C0.633379 6.66588 0.760711 6.7362 0.854593 6.86136L1.00059 7.05732L2.14653 5.52825C2.19298 5.46618 2.24815 5.41693 2.30889 5.38333C2.36964 5.34972 2.43475 5.33243 2.50052 5.33243C2.56628 5.33243 2.6314 5.34972 2.69214 5.38333C2.75289 5.41693 2.80806 5.46618 2.8545 5.52825ZM2.8545 10.8607C2.90106 10.9226 2.938 10.9961 2.96321 11.0771C2.98842 11.1581 3.00139 11.2449 3.00139 11.3326C3.00139 11.4203 2.98842 11.5071 2.96321 11.5881C2.938 11.669 2.90106 11.7426 2.8545 11.8045L1.35457 13.8042C1.30813 13.8662 1.25295 13.9155 1.19221 13.9491C1.13147 13.9827 1.06635 14 1.00059 14C0.934822 14 0.869704 13.9827 0.808962 13.9491C0.748219 13.9155 0.693046 13.8662 0.646602 13.8042L0.146625 13.1376C0.0527426 13.0125 0 12.8427 0 12.6657C0 12.4887 0.0527426 12.3189 0.146625 12.1938C0.240507 12.0686 0.367839 11.9983 0.500609 11.9983C0.633379 11.9983 0.760711 12.0686 0.854593 12.1938L1.00059 12.3898L2.14653 10.8607C2.19298 10.7986 2.24815 10.7494 2.30889 10.7158C2.36964 10.6821 2.43475 10.6649 2.50052 10.6649C2.56628 10.6649 2.6314 10.6821 2.69214 10.7158C2.75289 10.7494 2.80806 10.7986 2.8545 10.8607Z" fill="#B0ADAD"/>
</svg>
