<svg width="16" height="16" viewBox="0 0 16 16" fill="none" xmlns="http://www.w3.org/2000/svg">
<path fill-rule="evenodd" clip-rule="evenodd" d="M10.7333 5.98368C10.7333 8.7548 8.53592 10.9674 5.86667 10.9674C3.19741 10.9674 1 8.7548 1 5.98368C1 3.21256 3.19741 1 5.86667 1C8.53592 1 10.7333 3.21256 10.7333 5.98368ZM9.49947 10.6824C8.50038 11.4871 7.23851 11.9674 5.86667 11.9674C2.6266 11.9674 0 9.28837 0 5.98368C0 2.67898 2.6266 0 5.86667 0C9.10674 0 11.7333 2.67898 11.7333 5.98368C11.7333 7.52438 11.1624 8.92908 10.2246 9.9897L15.0011 14.2884C15.2064 14.4731 15.2231 14.7892 15.0383 14.9945C14.8536 15.1997 14.5375 15.2164 14.3322 15.0317L9.49947 10.6824Z" fill="#727272"/>
</svg>
