<svg width="17" height="13" viewBox="0 0 17 13" fill="none" xmlns="http://www.w3.org/2000/svg">
<path d="M16.6204 10.376C16.5595 10.3202 16.4871 10.276 16.4075 10.2459C16.3279 10.2157 16.2426 10.2002 16.1564 10.2002C16.0702 10.2002 15.9849 10.2157 15.9053 10.2459C15.8257 10.276 15.7533 10.3202 15.6924 10.376L15.0626 10.9518V0.800195C15.0626 0.641065 14.9935 0.488453 14.8704 0.375931C14.7474 0.263409 14.5804 0.200195 14.4064 0.200195C14.2323 0.200195 14.0654 0.263409 13.9424 0.375931C13.8193 0.488453 13.7501 0.641065 13.7501 0.800195V10.9518L13.1204 10.376C12.9967 10.2661 12.8308 10.2052 12.6584 10.2063C12.486 10.2075 12.321 10.2706 12.199 10.382C12.0771 10.4935 12.0081 10.6444 12.0069 10.802C12.0056 10.9596 12.0723 11.1114 12.1924 11.2244L13.9424 12.8244C14.0033 12.8801 14.0757 12.9243 14.1553 12.9545C14.2349 12.9847 14.3202 13.0002 14.4064 13.0002C14.4926 13.0002 14.5779 12.9847 14.6575 12.9545C14.7371 12.9243 14.8095 12.8801 14.8704 12.8244L16.6204 11.2244C16.6813 11.1687 16.7297 11.1026 16.7627 11.0298C16.7957 10.957 16.8127 10.879 16.8127 10.8002C16.8127 10.7214 16.7957 10.6434 16.7627 10.5706C16.7297 10.4978 16.6813 10.4317 16.6204 10.376Z" fill="#333333"/>
<path d="M10.4688 4.60022H0.84375C0.669702 4.60022 0.502782 4.66343 0.379711 4.77596C0.25664 4.88848 0.1875 5.04109 0.1875 5.20022C0.1875 5.35935 0.25664 5.51196 0.379711 5.62448C0.502782 5.73701 0.669702 5.80022 0.84375 5.80022H10.4688C10.6428 5.80022 10.8097 5.73701 10.9328 5.62448C11.0559 5.51196 11.125 5.35935 11.125 5.20022C11.125 5.04109 11.0559 4.88848 10.9328 4.77596C10.8097 4.66343 10.6428 4.60022 10.4688 4.60022Z" fill="#333333"/>
<path d="M10.4688 1.80017H0.84375C0.669702 1.80017 0.502782 1.86338 0.379711 1.97591C0.25664 2.08843 0.1875 2.24104 0.1875 2.40017C0.1875 2.5593 0.25664 2.71191 0.379711 2.82444C0.502782 2.93696 0.669702 3.00017 0.84375 3.00017H10.4688C10.6428 3.00017 10.8097 2.93696 10.9328 2.82444C11.0559 2.71191 11.125 2.5593 11.125 2.40017C11.125 2.24104 11.0559 2.08843 10.9328 1.97591C10.8097 1.86338 10.6428 1.80017 10.4688 1.80017Z" fill="#333333"/>
<path d="M10.4688 7.40015H0.84375C0.669702 7.40015 0.502782 7.46336 0.379711 7.57588C0.25664 7.6884 0.1875 7.84102 0.1875 8.00015C0.1875 8.15928 0.25664 8.31189 0.379711 8.42441C0.502782 8.53693 0.669702 8.60015 0.84375 8.60015H10.4688C10.6428 8.60015 10.8097 8.53693 10.9328 8.42441C11.0559 8.31189 11.125 8.15928 11.125 8.00015C11.125 7.84102 11.0559 7.6884 10.9328 7.57588C10.8097 7.46336 10.6428 7.40015 10.4688 7.40015Z" fill="#333333"/>
</svg>
