<svg width="46" height="40" viewBox="0 0 46 40" fill="none" xmlns="http://www.w3.org/2000/svg">
<path fill-rule="evenodd" clip-rule="evenodd" d="M7.94604 12.8777C7.94604 12.4635 8.28183 12.1277 8.69604 12.1277H9.42749C10.6821 12.1277 11.7776 12.9769 12.0906 14.1918L12.7493 16.7495H25.0104C26.1591 16.7495 26.9962 17.8374 26.702 18.9477L25.2502 24.4266C24.9306 25.6325 23.8394 26.4722 22.5919 26.4722H15.8361C14.5815 26.4722 13.4859 25.6231 13.173 24.4081L11.4417 17.6865L10.638 14.566C10.4957 14.0137 9.99776 13.6277 9.42749 13.6277H8.69604C8.28183 13.6277 7.94604 13.292 7.94604 12.8777ZM13.1357 18.2495L14.6256 24.034C14.7678 24.5862 15.2658 24.9722 15.8361 24.9722H22.5919C23.159 24.9722 23.655 24.5905 23.8002 24.0424L25.2521 18.5635C25.2941 18.4049 25.1745 18.2495 25.0104 18.2495H13.1357ZM21.9947 29.0935C22.1388 29.0935 22.3295 28.9608 22.3295 28.7046C22.3295 28.4485 22.1388 28.3157 21.9947 28.3157C21.8507 28.3157 21.66 28.4485 21.66 28.7046C21.66 28.9608 21.8507 29.0935 21.9947 29.0935ZM21.9947 30.5935C23.0081 30.5935 23.8295 29.7478 23.8295 28.7046C23.8295 27.6614 23.0081 26.8157 21.9947 26.8157C20.9814 26.8157 20.16 27.6614 20.16 28.7046C20.16 29.7478 20.9814 30.5935 21.9947 30.5935ZM16.9611 28.7046C16.9611 28.9608 16.7704 29.0935 16.6263 29.0935C16.4822 29.0935 16.2915 28.9608 16.2915 28.7046C16.2915 28.4485 16.4822 28.3157 16.6263 28.3157C16.7704 28.3157 16.9611 28.4485 16.9611 28.7046ZM18.4611 28.7046C18.4611 29.7478 17.6396 30.5935 16.6263 30.5935C15.613 30.5935 14.7915 29.7478 14.7915 28.7046C14.7915 27.6614 15.613 26.8157 16.6263 26.8157C17.6396 26.8157 18.4611 27.6614 18.4611 28.7046Z" fill="black"/>
<rect x="22" y="6" width="18" height="18" rx="9" fill="#F46D69"/>
<path d="M33.8064 19.5H28.1424V18.624L30.3864 16.356C30.8184 15.924 31.1824 15.54 31.4784 15.204C31.7744 14.868 31.9984 14.54 32.1504 14.22C32.3024 13.892 32.3784 13.536 32.3784 13.152C32.3784 12.68 32.2384 12.324 31.9584 12.084C31.6784 11.836 31.3144 11.712 30.8664 11.712C30.4504 11.712 30.0824 11.784 29.7624 11.928C29.4504 12.072 29.1304 12.272 28.8024 12.528L28.2384 11.82C28.5744 11.54 28.9584 11.304 29.3904 11.112C29.8304 10.912 30.3224 10.812 30.8664 10.812C31.6664 10.812 32.2984 11.016 32.7624 11.424C33.2264 11.824 33.4584 12.38 33.4584 13.092C33.4584 13.54 33.3664 13.96 33.1824 14.352C32.9984 14.744 32.7424 15.132 32.4144 15.516C32.0864 15.892 31.7024 16.296 31.2624 16.728L29.4744 18.492V18.54H33.8064V19.5Z" fill="white"/>
</svg>
