<svg width="46" height="40" viewBox="0 0 46 40" fill="none" xmlns="http://www.w3.org/2000/svg">
<path d="M21.6839 21.8183L22.2143 22.3485L22.23 22.3328L22.2447 22.3162L21.6839 21.8183ZM14.9971 28.5L14.4667 29.0303L14.997 29.5607L15.5274 29.0303L14.9971 28.5ZM8.31613 21.8182L7.7553 22.3162C7.76514 22.3273 7.7753 22.3381 7.78577 22.3485L8.31613 21.8182ZM8.31613 15.427L7.78577 14.8967L7.78577 14.8967L8.31613 15.427ZM14.9971 16.4199L14.4667 16.9502C14.6074 17.0908 14.7981 17.1699 14.9971 17.1699C15.196 17.1699 15.3868 17.0908 15.5274 16.9502L14.9971 16.4199ZM15.003 28.5L14.4726 29.0303L15.003 29.5607L15.5333 29.0303L15.003 28.5ZM21.1538 21.2877L14.4699 27.9665L15.5301 29.0276L22.214 22.3488L21.1538 21.2877ZM14.4697 27.9667L14.4668 27.9696L15.5274 29.0303L15.5303 29.0274L14.4697 27.9667ZM15.5274 27.9697L8.8465 21.2879L7.78577 22.3485L14.4667 29.0303L15.5274 27.9697ZM8.8465 15.9573C9.49633 15.3074 10.4382 15.1188 11.5081 15.3349C12.5826 15.5519 13.6813 16.1647 14.4667 16.9502L15.5274 15.8896C14.5481 14.9101 13.1887 14.1441 11.8051 13.8646C10.4169 13.5843 8.90061 13.7817 7.78577 14.8967L8.8465 15.9573ZM7.78577 14.8967C5.71008 16.9727 5.77626 20.0873 7.7553 22.3162L8.87697 21.3203C7.36602 19.6186 7.39284 17.4111 8.8465 15.9573L7.78577 14.8967ZM7.78601 22.3488L14.4699 29.0276L15.5301 27.9665L8.84626 21.2877L7.78601 22.3488ZM14.4697 29.0273L14.4726 29.0303L15.5333 27.9697L15.5304 27.9667L14.4697 29.0273ZM15.5333 29.0303L22.2143 22.3485L21.1535 21.288L14.4726 27.9697L15.5333 29.0303ZM22.2143 14.8967C21.0992 13.7816 19.5814 13.5844 18.1922 13.8646C16.8073 14.1439 15.4463 14.9099 14.4667 15.8896L15.5274 16.9502C16.3125 16.165 17.4126 15.552 18.4888 15.335C19.5606 15.1188 20.5039 15.3076 21.1535 15.9573L22.2143 14.8967ZM21.1535 15.9573C22.6072 17.4111 22.6339 19.6186 21.1231 21.3203L22.2447 22.3162C24.2237 20.0873 24.29 16.9727 22.2143 14.8967L21.1535 15.9573Z" fill="black"/>
<rect x="21" y="6" width="18" height="18" rx="9" fill="#F46D69"/>
<path d="M32.4824 12.936C32.4824 13.512 32.3224 13.972 32.0024 14.316C31.6824 14.652 31.2504 14.876 30.7064 14.988V15.036C31.3944 15.116 31.9064 15.332 32.2424 15.684C32.5784 16.036 32.7464 16.496 32.7464 17.064C32.7464 17.56 32.6304 18.004 32.3984 18.396C32.1664 18.78 31.8064 19.08 31.3184 19.296C30.8384 19.512 30.2184 19.62 29.4584 19.62C29.0104 19.62 28.5944 19.584 28.2104 19.512C27.8264 19.448 27.4584 19.328 27.1064 19.152V18.168C27.4664 18.344 27.8544 18.484 28.2704 18.588C28.6864 18.684 29.0864 18.732 29.4704 18.732C30.2384 18.732 30.7904 18.584 31.1264 18.288C31.4704 17.984 31.6424 17.568 31.6424 17.04C31.6424 16.504 31.4304 16.12 31.0064 15.888C30.5904 15.648 30.0024 15.528 29.2424 15.528H28.4144V14.628H29.2544C29.9584 14.628 30.4904 14.48 30.8504 14.184C31.2184 13.888 31.4024 13.496 31.4024 13.008C31.4024 12.592 31.2624 12.272 30.9824 12.048C30.7024 11.816 30.3224 11.7 29.8424 11.7C29.3784 11.7 28.9824 11.768 28.6544 11.904C28.3264 12.04 28.0024 12.212 27.6824 12.42L27.1544 11.7C27.4584 11.46 27.8344 11.252 28.2824 11.076C28.7384 10.9 29.2544 10.812 29.8304 10.812C30.7264 10.812 31.3904 11.012 31.8224 11.412C32.2624 11.812 32.4824 12.32 32.4824 12.936Z" fill="white"/>
</svg>
